<?xml version="1.0" encoding="utf-8"?>
<!-- Generator: Adobe Illustrator 25.3.1, SVG Export Plug-In . SVG Version: 6.00 Build 0)  -->
<svg version="1.1" id="Layer_1" xmlns="http://www.w3.org/2000/svg" xmlns:xlink="http://www.w3.org/1999/xlink" x="0px" y="0px"
	 viewBox="0 0 83 83" style="enable-background:new 0 0 83 83;" xml:space="preserve">
<style type="text/css">
	.st0{display:none;}
	.st1{display:inline;}
	.st2{filter:url(#Adobe_OpacityMaskFilter);}
	.st3{fill-rule:evenodd;clip-rule:evenodd;fill:#FFFFFF;}
	.st4{mask:url(#yim2xinwob_1_);fill-rule:evenodd;clip-rule:evenodd;fill:#FF7F33;}
	.st5{opacity:0.339;}
	.st6{fill-rule:evenodd;clip-rule:evenodd;fill:#710C00;}
	.st7{opacity:0.58;fill-rule:evenodd;clip-rule:evenodd;fill:#FFFFFF;enable-background:new    ;}
	.st8{fill:#EAC85C;}
	.st9{clip-path:url(#SVGID_2_);fill:#FFFFFF;}
</style>
<g class="st0">
	<g class="st1">
		<g>
			<g>
				<g>
					<g transform="translate(-691.000000, -725.000000) translate(691.000000, 725.000000) translate(0.667152, 0.000000)">
						<defs>
							<filter id="Adobe_OpacityMaskFilter" filterUnits="userSpaceOnUse" x="0" y="0.2" width="81.9" height="82.5">
								<feColorMatrix  type="matrix" values="1 0 0 0 0  0 1 0 0 0  0 0 1 0 0  0 0 0 1 0"/>
							</filter>
						</defs>
						<mask maskUnits="userSpaceOnUse" x="0" y="0.2" width="81.9" height="82.5" id="yim2xinwob_1_">
							<g class="st2">
								<path id="_x36_km9qe8pha_1_" class="st3" d="M0,0.2h81.9v82.5H0V0.2z"/>
							</g>
						</mask>
						<path class="st4" d="M81.9,41.5c0,22.8-18.3,41.3-40.9,41.3C18.3,82.7,0,64.2,0,41.5S18.3,0.2,40.9,0.2S81.9,18.7,81.9,41.5"
							/>
					</g>
					<g class="st5">
						<path class="st6" d="M82.8,41.6c0-1.5-0.1-3-0.3-4.5c-2.3,20.6-19.8,36.7-41,36.7S2.8,57.7,0.5,37.1c-0.2,1.5-0.3,3-0.3,4.5
							c0,22.8,18.5,41.2,41.3,41.2S82.8,64.4,82.8,41.6"/>
					</g>
					<path class="st7" d="M70,41.4C70,57.2,57.2,70,41.4,70c-15.8,0-28.7-12.8-28.7-28.7c0-15.8,12.8-28.7,28.7-28.7
						C57.2,12.7,70,25.5,70,41.4"/>
				</g>
			</g>
		</g>
	</g>
</g>
<circle class="st8" cx="41.5" cy="41.5" r="41.3"/>
<g>
	<defs>
		<circle id="SVGID_1_" cx="41.5" cy="41.5" r="41.3"/>
	</defs>
	<clipPath id="SVGID_2_">
		<use xlink:href="#SVGID_1_"  style="overflow:visible;"/>
	</clipPath>
	<circle class="st9" cx="34.3" cy="28.6" r="41.3"/>
</g>
</svg>
