<svg xmlns="http://www.w3.org/2000/svg" width="51" height="50" viewBox="0 0 51 50">
    <g fill="none" fill-rule="evenodd">
        <g>
            <g>
                <path fill="#FF6E5E" d="M18.061 1.989L32.033 1.989 32.033 3.955 36.036 3.955 36.036 5.921 39.968 5.921 39.968 7.887 42.004 7.887 42.004 10.064 44.11 10.064 44.11 13.926 45.936 13.926 45.936 18.069 48.042 18.069 48.042 23.967 46.076 23.967 46.076 31.901 44.04 31.901 44.04 35.903 42.074 35.903 42.074 37.939 38.002 37.939 38.002 39.905 34.07 39.905 34.07 42.012 16.095 42.012 16.095 39.975 12.022 39.975 12.022 38.08 7.95 38.08 7.95 36.114 5.914 36.114 5.914 31.901 4.018 31.901 4.018 23.967 1.982 23.967 1.982 18.069 4.018 18.069 4.018 14.066 6.124 14.066 6.124 10.134 8.02 10.134 8.02 8.028 9.916 8.028 9.916 5.992 13.988 5.992 13.988 4.096 17.991 4.096z" transform="translate(-1363 -1038) translate(1363 1038)"/>
                <path fill="#1D1D1B" d="M18.084 0L18.084 1.989 32.033 1.989 32.033 3.955 36.036 3.955 36.036 1.826 32.033 1.826 32.033 0zM36.036 5.921L39.967 5.921 39.967 3.955 36.036 3.955zM46.092 13.926L46.092 9.939 44.075 9.939 44.075 7.864 42.051 7.864 42.051 5.781 39.968 5.781 39.968 7.864 41.992 7.864 41.992 10.064 44.075 10.064 44.075 13.926 45.936 13.926 45.936 18.069 48.042 18.069 48.042 13.926zM6.029 39.99L6.029 42.012 8.019 42.012 8.019 44.033 9.996 44.033 9.996 46.018 13.906 46.018 13.906 48.039 17.991 48.039 17.991 49.994 32.073 49.994 32.073 48.039 36.075 48.039 36.075 46.018 31.99 46.018 31.99 47.973 17.991 47.973 17.991 46.018 14.081 46.018 14.081 43.997 10.04 43.997 10.04 42.012 8.05 42.012 8.05 39.99zM13.936 1.989L13.936 3.86 9.986 3.86 9.986 5.966 7.887 5.966 7.887 8.073 5.921 8.073 5.921 9.984 4.018 9.984 4.018 13.906 1.927 13.906 1.927 18.064 0 18.064 0 31.994 1.982 31.994 1.982 36.051 4.008 36.051 4.008 39.99 6.029 39.99 6.029 35.981 4.088 35.981 4.088 31.893 1.982 31.893 1.982 18.064 4.033 18.064 4.033 14.143 6.124 14.143 6.124 10.179 8.028 10.179 8.028 8.073 9.994 8.073 9.994 5.966 13.98 5.966 13.98 4.096 18.084 4.096 18.084 1.989zM48.042 18.069L48.042 31.971 46.06 31.971 46.06 35.926 44.017 35.926 44.017 37.911 42.079 37.911 42.079 41.977 40.051 41.977 40.051 43.997 36.075 43.997 36.075 46.018 40.16 46.018 40.16 44.083 42.157 44.083 42.157 42.053 44.186 42.053 44.186 40.069 46.123 40.069 46.123 36.114 48.167 36.114 48.167 31.971 50.149 31.971 50.149 18.069z" transform="translate(-1363 -1038) translate(1363 1038)"/>
                <path fill="#D54232" d="M48.088 23.967v8.004h-2.036v3.979h-2.036v1.962h-1.931v4.065h-2.036v2.02h-3.974v2.034h-4.021v1.942H17.99V46.03h-3.909v-2.034H10.03v-1.985H8.035V39.99H6.03v-3.872h2.014v1.962h3.98v1.91h4.072v1.928h17.944v-2.003h3.974v-2.003h3.967V35.88h2.036V31.9h2.036v-7.933h2.036zM6.032 31.893V36H4.018v-4.107h2.014zm-2.014-7.91v7.91H1.982v-7.91h2.036z" transform="translate(-1363 -1038) translate(1363 1038)"/>
                <path fill="#FFF" fill-opacity=".6" d="M40.028 16.589L36.692 16.589 36.692 13.448 33.388 13.448 33.388 9.981 16.614 9.981 16.614 13.448 13.508 13.448 13.508 16.589 10.028 16.589 10.028 33.176 13.508 33.176 13.508 36.764 16.614 36.764 16.614 39.981 33.388 39.981 33.388 36.764 36.692 36.764 36.692 33.176 40.028 33.176z" transform="translate(-1363 -1038) translate(1363 1038)"/>
            </g>
        </g>
    </g>
</svg>
