<svg xmlns="http://www.w3.org/2000/svg" xmlns:xlink="http://www.w3.org/1999/xlink" width="83" height="83" viewBox="0 0 83 83">
    <defs>
        <path id="tigg7gn5sa" d="M0 0.18L81.882 0.18 81.882 82.727 0 82.727z"/>
    </defs>
    <g fill="none" fill-rule="evenodd">
        <g>
            <g>
                <g>
                    <g>
                        <g transform="translate(-1143.000000, -725.000000) translate(691.000000, 725.000000) translate(452.000000, 0.000000) translate(0.667152, 0.000000)">
                            <mask id="efk2z6yjeb" fill="#fff">
                                <use xlink:href="#tigg7gn5sa"/>
                            </mask>
                            <path fill="#F05543" d="M81.882 41.454c0 22.795-18.33 41.273-40.94 41.273C18.33 82.727 0 64.249 0 41.454S18.33.18 40.941.18c22.611 0 40.941 18.479 40.941 41.274" mask="url(#efk2z6yjeb)"/>
                        </g>
                        <g fill="#710C00" opacity=".339">
                            <path d="M23.221-18.013c-1.535 0-3.049.09-4.54.255 20.63 2.264 36.684 19.76 36.684 41.018S39.31 62.014 18.68 64.28c1.492.163 3.006.254 4.541.254 22.769 0 41.226-18.478 41.226-41.273S45.99-18.013 23.22-18.013" transform="translate(-1143.000000, -725.000000) translate(691.000000, 725.000000) translate(452.000000, 0.000000) translate(0.000000, 36.693333) translate(41.563588, 23.260087) rotate(-270.000000) translate(-41.563588, -23.260087)"/>
                        </g>
                        <path fill="#FFF" d="M70.03 41.363c0 15.833-12.833 28.667-28.667 28.667-15.833 0-28.666-12.834-28.666-28.667 0-15.832 12.833-28.666 28.666-28.666 15.834 0 28.667 12.834 28.667 28.666" opacity=".497" transform="translate(-1143.000000, -725.000000) translate(691.000000, 725.000000) translate(452.000000, 0.000000)"/>
                    </g>
                </g>
            </g>
        </g>
    </g>
</svg>
