<svg xmlns="http://www.w3.org/2000/svg" xmlns:xlink="http://www.w3.org/1999/xlink" width="32" height="32" viewBox="0 0 32 32">
    <defs>
        <path id="7hypk9wk3a" d="M0 0.069L31.42 0.069 31.42 31.744 0 31.744z"/>
    </defs>
    <g fill="none" fill-rule="evenodd">
        <g>
            <g>
                <g>
                    <g>
                        <g>
                            <g transform="translate(-687.000000, -334.000000) translate(668.000000, 277.000000) translate(19.000000, 57.000000) translate(0.256000, 0.000000)">
                                <mask id="srwnumc1eb" fill="#fff">
                                    <use xlink:href="#7hypk9wk3a"/>
                                </mask>
                                <path fill="#FF7F33" d="M31.42 15.907c0 8.747-7.034 15.837-15.71 15.837C7.034 31.744 0 24.654 0 15.907S7.034.069 15.71.069c8.676 0 15.71 7.09 15.71 15.838" mask="url(#srwnumc1eb)"/>
                            </g>
                            <g fill="#710C00" opacity=".339">
                                <path d="M8.91-6.912c-.589 0-1.17.035-1.742.098 7.916.868 14.077 7.582 14.077 15.74 0 8.156-6.16 14.87-14.077 15.74.572.062 1.153.097 1.743.097 8.736 0 15.819-7.09 15.819-15.837 0-8.748-7.083-15.838-15.82-15.838" transform="translate(-687.000000, -334.000000) translate(668.000000, 277.000000) translate(19.000000, 57.000000) translate(0.000000, 14.080000) translate(15.948819, 8.925382) rotate(-270.000000) translate(-15.948819, -8.925382)"/>
                            </g>
                            <path fill="#FFF" d="M26.872 15.872c0 6.075-4.924 11-11 11s-11-4.925-11-11 4.924-11 11-11 11 4.925 11 11" opacity=".58" transform="translate(-687.000000, -334.000000) translate(668.000000, 277.000000) translate(19.000000, 57.000000)"/>
                        </g>
                    </g>
                </g>
            </g>
        </g>
    </g>
</svg>
