<svg xmlns="http://www.w3.org/2000/svg" xmlns:xlink="http://www.w3.org/1999/xlink" width="110" height="80" viewBox="0 0 110 80">
    <defs>
        <path id="prt25pp7ha" d="M26.536.209c14.592 0 26.422 11.89 26.422 26.556 0 14.667-11.83 26.556-26.422 26.556-14.591 0-26.421-11.89-26.421-26.556"/>
        <path id="fhwojtalkb" d="M18.55.293c10.155 0 18.387 8.273 18.387 18.48S28.705 37.255 18.55 37.255C8.395 37.254.163 28.98.163 18.774"/>
        <path id="mdyvi6rtte" d="M30.016 1.057l4.581 4.223c1.182 1.089 1.258 2.93.17 4.113L9.627 36.713c-1.088 1.182-2.927 1.258-4.109.169L.938 32.658c-1.182-1.09-1.257-2.93-.169-4.113l25.138-27.32"/>
        <linearGradient id="eo5zrvkaec" x1="127.141%" x2="-38.718%" y1="112.743%" y2="-22.161%">
            <stop offset="0%" stop-color="#FFA642"/>
            <stop offset="100%" stop-color="#FFAC1B"/>
        </linearGradient>
    </defs>
    <g fill="none" fill-rule="evenodd">
        <g>
            <g>
                <g>
                    <path fill="#FEB628" d="M.115 26.765c0 14.667 11.83 26.556 26.421 26.556 14.592 0 26.422-11.89 26.422-26.556S41.128.209 26.536.209C11.945.209.115 12.099.115 26.765" transform="translate(-1312.000000, -122.000000) translate(1312.000000, 122.000000) translate(35.000000, 0.000000)"/>
                    <g transform="translate(-1312.000000, -122.000000) translate(1312.000000, 122.000000) translate(35.000000, 0.000000)"/>
                    <path fill="#C97C00" d="M6.662 26.765c0 11.032 8.899 19.976 19.874 19.976 10.976 0 19.874-8.944 19.874-19.976 0-11.032-8.898-19.976-19.874-19.976-10.975 0-19.874 8.944-19.874 19.976" transform="translate(-1312.000000, -122.000000) translate(1312.000000, 122.000000) translate(35.000000, 0.000000)"/>
                    <path fill="#E8980A" d="M8.15 28.26c0 10.206 8.232 18.48 18.386 18.48 10.155 0 18.387-8.274 18.387-18.48 0-10.207-8.232-18.48-18.387-18.48-10.154 0-18.387 8.273-18.387 18.48" transform="translate(-1312.000000, -122.000000) translate(1312.000000, 122.000000) translate(35.000000, 0.000000)"/>
                    <g transform="translate(-1312.000000, -122.000000) translate(1312.000000, 122.000000) translate(35.000000, 0.000000) translate(7.986301, 9.486486)">
                        <mask id="1g9nt7yjjd" fill="#fff">
                            <use xlink:href="#fhwojtalkb"/>
                        </mask>
                        <path fill="url(#eo5zrvkaec)" d="M.163 18.774c0 10.206 8.232 18.48 18.387 18.48 10.155 0 18.387-8.274 18.387-18.48 0-10.208-8.232-18.48-18.387-18.48C8.395.293.163 8.565.163 18.773" mask="url(#1g9nt7yjjd)"/>
                    </g>
                    <path fill="#E8980A" d="M26.536 5.716c.497 0 .898-.404.898-.902v-2.79c0-.5-.401-.903-.898-.903-.496 0-.897.403-.897.902v2.79c0 .5.401.903.897.903M41.344 11.882c.351.352.92.352 1.27 0l1.964-1.973c.35-.354.35-.925 0-1.277-.35-.353-.92-.353-1.27 0l-1.964 1.973c-.35.352-.35.924 0 1.277M47.478 26.765c0 .5.402.903.898.903h2.777c.496 0 .898-.404.898-.903 0-.5-.402-.903-.898-.903h-2.777c-.496 0-.898.404-.898.903M41.344 41.649c-.35.352-.35.924 0 1.276l1.964 1.973c.35.354.92.354 1.27 0 .35-.351.35-.923 0-1.276l-1.963-1.973c-.35-.353-.92-.353-1.27 0M26.536 47.814c-.496 0-.897.404-.897.902v2.792c0 .497.401.902.897.902.497 0 .898-.405.898-.902v-2.792c0-.498-.401-.902-.898-.902M11.728 41.649c-.35-.353-.92-.353-1.27 0l-1.963 1.973c-.351.353-.351.925 0 1.276.35.354.919.354 1.27 0l1.963-1.973c.35-.352.35-.924 0-1.276M5.595 26.765c0-.5-.403-.903-.898-.903H1.919c-.495 0-.898.404-.898.903 0 .5.403.903.898.903h2.778c.495 0 .898-.404.898-.903M11.728 11.882c.35-.353.35-.925 0-1.277L9.765 8.632c-.351-.353-.92-.353-1.27 0-.351.352-.351.923 0 1.277l1.963 1.973c.35.352.92.352 1.27 0M34.387 7.251c.46.187.983-.035 1.17-.498l1.04-2.587c.186-.462-.036-.989-.496-1.175-.459-.187-.983.036-1.169.498l-1.041 2.588c-.186.462.036.988.496 1.174M45.815 18.547c.195.459.721.673 1.178.478l2.557-1.09c.456-.194.67-.724.476-1.183-.194-.46-.72-.674-1.178-.478l-2.556 1.09c-.457.194-.67.723-.477 1.183M45.95 34.656c-.185.463.037.988.497 1.175l2.574 1.047c.46.187.983-.037 1.17-.5.186-.461-.037-.987-.497-1.174l-2.574-1.047c-.46-.186-.983.036-1.17.499M34.713 46.143c-.457.195-.67.724-.476 1.183l1.084 2.57c.194.459.72.673 1.178.478.457-.194.67-.724.476-1.183l-1.084-2.57c-.194-.459-.721-.673-1.178-.478M18.686 46.279c-.46-.188-.983.036-1.17.498l-1.041 2.588c-.186.461.036.988.497 1.175.458.187.983-.037 1.169-.499l1.04-2.587c.187-.462-.036-.988-.495-1.175M7.257 34.984c-.194-.46-.72-.674-1.178-.479l-2.556 1.09c-.456.194-.67.724-.476 1.183.194.46.721.674 1.178.479l2.556-1.09c.457-.195.67-.724.476-1.183M7.122 18.874c.186-.462-.036-.988-.497-1.175l-2.574-1.046c-.46-.187-.983.036-1.168.499-.187.461.036.988.495 1.175l2.575 1.046c.459.186.983-.036 1.169-.499M18.36 7.388c.456-.195.67-.725.475-1.184l-1.084-2.57c-.193-.458-.72-.673-1.177-.478-.457.195-.67.724-.476 1.183l1.084 2.57c.194.459.721.673 1.178.479" transform="translate(-1312.000000, -122.000000) translate(1312.000000, 122.000000) translate(35.000000, 0.000000)"/>
                </g>
                <g transform="translate(-1312.000000, -122.000000) translate(1312.000000, 122.000000) translate(74.000000, 42.000000)">
                    <path fill="#E8980A" d="M5.52 36.881L.937 32.658c-1.182-1.089-1.257-2.93-.169-4.113l25.138-27.32c1.088-1.182 2.928-1.257 4.11-.168l4.58 4.223c1.181 1.09 1.258 2.93.17 4.113L9.627 36.713c-1.088 1.182-2.927 1.258-4.109.168"/>
                    <mask id="e0vvsqwzzf" fill="#fff">
                        <use xlink:href="#mdyvi6rtte"/>
                    </mask>
                    <path fill="#C97C00" d="M26.224 4.333l5.423 5c.326.3.834.279 1.135-.047.3-.327.278-.836-.048-1.136l-5.423-5c-.325-.3-.833-.28-1.134.047-.3.326-.28.835.047 1.136M21.699 9.25l5.423 5c.326.3.834.28 1.135-.047.3-.326.28-.835-.048-1.136l-5.422-5c-.326-.3-.834-.278-1.135.048-.3.326-.28.835.047 1.135M17.174 14.168l5.423 5c.326.3.834.28 1.135-.047.3-.327.28-.835-.047-1.136l-5.423-5c-.326-.3-.834-.28-1.135.047-.3.327-.28.835.047 1.136M12.649 19.085l5.423 5c.326.3.834.28 1.135-.046.3-.327.28-.836-.047-1.136l-5.423-5c-.326-.3-.834-.28-1.135.047-.3.326-.28.835.047 1.135M8.124 24.003l5.423 5c.326.3.834.28 1.135-.047.3-.327.28-.835-.047-1.136l-5.423-5c-.326-.3-.834-.28-1.135.048-.3.326-.28.834.047 1.135M3.599 28.92l5.423 5c.326.3.834.28 1.135-.047.3-.326.28-.835-.047-1.136l-5.423-4.999c-.326-.3-.834-.28-1.135.047-.3.327-.279.835.047 1.136" mask="url(#e0vvsqwzzf)"/>
                </g>
                <g>
                    <path fill="#E8980A" d="M.056 8.16l1.187-5.906C1.549.732 3.019-.252 4.526.057l34.827 7.142c1.507.31 2.48 1.795 2.175 3.318l-1.187 5.906c-.306 1.523-1.776 2.507-3.284 2.198L2.23 11.478C.724 11.168-.249 9.683.056 8.16" transform="translate(-1312.000000, -122.000000) translate(1312.000000, 122.000000) translate(0.000000, 54.000000)"/>
                    <path fill="#C97C00" d="M36.966 9.016l-1.405 6.992c-.084.42.184.83.6.915.417.086.823-.186.907-.606l1.405-6.992c.085-.42-.184-.83-.6-.915-.417-.086-.822.186-.907.606M30.697 7.731l-1.404 6.99c-.085.421.184.832.6.917.416.085.822-.187.907-.607l1.404-6.992c.085-.42-.185-.83-.6-.915-.416-.086-.823.187-.907.607M24.428 6.445l-1.405 6.99c-.084.421.185.832.601.917.417.085.822-.186.907-.607l1.404-6.991c.085-.42-.184-.83-.6-.916-.417-.085-.822.187-.907.607M18.16 5.16l-1.405 6.99c-.085.42.184.831.6.916.416.085.822-.186.907-.607l1.404-6.99c.085-.421-.184-.83-.6-.916-.416-.086-.822.186-.907.606M11.89 3.874l-1.404 6.99c-.085.42.184.831.6.916.417.086.822-.186.907-.607l1.405-6.99c.084-.42-.185-.83-.6-.916-.417-.086-.823.186-.907.607M5.622 2.588L4.217 9.579c-.084.42.185.831.6.916.417.085.823-.187.907-.608l1.405-6.99c.084-.42-.185-.83-.601-.916-.416-.086-.822.186-.906.607" transform="translate(-1312.000000, -122.000000) translate(1312.000000, 122.000000) translate(0.000000, 54.000000)"/>
                </g>
            </g>
        </g>
    </g>
</svg>
