<svg xmlns="http://www.w3.org/2000/svg" xmlns:xlink="http://www.w3.org/1999/xlink" width="767" height="159"><defs><path id="a" d="M.24.12h.119v.12H.24z"/><path id="b" d="M.915.459h.457v.459H.915z"/><path id="c" d="M.915.459h.457v.459H.915z"/><path id="d" d="M.915.459h.457v.459H.915z"/><path id="e" d="M.24.12h.119v.12H.24z"/><path id="f" d="M.524.263h.262v.262H.524z"/><path id="g" d="M1.047.525h.524v.526h-.524z"/><path id="h" d="M1.047.525h.524v.526h-.524z"/><path id="i" d="M1.047.525h.524v.526h-.524z"/><path id="j" d="M.524.263h.262v.262H.524z"/><path id="k" d="M0 .511h63.311v61.918H0z"/><path id="m" d="M.937.144h58.657v56.868H.937z"/></defs><g fill="none" fill-rule="evenodd"><path fill="#000" d="M11.76 125.055v5.816h14.492v2.908h8.696v2.908h2.901v-5.816h-8.698v-2.908H14.658v-2.908H11.76zm37.683 8.724v2.908h2.897v-2.908h-2.898zm2.898-8.724v2.908h-5.797v5.816h2.899v-2.908h5.797v-5.816h-2.899zm-43.48-2.908v2.908h2.899v-2.908H8.861zm46.379 0v2.908h2.898v-2.908H55.24zm-49.279-2.885v2.908H8.86v-2.908H5.961zm52.177 2.885h2.899v-8.719h-2.899v8.719zm-55.075-8.696v5.81h2.898v-5.81H3.063zm17.392-.023v2.908h5.797v-2.908h-5.797zm-17.392-2.89v2.908h2.898v-2.908H3.063zm11.595-.023v2.908h5.797v-2.908h-5.797zm11.594-17.451v8.724h-2.898v11.635h8.695v-8.727h-2.898V93.064h-2.899zm26.09 5.816v2.908h2.898v2.908h2.898v8.727h2.899v-11.635h-2.899V98.88h-5.797zM.164 93.08v17.458h2.899V93.079H.164zm26.088 11.616h2.899v5.819h-2.899v-5.82zM8.862 93.064v14.54h5.796v-2.908H11.76V93.064H8.861zm23.187 8.724v2.908h2.899v-2.908h-2.899zm2.899-2.908v2.908h2.901V98.88h-2.901zm2.901-2.908v2.908h14.492v-2.908H37.849zM.164 87.248v5.816h2.899v-5.816H.164zM11.76 84.34v8.724h2.898V84.34H11.76zm-8.697-2.908v5.816h2.898v-5.816H3.063zm11.595 0v2.908h2.899v-2.908h-2.899zm-8.697-2.91v2.91H8.86v-2.91H5.961zm11.596 0v2.91h2.898v-2.91h-2.898zm-8.696-2.909v2.908h5.797v-2.908H8.861zm5.797-2.908v2.908h2.899v-2.908h-2.899z"/><path fill="red" d="M29.15 113.428v8.719h2.9v2.908H20.455v-2.908h-5.797v-2.908H11.76v-5.81H8.861v8.718h2.899v2.908h2.898v2.908H32.05v2.908h11.597v-2.908h2.898v-2.908h5.797v-2.908h2.898v-8.719H29.15zm43.484 14.535v2.908h2.898v-2.908h-2.898zm0-14.535v11.627h2.898v-11.627h-2.898zm-66.673.023v5.81H8.86v-5.81H5.961zm-2.898-8.732v5.819h2.898v2.908H8.86v-5.816H5.961v-2.911H3.063zm34.786-2.931v2.908h-2.901v8.727H55.24v-5.82h-2.899v-2.907h-8.695v-2.908h-5.797zm60.874-78.521v2.908h-2.901v5.816h-5.797v-2.908h2.898v-2.908h-5.797v2.908h-2.898v5.816h2.898v2.908h-2.898V63.98h-2.899v2.908h-2.898v2.908h-2.899v2.908H63.935v-2.908h-2.898V66.89h-2.899v-5.816H55.24v-5.816h-2.899V52.35h-2.898v-2.91h-2.899v-5.816h-2.898V34.9h-5.797v-2.91h-5.8v5.816h-2.898v2.908h5.797v2.908h2.901v2.907h2.898v5.82h2.899v2.907h5.797v2.908h2.897v5.816h2.9v20.36h-5.797v2.907h-8.696v2.908h-8.698v2.908h-2.898v11.632h2.898v-2.908h2.899V98.88h2.901v-2.908h14.492v2.908h5.797v2.908h2.899v5.816h5.8V95.972h2.898v8.724h2.899v8.727h5.796v-2.908h-2.899v-5.82h2.899v-2.907h-2.899v-5.816h2.899V84.34h2.898V69.797h2.899V66.89h2.898V43.623h2.899v-5.816h2.898v-2.908h5.8v2.908h2.898v-2.908h8.696V31.99h-8.696v-5.816h2.9v-2.908h-5.797zm-72.47 81.429v5.819h2.898v-5.82h-2.899zM3.063 93.079v11.635h2.898V93.08H3.063zm2.898-11.647v5.816H3.063v5.816H8.86V81.432H5.961zm2.9-2.91v5.818h2.899v-2.908h2.898v-2.91H8.861zm5.797-2.909v2.908h2.899v-2.908h-2.899zm14.493-46.53v2.908h2.898v-2.908h-2.898zm81.166 0v2.908h2.898v-2.908h-2.898zm-5.797-8.724v2.908h2.898v-2.908h-2.898zm2.898-2.911v2.91h2.899v-2.91h-2.899zm2.899-2.908v2.908h2.898V14.54h-2.898z"/><path fill="#FF6E6E" d="M11.76 113.423H8.861v-2.908h2.899zm0-2.908H8.861v-2.911h2.899zm0-17.451H8.861v-2.908h2.899zm0-2.908H8.861v-2.908h2.899zm0-2.908H8.861V84.34h2.899z"/><path fill="red" d="M8.86 107.622H5.961v-2.908H8.86z"/><path fill="#FF6E6E" d="M8.86 104.714H5.961v-2.908H8.86zm0-2.908H5.961v-2.908H8.86zm0-2.908H5.961V95.99H8.86zm0-2.908H5.961v-2.911H8.86zm0 11.64H5.961v-2.911H8.86z"/><path fill="red" d="M5.961 107.622H3.063v-2.908h2.898z"/><path fill="#000" d="M29.15 40.715v-2.908H8.861v2.908h20.29zm-17.39-2.908H8.861v-2.908h2.899z"/><path fill="#FF6E6E" d="M14.658 119.239H11.76v-2.908h2.898zm0-5.816H11.76v-2.908h2.898zm0-2.908H11.76v-2.911h2.898zm0-26.175H11.76v-2.908h2.898z"/><path fill="#000" d="M14.658 43.623H11.76v-2.908h2.898z"/><path fill="#B3B3B3" d="M14.658 37.807H11.76v-2.908h2.898z"/><path fill="#000" d="M14.658 34.899H11.76v-2.908h2.898zm0-2.908H11.76v-2.908h2.898z"/><path fill="#FF6E6E" d="M17.557 122.147h-2.899v-2.908h2.899zm0-2.908h-2.899v-2.908h2.899zm0-37.807h-2.899v-2.911h2.899z"/><path fill="#000" d="M17.557 46.53h-2.899v-2.907h2.899z"/><path fill="#B3B3B3" d="M17.557 43.623h-2.899v-2.908h2.899zm0-5.816h-2.899v-2.908h2.899zm0-2.908h-2.899v-2.908h2.899z"/><path fill="#000" d="M17.557 31.991h-2.899v-2.908h2.899zm0-2.908h-2.899v-2.908h2.899zm0-2.908h-2.899v-2.908h2.899zm0-2.908h-2.899v-2.908h2.899zm52.178 46.53v2.908h2.899v-2.908h-2.899zm-5.8-2.908v2.908h5.8V66.89h-5.8zm8.699 0v2.908h2.898V66.89h-2.898zm-11.597-5.816v5.816h2.898v-5.816h-2.898zm14.495 2.908v2.908h2.899v-2.908h-2.899zm8.696-26.174h-2.899v23.266h-2.898v2.908h5.797V37.807zm-26.09 17.45v2.908h2.899v-2.908h-2.899zm-2.898-2.908v2.908h2.898V52.35H55.24zm-2.899-5.819v5.82h2.899v-5.82h-2.899zm-2.898-8.723v8.723h2.897v-8.723h-2.898zm-2.899-5.816v5.816h2.899V31.99h-2.899zm-8.695-2.908v2.908h8.695v-2.908h-8.695zm-5.8-2.908v2.908h5.8v-2.908h-5.8zm-5.797-2.908v2.908h5.797v-2.908h-5.797zm-8.695-2.908v2.908h5.797v-2.908h-5.797zm-2.899-2.911v2.91h2.899v-2.91h-2.899z"/><path fill="#FF6E6E" d="M20.455 122.147h-2.898v-2.908h2.898zm0-2.908h-2.898v-2.908h2.898z"/><path fill="#B3B3B3" d="M20.455 78.521h-2.898v-2.908h2.898z"/><path fill="#D3D0D8" d="M20.455 75.613h-2.898v-2.908h2.898z"/><path fill="#000" d="M20.455 72.705h-2.898v-2.908h2.898zm0-26.175h-2.898v-2.907h2.898z"/><path fill="#B3B3B3" d="M20.455 43.623h-2.898v-2.908h2.898zm0-5.816h-2.898v-2.908h2.898z"/><path fill="#000" d="M20.455 34.899h-2.898v-2.908h2.898z"/><path fill="#B3B3B3" d="M20.455 31.991h-2.898v-2.908h2.898zm0-2.908h-2.898v-2.908h2.898z"/><path fill="#D3D0D8" d="M20.455 26.175h-2.898v-2.908h2.898z"/><path fill="#FF6E6E" d="M23.354 125.055h-2.899v-2.908h2.899zm0-2.908h-2.899v-2.908h2.899z"/><path fill="#B80000" d="M23.354 119.239h-2.899v-2.908h2.899z"/><path fill="#000" d="M23.354 78.521h-2.899v-2.908h2.899z"/><path fill="#D3D0D8" d="M23.354 75.613h-2.899v-2.908h2.899z"/><path fill="#000" d="M23.354 72.705h-2.899v-2.908h2.899zm0-23.267h-2.899V46.53h2.899z"/><path fill="#B3B3B3" d="M23.354 46.53h-2.899v-2.907h2.899z"/><path fill="#D3D0D8" d="M23.354 43.623h-2.899v-2.908h2.899zm0-5.816h-2.899v-2.908h2.899z"/><path fill="#000" d="M23.354 34.899h-2.899v-2.908h2.899z"/><path fill="#D3D0D8" d="M23.354 31.991h-2.899v-2.908h2.899zm0-2.908h-2.899v-2.908h2.899z"/><path fill="#B80000" d="M49.443 58.165v2.908h2.897v-2.908h-2.898zm-2.899-2.908v2.908h2.899v-2.908h-2.899zm-5.797-2.908v2.908h2.899V52.35h-2.899zm-2.898-5.819v2.908h2.898V46.53h-2.898zm-2.901-2.907v2.907h2.901v-2.907h-2.901zm-2.899-2.908v2.908h2.899v-2.908h-2.899zm-2.898-8.724v5.816h2.898V31.99h-2.898zm-2.899-2.908v2.908h2.899v-2.908h-2.899zm-2.898-2.908v2.908h2.898v-2.908h-2.898zm-2.899-2.908v2.908h2.899v-2.908h-2.899z"/><path fill="#FF6E6E" d="M26.252 125.055h-2.898v-2.908h2.898zm0-2.908h-2.898v-2.908h2.898z"/><path fill="#B80000" d="M26.252 119.239h-2.898v-2.908h2.898z"/><path fill="#000" d="M26.252 75.613h-2.898v-2.908h2.898z"/><path fill="#D3D0D8" d="M26.252 72.705h-2.898v-2.908h2.898z"/><path fill="#000" d="M26.252 69.797h-2.898v-2.908h2.898zm0-14.54h-2.898v-2.908h2.898zm0-2.908h-2.898v-2.911h2.898z"/><path fill="#B3B3B3" d="M26.252 49.438h-2.898V46.53h2.898zm0-2.908h-2.898v-2.907h2.898z"/><path fill="#D3D0D8" d="M26.252 43.623h-2.898v-2.908h2.898zm0-5.816h-2.898v-2.908h2.898z"/><path fill="#000" d="M26.252 34.899h-2.898v-2.908h2.898z"/><path fill="#D3D0D8" d="M26.252 31.991h-2.898v-2.908h2.898z"/><path fill="#FF6E6E" d="M69.735 72.705v-2.908h-5.8v2.908h5.8zm-8.698-5.816v2.908h2.898V66.89h-2.898zM55.24 55.257v5.816h2.898v5.816h2.899v-8.724h-2.899v-2.908H55.24zm-2.899-2.908v2.908h2.899V52.35h-2.899zm-2.898-2.91v2.91h2.897v-2.91h-2.898zM37.849 31.991v2.908h5.797v8.724h2.898v5.815h2.899V37.807h-2.899V31.99h-8.695zm-5.8-2.908v2.908h5.8v-2.908h-5.8zm-5.797-2.908v2.908h5.797v-2.908h-5.797zm-2.898-2.908v2.908h2.898v-2.908h-2.898zm5.797 101.788h-2.899v-2.908h2.899z"/><path fill="#B80000" d="M29.151 122.147h-2.899v-2.908h2.899zm0-2.908h-2.899v-2.908h2.899z"/><path fill="#000" d="M29.151 72.705h-2.899v-2.908h2.899zm0-2.908h-2.899v-2.908h2.899zm-2.899-8.724v2.908h2.899v-2.908h-2.899zm5.797-5.816v2.908h-2.898v2.908h5.797v-5.816h-2.899zm2.899-5.819v5.82h2.901v-2.909h2.898v-2.91h-5.8zm-5.797 11.635h-2.899v-2.908h2.899zm0-2.908h-2.899v-2.908h2.899z"/><path fill="#B3B3B3" d="M29.151 55.257h-2.899v-2.908h2.899z"/><path fill="#D3D0D8" d="M29.151 52.349h-2.899v-2.911h2.899z"/><path fill="#000" d="M29.151 49.438h-2.899V46.53h2.899z"/><path fill="#D3D0D8" d="M29.151 46.53h-2.899v-2.907h2.899zm0-2.907h-2.899v-2.908h2.899zm0-5.816h-2.899v-2.908h2.899zm0-2.908h-2.899v-2.908h2.899z"/><path fill="#B80000" d="M32.049 130.871h-2.898v-2.908h2.898zm0-5.816h-2.898v-2.908h2.898z"/><path fill="#000" d="M32.049 93.064h-2.898v-2.908h2.898z"/><path fill="#B3B3B3" d="M32.049 66.889h-2.898v-2.908h2.898zm0-2.908h-2.898v-2.908h2.898zm0-5.816h-2.898v-2.908h2.898zm0-2.908h-2.898v-2.908h2.898zm0-2.908h-2.898v-2.911h2.898z"/><path fill="#D3D0D8" d="M32.049 49.438h-2.898V46.53h2.898z"/><path fill="#000" d="M32.049 46.53h-2.898v-2.907h2.898z"/><path fill="#D3D0D8" d="M32.049 43.623h-2.898v-2.908h2.898z"/><path fill="#FF6E6E" d="M34.948 113.423h-2.899v-2.908h2.899zm0-2.908h-2.899v-2.911h2.899zm0-2.911h-2.899v-2.908h2.899z"/><path fill="#000" d="M34.948 90.156h-2.899v-2.908h2.899zm0-23.267h-2.899v-2.908h2.899z"/><path fill="#B3B3B3" d="M34.948 63.981h-2.899v-2.908h2.899z"/><path fill="#D3D0D8" d="M34.948 55.257h-2.899v-2.908h2.899zm0-2.908h-2.899v-2.911h2.899zm0-2.911h-2.899V46.53h2.899zm0-2.908h-2.899v-2.907h2.899z"/><path fill="#FF6E6E" d="M37.849 104.696h-2.901v-2.908h2.901z"/><path fill="#000" d="M37.849 90.156h-2.901v-2.908h2.901zm0-20.359h-2.901v-2.908h2.901z"/><path fill="#B3B3B3" d="M37.849 66.889h-2.901v-2.908h2.901zm0-2.908h-2.901v-2.908h2.901z"/><path fill="#D3D0D8" d="M37.849 61.073h-2.901v-2.908h2.901zm0-2.908h-2.901v-2.908h2.901zm0-8.727h-2.901V46.53h2.901z"/><path fill="#B3B3B3" d="M40.747 136.687h-2.898v-2.908h2.898z"/><path fill="#B80000" d="M40.747 133.779h-2.898v-2.908h2.898z"/><path fill="#FF6E6E" d="M40.747 101.788h-2.898V98.88h2.898z"/><path fill="#000" d="M40.747 90.156h-2.898v-2.908h2.898zm0-17.451h-2.898v-2.908h2.898z"/><path fill="#B3B3B3" d="M40.747 69.797h-2.898v-2.908h2.898zm0-2.908h-2.898v-2.908h2.898z"/><path fill="#D3D0D8" d="M40.747 63.981h-2.898v-2.908h2.898z"/><path fill="#B3B3B3" d="M40.747 61.073h-2.898v-2.908h2.898z"/><path fill="#D3D0D8" d="M40.747 58.165h-2.898v-2.908h2.898zm0-2.908h-2.898v-2.908h2.898z"/><path fill="#000" d="M43.646 139.595h-2.899v-2.908h2.899z"/><path fill="#D3D0D8" d="M43.646 136.687h-2.899v-2.908h2.899z"/><path fill="#B80000" d="M43.646 133.779h-2.899v-2.908h2.899z"/><path fill="#FF6E6E" d="M43.646 101.788h-2.899V98.88h2.899z"/><path fill="#000" d="M43.646 87.248h-2.899V84.34h2.899zm0-11.635h-2.899v-2.908h2.899z"/><path fill="#B3B3B3" d="M43.646 72.705h-2.899v-2.908h2.899z"/><path fill="#000" d="M43.646 69.797h-2.899v-2.908h2.899z"/><path fill="#D3D0D8" d="M43.646 66.889h-2.899v-2.908h2.899z"/><path fill="#B3B3B3" d="M43.646 63.981h-2.899v-2.908h2.899z"/><path fill="#D3D0D8" d="M43.646 61.073h-2.899v-2.908h2.899zm0-2.908h-2.899v-2.908h2.899z"/><path fill="#000" d="M46.544 139.595h-2.898v-2.908h2.898z"/><path fill="#B80000" d="M46.544 133.779h-2.898v-2.908h2.898z"/><path fill="#FF6E6E" d="M46.544 130.871h-2.898v-2.908h2.898zm0-26.175h-2.898v-2.908h2.898zm0-2.908h-2.898V98.88h2.898z"/><path fill="#000" d="M46.544 87.248h-2.898V84.34h2.898zm0-2.908h-2.898v-2.908h2.898zm0-2.908h-2.898v-2.911h2.898zm0-2.911h-2.898v-2.908h2.898z"/><path fill="#B3B3B3" d="M46.544 75.613h-2.898v-2.908h2.898zm0-2.908h-2.898v-2.908h2.898z"/><path fill="#D3D0D8" d="M46.544 69.797h-2.898v-2.908h2.898z"/><path fill="#000" d="M46.544 66.889h-2.898v-2.908h2.898z"/><path fill="#D3D0D8" d="M46.544 63.981h-2.898v-2.908h2.898zm0-2.908h-2.898v-2.908h2.898zm0-2.908h-2.898v-2.908h2.898z"/><path fill="#B3B3B3" d="M49.443 136.687h-2.899v-2.908h2.899zm-2.899 0h-2.898v-2.908h2.898z"/><path fill="#FF6E6E" d="M49.443 127.963h-2.899v-2.908h2.899zm0-23.267h-2.899v-2.908h2.899zm0-2.908h-2.899V98.88h2.899z"/><path fill="#000" d="M49.443 87.248h-2.899V84.34h2.899z"/><path fill="#B3B3B3" d="M49.443 84.34h-2.899v-2.908h2.899zm0-2.908h-2.899v-2.911h2.899zm0-2.911h-2.899v-2.908h2.899zm0-2.908h-2.899v-2.908h2.899zm0-2.908h-2.899v-2.908h2.899z"/><path fill="#D3D0D8" d="M49.443 69.797h-2.899v-2.908h2.899zm0-2.908h-2.899v-2.908h2.899z"/><path fill="#000" d="M49.443 63.981h-2.899v-2.908h2.899z"/><path fill="#D3D0D8" d="M49.443 61.073h-2.899v-2.908h2.899z"/><path fill="#000" d="M52.341 139.595h-2.898v-2.908h2.898z"/><path fill="#FF6E6E" d="M52.341 127.963h-2.898v-2.908h2.898zm0-23.267h-2.898v-2.908h2.898zm0-2.908h-2.898V98.88h2.898z"/><path fill="#000" d="M52.341 84.34h-2.898v-2.908h2.898z"/><path fill="#B3B3B3" d="M52.341 81.432h-2.898v-2.911h2.898z"/><path fill="#D3D0D8" d="M52.341 78.521h-2.898v-2.908h2.898zm0-2.908h-2.898v-2.908h2.898zm0-2.908h-2.898v-2.908h2.898zm0-2.908h-2.898v-2.908h2.898zm0-2.908h-2.898v-2.908h2.898zm0-2.908h-2.898v-2.908h2.898z"/><path fill="#B80000" d="M52.341 49.438h-2.898V46.53h2.898z"/><path fill="#000" d="M55.24 139.595h-2.899v-2.908h2.899z"/><path fill="#FF6E6E" d="M55.24 125.055h-2.899v-2.908h2.899zm0-17.451h-2.899v-2.908h2.899zm0-2.908h-2.899v-2.908h2.899z"/><path fill="#000" d="M55.24 84.34h-2.899v-2.908h2.899zm0-2.908h-2.899v-2.911h2.899zm0-2.911h-2.899v-2.908h2.899zm0-2.908h-2.899v-2.908h2.899zm0-2.908h-2.899v-2.908h2.899zm0-2.908h-2.899v-2.908h2.899zm0-2.908h-2.899v-2.908h2.899z"/><path fill="#FF6E6E" d="M58.138 122.147H55.24v-2.908h2.898zm0-2.908H55.24v-2.908h2.898zm0-5.816H55.24v-2.908h2.898zm0-2.908H55.24v-2.911h2.898zm0-2.911H55.24v-2.908h2.898z"/><path fill="#000" d="M63.935 136.687h-2.898v-2.908h2.898zm0-17.448h-2.898v-2.908h2.898z"/><path fill="#B3B3B3" d="M63.935 113.423h-2.898v-2.908h2.898z"/><path fill="#B80000" d="M63.935 110.515h-2.898v-2.911h2.898z"/><path fill="#000" d="M66.837 136.687h-2.902v-2.908h2.902z"/><path fill="#000" d="M69.737 136.687h-2.902v-2.908h2.902z"/><path fill="#D3D0D8" d="M66.837 133.779h-2.902v-2.908h2.902z"/><path fill="#000" d="M66.837 119.239h-2.902v-2.908h2.902z"/><path fill="#B3B3B3" d="M66.837 113.423h-2.902v-2.908h2.902z"/><path fill="#B80000" d="M66.837 110.515h-2.902v-2.911h2.902z"/><path fill="#B3B3B3" d="M69.735 133.779h-2.898v-2.908h2.898z"/><path fill="#000" d="M69.735 119.239h-2.898v-2.908h2.898z"/><path fill="#B80000" d="M69.735 113.423h-2.898v-2.908h2.898zm0-2.908h-2.898v-2.911h2.898z"/><path fill="#000" d="M75.532 122.147v8.724h-2.898v2.908h5.796v-11.632h-2.899zm-5.797-8.719v17.443h2.899v-17.443h-2.899zm8.696 0v8.719h2.898v-8.719h-2.898zM66.837 95.972v11.632h2.898v5.819h2.899v-8.727h-2.899v-8.724h-2.898zm14.492 14.543v2.908h5.797v-2.908h-5.797zm5.797-2.911v2.91h2.899v-2.91h-2.899zm2.899-2.908v2.908h2.898v-2.908h-2.898zm-5.797-5.816v2.908h8.695v2.908h2.899V98.88H84.228zm-2.899-2.908v2.908h2.899v-2.908h-2.899zM95.822 84.34v2.908h-2.899v2.908h-5.797v2.908h8.696v5.816h2.901V87.248h2.897v2.908h2.9v-2.908h-2.899V84.34h-5.8zm23.19 5.816h-2.898v5.816h-5.797v2.908h8.695v-8.724zm-11.594 2.908v2.908h2.899v-2.908h-2.899zm-2.898-2.908v2.908h2.898v-2.908h-2.898zm-20.292-2.908v2.908h2.898v-2.908h-2.898zm28.987-5.816v8.724h2.899v-8.724h-2.899zm-2.898-2.91v2.91h2.898v-2.91h-2.898zm0-2.909v2.908h2.898v-2.908h-2.898z"/><path fill="#B3B3B3" d="M72.634 133.779h-2.899v-2.908h2.899zm0 2.944h-2.899v-2.908h2.899z"/><path fill="#000" d="M72.634 46.53h-2.899v-2.907h2.899zm0-11.631h-2.899v-2.908h2.899z"/><path fill="#B3B3B3" d="M75.532 136.687h-2.898v-2.908h2.898z"/><path fill="red" d="M75.532 127.963h-2.898v-2.908h2.898z"/><path fill="#B80000" d="M75.532 72.705h-2.898v-2.908h2.898z"/><path fill="#D3D0D8" d="M75.532 46.53h-2.898v-2.907h2.898z"/><path fill="#000" d="M75.532 43.623h-2.898v-2.908h2.898z"/><path fill="#D3D0D8" d="M75.532 34.899h-2.898v-2.908h2.898z"/><path fill="#000" d="M75.532 31.991h-2.898v-2.908h2.898z"/><path fill="#B3B3B3" d="M78.431 136.687h-2.899v-2.908h2.899z"/><path fill="#FF6E6E" d="M75.532 113.428v8.719h2.899v-8.719h-2.899zm5.797-26.18h2.899v-8.727h-2.899v5.82h-2.898v11.631h-2.899v5.816h2.899v2.908h-2.899v5.819h2.899v2.908h2.898V87.248zm0-17.45v8.723h2.899v-8.724h-2.899z"/><path fill="#B80000" d="M78.431 69.797h-2.899v-2.908h2.899z"/><path fill="#000" d="M78.431 46.53h-2.899v-2.907h2.899z"/><path fill="#D3D0D8" d="M78.431 43.623h-2.899v-2.908h2.899z"/><path fill="#000" d="M78.431 40.715h-2.899v-2.908h2.899z"/><path fill="#B3B3B3" d="M78.431 34.899h-2.899v-2.908h2.899z"/><path fill="#D3D0D8" d="M78.431 31.991h-2.899v-2.908h2.899z"/><path fill="#000" d="M78.431 29.083h-2.899v-2.908h2.899zm2.898 110.512h-2.898v-2.908h2.898z"/><path fill="#D3D0D8" d="M81.329 136.687h-2.898v-2.908h2.898z"/><path fill="#B3B3B3" d="M81.329 133.779h-2.898v-2.908h2.898z"/><path fill="#FF6E6E" d="M14.658 116.336H11.76v-2.908h2.898zm2.899 0h-2.899v-2.908h2.899zm2.898 0h-2.898v-2.908h2.898z"/><path fill="#B80000" d="M29.151 116.336h-2.899v-2.908h2.899z"/><path fill="#FF6E6E" d="M58.138 116.336H55.24v-2.908h2.898z"/><path fill="#D3D0D8" d="M63.935 116.336h-2.898v-2.908h2.898zm2.902 0h-2.902v-2.908h2.902zm2.898 0h-2.898v-2.908h2.898z"/><path fill="#B80000" d="M81.329 66.889h-2.898v-2.908h2.898z"/><path fill="#000" d="M81.329 43.623h-2.898v-2.908h2.898z"/><path fill="#D3D0D8" d="M81.329 40.715h-2.898v-2.908h2.898z"/><path fill="#000" d="M81.329 37.807h-2.898v-2.908h2.898z"/><path fill="#B3B3B3" d="M81.329 34.899h-2.898v-2.908h2.898z"/><path fill="#D3D0D8" d="M81.329 31.991h-2.898v-2.908h2.898z"/><path fill="#000" d="M81.329 29.083h-2.898v-2.908h2.898zm2.899 113.422h-2.899v-2.91h2.899z"/><path fill="#B3B3B3" d="M84.228 133.779h-2.899v-2.908h2.899z"/><path fill="#D3D0D8" d="M84.228 110.515h-2.899v-2.911h2.899z"/><path fill="#B3B3B3" d="M84.228 107.604h-2.899v-2.908h2.899zm0-2.908h-2.899v-2.908h2.899z"/><path fill="#D3D0D8" d="M84.228 101.788h-2.899V98.88h2.899z"/><path fill="#B3B3B3" d="M84.228 95.972h-2.899v-2.908h2.899zm0-2.908h-2.899v-2.908h2.899z"/><path fill="#D3D0D8" d="M84.228 90.156h-2.899v-2.908h2.899z"/><path fill="#B3B3B3" d="M84.228 37.807h-2.899v-2.908h2.899zm0-2.908h-2.899v-2.908h2.899zm0-2.908h-2.899v-2.908h2.899z"/><path fill="#D3D0D8" d="M84.228 29.083h-2.899v-2.908h2.899z"/><path fill="#000" d="M84.228 26.175h-2.899v-2.908h2.899zm2.898 110.512h-2.898v-2.908h2.898z"/><path fill="#000" d="M84.229 136.687h-2.898v-2.908h2.898z"/><path fill="#D3D0D8" d="M87.126 133.779h-2.898v-2.908h2.898zm0-23.264h-2.898v-2.911h2.898z"/><path fill="#B3B3B3" d="M87.126 107.604h-2.898v-2.908h2.898z"/><path fill="#D3D0D8" d="M87.126 104.696h-2.898v-2.908h2.898z"/><path fill="#B3B3B3" d="M87.126 98.88h-2.898v-2.908h2.898zm0-2.908h-2.898v-2.908h2.898z"/><path fill="#D3D0D8" d="M87.126 93.064h-2.898v-2.908h2.898z"/><path fill="#B3B3B3" d="M87.126 87.248h-2.898V84.34h2.898zm0-2.908h-2.898v-2.908h2.898zm0-2.908h-2.898v-2.911h2.898zm0-2.911h-2.898v-2.908h2.898z"/><path fill="#000" d="M87.126 75.613h-2.898v-2.908h2.898z"/><path fill="#B3B3B3" d="M87.126 72.705h-2.898v-2.908h2.898zm0-2.908h-2.898v-2.908h2.898z"/><path fill="#B80000" d="M87.126 37.807h-2.898v-2.908h2.898z"/><path fill="#D3D0D8" d="M87.126 29.083h-2.898v-2.908h2.898z"/><path fill="#000" d="M87.126 26.175h-2.898v-2.908h2.898zm2.899 110.512h-2.899v-2.908h2.899z"/><path fill="#D3D0D8" d="M90.025 107.604h-2.899v-2.908h2.899zm0-2.908h-2.899v-2.908h2.899z"/><path fill="#B3B3B3" d="M90.025 98.88h-2.899v-2.908h2.899z"/><path fill="#D3D0D8" d="M90.025 95.972h-2.899v-2.908h2.899z"/><path fill="#B3B3B3" d="M90.025 90.156h-2.899v-2.908h2.899zm0-2.908h-2.899V84.34h2.899z"/><path fill="#D3D0D8" d="M90.025 84.34h-2.899v-2.908h2.899zm0-2.908h-2.899v-2.911h2.899z"/><path fill="#000" d="M90.025 78.521h-2.899v-2.908h2.899z"/><path fill="#D3D0D8" d="M90.025 75.613h-2.899v-2.908h2.899z"/><path fill="#B3B3B3" d="M90.025 72.705h-2.899v-2.908h2.899zm0-2.908h-2.899v-2.908h2.899zm0-2.908h-2.899v-2.908h2.899z"/><path fill="#000" d="M90.025 63.981h-2.899v-2.908h2.899z"/><path fill="#B3B3B3" d="M90.025 61.073h-2.899v-2.908h2.899zm0-2.908h-2.899v-2.908h2.899zm0-2.908h-2.899v-2.908h2.899z"/><path fill="#000" d="M130.61 66.89v2.907h2.898V66.89h-2.899zm-2.9-8.725v5.816h2.9v-5.816h-2.9zm-34.787-2.908v2.908h5.8v-2.908h-5.8zm31.886 0v2.908h2.902v-2.908h-2.902zM90.025 46.53v2.908h-2.899v2.911h2.899v2.908h2.898V46.53h-2.898zm8.698 5.82v2.907h5.797V52.35h-5.797zm20.29 0v2.907h5.796V52.35h-5.797zm-11.595-2.912v2.911h11.594v-2.91h-11.594zm-14.495-8.723v5.815h2.899v-5.815h-2.899zm2.899-2.908v2.908h2.901v-2.908h-2.901z"/><path fill="#D3D0D8" d="M90.025 49.438h-2.899V46.53h2.899z"/><path fill="#B3B3B3" d="M90.025 46.53h-2.899v-2.907h2.899z"/><path fill="#000" d="M90.025 26.175h-2.899v-2.908h2.899z"/><path fill="#D3D0D8" d="M92.923 104.696h-2.898v-2.908h2.898z"/><path fill="#B3B3B3" d="M92.923 98.88h-2.898v-2.908h2.898z"/><path fill="#D3D0D8" d="M92.923 95.972h-2.898v-2.908h2.898zm0-5.816h-2.898v-2.908h2.898zm0-2.908h-2.898V84.34h2.898z"/><path fill="#000" d="M92.923 84.34h-2.898v-2.908h2.898zm0-2.908h-2.898v-2.911h2.898zm0-2.911h-2.898v-2.908h2.898zm0-2.908h-2.898v-2.908h2.898z"/><path fill="#D3D0D8" d="M92.923 72.705h-2.898v-2.908h2.898zm0-2.908h-2.898v-2.908h2.898z"/><path fill="#000" d="M92.923 66.889h-2.898v-2.908h2.898z"/><path fill="#B3B3B3" d="M92.923 63.981h-2.898v-2.908h2.898z"/><path fill="#000" d="M92.923 61.073h-2.898v-2.908h2.898z"/><path fill="#D3D0D8" d="M92.923 58.165h-2.898v-2.908h2.898zm0-11.635h-2.898v-2.907h2.898zm0-2.907h-2.898v-2.908h2.898z"/><path fill="#B3B3B3" d="M92.923 40.715h-2.898v-2.908h2.898z"/><path fill="#000" d="M92.923 31.991h-2.898v-2.908h2.898z"/><path fill="#FF6E6E" d="M92.923 26.175h-2.898v-2.908h2.898z"/><path fill="#D3D0D8" d="M95.822 98.88h-2.899v-2.908h2.899zm0-2.908h-2.899v-2.908h2.899zm0-8.724h-2.899V84.34h2.899z"/><path fill="#FF6E6E" d="M95.822 84.34h-2.899v-2.908h2.899z"/><path fill="#B80000" d="M95.822 81.432h-2.899v-2.911h2.899z"/><path fill="#D3D0D8" d="M95.822 78.521h-2.899v-2.908h2.899z"/><path fill="#B3B3B3" d="M95.822 75.613h-2.899v-2.908h2.899z"/><path fill="#000" d="M95.822 72.705h-2.899v-2.908h2.899zm0-2.908h-2.899v-2.908h2.899z"/><path fill="#D3D0D8" d="M95.822 66.889h-2.899v-2.908h2.899z"/><path fill="#B3B3B3" d="M95.822 63.981h-2.899v-2.908h2.899z"/><path fill="#FF6E6E" d="M95.822 61.073h-2.899v-2.908h2.899z"/><path fill="#D3D0D8" d="M95.822 40.715h-2.899v-2.908h2.899z"/><path fill="#B3B3B3" d="M95.822 37.807h-2.899v-2.908h2.899z"/><path fill="#FFDD61" d="M95.822 31.991h-2.899v-2.908h2.899z"/><path fill="#000" d="M95.822 29.083h-2.899v-2.908h2.899z"/><path fill="#FF6E6E" d="M95.822 26.175h-2.899v-2.908h2.899z"/><path fill="red" d="M98.723 84.34h-2.901v-2.908h2.901z"/><path fill="#FF6E6E" d="M98.723 81.432h-2.901v-2.911h2.901z"/><path fill="#B80000" d="M98.723 78.521h-2.901v-2.908h2.901z"/><path fill="#D3D0D8" d="M98.723 75.613h-2.901v-2.908h2.901z"/><path fill="#6B6B6B" d="M98.723 72.705h-2.901v-2.908h2.901zm0-2.908h-2.901v-2.908h2.901zm0-2.908h-2.901v-2.908h2.901z"/><path fill="#B3B3B3" d="M98.723 63.981h-2.901v-2.908h2.901z"/><path fill="#FF6E6E" d="M98.723 61.073h-2.901v-2.908h2.901z"/><path fill="#D3D0D8" d="M98.723 37.807h-2.901v-2.908h2.901z"/><path fill="#FF6E6E" d="M98.723 26.175h-2.901v-2.908h2.901z"/><path fill="red" d="M101.621 84.34h-2.898v-2.908h2.898zm0-2.908h-2.898v-2.911h2.898z"/><path fill="#FF6E6E" d="M101.621 78.521h-2.898v-2.908h2.898z"/><path fill="#B80000" d="M101.621 75.613h-2.898v-2.908h2.898z"/><path fill="#6B6B6B" d="M101.621 72.705h-2.898v-2.908h2.898zm0-2.908h-2.898v-2.908h2.898zm0-2.908h-2.898v-2.908h2.898z"/><path fill="#B3B3B3" d="M101.621 63.981h-2.898v-2.908h2.898z"/><path fill="red" d="M101.621 61.073h-2.898v-2.908h2.898z"/><path fill="#FF6E6E" d="M101.621 58.165h-2.898v-2.908h2.898zm0-34.898h-2.898v-2.908h2.898z"/><path fill="red" d="M104.52 87.248h-2.899V84.34h2.899zm0-2.908h-2.899v-2.908h2.899zm0-2.908h-2.899v-2.911h2.899z"/><path fill="#FF6E6E" d="M104.52 78.521h-2.899v-2.908h2.899z"/><path fill="#B80000" d="M104.52 75.613h-2.899v-2.908h2.899z"/><path fill="#6B6B6B" d="M104.52 72.705h-2.899v-2.908h2.899z"/><path fill="#B3B3B3" d="M104.52 69.797h-2.899v-2.908h2.899z"/><path fill="#000" d="M104.52 66.889h-2.899v-2.908h2.899zm0-2.908h-2.899v-2.908h2.899z"/><path fill="#B3B3B3" d="M104.52 61.073h-2.899v-2.908h2.899z"/><path fill="#FF6E6E" d="M104.52 58.165h-2.899v-2.908h2.899z"/><path fill="#000" d="M101.621 34.899v2.908h5.797v-2.908h-5.797zm8.696-2.908v2.908h2.898V31.99h-2.898zm2.898-2.908v2.908h2.899v-2.908h-2.899zm-11.594-2.908v2.908h2.899v-2.908h-2.899zm2.899-2.908v2.908h2.898v-2.908h-2.898zm2.898-2.908v2.908h2.899v-2.908h-2.899zm2.899-2.911v2.91h2.898v-2.91h-2.898z"/><path fill="#FF6E6E" d="M104.52 23.267h-2.899v-2.908h2.899z"/><path fill="red" d="M107.418 90.156h-2.898v-2.908h2.898zm0-2.908h-2.898V84.34h2.898z"/><path fill="#FFDD61" d="M107.418 84.34h-2.898v-2.908h2.898z"/><path fill="#000" d="M107.418 81.432h-2.898v-2.911h2.898z"/><path fill="#FF6E6E" d="M107.418 78.521h-2.898v-2.908h2.898z"/><path fill="#B80000" d="M107.418 75.613h-2.898v-2.908h2.898z"/><path fill="#D3D0D8" d="M107.418 72.705h-2.898v-2.908h2.898zm0-2.908h-2.898v-2.908h2.898z"/><path fill="#000" d="M107.418 66.889h-2.898v-2.908h2.898zm0-2.908h-2.898v-2.908h2.898z"/><path fill="#B3B3B3" d="M107.418 61.073h-2.898v-2.908h2.898z"/><path fill="red" d="M107.418 58.165h-2.898v-2.908h2.898z"/><path fill="#FF6E6E" d="M107.418 55.257h-2.898v-2.908h2.898zm0-34.898h-2.898v-2.911h2.898z"/><path fill="red" d="M110.317 93.064h-2.899v-2.908h2.899zm0-2.908h-2.899v-2.908h2.899zm0-2.908h-2.899V84.34h2.899z"/><path fill="#000" d="M110.317 84.34h-2.899v-2.908h2.899z"/><path fill="#FF6E6E" d="M110.317 81.432h-2.899v-2.911h2.899z"/><path fill="#B80000" d="M110.317 78.521h-2.899v-2.908h2.899z"/><path fill="#000" d="M110.317 75.613h-2.899v-2.908h2.899zm0-2.908h-2.899v-2.908h2.899zm0-2.908h-2.899v-2.908h2.899zm0-5.816h-2.899v-2.908h2.899z"/><path fill="#D3D0D8" d="M110.317 61.073h-2.899v-2.908h2.899z"/><path fill="red" d="M110.317 58.165h-2.899v-2.908h2.899z"/><path fill="#FF6E6E" d="M110.317 55.257h-2.899v-2.908h2.899zm0-37.809h-2.899V14.54h2.899z"/><path fill="red" d="M113.215 95.972h-2.898v-2.908h2.898zm0-2.908h-2.898v-2.908h2.898z"/><path fill="#FF6E6E" d="M113.215 90.156h-2.898v-2.908h2.898zm0-2.908h-2.898V84.34h2.898zm0-2.908h-2.898v-2.908h2.898z"/><path fill="#D3D0D8" d="M113.215 61.073h-2.898v-2.908h2.898z"/><path fill="red" d="M113.215 58.165h-2.898v-2.908h2.898z"/><path fill="#FF6E6E" d="M113.215 55.257h-2.898v-2.908h2.898z"/><path fill="#FFAD00" d="M113.215 2.908h-2.898v5.816h2.898V2.908z"/><path fill="#FF6E6E" d="M116.114 95.972h-2.899v-2.908h2.899zm0-2.908h-2.899v-2.908h2.899z"/><path fill="#000" d="M116.114 63.981h-2.899v-2.908h2.899zm0-2.908h-2.899v-2.908h2.899z"/><path fill="red" d="M116.114 58.165h-2.899v-2.908h2.899z"/><path fill="#FF6E6E" d="M116.114 55.257h-2.899v-2.908h2.899z"/><path fill="#B3B3B3" d="M116.114 49.438h-2.899V46.53h2.899zm0-2.908h-2.899v-2.907h2.899zm0-2.907h-2.899v-2.908h2.899z"/><path fill="#000" d="M116.114 40.715h-2.899v-2.908h2.899z"/><path fill="#FF5400" d="M116.114 0h-2.899v8.724h2.899V0z"/><path fill="#000" d="M119.012 66.889h-2.898v-2.908h2.898z"/><path fill="#B80000" d="M119.012 63.981h-2.898v-2.908h2.898z"/><path fill="red" d="M119.012 61.073h-2.898v-2.908h2.898zm0-2.908h-2.898v-2.908h2.898z"/><path fill="#FF6E6E" d="M119.012 55.257h-2.898v-2.908h2.898z"/><path fill="#B3B3B3" d="M119.012 49.438h-2.898V46.53h2.898z"/><path fill="#000" d="M119.012 46.53h-2.898v-2.907h2.898zm0-2.907h-2.898v-2.908h2.898z"/><path fill="#FFE970" d="M124.81 17.448h-8.696v8.727h8.695v-8.727z"/><path fill="#000" d="M121.911 72.705h-2.899v-2.908h2.899zm0-2.908h-2.899v-2.908h2.899z"/><path fill="#B80000" d="M121.911 66.889h-2.899v-2.908h2.899z"/><path fill="red" d="M121.911 63.981h-2.899v-2.908h2.899zm0-2.908h-2.899v-2.908h2.899z"/><path fill="#FF6E6E" d="M121.911 58.165h-2.899v-2.908h2.899z"/><path fill="#000" d="M121.911 52.349h-2.899v-2.911h2.899zm0-2.911h-2.899V46.53h2.899z"/><path fill="#FFAD00" d="M133.508 20.359v-2.911h-2.899v-5.816h-5.8v2.908h-5.797v2.908h5.798v5.819h2.902v-2.908h5.797z"/><path fill="#FF5400" d="M142.203 34.899v2.908h-2.898v2.908h5.797v-2.908H148v-2.908h-5.797zm-17.394-11.632v2.908h2.902v-2.908h-2.902zm11.597-8.727v2.908h-2.898v2.91h-5.797v2.909h8.695v-2.908h2.899v-2.911h2.898V14.54h-5.797zm2.899-11.632v2.908h-5.797v2.908h-2.899v8.724h2.899v-5.816h2.898V8.724h5.797V2.908h-2.898zm-14.496 0v2.908h-2.898v5.816h-2.899v2.908h5.798V8.724h2.902V5.816h2.898V2.908h-5.8z"/><path fill="#000" d="M124.809 81.432h-2.898v-2.911h2.898zm0-2.911h-2.898v-2.908h2.898zm0-2.908h-2.898v-2.908h2.898z"/><path fill="#B80000" d="M124.809 72.705h-2.898v-2.908h2.898z"/><path fill="red" d="M124.809 69.797h-2.898v-2.908h2.898zm0-2.908h-2.898v-2.908h2.898z"/><path fill="#FFDD61" d="M124.809 63.981h-2.898v-2.908h2.898z"/><path fill="#000" d="M124.809 61.073h-2.898v-2.908h2.898z"/><path fill="#FF6E6E" d="M124.809 58.165h-2.898v-2.908h2.898z"/><path fill="#B3B3B3" d="M124.809 52.349h-2.898v-2.911h2.898zm0-2.911h-2.898V46.53h2.898z"/><path fill="#000" d="M124.809 46.53h-2.898v-2.907h2.898zm0-2.907h-2.898v-2.908h2.898zm2.902 40.717h-2.902v-2.908h2.902zm0-2.908h-2.902v-2.911h2.902z"/><path fill="#B80000" d="M127.711 75.613h-2.902v-2.908h2.902z"/><path fill="red" d="M127.711 72.705h-2.902v-2.908h2.902zm0-2.908h-2.902v-2.908h2.902zm0-2.908h-2.902v-2.908h2.902z"/><path fill="#000" d="M127.711 63.981h-2.902v-2.908h2.902zm0-2.908h-2.902v-2.908h2.902z"/><path fill="#B3B3B3" d="M127.711 55.257h-2.902v-2.908h2.902zm0-2.908h-2.902v-2.911h2.902z"/><path fill="#000" d="M127.711 49.438h-2.902V46.53h2.902zm0-2.908h-2.902v-2.907h2.902z"/><path fill="#B80000" d="M130.609 78.521h-2.898v-2.908h2.898z"/><path fill="red" d="M130.609 75.613h-2.898v-2.908h2.898zm0-2.908h-2.898v-2.908h2.898z"/><path fill="#FF6E6E" d="M130.609 69.797h-2.898v-2.908h2.898zm0-2.908h-2.898v-2.908h2.898z"/><path fill="#000" d="M130.609 58.165h-2.898v-2.908h2.898zm0-2.908h-2.898v-2.908h2.898zm0-2.908h-2.898v-2.911h2.898z"/><path fill="red" d="M133.508 78.521h-2.899v-2.908h2.899zm0-2.908h-2.899v-2.908h2.899z"/><path fill="#FF6E6E" d="M133.508 72.705h-2.899v-2.908h2.899zm2.898 5.816h-2.898v-2.908h2.898zm0-2.908h-2.898v-2.908h2.898z"/><path fill="#FFE970" d="M136.406 31.99v5.817h2.899v-2.908h2.898V31.99h-5.797z"/><path fill="#FFAD00" d="M139.305 34.899v2.908h2.898v-2.908h-2.898zm2.898-2.909v2.908h2.899V31.99h-2.899z"/><path fill="#F1A12C" d="M58.472 156.58h-.679v-.636h.679zm-.679-1.91h-.68v-.636h.68z"/><path fill="#F5EBC6" d="M71.383 148.305h-.68v-.636h.68z"/><path fill="#F1A12C" d="M55.075 145.76h2.038v7.001h.68v1.273h.68v.636h.679v.637h.68v1.273h1.359v.637h.679v.636h1.359v.637H60.51v-.637h-1.359v-.636h-.679v-1.273h-.68v.636h-.679v-1.273h-.68v-.637h-.679v-1.272h-.68v-1.274h-.68v-6.364h.68zm2.718 8.91h-.68v-.636h.68v.636z"/><path fill="#231F20" d="M61.87 157.838v.015h1.359v.637h-2.718v-.637h-1.359v-.015z"/><path fill="#FEFEFE" d="M58.472 144.487h-.679v-.637h.679z"/><path fill="#FBCA25" d="M71.383 146.396v-1.273h-.68v-.637h-.679v-.636h-.68v-.636h-.679v-.637h-5.437v.637h-.679v.636h-.68v.636h-.679v.637h-.68v1.273h-.679v5.092h.68v1.273h.68v.637h.679v.636h.68v.637h.679v.636h5.437v-.636h.678v-.637h.68v-.636h.68v-.637h.679v-1.273h.68v-5.092h-.68zm-12.91-.637v-1.909h.679v-.636h.68v-.637h.679v-.637h.68v-.636h.679v-.637h1.359v-.636h5.437v.636h1.357v.637h.68v.636h.679v.637h.68v.637h.68v1.272h.679v1.273h.68v6.366h-.68v1.273h-.679v1.273h-.68v.636h-.68v.637h-.679v.636h-.679v.637h-1.358v.636h-5.437v-.636H61.87v-.637h-.679v-.636h-.68v-.637h-.679v-.636h-.68v-.637h-.679v-1.273h-.68v-7.002h.68z"/><path fill="#FBCA25" d="M70.024 145.759h.679v5.093h-.679V152.125h-.68v.636h-.679v.637h-1.359v.636h-3.398v-.636h-1.359v-.637h-.679v-.636h-.68V150.852h-.679V147.032h.679V145.123h.68v-.637h.679v-.636h1.359v-.636h4.077v.636h1.359v.636h.68v.637z"/><path fill="#F1A12C" d="M55.754 143.85V142.577h.68v.636h1.359V145.123h-.68v-.637h-1.359V145.759h-.679V143.85zm7.475-4.456v.637H61.87v.636h-.68v.637h-.679v.636h-.68v.637H56.434v-.637h.679v-.636h1.359v-.637h.68v-.636h1.359v-.637z"/><path fill="#F1A12C" d="M55.754 143.85V142.577h.68v.636h1.359V145.123h-.68v-.637h-1.359V145.759h-.679V143.85z"/><path fill="#231F20" d="M57.793 143.242h-.68.68zm-2.039.608V142.577h.68V143.85h-.68V145.759h-.679V143.85zm3.398-2.546h-.68v-.637h.68zm-.68.636h-1.359v-.636h1.359zm1.359-1.273h-.679v-.636h1.359v.636zm-2.718 1.91h-.68v-.637h.68zM63.229 139.394v.637h-2.718v-.637zM61.19 156.609h-.68.68zM63.229 157.882h-.68.68zm-4.757-3.211h-.679v-.637h.679zm-1.359-8.883h-.68.68zm-2.274-.028v6.365h-.915v-6.365h.915zm.915.028h-.915.915zm2.039 9.519V156.58h-.68V155.307zm-.68 0h-.68v-.637h.68z"/><path fill="#231F20" d="M55.754 152.125V153.398h.68V154.671h-.68V153.398h-.679V152.125zm5.436 6.365h-.679v-.637h.679zm-2.718-1.91v-.636h.68V157.217h-.68zm1.359 1.273h-.679v-.636h.679zm2.718-.636h.68v.636h5.436v.637h-5.436v-.637H61.87v-.636zm-.679 0h-.68v-.637h.68zm-1.359-1.273h.679v.636h-1.359V155.307h.68zm-.68-.637h-.679v-.637h.679zm-.679-.637h-.68v-.636h.68zm-.68-1.272v.636h-.679V152.761h.679zm-.679-7.002V152.761h-.68V146.396zm.679-1.273v.636h-.679V144.486h.679zm.68-1.273h-.68v-.637h.68zm3.397 10.184h-.679v-.636h.679zm-1.359-7.638v.636h-.679V150.852h.679V152.125h.68V153.398h-.68v-.637h-.679V151.488h-.68V146.396h.68V145.123h.679v.636zm.68-1.273h-.68v-.636h.68zm.679-.637h-.679v-.636h.679zm-2.718-1.273h-.679v-.636h.679zm.68-.636h-.68v-.637h.68zm.679-.637h-.679v-.636h.679zm.68-.636h-.68v-.637h.68zm1.359-.637H61.87v-.636h1.359zm6.116 16.55h.679v.636h-1.359v-.636zm1.358 0h-.679v-.637h.679zm.68-1.273v-.637h.679V156.58h-1.359v-.636zm1.359-.637h-.68v-.637h.68zm-4.757 0h-4.756v-.636h-.68v-.637h1.359v.637h4.077v-.637h1.36v.637h-.68v.636zm2.039-1.273h-.679v-.636h.679zm2.718-.636h.68V154.671h-.68v-.637zm.68-1.273h.679V153.398h-.679v-.637zm1.359-5.729V151.488h-.68V146.396zm-4.757 5.729h.679V150.852h.68V147.032h-.68V145.759h-.679V144.486h.679v.637h.68V146.396h.68V151.488h-.68V152.761h-.68v.637h-.679v-.637zm3.398-7.002v-.637h.679V145.759h-.679zm-3.398-.637h-.679v-.636h.679zm2.718-.636v-.637h.68V144.486h-.68zm-4.757 0v-.637h-4.077v.637h-1.359v-.637h.68v-.636h5.436v.636h.68v.637h-.68zm4.757-.637h-.679v-.636h.679zm-.679-.636h-.68v-.637h.68zm-.68-.637h-.68v-.636h.68zm-.68-.636h-.679v-.637h.679zm-2.038-.637v-.636h1.359v.636h-.679zm0-1.273v.637h-5.436v-.637z"/><path fill="#FEFEFE" d="M56.434 144.486h.679v.637h.68V146.396h-.68v-.637h-1.359V144.486zm.679-1.909h2.039v.636h-.68v.637h-.679v-.637h-1.36v-.636zm8.154 11.457h2.039v-.636h1.359v-.637h.679v-.636h.68V153.398h-.68v.636h-1.359v.637h-4.077v-.637h.68zm-1.359-.636v.636h-1.359v-.636h.68zm-1.359 0h-.679v-.637h.679zm7.475-2.546h.679V152.125h-.679v-.637zm.679-1.273v-1.274h.68v2.547h-.68v-.637zm.68-1.91h-.68v-.637h.68z"/><g><path fill="#F1A12C" d="M96.957 150.603h-.831v-.765h.831zm0-2.101h-.831v-.765h.831z"/><path fill="#F5EBC6" d="M113.715 140.095h-.831v-.765h.831z"/><path fill="#F1A12C" d="M93.158 137.611h2.417v8.092h.806v1.472h.805v.735h.806v.736h.806v1.471h1.611v.735h.805v.736h1.612v.736h-3.223v-.736h-1.611v-.736h-.806v-1.471h-.805v.736h-.806v-1.471h-.806v-.736h-.806v-1.471h-.805v-1.471h-.806v-7.356h.806zm3.222 10.298h-.805v-.736h.805v.736z"/><path fill="#231F20" d="M101.429 151.931v.018h1.397v.766h-2.793v-.766h-1.397v-.018z"/><path fill="#FEFEFE" d="M96.957 135.892h-.831v-.765h.831z"/><path fill="#FBCA25" d="M113.998 136.71v-1.501h-.873v-.75h-.872v-.75h-.873v-.751h-.873v-.751h-6.983v.75h-.872v.751h-.874v.75h-.872v.751h-.873v1.501h-.873v6.005h.873v1.502h.873v.75h.872v.75h.874v.751h.872v.75h6.983v-.75h.873v-.75h.873v-.751h.871v-.75h.873v-1.501h.873v-6.006h-.873zm-16.584-.75v-2.251h.873v-.751h.873v-.751h.873v-.75h.873v-.751h.872v-.75h1.746v-.751h6.983v.75h1.747v.75h.87v.751h.873v.75h.873v.752h.874v1.5h.873v1.502h.872v7.505h-.872v1.502h-.873v1.501h-.873v.75h-.873v.751h-.873v.751h-.872v.75h-1.746v.75h-6.983v-.75h-1.746v-.75h-.872v-.75h-.873v-.751h-.873v-.751h-.873v-.75h-.873v-1.501h-.872v-8.257h.872z"/><path fill="#FBCA25" d="M112.462 136.375h.838v5.934h-.838v1.483h-.838v.742h-.838v.742h-1.676v.742h-4.189v-.742h-1.676v-.742h-.838v-.742h-.838v-1.483h-.838V137.858h.838v-2.225h.838v-.742h.838v-.741h1.676v-.742h5.027v.742h1.676v.741h.838v.742z"/><path fill="#F1A12C" d="M93.399 135.089v-1.681h1.048v.841H96.542v2.521h-1.048v-.84H93.399v1.681h-1.047V135.089zm9.427-5.884v.84h-1.676v.841h-.837v.841h-.839v.84h-.837v.841H94.447v-.841h.838v-.84h1.676v-.841h.838v-.841H99.474v-.84z"/><path fill="#F1A12C" d="M93.399 135.089v-1.681h1.048v.841H96.542v2.521h-1.048v-.84H93.399v1.681h-1.047V135.089z"/><path fill="#231F20" d="M96.957 133.408h-.831.831zm-3.558 1.681v-1.681h1.048v1.681h-1.048V137.611h-1.047V135.089zm5.653-3.4h-.831v-.765h.831z"/><path fill="#231F20" d="M98.636 131.689h-2.094v-.765h2.094zm1.048 0h-1.048v-.765H100.731v.765zm-4.822 2.101h-.831v-.765h.831zM102.826 128.822v.765H98.636v-.765zM101.147 150.221h-.832.832zM103.241 152.323h-.83.83zm-6.284-3.821h-.831v-.765h.831zm-2.095-10.891h-.83.83zM93.4 135.51v8.406h-1.048v-8.406H93.4zm1.047.044H93.4h1.047z"/><path fill="#231F20" d="M96.957 148.119v2.102h-.831v-2.102zm-2.095.383h-.831v-.765h.831z"/><path fill="#231F20" d="M93.399 146.018V147.069h1.048v1.05h-1.048v-1.05h-1.047V146.018zm7.748 6.687h-.832v-.765h.832zm-2.926-3.535v-1.051h.831v2.102h-.831z"/><path fill="#231F20" d="M99.052 150.603h-.831v-.765h.831zm2.517-.382h.838v1.05h6.703v1.052h-6.703v-1.052h-1.676v-1.05z"/><path fill="#231F20" d="M101.147 150.603h-.831v-.765h.831z"/><path fill="#231F20" d="M99.683 149.17h1.048v1.051H98.636v-2.102h1.047z"/><path fill="#231F20" d="M99.052 148.502h-.831v-.765h.831z"/><path fill="#231F20" d="M99.052 148.502h-.831v-.765h.831zm-2.095-1.434v1.051h-.831v-2.101h.831zm0-9.457v8.407h-.831v-8.407zm0-1.051v1.051h-.831v-2.101h.831zm2.095-2.77h-.831v-.765h.831zm4.19 12.61h-.832v-.765h.832zm-3.209-9.274v.809h-.698V142.785h.698v1.616h.698v1.617h-.698v-.808h-.698v-1.617h-.699v-6.467h.699v-1.616h.698v.808zm1.114-1.234h-.831v-.765h.831zm2.095 0h-.832v-.765h.832z"/><path fill="#231F20" d="M99.052 133.791h-.831v-.766h.831z"/><path fill="#231F20" d="M99.052 133.79h-.831v-.765h.831zm2.095-2.101h-.832v-.765h.832z"/><path fill="#231F20" d="M101.147 131.689h-.831v-.765h.831z"/><path fill="#231F20" d="M102.826 131.689H100.731v-.765H102.826zm7.332 18.149h1.047v.765H109.11v-.765z"/><path fill="#231F20" d="M111.62 150.603h-.831v-.765h.831z"/><path fill="#231F20" d="M112.252 149.17v-1.051h1.048v2.102H111.205v-1.051zm3.558-.668h-.831v-.765h.831zm-6.281-.383H103.664v-1.051h-.838v-1.05H104.501v1.05h5.028v-1.05h1.676v1.05h-.838v1.051z"/><path fill="#231F20" d="M111.621 146.4h-.832v-.765h.832zm3.358-.382h.831v2.101h-.831v-1.05zm0-2.102h.831v2.102h-.831v-1.051zm2.926-6.305V143.916h-.832V137.611z"/><path fill="#231F20" d="M111.205 144.517h.698v-1.501h.698v-4.504h-.698v-1.501h-.698v-1.501h.698v.75h.698v1.501h.699v6.005h-.699v1.501h-.698v.751h-.698v-.751zm3.774-7.957v-1.05h.831v2.101h-.831z"/><path fill="#231F20" d="M111.621 135.892h-.832v-.765h.832zm3.358-1.433v-1.051h.831v2.102h-.831z"/><path fill="#231F20" d="M109.529 135.51v-1.051h-5.028v1.051H102.826v-1.051h.838v-1.051h6.703v1.051h.838v1.051h-.838zm6.281-1.719h-.831v-.766h.831zm-2.095-.001h-.831v-.765h.831zm0-2.101h-.831v-.765h.831zm-2.095 0h-.831v-.765h.831z"/><path fill="#231F20" d="M109.11 131.689v-.765H111.205v.765h-1.047zm0-2.867v.765H102.826v-.765z"/><path fill="#FEFEFE" d="M95.145 135.51h.698v.7h.699V137.611h-.699v-.7h-1.396V135.51zm.349-2.102H98.636v1.051h-1.047v1.051h-1.047v-1.051H94.447v-1.051zm9.194 14.186h2.793v-.525h1.862v-.526h.931v-.525h.931V147.069h-.931v.525h-1.863v.525h-5.585v-.525h.931zm.233-1.959v.765H102.826v-.765h1.047z"/><path fill="#FEFEFE" d="M103.242 146.4h-.832v-.765h.832zm7.547-4.586h.831v2.102h-.831v-1.051zm2.095-1.05V139.713h.831v2.101h-.831v-.525z"/><path fill="#FEFEFE" d="M113.715 140.095h-.831v-.765h.831z"/></g><g><path fill="#000" d="M709.244 132.5V128h13.461v4.5h-13.461zm17.948-9v4.5h-4.487v-4.5h4.487zM731.68 83v40.5h-4.487V83h4.487z"/><path fill="#FF9836" d="M731.68 74v9h-4.488v-4.5h-4.487V74h8.974z"/><path fill="#AA2D21" d="M709.244 128v-4.5h13.461v4.5h-13.461zm17.948-13.5v9h-4.487v-9h4.487z"/><path fill="#4F1513" d="M713.73 114.5V110h13.462v4.5h-13.461z"/><path fill="#751F17" d="M727.192 101v9h-4.487v-9h4.487zm0-9v9h-4.487v-9h4.487zm-13.461 0v4.5h-4.487V92h4.487zm13.461-9v9h-4.487v-4.5h-4.487V92h-4.487v-4.5h4.487V83h8.974zm0-4.5V83h-4.487v-4.5h4.487z"/><path fill="#000" d="M655.397 74h4.488v-4.5h4.487V83h-8.975v-9zm71.795-4.5V74h-4.487v-4.5h4.487zm0-13.5v13.5h-4.487V56h4.487zm-62.82-9v22.5h-4.487V47h4.487zm58.333-4.5V56h-4.487V42.5h4.487zM668.86 38v9h-4.487v-9h4.487zm49.359 0v4.5h-4.487V38h4.487zm-8.974-9v4.5h4.487V38h-4.487v-4.5h-35.899V38h-4.486v-4.5h4.487V29h35.898z"/><path fill="#681C11" d="M709.244 96.5h4.487V92h4.487v-4.5h4.487V110h-8.974v4.5h8.974v9h-13.461v-27z"/><path fill="#4D0C0A" d="M691.295 119v-4.5h13.461V92h4.488v40.5h-4.488V119h-13.461zm26.923-36v4.5h-4.487V92h-4.487v-4.5h4.487V83h4.487zm4.487-4.5V83h-4.487v-4.5h4.487z"/><path fill="#000" d="M695.782 101v4.5h-17.949V101h17.95zm8.974-9v4.5h-4.486v4.5h-4.487v-4.5h4.487V92h4.487zm-31.41 0v4.5h4.487v4.5h-4.487v-4.5h-4.486V92h4.487zm35.898-4.5V92h-4.488v-4.5h4.488zM664.372 83h4.487v9h-4.487v-9zm49.359 0v4.5h-4.487V83h4.487zm8.974-9v4.5h-4.487V83h-4.487v-4.5h4.487V74h4.487z"/><path fill="#5C261F" d="M664.372 69.5h35.897V65h22.436v9h-4.487v4.5h-4.487V83h-4.487v4.5h-4.488V92h-4.486v4.5h-4.487v4.5h-17.95v-4.5h-4.487V92h-4.486v-9h-4.487V69.5zm44.872-36v4.499l4.486.001v4.5h4.487v13.499l4.487.001v9h-17.948v-4.5h8.975V47h-8.975v-4.5h-4.486V38h-26.924v-4.5h35.898z"/><path fill="#FFCCA8" d="M700.27 42.5V47h-13.463v4.5h4.487v9h4.487V56h4.487-4.487v-4.5h4.487V47h4.487v13.5h-4.485V65h-4.487v4.5h-4.487V65h-4.487v4.5h-8.975V65h-4.487v4.5h-4.487V65h-4.487V51.5h4.487v9h4.487v-9h4.487V47h-8.974v-4.5h31.41zm-13.462 18h-8.975V65h8.975v-4.5zm26.923-9v9h-4.487v-9h4.487z"/><path fill="#4C1C19" d="M700.27 65v4.5h-4.488V65h4.487zm-22.437 0v4.5h-4.487V65h4.487zm-8.974 0v4.5h-4.487V65h4.487zm35.897-4.5V65h-4.486v-4.5h4.487zm8.975-13.5v4.5h-4.487v9h-4.488V47h8.975zm-8.975-4.5V47h-4.486v-4.5h4.487zM700.27 38v4.5h-31.41V38h31.41z"/><path fill="#000" d="M695.782 146v-4.5h4.487V137h8.975v9h-13.462z"/><path fill="#2F5617" d="M700.27 137v-4.5h8.974v4.5h-8.975z"/><path fill="#379B37" d="M673.346 128v-4.5h31.41v9h-4.486V128h-26.924z"/><path fill="#2F5617" d="M673.346 123.5V119h31.41v4.5h-31.41z"/><path fill="#AA2D21" d="M704.756 110v4.5h-13.461V110h13.461zm-31.41 4.5V110h8.975v4.5h-8.975z"/><path fill="#379B37" d="M695.782 110v-4.5h4.487V101h4.487v9h-8.974z"/><path fill="#2F5617" d="M695.782 105.5v4.5h-17.949v-4.5h17.95zm4.488-4.5v4.5h-4.487V101h4.487zm-22.436 0v4.5h-4.487V101h4.487zm26.923-4.5v4.5h-4.487v-4.5h4.487zm-31.411 36V128h26.924v4.5h-26.924z"/><path fill="#4C1C19" d="M700.27 47v4.5h-13.463V47h13.461zm-35.898 4.5V47h13.461v4.5h-13.461z"/><path fill="#2F1312" d="M691.295 51.5h4.487v9h-4.487v-9z"/><path fill="#FF9836" d="M691.295 110v9h-8.975v-9h8.974z"/><path fill="#3E1712" d="M686.808 69.5h4.487V65h-4.487zm-8.975-4.5v-4.5h8.975V65h-8.975z"/><path fill="#4D0C0A" d="M673.346 96.5v18h8.975v4.5h-8.975v13.5h-8.974V128h4.487V96.5h4.487zm-8.974 13.5v4.5h-4.487V110h4.487zm4.487-18v4.5h-4.487V92h4.487zm-4.487-9v4.5h-4.487V83h4.487z"/><path fill="#379B37" d="M673.346 110h4.487v-4.5h-4.487z"/><path fill="#000" d="M659.885 146v-4.5h4.487V137h8.974v9h-13.461z"/><path fill="#2F5617" d="M664.372 137v-4.5h8.974v4.5h-8.974z"/><path fill="#2F1312" d="M668.859 51.5h4.487v9h-4.486v-9z"/><path fill="#751F17" d="M668.859 105.5V128h-8.974v-13.5h4.487V110h-4.487v-4.5h8.974zm-4.487-9h4.487v9h-8.974v-18h4.487v9z"/><path fill="#000" d="M664.372 128v4.5h-4.487V128h4.487zm-4.487-40.5V128h-4.488v-27h-4.487v-4.5h4.487v-9h4.488z"/><path fill="#751F17" d="M655.397 87.5h4.488V83h-4.488z"/><path fill="#FF9836" d="M655.397 74h4.488v-4.5h-4.488z"/><path fill="#2F5617" d="M655.397 96.5h-4.487v-9h4.487v9z"/><path fill="#000" d="M644.797323 72.850386l1.086218 15.586409-3.89419.262055-1.086217-15.586409 3.89419-.262055zm1.899767 27.278038l1.358098 19.481804-3.892785.262227-1.358542-19.483996 3.894017-.26065z"/><path fill="#4A1312" d="M649.776154 88.175971l-3.892786.262228-1.086833-15.587197 3.893401-.26144 1.086218 15.58641zm.815125 11.690398l.900995 19.49122-3.894361.26346-.900207-19.491837 3.892785-.262228z"/><path fill="#000" d="M610.964616 74.486778l-1.324597-1.193508 5.83626-6.49377 1.324598 1.193508 2.365738-2.632571 1.231707 1.108723 2.286643-2.545394 1.406848 1.2663 2.366355-2.631783 1.201564 1.081512 2.339315-2.603044 1.406849 1.2663 1.051937-1.169575 1.200777 1.082128 1.315204-1.462824 1.347007 1.21407 5.784203-6.435333 1.318268 1.187031 1.183263-1.316593 1.289357 1.161396 1.130418-1.25754 1.289356 1.161397-1.130417 1.25754 3.956035 3.562669 1.130417-1.25754 1.231091 1.107935 1.182476-1.315977 2.579501 2.322176 1.129802-1.258327 1.40606 1.266915 1.26236-1.40377 2.549975 2.295754 1.318268 1.18703 2.260835-2.515078 3.868243 3.482785 1.162529-1.29278 6.505394 5.857636-1.188337 1.323094 1.318268 1.187031-2.31368 2.574133-3.926509-3.536246-1.209686 1.34612-2.607625-2.348428-1.07836 1.199102-2.607625-2.348427-1.208898 1.345504-1.20218-1.0823-1.103379 1.2288-1.406848-1.266299-1.235937 1.374243-1.201564-1.081512-1.130418 1.25754-1.377321-1.239877-1.182476 1.315978-1.289356-1.161397-3.470522 3.8612-1.206362 1.342253-2.579501-2.322176-1.185012 1.319228-1.239787-1.274996-2.366527 2.633186-5.300554-4.721577-1.209686 1.34612-1.201564-1.081512-1.130418 1.25754-1.347622-1.214858-1.15684 1.287067-1.318268-1.187031-1.131206 1.258155-1.318884-1.18782-1.23532 1.375032-1.200777-1.082128-2.287258 2.544606-1.377322-1.239877-2.392777 2.66131-1.172037-1.05509-3.470522 3.8612-2.695417-2.428311z"/><path fill="#839599" d="M612.206933 73.22303l1.142338 1.03007 2.366527-2.633186 1.435587 1.293338 1.104168-1.229416 1.230303 1.10855 2.287258-2.544606 1.377937 1.240665 1.208899-1.345504 1.201564 1.081512 2.339316-2.603044 1.377321 1.239876 1.209514-1.344716 1.201564 1.081512 1.104783-1.228628 1.40606 1.266915 1.129803-1.258328 1.231706 1.108723 1.313802-1.462996-1.25983-1.134973.999092-1.110521-1.289357-1.161396 1.314417-1.462209-1.318884-1.187819-2.392161 2.662098-1.347623-1.214858-1.261743 1.404559-1.260618-1.134358-1.025515 1.140048-1.347795-1.213454-3.51007 3.904787-1.200775-1.082128-1.249235 1.38971-1.40606-1.266916-3.470522 3.8612-1.172037-1.05509zm63.966975-3.01519l-1.033247 1.1334-2.62149-2.392163-1.297574 1.423669-1.223654-1.116284-1.111728 1.221364-2.534313-2.313066-1.2449 1.366018-1.33957-1.222417-1.086709 1.191664-2.591175-2.366355-1.2449 1.366019-1.33957-1.222418-1.086709 1.191664-1.222866-1.116899-1.271323 1.395546-1.252393-1.143322-1.113131 1.221192-1.456102-1.32934 1.139382-1.249315-1.10695-1.010765 1.165188-1.27963-1.456101-1.32934 1.192227-1.308368 2.650845 2.419989 1.217862-1.33728 1.397835 1.275879 1.138766-1.250103 1.136478 1.037187 1.217862-1.33728 3.88856 3.549398 1.086093-1.192452 1.382986 1.263369 1.271323-1.395545 3.844972 3.509849 1.05967-1.162926zm-36.970157-.829809l2.527392 2.276596 1.103995-1.228012 1.164305 1.04844 1.288782-1.433297 1.523552 1.371818 2.287258-2.544606-1.406848-1.266299 1.122193-1.248576-1.200776-1.082127 1.243545-1.383996-2.60824-2.349215-1.244334 1.38461-1.40606-1.266914-1.122193 1.248575-1.230303-1.10855-2.288046 2.545221 1.23109 1.107935-1.183263 1.316594 1.406849 1.266299z"/><path fill="#FFF" d="M645.288225 70.041758l1.130417-1.25754-1.16492-1.049228 1.15684-1.287066-1.238035-1.1152 1.121405-1.24796-1.289357-1.161396 1.244334-1.384611 2.60824 2.349215-1.243545 1.383996 1.200776 1.082127-1.122193 1.248576 1.406848 1.2663-2.287258 2.544605z"/><path fill="#4A1312" d="M640.961363 59.281603l1.406061 1.266915 1.244334-1.384611 1.230303 1.10855 1.315205-1.462823-1.231091-1.107936-1.314417 1.462209-1.406849-1.2663z"/><path fill="#ECB590" d="M650.91 92v9h-8.974v-9h8.974zm-8.974 0v-4.5h8.974V92h-8.974z"/></g><g><path fill="#675244" d="M723.177 144.805h-.664v-.694h.664z"/><path fill="#403F3B" d="M723.841 144.805h-.664v-.694h.664z"/><path fill="#47443E" d="M759.696 144.805h-.663v-.694h.663z"/><path fill="#4B4640" d="M724.505 144.111h-.664v-.693h.664z"/><path fill="#554C44" d="M756.376 143.418h-.663v-.694h.663z"/><path fill="#6D5142" d="M721.185 142.03h-.664v-.693h.664z"/><path fill="#6A5244" d="M723.177 142.03h-.664v-.693h.664z"/><path fill="#44423D" d="M758.369 142.03h-.665v-.693h.665z"/><path fill="#514A43" d="M755.713 141.337h-.664v-.694h.664z"/><path fill="#655245" d="M758.369 141.337h-.665v-.694h.665z"/><path fill="#6B7276" d="M759.696 141.337h-.663v-.694h.663z"/><path fill="#544940" d="M725.833 140.643h-.664v-.694h.664z"/><path fill="#3C4444" d="M759.033 140.643h-.665v-.694h.665z"/><path fill="#232425" d="M737.121 139.256h-.664v-.694h.664z"/><path fill="#4B3B33" d="M739.113 139.256h-.664v-.694h.664zm3.32 0h-.664v-.694h.664z"/><path fill="#232425" d="M744.425 139.256h-.664v-.694h.664z"/><path fill="#69402E" d="M756.376 138.562h-.663v-.694h.663z"/><path fill="#212222" d="M727.161 137.868h-.664v-.694h.664z"/><path fill="#6C7478" d="M728.489 137.868h-.664v-.694h.664z"/><path fill="#6D7579" d="M753.056 137.868h-.663v-.694h.663z"/><path fill="#242526" d="M753.721 137.868h-.665v-.694h.665z"/><path fill="#242324" d="M722.513 137.174h-.663v-.693h.663z"/><path fill="#673C2B" d="M723.841 137.174h-.664v-.693h.664z"/><path fill="#232123" d="M727.825 137.174h-.664v-.693h.664zm25.896 0h-.665v-.693h.665z"/><path fill="#693F30" d="M741.105 135.093h-.664v-.694h.664z"/><path fill="#693F2E" d="M744.425 134.399h-.664v-.693h.664z"/><path fill="#232123" d="M721.185 133.012h-.664v-.694h.664z"/><path fill="#232021" d="M760.36 133.012h-.664v-.694h.664z"/><path fill="#242526" d="M719.193 130.931h-.664v-.694h.664z"/><path fill="#6D5142" d="M718.529 129.543h-.664v-.694h.664z"/><path fill="#57352A" d="M763.016 129.543h-.663v-.694h.663z"/><path fill="#6E5141" d="M717.865 128.849h-.664v-.693h.664z"/><path fill="#6A4130" d="M755.049 128.849h-.665v-.693h.665z"/><path fill="#583529" d="M763.68 128.849h-.664v-.693h.664z"/><path fill="#232425" d="M716.538 128.156h-.665v-.694h.665z"/><path fill="#212222" d="M764.344 128.156h-.664v-.694h.664z"/><path fill="#212323" d="M765.008 128.156h-.664v-.694h.664z"/><path fill="#574D44" d="M716.538 126.768h-.665v-.694h.665z"/><path fill="#693F2E" d="M757.704 125.381h-.663v-.694h.663z"/><path fill="#697174" d="M766.336 124.687h-.664v-.694h.664z"/><path fill="#4A463F" d="M715.873 123.993h-.664v-.694h.664z"/><path fill="#8C8886" d="M715.873 123.299h-.664v-.693h.664z"/><path fill="#8D8A89" d="M761.024 123.299h-.664v-.693h.664z"/><path fill="#694B3F" d="M765.672 123.299h-.664v-.693h.664z"/><path fill="#7D6C63" d="M760.36 122.606h-.664v-.694h.664z"/><path fill="#A8AEB5" d="M762.353 122.606h-.665v-.694h.665z"/><path fill="#A7A8AB" d="M717.201 121.218h-.663v-.694h.663z"/><path fill="#835845" d="M747.745 121.218h-.664v-.694h.664z"/><path fill="#7B594A" d="M759.033 121.218h-.665v-.694h.665z"/><path fill="#653D2F" d="M763.016 121.218h-.663v-.694h.663z"/><path fill="#A9AFB6" d="M714.545 120.524h-.664v-.693h.664zm51.791 0h-.664v-.693h.664z"/><path fill="#C79A4C" d="M719.857 119.137h-.664v-.694h.664z"/><path fill="#D0A24D" d="M718.529 118.443h-.664v-.693h.664z"/><path fill="#E6C77A" d="M761.024 118.443h-.664v-.693h.664z"/><path fill="#BBA178" d="M717.201 117.75h-.663v-.694h.663z"/><path fill="#B7B8B4" d="M721.185 117.75h-.664v-.694h.664z"/><path fill="#A5A4A5" d="M759.033 117.75h-.665v-.694h.665z"/><path fill="#BEBBAC" d="M759.696 117.75h-.663v-.694h.663z"/><path fill="#B9B9B2" d="M760.36 117.75h-.664v-.694h.664z"/><path fill="#B3874C" d="M720.521 117.056h-.664v-.694h.664z"/><path fill="#E4C67E" d="M765.008 117.056h-.664v-.694h.664z"/><path fill="#CEA14C" d="M718.529 115.669h-.664v-.694h.664z"/><path fill="#9D705B" d="M731.145 115.669h-.664v-.694h.664z"/><path fill="#DBC58B" d="M765.008 115.669h-.664v-.694h.664z"/><path fill="#5D4E44" d="M717.201 114.975h-.663v-.694h.663z"/><path fill="#E3DDD9" d="M728.489 114.975h-.664v-.694h.664z"/><path fill="#4B3A31" d="M764.344 114.975h-.664v-.694h.664z"/><path fill="#DACCC4" d="M729.153 114.281h-.664v-.694h.664z"/><path fill="#835845" d="M729.153 113.587h-.664v-.694h.664z"/><path fill="#835844" d="M740.441 113.587h-.664v-.694h.664z"/><path fill="#92614C" d="M729.153 114.975h1.328v.694h.664v1.387h-.664v-.694h-.664v.694h-.664v-1.387h-.664v-.694z"/><path fill="#92614C" d="M729.817 114.281h-.664v-1.387h6.64v.693H740.441v-.693h6.64v-.694h5.312v3.469h-.664v1.387h-.665v1.387h-1.327v.694h-.664v1.387h-1.992v.694h-.664v.694h-9.296v-.694h-1.328v-.694h-1.992v-.693h-1.328v-.694h-.664v-.694h-.664v-.693h.664v-1.388h.664v-1.387h-1.992v-.694z"/><path fill="#675244" d="M719.193 112.2h-.664v-.694h.664z"/><path fill="#705041" d="M719.857 111.506h-.664v-.694h.664z"/><path fill="#5A3528" d="M761.688 111.506h-.664v-.694h.664z"/><path fill="#693E2D" d="M733.801 110.812h-.664v-.693h.664z"/><path fill="#5A3425" d="M761.024 110.812h-.664v-.693h.664z"/><path fill="#6F5041" d="M721.185 110.119h-.664v-.694h.664z"/><path fill="#754F3D" d="M716.538 118.443v-.693h1.327v.693h1.328v.694h.664v.694h-.664v.693h-.664v.694h-1.328v-.694h-1.328v-2.081zm14.607-2.081h.664v1.388h-.664v-.694zm.664-1.387h.664v1.387h-.664v-.694zm-1.328 0h-.664v-.694h.664zm-9.296 26.362h1.328v.693h.664v-.693h-.664v-4.856h.664v.693h1.328v1.388h.664v3.468h-.664v1.388h-.664v.693H720.521v-2.081h.664zm34.528-2.775h.663v-.694h.665v-.694h1.328v3.469h-.665v1.387h2.656v2.081h-1.327v.694H757.041v-.694h-.665v-1.387h-.663v-2.081h-.665v-1.387h.665z"/><path fill="#754F3D" d="M727.825 114.975h.664v.694h.664v2.774-.693h.664v.693h.664v-.693h.664v.693h.664v.694h.664v.694h1.327v.693h1.992v.694h1.328v.694h9.296v-.694h1.328v-.694h1.328v-1.387h.664v-.694h1.327v-1.387h.665v-1.387h.664V112.2h-5.312v.694h-7.303v.693h-3.984v-.693h-7.303v1.387h-.664v.694zm-10.624 8.324h2.656v-.693h.664v-.694h.664v-.694h.665v-.694h.663-.663v-.693h.663v-2.081h-.663v-.694h-1.33v-.694h-1.328v-.693h-.664v-.694H717.2v-1.388h.664v-.693h.664v-.694h.664v-.694h.664v-1.387h1.328v-1.389h1.992v.694h1.328v.694h2.656v.693h6.64v-.693h5.312v-.694h3.985v-.694h12.616v.694h1.327v.694h1.329v2.082h.664v1.387h.663v3.469h-1.326v4.162h.664v.694h-.664v2.081h-.665v.694h-.663v1.387h-.665v.694h-.663v.694h-.664v.694h-.665v.693h-.663v.694h-.665v.694h-1.327v.694h-.665v.693h-.663v.694h-1.992v.694h-1.328v.694h-3.322v.693h-3.32v.694h-11.951v-.694h-3.32v-.693h-3.319v-.694h-.665v-.694h-.664v-.694h-.664v-.693h-.664v-.694h-.664v-1.388h-.664v-.693h-.664v-.694h-.663v-1.388h-.665V123.3h1.328z"/><path fill="#212322" d="M759.033 108.037h-.665v-.693h.665z"/><path fill="#8F969C" d="M761.688 121.912v.694h2.657v-.694h1.327v.694h-.664v.693H761.024v-.693h-.664v-.694h.664zm-1.328-.694v.694h-1.327v-.694h.663zm-38.51-4.162v.694h.663v2.081h-.663v1.387h-.665v.694h-.664v.694h-.664v.693h-3.984v-.693h-1.328v-.694h-.664v-1.388h.664v.694h.664v.694H719.193v-.694h.664v-.694h.664v-1.387h.664v-2.081zm43.822-1.387v.693h.664v.694H767v4.162h-.664v.694h-.664v-1.388h.664v-1.387h-.664v-2.081h-.664v-1.387z"/><path fill="#232021" d="M749.737 106.65h-.664v-.694h.664z"/><path fill="#583529" d="M751.729 106.65h-.665v-.694h.665z"/><path fill="#C3A363" d="M732.473 105.956h-.664v-.694h.664z"/><path fill="#F6DF7F" d="M734.465 105.956h-.664v-.694h.664z"/><path fill="#D39349" d="M739.777 105.956h-.664v-.694h.664z"/><path fill="#F3BD50" d="M740.441 105.956h-.664v-.694h.664z"/><path fill="#F8D863" d="M741.105 105.956h-.664v-.694h.664z"/><path fill="#B19465" d="M749.073 105.956h-.664v-.694h.664z"/><path fill="#232425" d="M759.033 105.956h-.665v-.694h.665z"/><path fill="#242324" d="M724.505 105.262h-.664v-.693h.664z"/><path fill="#CBAA62" d="M727.161 105.262h-.664v-.693h.664z"/><path fill="#F6B75A" d="M741.105 105.262h-.664v-.693h.664z"/><path fill="#F4BB4D" d="M749.737 105.262h-.664v-.693h.664z"/><path fill="#A69869" d="M754.384 105.262h-.663v-.693h.663z"/><path fill="#5D2E22" d="M763.68 121.218h-.664v-.694h-1.992v-.693h.664-.664v-1.388H762.353v-.693h1.992v2.774h-.665zm-8.631 15.956v-.693h.664v-.694h1.328v-.694h1.328v2.081h-1.328v.694h-1.328v1.388H754.384v-1.388h-.663v-.694h.663zm-31.208-2.081v.694h1.328v.694h.664v.693h.664v1.388h-.664v1.387h-.664v-1.387h-.664v-1.388h-.664v-.693h-1.328v-1.388h.664zm1.992.694v-.694h-1.328v-.694h-1.328v-.693h1.992v.693H728.489v.694H741.105v-.694H744.425v-.693h2.656v-.694h1.328v-.694h1.992v-.694h.663v-.693h.665v-.694h1.327v-.694h.665v-.694h1.328v-1.387h.664v-.694h.663v-.694h.665v-.693h.663v-1.388h.665v-2.081h1.327v.694h.664v.693H765.008v2.775h-.664v1.388h-.664v.694h-.664v.693h-.663v1.388h-.665v.694h-.664v.693h-.664v.694h-.664v.694h-.663v.694H757.704v.693h-1.328v.694h-1.327v.694h-1.328v.694h-1.328v.693H750.401v.694h-2.656v.694H733.137v-.694h-2.656v-.694h-1.992v-.693h-1.328v-.694h-.664zm-3.32-27.75v-3.468h.664v.693H726.497v.694h2.656v.694H751.729v-.694H754.384v-.694h2.657v-.693h1.328v3.468h.664v.694h.663v1.388h.664v.693h.664v.694h.664v.694h.665v.694h.663v.693h.664v1.388h-1.327v.694h-.665v.693h-.664v-.693.693h-.664v.694h-.664v-3.469h-.663V112.2h-.664v-2.081h-1.328v-.694h-1.328v-.694H743.097v.694H739.113v.694h-5.976v.693h-5.976v-.693h-2.656v-.694h-1.328v-.694h-1.327v-.694z"/><path fill="#434945" d="M724.505 104.569h-.664v-.694h.664z"/><path fill="#F7D964" d="M737.121 104.569h-.664v-.694h.664z"/><path fill="#F4BA47" d="M739.113 104.569h-.664v-.694h.664z"/><path fill="#F4C050" d="M751.729 104.569h-.665v-.694h.665z"/><path fill="#F5C661" d="M752.393 104.569h-.664v-.694h.664z"/><path fill="#ADA16C" d="M756.376 104.569h-.663v-.694h.663z"/><path fill="#242526" d="M758.369 104.569h-.665v-.694h.665z"/><path fill="#B7BCC2" d="M715.873 114.975v2.081h.665v1.387h-.665v2.081h.665v.694h1.991v-.694h.664v-.693h.664v-2.081h1.328v1.387h-.664v1.387h-.664v.694h-.664v.694H715.209v-.694h-.664v-1.387h-.664v-2.081h.664v-1.388h.664v-1.387zm43.823 2.775h.664v.693h.664v2.081H762.353v.694h1.327v-.694h.664v-2.774h-.664v-.694h1.992v2.081h.664v.694h-.664v2.081h-1.328v.694h-1.991v-.694H760.36v-.694h-1.327v-.694h-.664v-2.774h.664z"/><path fill="#726C5C" d="M723.177 103.875h-.664v-.694h.664z"/><path fill="#E4AC4D" d="M731.809 103.875h-.664v-.694h.664z"/><path fill="#FACB60" d="M743.761 103.875h-.664v-.694h.664z"/><path fill="#544134" d="M722.513 103.181h-.663v-.694h.663z"/><path d="M731.145 103.181h-.664v-.694h.664z"/><path fill="#F4BA4C" d="M736.457 103.181h-.664v-.694h.664z"/><path fill="#F9D27A" d="M749.737 103.181h-.664v-.694h.664z"/><path fill="#F4C155" d="M753.721 103.181h-.665v-.694h.665z"/><path fill="#A08964" d="M759.033 103.181h-.665v-.694h.665z"/><path fill="#3B4343" d="M759.696 103.181h-.663v-.694h.663z"/><path fill="#4D4137" d="M722.513 102.487h-.663v-.693h.663z"/><path fill="#F8DB64" d="M723.177 102.487h-.664v-.693h.664z"/><path fill="#E7C24F" d="M723.841 101.793h-.664v-.693h.664z"/><path fill="#F7B459" d="M734.465 101.793h-.664v-.693h.664z"/><path fill="#F8C95F" d="M739.777 101.793h-.664v-.693h.664z"/><path fill="#F7C75B" d="M743.097 101.793h-.665v-.693h.665z"/><path fill="#7C817B" d="M759.033 101.793h-.665v-.693h.665z"/><path fill="#242324" d="M723.177 101.1h-.664v-.694h.664z"/><path fill="#F4C153" d="M730.481 101.1h-.664v-.694h.664z"/><path fill="#B6AB72" d="M757.041 101.1h-.665v-.694h.665z"/><path fill="#F5C357" d="M725.169 100.406h-.664v-.694h.664z"/><path fill="#F6DF80" d="M745.752 100.406h-.663v-.694h.663z"/><path fill="#F6B659" d="M725.833 99.712h-.664v-.693h.664z"/><path fill="#F7D964" d="M731.809 99.712h-.664v-.693h.664z"/><path fill="#E9CA72" d="M740.441 99.712h-.664v-.693h.664z"/><path fill="#F5F1DC" d="M724.505 99.018h-.664v-.693h.664z"/><path fill="#221F20" d="M740.441 139.256h-1.328v-.694h2.656v.694h-.664zm13.28-1.388h.663v1.388h.665v2.081h.664v2.081h-.664v-1.388h-.665v-1.387h-.663v-2.081h-.665v-.694z"/><path fill="#221F20" d="M728.489 137.174h1.992v.694h2.656v.694H736.457v.694h.664v-.694h1.328v.694H742.433v-.694h1.328v.694h.664v-.694H747.745v-.694h2.656v-.694h1.992v-.693h.663v.693h-.663v.694h-.664v.694H748.409v.694h-2.657v.693H735.129v-.693h-2.656v-.694H729.153v-.694h-.664v-.694h-.664v-.693h.664zm-4.648-2.775h.664v.694h1.328v.694h-1.992v-.694zm27.223-27.749h-.663v-.694h.663z"/><path fill="#221F20" d="M727.161 105.956h-.664v-.694H731.145v.694h17.928v-.694H754.384v.694H750.401v.694h-.664v-.694h-.664v.694H729.153v-.694h1.328-2.656zm-3.984-1.387h-.664v3.468h-.663v.694h-.665v.694h-.664v-1.388h.664v-1.387h.665v-2.775h-.665v-2.081h.665v1.387h.663v.694h1.328v1.387h-.664zm33.864-3.469v-.694h1.328v.694h-.665zm-35.856 43.011h1.328v.694h1.328v-.694h.664v1.388H721.185v-.694h-.664v-.694zm35.191-.693v.693h.665v.694H759.696v-.694h.664v1.388h-4.647v-2.081zm-31.871-.694v-.694h.664v-1.387h.664v-2.081h.664v-.694h.664v2.081h-.664v1.388h-.664v1.387h-.664v1.387h-.664v-.693zm35.855 0v-.694h-1.991v-1.387h.664v.694h.663v-.694h.664v.694h.664v2.774h-.664v-.693zm-39.839 0v1.387h-.664v-.693h-.664v-1.388h.664v-.693h.664v.693zm5.976-6.937h.664v1.387h-1.328v-.693h-.664v-.694h.664zm28.552.694v.693h-1.328v-1.387h1.992v.694z"/><path fill="#221F20" d="M759.033 135.093h.663v2.081h-.663v2.775h-.664v-4.856h-1.328v.694h-1.992v-.694h1.327v-.694h1.328v-.693H759.033v.693zm-35.856-1.387v.693h.664v.694h-1.328v1.388h-.663v.693h.663v4.163h-1.992v-.694H721.85v-2.081h-.665v-4.163h.665v-.693h.663zm-1.327-.694v.694H720.521v-.694h.664zm37.846.694h-.663v-.694h1.327v.694zm1.328-1.388v.694h-.664v-1.388h.664v-.693h.664v-.694h.665v-.694h.663v-.694h.664v-.693h.665v1.387h-.665v.694h-.664v.694h-.663v.693h-.665v.694zm-41.167-1.387v.693h.664v1.388h-.664v-.694h-.664v-.694h-.664v-.693h.664zm-2.656-2.775v.693h.664v.694h.664v1.388h-.664v-.694h-.664v-.694h-.663v-2.081h.663zm-.663-.694h-.665v-.694h.665zm48.47 0h-.664v-1.388h.664v-2.775h.664v-1.387h.664v2.081h-.664v.694h.664v.694h-.664v1.387h-.664zm-49.799-4.163v.694h.664v2.775h-.664v-1.387h-.664v-2.775h.664zM767 121.912h-.664v-.694H767zm-52.455-5.55v1.388h-.664v-1.388zm51.791 0h-.664v-.693h.664zm-1.991-2.081h-.665v-.694h-.664v-.693h-.663v-.694h-.665v-1.388h-.664v-.693H762.353v1.387h.663v.694h.664v.694h.665v.693h.663v1.388h-.663zm-45.816-1.387h-.664v.693h-.664v.694h-.663v.694h-.665v-1.388h.665v-.693h.663v-.694h.664v-.694h.664v.694zm.664-2.082v.694h-.664v-1.387h1.328v.693zm1.328-.693h-.664v-.694h.664zm39.839 0h-.664v-.694h1.328v.694zm-.664-1.388h-.663v-1.387h-.664v-1.388h.664v.694h.663v1.387h.664v1.388h-.664zm-44.487 7.631h-.664v-.693h.664zm9.96-11.1h-.664v-.693h1.992v.693h-.664zm29.88-.693h1.327v-.694h1.328v.694h-.663v.693h-2.657v-.693zm10.623 11.1h-.664v-.694h.664zm-7.303-12.488h.664v2.081h-.664v-1.387h-.665v-.694zm1.327-.694h-.663v-.694h.663zm-37.183-1.387h.664v.693h-1.327v-.693zm1.328 0h-.664v-.694h.664zm31.208-.694v-.694h1.327v.694h-.663z"/><path fill="#F4C052" d="M749.737 99.018h-.664v-.693h.664z"/><path fill="#F4BA4A" d="M743.097 98.325h-.665v-.694h.665z"/><path fill="#F4BA47" d="M752.393 98.325h-.664v-.694h.664z"/><path fill="#F6E7AB" d="M753.056 98.325h-.663v-.694h.663z"/><path fill="#F4C15A" d="M739.113 97.631h-.664v-.694h.664z"/><path fill="#F7B659" d="M737.785 96.937h-.664v-.693h.664z"/><path fill="#F6B65A" d="M739.113 96.937h-.664v-.693h.664z"/><path fill="#F5EFD5" d="M744.425 96.937h-.664v-.693h.664z"/><path fill="#F5F1DD" d="M749.737 96.244h-.664v-.694h.664z"/><path fill="#F6DC7C" d="M730.481 95.55h-.664v-.694h.664z"/><path fill="#F6E4A4" d="M737.785 95.55h-.664v-.694h.664z"/><path fill="#F5EDC7" d="M741.105 95.55h-.664v-.694h.664z"/><path fill="#F5EDDD" d="M743.097 95.55h-.665v-.694h.665z"/><path fill="#F5F3E3" d="M733.137 94.856h-.664v-.693h.664z"/><path fill="#F6E7CF" d="M742.433 94.856h-.664v-.693h.664z"/><path fill="#F5EAD6" d="M732.473 94.163h-.664v-.694h.664z"/><path fill="#F6E8AF" d="M747.745 94.163h-.664v-.694h.664z"/><path fill="#F7E6CC" d="M748.409 94.163h-.664v-.694h.664z"/><path fill="#F4BA47" d="M752.393 94.163h-.664v-.694h.664z"/><path fill="#F5DDB8" d="M731.809 93.469h-.664v-.694h.664z"/><path fill="#F4BB4C" d="M733.137 93.469h-.664v-.694h.664z"/><path fill="#F7F3E8" d="M731.145 92.775h-.664v-.693h.664z"/><path fill="#F7C75A" d="M732.473 92.775h-.664v-.693h.664z"/><path fill="#F6E8AC" d="M736.457 92.775h-.664v-.693h.664z"/><path fill="#F5ECC6" d="M744.425 92.775h-.664v-.693h.664z"/><path fill="#F4D4A5" d="M747.745 92.775h-.664v-.693h.664z"/><path fill="#F5EBBE" d="M751.729 92.775h-.665v-.693h.665z"/><path fill="#F5F2E0" d="M737.121 92.082h-.664v-.694h.664z"/><path fill="#F4DCB8" d="M747.745 92.082h-.664v-.694h.664z"/><path fill="#F5EFD3" d="M751.064 92.082h-.663v-.694h.663z"/><path fill="#F3D1A0" d="M731.145 91.388h-.664v-.694h.664z"/><path fill="#F8CB6A" d="M733.801 91.388h-.664v-.694h.664z"/><path fill="#F5F1DD" d="M734.465 91.388h-.664v-.694h.664z"/><path fill="#F2AB48" d="M731.809 105.956h-.664v-.694h.664zm7.968-4.856v-.694h1.328v1.387h-.664v-.693zm13.279-3.469h-.663v-.694h.663zm-11.287-1.387h-.664v-.694h.664zm-9.296 8.325h.664v.693h-1.328v-.693zm12.616.693h-.664v-.693h.664z"/><path fill="#F2AB48" d="M726.497 102.487h.664v.694h1.329v-.694h-1.328v-.693h-.664v.693zm2.656-.693h.664v-.694h.664v-.694h-1.992v.694h-.664v.694h1.328zm1.992-2.082v.694h1.328V99.02h.664v-.694h-1.992v.694h-.664v.693h.664zm1.992.694h1.328v-.694h.664v-1.387h-.664v.694h-.664v.693h-.664v.694zm1.328 1.388h-.664v-.694h.664v.694zm-4.648-2.775h-1.328v.693h1.328v-.692zm5.976 1.387h1.328v-.694h1.328v-1.387h-.664v.694h-.664v.693h-1.328v.694zm8.632 0h-.664v-.694h.664v.694zm.664 0h1.991v.694h.664v.694h1.328v-1.388h.664v-.694h-1.328v.694h-1.328V99.02h-.664v.693h-1.328v.694zm3.32-2.775h-.664v-.694h.664v.694zm3.984 2.775h-.664v-.694h.664v.694zm-26.56 1.387h-.664v-.693h.664v.693zm-1.328 1.388v-.694h.664v.694h.664v-.694h-1.992v-2.775h.664v.694h3.32v-.694h-1.992v-1.387h-.664v-.694h1.328v.694h3.32v-.694h-.664v-.694h.664v-.693h-1.328v-.694h1.991v.694h.664v-1.388h.664v.694h.664v-.694h.664v-.693h-.664v-.694h1.328v.694h.664v-.694h1.992v.694h-1.328v.693h1.992v1.388h-.664v-.694h-1.992v-.694h-.664v.694h-.664v.694h-1.328v.693h1.328v.694h1.328v-.694h-.664V95.55h.664v1.387h.664v-.693h.664v.693h.664v.694h2.656v-.694h1.328v.694h1.991v.694h.665v.694h1.328v-.694h-.664v-.694h.664v-.694h.664v1.388h.664v-.694h.664v.694h.664v-.694h-.664v-.694h-1.328v-.693h-.664v-.694h-1.328v-.694h1.992v.694h.664v-.694h2.656v.694h-1.992v.694h2.656v.693h.664v.694h1.992v.694h-2.656v.694h1.328v.693h.663v-.692h2.657v1.387h.663v.694h1.33v.694h-1.329v.693h-1.328v-.693h-.663v-.695H750.4v-.694.694h-.664v.694h1.992v.693h-2.656v.694h-1.992v-.694h-2.656v-.693h-1.328v-.694h-.665v-1.388h-.663v-.692h-1.992v.693h-.664v.694h-.664v.694h.664v.694h1.328v.693h.664v.694h1.992v.694h.664v.694h-.664v.693h-.665v.694h-.663v-1.387h.663v-.694h-1.991v-.694h-.664v-.694h-1.328v-.693h-.664v-.695h-2.656v.694h-.664v.693h.664v.694h-.664v-.694h-2.656v-.693h-1.328v1.387h.664v.694h-.664 1.328v.694h-.664v.693h-1.328v-.693h-1.328v-.694h-.664v.694h.664v.693h-1.328v-.693h-.664v-.694h-.664v.694h-.664v-.694h-1.992v-.694h1.328z"/><path fill="#F2AB48" d="M732.473 103.875h-.664v-.694h.664v-.694h.664v.694h1.328v.694h-.664v.693h-.664v-.693zm4.648 0h-1.328v.693H739.113v-.693h-.664v-.694h1.328v.694h.664v.693h-.664v.694h-.664v.694h-2.656v-.694h-1.328v-1.387h.664v-.694h1.992v.694zm12.616 0h1.327v.693H752.393v-1.387h-2.656v-.694h3.319v.694H757.704v.694h-1.991v.693h-2.657v.694H749.737v-.694h-1.992v-.693h1.328v-.694h.664zm-26.56-.694h-.664v-.694h.664zm8.632 0h-.664v-.694h.664zm6.64 0h-.664v-.694h.664zm5.312-.694h.664v.694h1.992v1.388h-1.328v-.694h-1.328v-.694zm-1.329 0h-1.327v-.693h1.992v.693zm14.609 0h-1.328v-.693h2.656v1.387h-.665v-.694zm-29.88-4.856h-.664v-.694h1.328v.694zm15.271 0v-.694H743.761v.694h-.664zm-13.943-.694h-.664v-.693h1.328v.693zm9.96 0h-.664v-.693h.664zm2.656 0h-.664v-.693h1.992v.693h-.664zm-1.992-1.387h.664v.694h-1.328v-.694zm11.951 0v.694h.665v.693h-1.328v-.693h-.664v-.694h-.664v-1.387h.664v.693h.664v.694z"/><path fill="#F2AB48" d="M751.729 96.244v-.694h-.665v-.694H753.056v1.388h-.663zm-8.632-1.388h-.664v-.693h.664zm7.967 0h-.663v-.693h.663zm-8.631-.693h-.664v-.694h.664zm1.328-.694v-.694h1.328v.694h1.992v.694H743.097v-.694zm4.648 0h-.664v-2.081h.664v1.387h.664v-1.387h.664v1.387h1.992v.694h-2.656v.694h-.664zm-15.936 0h-.664v-.694h.664zm5.312 0h-.664v-.694h-.664v-.693h1.328v-.694h.664v1.387h-.664zm-6.64-1.387h-.664v-.694h1.328v-.694h1.328v.694h1.992v.694h.664v.693h-1.328v-.693h-.664v.693h-.664v-.693h-1.328v.693h-.664zm8.632.693h-.664v-.693h.664z"/><path fill="#F2AB48" d="M741.769 92.775h-.664v.694h-.664v.694h-1.328v.693h-1.328v-.693h.664v-1.388h.664v.694h.664v-.694h.664v-.693h.664v-.694h.664v-.694h.664v1.388h-.664z"/><path fill="#F2AB48" d="M740.441 92.082h-.664v-1.388h1.328v.694h-.664z"/><path fill="#F6E7A8" d="M733.137 90.694h-.664V90h.664z"/><path fill="#F6E9B6" d="M739.777 90.694h-.664V90h.664z"/><path fill="#F6E08E" d="M736.457 105.262v.694h-1.328v-.694h.664zm1.328-.693h-.664v-.694h.664zm-1.992-.694h-.664v-.694h.664zm12.616 0h-.664v-.694h.664zm5.975-.694h-.663v-.694h.663zm1.329-2.081h-.664v-.694h.664zm-29.88-1.388h1.328v.694h-1.328zm5.976.694h-.664v-.694h.664zm16.6 0v-.694h1.328v.694h-.664zm-21.248-2.775h1.328v.694h-1.328zm-1.328 0h-.664v-1.387h.664v.693zm11.952 0h-.664v-.694h.664zm-7.304-2.775h-.664v-.693h.664zm7.304-1.387v-.694h.664v1.388h-.664zm11.952.694h-.664v-.694h.664zm-17.928 11.099h-.664v-.693h.664zm2.656 0h-.664v-.693h.664zm13.28 0h-.664v-.693h.664zm1.328 0h-.664v-.693h.664zm-23.904-.693h-.664v-.694h.664zm1.328 0h-.664v-.694h.664zm6.64 0h-.664v-.694h.664zm1.992 0h-.664v-.694h.664zm16.6-.694h-.665v-.694h.665zm-25.896-.694h-.664v-.694h.664zm11.952 0h-.664v-.694h.664zm1.992 0h-.664v-.694h.664zm-3.32-.694h-.664v-.694h.664zm15.936 0h-.664v-.694h.664zm-23.24-1.387h.664v.693h-1.992v-.693h.664zm11.288.693h-.664v-.693h.664zm17.263 0h-.663v-.693h.663zm-23.239-1.387h-.664v-.694h.664zm5.976-.694h1.328v.694h.663v.694h-1.327v-.694h-1.992v-.694h.664zm6.64.694h-.664v-.694h.664zm-21.912-.694h-.664v-.693h.664zm7.304-.694h-.664v-.693h.664zm2.656 0h-.664v-.693h.664zm10.623-1.387h-.663v-.694h.663zm6.641 0h-.664v-.694h.664zm-25.232-.694h-.664v-.693h.664v-.694h.664v.694h-.664zm7.968 0h-.664v-.693h.664zm14.608 0h-.664v-.693h.664zm-15.936-.693h-.664v-.694h.664zm-1.992-1.388v-.693h.664v1.387h-.664zm19.92-.693h-.665v-.694h.665zm-17.928-.694h-.664v-.694h.664zm.664-.694h-.664v-.693h.664zm5.312-.693h-.664v-.694h.664zm6.64 13.18v.694h-1.328v-.694h.664zm2.656-1.387h-.664v-.694h.664zm-17.264-1.388h-.664v-.693h.664zm16.6-.694h-.664v-.693h.664zm-3.32-4.856h-.664v-.693h.664zm-9.296-.693h-.664v-.694h.664zm1.992-1.388h2.656v1.388h-.664v-.694h-1.992zm11.288-.693v.693h-1.328v-.693h.664zm3.32 0h.663v.693h.665v.694h-.665v-.694h-.663zm-6.64-.694h-.664v-.694h.664zm-3.321-1.387H743.761v1.387h-.664v-.694h-.665zm-6.639 0h-.664v-.694h.664zm12.616-.694v-.694h.664v1.388h-.664zm-16.6 0h-.664v-.694h.664zm8.632-.694h-.664V90h.664z"/><path fill="#FACA48" d="M743.761 94.856h-.664v-.693h.664zm17.263 21.506h.664v-.693h.665v-.694h1.992v.694h.663v.693h-.663v.694h-.665v.694h-1.327v.693H761.024v-.693h-.664v-.694h.664-.664v-.694zm-44.486-1.387h1.327v.694h1.328v.693h.664v.694h.664v.694h-.664v.693h-1.328v-.693h-1.328v-.694h-1.328v-2.081zm18.591-9.019h-.664v-.694h.664zm6.64 0h-.664v-.694h.664zm2.656-.694h.664v.694h-1.992v-.694h.664zm-15.272 0h-.664v-.693h.664zm3.984-.693h.664v1.387h-1.328v-.694h.664zm7.304.693h-.664v-.693h.664zm5.312-.693h.664v.693h-1.328v-.693zm2.656.693h-.664v-.693h.664zm5.312 0h-.665v-.693h.665zm-25.232-.693h-.664v-.694h.664zm7.968 0h-.664v-.694h.664zm1.992 0h-.664v-.694h.664zm3.32-.694v.693h-1.328v-.693h.664zm-6.64 0h-.664v-.694h.664zm5.312 0h-.664v-.694h.664zm5.976-.694h1.328v.694h-1.328zm4.647 0v.694h-1.327v-.694h.664zm-26.559 0h-.664v-.694h.664zm3.984-.694v.694h-1.328v-.694h.664zm3.984.694h-.664v-.694h.664zm3.32 0h-.664v-.694h.664zm5.976 0h-.664v-.694h.664zm3.32 0h-.664v-.694h.664zm10.624-.694h.663v.694h-1.992v-.694h.664zm1.991.694h-.663v-.694h.663zm-20.583-.694h-.664v-.694h.664zm3.984 0h-.664v-.694h.664zm3.32-.694v.694h-1.328v-.694h.664zm8.631.694h-.663v-.693h.663zm5.977 0h-.665v-.693h.665zm-33.2-.694h-.664v-.693h.664zm9.96 0h-.664v-.693h.664zm13.28 0h-.664v-.693h.664zm1.991-.693H752.393v.693H751.064zm7.305.693h-.665v-.693h.665zm-29.88-.693v-.694h1.328v.694h-.664zm19.92 0h-.664v-.694h.664zm-20.584-.694h-.664v-.694h.664zm4.648 0h-.664v-.694h.664zm4.648 0h-.664v-.694h.664zm15.272 0h-.664v-.694h.664zm1.991 0h-.663v-.694h.663zm-25.895-.694v-.693h1.328v.693h-.664zm2.656 0h-.664v-.693h.664zm5.976-.694h1.328v.694h-1.328zm13.943.694h-.663v-.694h.663zm-6.639-1.387v.693h-1.328v-.693h.664zm-17.264 0h-.664v-.694h.664zm1.328 0v-.694h1.328v.694h-.664zm18.592 0h-.664v-.694h.664zm-13.944-.694v-.694h1.328v.694h-.664zm3.984 0h-.664v-.694h.664zm3.984 0h-.664v-.694h.664zm1.328 0h-.664v-.694h.664zm-15.936-.694h-.664v-.693h.664zm25.896 0h-.664v-.693h.664zm-21.248-.693h-.664v-.694h.664zm15.936 0h-.664v-.694h1.992v.694h-.664zm4.648 0h-.665v-.694h.665zm-17.264-.694h-.664v-.694h.664zm11.288 0h-.664v-.694h.664zm5.311 0h-.663v-.694h.663zm-15.271-.694h-.664v-.693h1.328v.693zm14.608 0h-.664v-.693h.664zm-15.936-.693h-.664v-.694h.664zm1.992 0v-.694h1.328v.694h-.664zm6.64 0h-.664v-.694h.664zm-3.32-.694h-.664v-.694h.664zm.664-.694h-.664v-.693h.664zm9.96-.693h-.664v-.694h.664zm-11.288-.694h-.664v-.694h.664zm1.992-.694h-.664V90h.664z"/><path fill="#F8D648" d="M747.081 105.956h-.664v-.694h.664zm-12.616-1.387h-.664v-.694h.664zm12.616 0h-.664v-.694h.664zm-23.24-1.388h-.664v-.694h.664zm19.256-.694h.664v.694H741.769v-.694h.663zm13.944.694h-.665v-.694h.665zm-29.88-.694h-.664v-.693h.664zm3.984 0h-.664v-.693h.664zm16.6-1.387h-.664v-.694h.664zm8.631 0h-.663v-.694h.663zm-30.543-.694h-.664v-.694h.664zm10.624 0h-.664v-.694h.664zm18.592 0h-.665v-.694h.665zm-30.544-.694h-.664v-.694h.664zm17.264 0h-.664v-.693h.664zm12.615 0h-.663v-.693h.663zm-29.215-.694h-.664v-.693h.664zm6.64 0h-.664v-.693h.664zm6.64 0h-.664v-.693h.664zm3.32-1.387h-.664v-.694h.664zm6.64 0h-.664v-.694h.664zm-5.312-.694h-.664v-.693h.664zm-6.64-.693h-.664v-.694h.664zm5.976 0h-.664v-.694h.664zm5.976-.694v-.694h.664v1.388h-.664zm4.647 0h.665v1.387h-1.328v-.693h.663zm-21.247-1.387v.693h-1.328v-.693h.664zm4.648 0h1.328v.693h-1.328zm6.64-.694h-.664v-.694h.664zm5.976-.694h-.664v-.693h.664zm-7.968-.693h-.664v-.694h.664zM732.473 90v.694h-1.328V90zm9.296 0v1.388h-.664V90z"/><path fill="#F6E8D1" d="M742.433 90.694h-.664V90h.664z"/><path fill="#FEFEFE" d="M730.481 116.362v.694h.664v.694h-.664v.693h-.664v-.693h-.664v-.694h.664v-.694zm.664-.693v-.694h.664v1.387h-.664zm-2.656-.694v-.694h1.328v.694h-.664zm21.912-18.038h-.664v-.693h.664z"/><path fill="#ED8943" d="M736.457 101.1h1.328v.693h.664v.694h-1.328v-.694h-1.328v-.693zm4.648-1.388h-.664v-.693h.664zm7.304 5.55v.694h-1.328v-.694h.664zm-18.592 0h-.664v-.693h.664zm17.264 0h-.664v-.693h.664zm-7.968-2.081h-.664v-.694h.664zm16.6-1.388v.694H754.384v-.694h.664zm-8.632-2.081h-.664v-.693h.664zm-11.952-3.468h-.664v-.694h.664zm9.296-.694v.694h-.664v.693h-.664v-.693h-.664v-.694h1.328zm-14.608 0h-.664v-.694h.664zm13.28 10.406h-.665v-.694h.665zm-7.968-.694h-.664v-.693h.664zm6.64 0h-.664v-.693h.664zm1.992-.693v-.694h1.328v.694h-.664v.693h-1.328v-.693zm-11.288 0h-.664v-.694h.664zm9.96 0h-.664v-.694h.664zm5.312 0h-.664v-.694h.664zm-9.296-.694h-.664v-.694h.664zm13.944 0h-.664v-.694h.664zm-17.928-1.388v.694h-1.328v-.694h.664zm2.656.694h-.664v-.694h.664zm7.968-.694h1.992v.694h-1.992zm-21.248 0h-.664v-.693h.664zm11.288-.694h.664v.694h-1.328v-.694zm7.303-.693v.693h-1.327v-.693h.664zm8.632 0v.693h-1.327v-.693h.664zm5.312 0h.665v.693h-1.328v-.693zm-17.927 0v-.694h1.328v.694h-.664zm10.624 0h-.664v-.694h.664zm5.976 0h-.665v-.694h.665zm-21.248-.694h-.664v-.694h.664zm8.632 0h-.664v-.694h.664zm1.992 0h-.664v-.694h.664zm1.992 0h-.665v-.694h.665zm-13.944-.694h-.664v-.693h.664zm1.992-.694h.664v.694h-1.328v-.694zm-8.632 0h-.664v-.693h.664zm7.304 0h-.664v-.693h.664zm17.927-.693h2.657v.693H749.737v-.693h.664zm-7.303 0h-.664v-.694h.664zm1.992 0h-.664v-.694h.664zm-19.256-.694h-.664v-.694h.664zm2.656-.694v.694h-1.328v-.694h.664zm9.296.694h-.664v-.694h.664zm5.976 0h-.664v-.694h.664zm1.992 0h-.665v-.694h.665zm4.647-.694h.665v.694h-1.992v-.694h.664zm-21.247 0h-.664v-.693h.664zm3.32-.693h.664v.693h-1.992v-.693h.664zm3.32.693h-.664v-.693h1.328v.693zm3.32 0h-.664v-.693h1.328v.693zm-11.288-.693h-.664v-.694h.664zm-.664.693h-.664v-.693h.664zm10.624-.693h-1.328v-.694h1.328zm2.656 0h-.664v-.694h.664zm-9.96-.694h-.664v-.694h.664zm15.272-.694h-2.656v-.693H747.745v.693h-.664zm5.976-.693v.693H751.064v-.693h.665zm-1.329-.694v.694h-1.327v-.694h.664zm-13.943 0H733.801v-.694H737.121zm-3.984-.694h-.664v-.693h.664zm5.976 0h-.664v-1.387h.664v.694zm11.951-.693v.693h-1.327v-.693h.664zm-13.279 0h-.664v-.694h.664zm1.992-.694h-.664v-.694h.664z"/><path fill="#FEFEFE" d="M742.432 93.469h-.663v1.387h.663v.694h-1.327v-.694h-1.992v-.693h1.328v-.694h.664v-.694h.664v-.693h.663v.693z"/></g><g><g transform="translate(181 23.428)"><mask id="l" fill="#fff"><use xlink:href="#k"/></mask><path fill="#400003" d="M47.006 40.596l-3.123-24.052c-2.762.36-5.522.726-8.281 1.1-.361-2.67-.723-5.341-1.086-8.01-5.55.75-11.093 1.533-16.636 2.348l5.877 39.994c5.393-.792 10.79-1.555 16.188-2.288l-1.085-8.01c2.715-.369 5.43-.729 8.146-1.082m16.305-2.024c-2.719.321-5.437.651-8.155.989l.997 8.023c-2.703.336-5.405.679-8.106 1.03l1.04 8.017c-13.43 1.745-26.843 3.677-40.234 5.798C5.903 43.797 2.952 25.166 0 6.534 13.912 4.33 27.847 2.322 41.801.51l1.041 8.016c2.776-.36 5.552-.712 8.33-1.057l.995 8.023c2.763-.343 5.526-.678 8.29-1.005l2.854 24.084" mask="url(#l)"/></g><path fill="#400003" d="M267.327 26.952l2.42 24.132c5.477-.549 10.956-1.069 16.436-1.556l-.718-8.053c2.756-.244 5.511-.483 8.268-.713-.45-5.371-.898-10.741-1.345-16.113-8.359.696-16.714 1.466-25.061 2.303m3.228 32.177l1.614 16.087c-5.385.542-10.769 1.112-16.15 1.712-2.094-18.747-4.187-37.496-6.278-56.242 16.771-1.873 33.566-3.463 50.378-4.771l.627 8.06c2.788-.218 5.575-.427 8.363-.627l1.748 24.19c-5.487.396-10.97.822-16.453 1.28l.672 8.056c2.727-.228 5.453-.446 8.181-.66l.627 8.061c2.831-.247 5.665-.486 8.498-.717l.585 8.145c-8.214.59-16.427 1.25-24.633 1.982l-.717-8.053c-2.71.243-5.419.491-8.129.748l-.763-8.048c-2.724.258-5.447.523-8.17.797m73.828-37.913l.392 8.075c-2.775.136-5.55.277-8.326.429l.876 16.145c8.235-.447 16.473-.824 24.714-1.134l-.606-16.158c-2.776.105-5.552.216-8.329.337-.117-2.693-.232-5.387-.347-8.078-2.792.12-5.584.247-8.374.384m-24.582 9.499c2.774-.182 5.548-.356 8.323-.521-.161-2.69-.321-5.381-.483-8.07 2.79-.167 5.58-.326 8.37-.478l-.437-8.073c8.415-.456 16.834-.842 25.255-1.157.1 2.693.2 5.386.303 8.08 2.791-.105 5.583-.203 8.376-.291.085 2.693.17 5.387.258 8.08 2.776-.088 5.553-.17 8.331-.242l1.063 40.408c-5.406.142-10.81.314-16.213.518l-.606-16.159c-8.195.308-16.388.683-24.578 1.127.29 5.38.582 10.763.875 16.146-5.401.293-10.8.615-16.197.969l-2.64-40.337"/><g transform="translate(387.286 11.214)"><mask id="n" fill="#fff"><use xlink:href="#m"/></mask><path fill="#400003" d="M58.49 57.012c-13.515-.263-27.03-.34-40.547-.227l-.068-8.083c-2.718.023-5.436.053-8.155.09-.036-2.694-.074-5.388-.112-8.083-2.732.038-5.465.084-8.199.137L.937 16.598c2.777-.055 5.556-.102 8.333-.14l-.113-8.085c2.793-.039 5.588-.07 8.38-.092L17.47.197C31.512.079 45.554.156 59.594.43l-.159 8.084c-11.17-.219-22.345-.313-33.517-.281l.022 8.084c-2.778.008-5.557.023-8.335.048l.203 24.252c2.733-.025 5.466-.038 8.2-.046.006 2.695.014 5.389.023 8.084 5.435-.015 10.872 0 16.308.046l.136-16.169c-2.75-.023-5.498-.038-8.245-.046l.022-8.084c8.29.023 16.579.115 24.868.278l-.63 32.331" mask="url(#n)"/></g><path fill="#400003" d="M500.971 26.95c-8.349-.837-16.702-1.605-25.06-2.3-1.122 13.425-2.241 26.854-3.362 40.28 8.133.68 16.262 1.427 24.386 2.242l4.036-40.221m3.234 49.099c-13.46-1.427-26.934-2.665-40.418-3.715l.627-8.06c-2.713-.21-5.425-.415-8.138-.61.97-13.44 1.943-26.879 2.913-40.317 2.787.2 5.575.41 8.363.627.207-2.688.418-5.373.627-8.06 14.01 1.09 28.008 2.376 41.991 3.858l-.852 8.04c2.782.294 5.563.597 8.342.908-1.494 13.39-2.988 26.781-4.484 40.172-2.705-.3-5.412-.595-8.118-.883l-.853 8.04M525.321 25c5.587.663 11.172 1.356 16.754 2.08l-1.041 8.017c2.775.361 5.549.73 8.324 1.107l-1.085 8.01c2.759.374 5.518.755 8.275 1.146l-1.13 8.005c2.743.388 5.484.783 8.226 1.184l3.525-23.994c5.572.817 11.14 1.668 16.706 2.55l-8.854 55.894c-5.357-.848-10.716-1.666-16.08-2.454l1.176-7.999c-2.697-.396-5.394-.785-8.093-1.165.377-2.669.755-5.338 1.13-8.006-2.712-.383-5.425-.759-8.14-1.127l1.086-8.01c-2.73-.373-5.46-.734-8.192-1.088l-3.121 24.054c-5.373-.7-10.749-1.366-16.127-2.003l6.66-56.2"/></g><g><path fill="#F7B500" d="M283.091 73.984h20.959v2.949h6.003v2.949h5.898v2.949h3.055v3.265h3.159v5.793h2.739v6.214h3.159v8.847h-2.949v11.901h-3.054v6.003h-2.949v3.055h-6.109v2.949h-5.898v3.159h-26.962v-3.054h-6.109v-2.844h-6.108v-2.949h-3.055v-6.319h-2.843V106.95h-3.055v-8.847h3.055v-6.004h3.159v-5.898h2.844v-3.159h2.844v-3.055h6.108v-2.843h6.004z"/><path fill="#1D1D1B" d="M283.126 71v2.984h20.924v2.949h6.003v-3.195h-6.003V71zm26.927 8.882h5.898v-2.949h-5.898zm15.084 12.007v-5.98h-3.024v-3.113h-3.037v-3.124h-3.125v3.124h3.037v3.3h3.125v5.793h2.791v6.214h3.159v-6.214zm-60.093 39.097v3.031h2.984v3.032h2.967v2.978h5.864v3.031h6.127v2.933h21.124v-2.933h6.003v-3.031h-6.127v2.932h-21v-2.932h-5.864v-3.032h-6.062v-2.978h-2.984v-3.031zm11.86-57.002v2.806h-5.925v3.16h-3.148v3.159h-2.949v2.867h-2.855v5.883h-3.137v6.237H256v20.896h2.972v6.085h3.04v5.909h3.032v-6.015h-2.912v-6.131h-3.16V98.096h3.078v-5.882h3.136v-5.945h2.856v-3.16h2.949V79.95h5.98v-2.806h6.155v-3.16zm51.159 24.119v20.853h-2.972v5.934h-3.066v2.976h-2.906v6.099h-3.043v3.03h-5.963v3.032h6.127v-2.903h2.996v-3.044h3.043v-2.976h2.906v-5.934h3.065v-6.214h2.973V98.103z"/><path fill="#F78F00" d="M328.133 106.95v12.006h-3.055v5.969h-3.054v2.943h-2.896v6.097h-3.055v3.03h-5.96v3.052h-6.033v2.912h-21.094v-2.912h-5.864v-3.052h-6.079v-2.978h-2.99v-3.031h-3.01v-5.809h3.022v2.942h5.968v2.867h6.11v2.891h26.916v-3.005h5.96v-3.004h5.95v-3.049h3.055v-5.968h3.054V106.95h3.055zm-63.086 11.89V125h-3.02v-6.16h3.02zm-3.02-11.867v11.867h-3.055v-11.867h3.055z"/><path fill="#FFF" fill-opacity=".506" d="M316.042 95.883h-5.004v-4.711h-4.956v-5.201h-25.161v5.201h-4.659v4.711h-5.22v24.881h5.22v5.382h4.659v4.825h25.161v-4.825h4.956v-5.382h5.004z"/><path fill="#400003" d="M281.714 94.571v25.715h22.041v-3.674h3.674v-7.347h-3.674v-3.673h3.674v-7.347h-3.674V94.57h-22.04zm7.347 11.02h11.02v-7.346h-11.02v7.347zm0 11.021h11.02v-7.347h-11.02v7.347z"/><g><path fill="#F7B500" d="M348.091 68.984h20.959v2.949h6.003v2.949h5.898v2.949h3.055v3.265h3.159v5.793h2.739v6.214h3.159v8.847h-2.949v11.901h-3.054v6.003h-2.949v3.055h-6.109v2.949h-5.898v3.159h-26.962v-3.054h-6.109v-2.844h-6.108v-2.949h-3.055v-6.319h-2.843V101.95h-3.055v-8.847h3.055v-6.004h3.159v-5.898h2.844v-3.159h2.844v-3.055h6.108v-2.843h6.004z"/><path fill="#1D1D1B" d="M348.126 66v2.984h20.924v2.949h6.003v-3.195h-6.003V66zm26.927 8.882h5.898v-2.949h-5.898zm15.084 12.007v-5.98h-3.024v-3.113h-3.037v-3.124h-3.125v3.124h3.037v3.3h3.125v5.793h2.791v6.214h3.159v-6.214zm-60.093 39.097v3.031h2.984v3.032h2.967v2.978h5.864v3.031h6.127v2.933h21.124v-2.933h6.003v-3.031h-6.127v2.932h-21v-2.932h-5.864v-3.032h-6.062v-2.978h-2.984v-3.031zm11.86-57.002v2.806h-5.925v3.16h-3.148v3.159h-2.949v2.867h-2.855v5.883h-3.137v6.237H321v20.896h2.972v6.085h3.04v5.909h3.032v-6.015h-2.912v-6.131h-3.16V93.096h3.078v-5.882h3.136v-5.945h2.856v-3.16h2.949V74.95h5.98v-2.806h6.155v-3.16zm51.159 24.119v20.853h-2.972v5.934h-3.066v2.976h-2.906v6.099h-3.043v3.03h-5.963v3.032h6.127v-2.903h2.996v-3.044h3.043v-2.976h2.906v-5.934h3.065v-6.214h2.973V93.103z"/><path fill="#F78F00" d="M393.133 101.95v12.006h-3.055v5.969h-3.054v2.943h-2.896v6.097h-3.055v3.03h-5.96v3.052h-6.033v2.912h-21.094v-2.912h-5.864v-3.052h-6.079v-2.978h-2.99v-3.031h-3.01v-5.809h3.022v2.942h5.968v2.867h6.11v2.891h26.916v-3.005h5.96v-3.004h5.95v-3.049h3.055v-5.968h3.054V101.95h3.055zm-63.086 11.89V120h-3.02v-6.16h3.02zm-3.02-11.867v11.867h-3.055v-11.867h3.055z"/><path fill="#FFF" fill-opacity=".506" d="M381.042 90.883h-5.004v-4.711h-4.956v-5.201h-25.161v5.201h-4.659v4.711h-5.22v24.881h5.22v5.382h4.659v4.825h25.161v-4.825h4.956v-5.382h5.004z"/><path fill="#400003" d="M352.99 89.571v3.675h-3.673v3.673h-3.674v18.367h7.346v-7.346h11.022v7.346h7.347V96.919h-3.674v-3.673h-3.674V89.57h-11.021zm0 7.348h3.673v-3.673h3.674v3.673h3.674v7.346h-11.022v-7.346z"/></g><g><path fill="#F7B500" d="M411.091 68.984h20.959v2.949h6.003v2.949h5.898v2.949h3.055v3.265h3.159v5.793h2.739v6.214h3.159v8.847h-2.949v11.901h-3.054v6.003h-2.949v3.055h-6.109v2.949h-5.898v3.159h-26.962v-3.054h-6.109v-2.844h-6.108v-2.949h-3.055v-6.319h-2.843V101.95h-3.055v-8.847h3.055v-6.004h3.159v-5.898h2.844v-3.159h2.844v-3.055h6.108v-2.843h6.004z"/><path fill="#1D1D1B" d="M411.126 66v2.984h20.924v2.949h6.003v-3.195h-6.003V66zm26.927 8.882h5.898v-2.949h-5.898zm15.084 12.007v-5.98h-3.024v-3.113h-3.037v-3.124h-3.125v3.124h3.037v3.3h3.125v5.793h2.791v6.214h3.159v-6.214zm-60.093 39.097v3.031h2.984v3.032h2.967v2.978h5.864v3.031h6.127v2.933h21.124v-2.933h6.003v-3.031h-6.127v2.932h-21v-2.932h-5.864v-3.032h-6.062v-2.978h-2.984v-3.031zm11.86-57.002v2.806h-5.925v3.16h-3.148v3.159h-2.949v2.867h-2.855v5.883h-3.137v6.237H384v20.896h2.972v6.085h3.04v5.909h3.032v-6.015h-2.912v-6.131h-3.16V93.096h3.078v-5.882h3.136v-5.945h2.856v-3.16h2.949V74.95h5.98v-2.806h6.155v-3.16zm51.159 24.119v20.853h-2.972v5.934h-3.066v2.976h-2.906v6.099h-3.043v3.03h-5.963v3.032h6.127v-2.903h2.996v-3.044h3.043v-2.976h2.906v-5.934h3.065v-6.214h2.973V93.103z"/><path fill="#F78F00" d="M456.133 101.95v12.006h-3.055v5.969h-3.054v2.943h-2.896v6.097h-3.055v3.03h-5.96v3.052h-6.033v2.912h-21.094v-2.912h-5.864v-3.052h-6.079v-2.978h-2.99v-3.031h-3.01v-5.809h3.022v2.942h5.968v2.867h6.11v2.891h26.916v-3.005h5.96v-3.004h5.95v-3.049h3.055v-5.968h3.054V101.95h3.055zm-63.086 11.89V120h-3.02v-6.16h3.02zm-3.02-11.867v11.867h-3.055v-11.867h3.055z"/><path fill="#FFF" fill-opacity=".506" d="M444.042 90.883h-5.004v-4.711h-4.956v-5.201h-25.161v5.201h-4.659v4.711h-5.22v24.881h5.22v5.382h4.659v4.825h25.161v-4.825h4.956v-5.382h5.004z"/><path fill="#400003" d="M410.786 88.5v25.714h22.056v-3.673h-14.704V88.5z"/></g><g><path fill="#F7B500" d="M478.091 73.984h20.959v2.949h6.003v2.949h5.898v2.949h3.055v3.265h3.159v5.793h2.739v6.214h3.159v8.847h-2.949v11.901h-3.054v6.003h-2.949v3.055h-6.109v2.949h-5.898v3.159h-26.962v-3.054h-6.109v-2.844h-6.108v-2.949h-3.055v-6.319h-2.843V106.95h-3.055v-8.847h3.055v-6.004h3.159v-5.898h2.844v-3.159h2.844v-3.055h6.108v-2.843h6.004z"/><path fill="#1D1D1B" d="M478.126 71v2.984h20.924v2.949h6.003v-3.195h-6.003V71zm26.927 8.882h5.898v-2.949h-5.898zm15.084 12.007v-5.98h-3.024v-3.113h-3.037v-3.124h-3.125v3.124h3.037v3.3h3.125v5.793h2.791v6.214h3.159v-6.214zm-60.093 39.097v3.031h2.984v3.032h2.967v2.978h5.864v3.031h6.127v2.933h21.124v-2.933h6.003v-3.031h-6.127v2.932h-21v-2.932h-5.864v-3.032h-6.062v-2.978h-2.984v-3.031zm11.86-57.002v2.806h-5.925v3.16h-3.148v3.159h-2.949v2.867h-2.855v5.883h-3.137v6.237H451v20.896h2.972v6.085h3.04v5.909h3.032v-6.015h-2.912v-6.131h-3.16V98.096h3.078v-5.882h3.136v-5.945h2.856v-3.16h2.949V79.95h5.98v-2.806h6.155v-3.16zm51.159 24.119v20.853h-2.972v5.934h-3.066v2.976h-2.906v6.099h-3.043v3.03h-5.963v3.032h6.127v-2.903h2.996v-3.044h3.043v-2.976h2.906v-5.934h3.065v-6.214h2.973V98.103z"/><path fill="#F78F00" d="M523.133 106.95v12.006h-3.055v5.969h-3.054v2.943h-2.896v6.097h-3.055v3.03h-5.96v3.052h-6.033v2.912h-21.094v-2.912h-5.864v-3.052h-6.079v-2.978h-2.99v-3.031h-3.01v-5.809h3.022v2.942h5.968v2.867h6.11v2.891h26.916v-3.005h5.96v-3.004h5.95v-3.049h3.055v-5.968h3.054V106.95h3.055zm-63.086 11.89V125h-3.02v-6.16h3.02zm-3.02-11.867v11.867h-3.055v-11.867h3.055z"/><path fill="#FFF" fill-opacity=".506" d="M511.042 95.883h-5.004v-4.711h-4.956v-5.201h-25.161v5.201h-4.659v4.711h-5.22v24.881h5.22v5.382h4.659v4.825h25.161v-4.825h4.956v-5.382h5.004z"/><path fill="#400003" d="M477.786 93.5v25.714h22.056v-3.673h-14.704V93.5z"/></g></g></g></svg>