<?xml version="1.0" encoding="UTF-8"?>
<svg width="220px" height="49px" viewBox="0 0 220 49" version="1.1" xmlns="http://www.w3.org/2000/svg" xmlns:xlink="http://www.w3.org/1999/xlink">
    <!-- Generator: Sketch 60 (88103) - https://sketch.com -->
    <title>Combined Shape</title>
    <desc>Created with Sketch.</desc>
    <g id="UI" stroke="none" stroke-width="1" fill="none" fill-rule="evenodd">
        <path d="M212.832687,0.500659886 L7.16731301,0.500659886 C6.28619893,3.73810774 3.73720228,6.28683183 0.499646676,7.16758868 L0.499507706,11.499705 L1,11.5 C2.38071187,11.5 3.5,12.6192881 3.5,14 L3.49966266,15.0183638 L3.49315902,15.186051 C3.39717996,16.4869809 2.31133522,17.5 0.999705334,17.4999999 L0.499491676,17.4997051 L0.499491676,21.499705 L1,21.5 C2.38071187,21.5 3.5,22.6192881 3.5,24 L3.49966266,25.0183638 L3.49315902,25.186051 C3.39717996,26.4869809 2.31133522,27.5 0.999705334,27.4999999 L0.499491676,27.4997051 L0.499491676,31.499705 L1,31.5 C2.38071187,31.5 3.5,32.6192881 3.5,34 L3.49966266,35.0183638 L3.49315902,35.186051 C3.39717996,36.4869809 2.31133522,37.5 0.999705334,37.4999999 L0.499507721,37.4997051 L0.499646679,41.8324113 C3.73746362,42.713239 6.28659296,45.2622962 7.16751548,48.5000842 L212.165849,48.4998542 C213.395374,45.3979428 216.185022,43.1448748 219.500058,42.6182888 L219.499553,38.5004211 L219,38.5004318 C217.619288,38.5004318 216.5,37.3811437 216.5,36.0004318 L216.500337,34.9820681 L216.506841,34.8143808 C216.60282,33.513451 217.688665,32.5004318 218.999989,32.5004318 L219.499492,32.5004211 L219.499492,27.5004211 L219,27.5004318 C217.619288,27.5004318 216.5,26.3811437 216.5,25.0004318 L216.500337,23.9820681 L216.506841,23.8143808 C216.60282,22.513451 217.688665,21.5004318 218.999989,21.5004318 L219.499492,21.5004211 L219.499492,17.5004211 L219,17.5004318 C217.619288,17.5004318 216.5,16.3811437 216.5,15.0004318 L216.500337,13.9820681 L216.506841,13.8143808 C216.60282,12.513451 217.688665,11.5004318 218.999989,11.5004318 L219.499548,11.5004211 L219.50004,7.16750352 C216.262629,6.28666634 213.713772,3.73799881 212.832687,0.500659886 Z" id="Combined-Shape" stroke="#C5CCCE" fill="#E7FAFF"></path>
    </g>
</svg>