<svg xmlns="http://www.w3.org/2000/svg" width="572" height="97" viewBox="0 0 572 97">
    <g fill="none" fill-rule="evenodd">
        <g>
            <g>
                <path fill="#F0F0F0" stroke="#C5CCCE" d="M557.11 2.501H13.839c-1.77 6.382-6.91 11.32-13.338 12.79L.5 24.527h.828c2.98 0 5.394 2.415 5.394 5.405l-.005.23c-.126 2.877-2.5 5.154-5.39 5.154H.5v8.788h.828c2.98 0 5.394 2.416 5.394 5.406l-.005.229c-.126 2.877-2.5 5.154-5.39 5.154H.5v8.789h.828c2.98 0 5.394 2.415 5.394 5.405l-.005.23c-.126 2.877-2.5 5.154-5.39 5.154H.5v9.238c6.782 1.55 12.103 6.95 13.586 13.79h541.368c2.345-6.944 8.679-11.842 16.046-12.26v-8.816h-1.87c-2.978 0-5.393-2.415-5.393-5.394 0-2.98 2.415-5.394 5.394-5.394h1.87V54.89h-1.87c-2.98 0-5.394-2.415-5.394-5.394s2.415-5.394 5.394-5.394h1.87v-8.788h-1.87c-2.98 0-5.394-2.415-5.394-5.394 0-2.98 2.415-5.394 5.394-5.394h1.87v-9.034c-6.895-1.151-12.52-6.25-14.391-12.99z" transform="translate(-669 -1117) translate(669 1116)"/>
                <path fill="#FF8173" stroke="#400003" d="M37.049 2.465L.5 24.66v17.708L63.506 2.465H37.05z" transform="translate(-669 -1117) translate(669 1116)"/>
                <text fill="#400003" font-family="ChakraPetch-Medium, Chakra Petch" font-size="12" font-weight="400" transform="translate(-669 -1117) translate(669 1116) rotate(-33 24.5 18.964)">
                    <tspan x="2" y="22.964">Claimed</tspan>
                </text>
            </g>
        </g>
    </g>
</svg>
