<svg xmlns="http://www.w3.org/2000/svg" xmlns:xlink="http://www.w3.org/1999/xlink" width="1920" height="1681" viewBox="0 0 1920 1681">
    <defs>
        <path id="euebslbn8a" d="M0 0H1920V1682H0z"/>
    </defs>
    <g fill="none" fill-rule="evenodd">
        <g>
            <g>
                <mask id="cwicbci7sb" fill="#fff">
                    <use xlink:href="#euebslbn8a"/>
                </mask>
                <use fill="#D8D8D8" xlink:href="#euebslbn8a"/>
                <g mask="url(#cwicbci7sb)">
                    <g>
                        <path fill="#FFDBA4" d="M1 1079.743L1921 1079.743 1921 0.002 1 0.002z" transform="translate(-1)"/>
                        <path fill="#FFD28F" d="M1907.144 248.66L1907.144 295.757 1881.296 295.757 1881.296 248.66 1839.538 248.66 1839.538 279.518 1771.927 279.518 1771.927 326.616 1712.272 326.616 1712.272 248.66 1664.55 248.66 1664.55 294.135 1598.924 294.135 1598.924 248.66 1553.187 248.66 1553.187 290.886 1497.506 290.886 1497.506 248.66 1431.886 248.66 1431.886 268.147 1340.414 268.147 1340.414 248.66 1284.732 248.66 1284.732 305.503 1231.044 305.503 1231.044 248.66 1189.286 248.66 1189.286 279.518 1111.731 279.518 1111.731 316.87 1038.154 316.87 1038.154 264.9 988.443 264.9 988.443 292.51 944.693 292.51 944.693 260.028 883.047 260.028 883.047 299.008 791.579 299.008 791.579 248.66 718.001 248.66 718.001 273.021 656.36 273.021 656.36 248.66 600.681 248.66 600.681 271.398 517.159 271.398 517.159 312.001 463.465 312.001 463.465 248.66 415.742 248.66 415.742 282.765 348.13 282.765 348.13 248.66 314.33 248.66 314.33 269.773 210.926 269.773 210.926 321.746 163.197 321.746 163.197 248.66 91.611 248.66 91.611 277.893 1 277.893 1 831.085 1921 831.085 1921 248.66z" transform="translate(-1)"/>
                        <path fill="#FCC676" d="M1916.858 497.315L1916.858 546.637 1890.875 546.637 1890.875 497.315 1848.9 497.315 1848.9 529.631 1780.937 529.631 1780.937 578.95 1720.971 578.95 1720.971 497.315 1673 497.315 1673 544.935 1607.033 544.935 1607.033 497.315 1561.057 497.315 1561.057 541.534 1505.086 541.534 1505.086 497.315 1439.124 497.315 1439.124 517.724 1347.175 517.724 1347.175 497.315 1291.204 497.315 1291.204 556.841 1237.236 556.841 1237.236 497.315 1195.261 497.315 1195.261 529.631 1117.301 529.631 1117.301 568.744 1043.341 568.744 1043.341 514.323 993.372 514.323 993.372 543.236 949.394 543.236 949.394 509.221 887.427 509.221 887.427 550.037 795.482 550.037 795.482 497.315 721.521 497.315 721.521 522.827 659.559 522.827 659.559 497.315 603.59 497.315 603.59 521.124 519.633 521.124 519.633 563.643 465.659 563.643 465.659 497.315 417.688 497.315 417.688 533.032 349.723 533.032 349.723 497.315 315.748 497.315 315.748 519.426 211.805 519.426 211.805 573.848 163.827 573.848 163.827 497.315 91.869 497.315 91.869 527.929 0.786 527.929 0.786 1681.315 1930.786 1681.315 1930.786 497.315z" transform="translate(-1)"/>
                    </g>
                </g>
                <g mask="url(#cwicbci7sb)">
                    <g>
                        <path fill="#D6932F" d="M0 85.871L83.774 85.871 83.774 0 0 0z" transform="translate(280 866)"/>
                        <path fill="#FECD00" d="M8.995 76.651L74.777 76.651 74.777 9.224 8.995 9.224z" transform="translate(280 866)"/>
                        <path fill="#F5B110" d="M11.322 76.709L17.839 76.709 17.839 69.961 11.322 69.961z" transform="translate(280 866)"/>
                        <path fill="#F5B110" d="M68.801 9.224L68.801 15.974 62.286 15.974 62.286 22.723 55.77 22.723 55.77 29.471 49.255 29.471 49.255 36.219 42.74 36.219 42.74 42.964 36.222 42.964 36.222 49.714 29.707 49.714 29.707 56.462 23.192 56.462 23.192 63.21 16.676 63.21 16.676 69.961 16.676 76.709 23.192 76.709 29.707 76.709 36.222 76.709 42.74 76.709 49.255 76.709 55.77 76.709 62.286 76.709 68.801 76.709 75.318 76.709 75.318 69.961 75.318 63.21 75.318 56.462 75.318 49.714 75.318 42.964 75.318 36.219 75.318 29.471 75.318 22.723 75.318 15.974 75.318 9.224z" transform="translate(280 866)"/>
                        <path fill="#B4794A" d="M5.528 16.85L11.781 16.85 11.781 10.596 5.528 10.596z" transform="translate(280 866)"/>
                        <path fill="#D6932F" d="M5.528 16.85L11.781 16.85 11.781 5.938 5.528 5.938z" transform="translate(280 866)"/>
                        <path fill="#D6932F" d="M11.345 11.394L17.597 11.394 17.597 5.142 11.345 5.142zM71.849 16.449L78.102 16.449 78.102 5.542 71.849 5.542z" transform="translate(280 866)"/>
                        <path fill="#D6932F" d="M66.03 10.993L72.285 10.993 72.285 4.741 66.03 4.741z" transform="translate(280 866)"/>
                        <path fill="#B4794A" d="M5.601 79.524L11.853 79.524 11.853 68.616 5.601 68.616z" transform="translate(280 866)"/>
                        <path fill="#B4794A" d="M11.417 80.325L17.672 80.325 17.672 74.072 11.417 74.072z" transform="translate(280 866)"/>
                        <path fill="#D6932F" d="M71.921 79.924L78.174 79.924 78.174 69.018 71.921 69.018z" transform="translate(280 866)"/>
                        <path fill="#D6932F" d="M66.102 80.725L72.357 80.725 72.357 74.469 66.102 74.469zM35.647 70.84h12.47v-6.228h-12.47v6.229zm0-12.469V45.903h6.24v-6.24h6.23v-12.47H29.408v-6.24h24.948v6.24h6.24v12.47h-6.24v6.24h-6.24V58.37h-12.47zM23.18 33.421h6.23v-6.228h-6.23v6.229z" transform="translate(280 866)"/>
                    </g>
                </g>
                <g mask="url(#cwicbci7sb)">
                    <g>
                        <path fill="#EBB25B" d="M2.893 32L2.893 39.375 0 39.375 0 54.128 2.893 54.128 2.893 61.504 5.787 61.504 5.787 66.421 8.68 66.421 8.68 68.88 11.575 68.88 11.575 71.338 17.36 71.338 17.36 73 133.107 73 133.107 71.338 136 71.338 136 68.88 133.107 68.88 133.107 66.421 130.211 66.421 130.211 63.961 127.318 63.961 127.318 59.045 124.427 59.045 124.427 41.835 121.531 41.835 121.531 44.292 118.638 44.292 118.638 46.751 101.275 46.751 101.275 44.292 98.382 44.292 98.382 41.835 95.489 41.835 95.489 39.375 92.596 39.375 92.596 41.835 89.702 41.835 89.702 46.751 86.809 46.751 86.809 49.21 83.913 49.21 83.913 51.668 81.02 51.668 81.02 54.128 75.233 54.128 75.233 56.586 52.084 56.586 52.084 54.128 46.298 54.128 46.298 51.668 43.405 51.668 43.405 49.21 40.509 49.21 40.509 46.751 34.722 46.751 34.722 49.21 31.829 49.21 31.829 51.668 14.467 51.668 14.467 49.21 11.575 49.21 11.575 46.751 8.68 46.751 8.68 41.835 5.787 41.835 5.787 32z" transform="translate(181 906)"/>
                        <path fill="#FFECCE" d="M70.251 0L67.376 0 64.498 0 61.624 0 58.749 0 55.875 0 55.875 2.447 53 2.447 50.127 2.447 50.127 4.896 47.251 4.896 47.251 7.344 44.376 7.344 44.376 9.792 41.499 9.792 41.499 12.241 38.624 12.241 38.624 14.69 38.624 17.137 38.624 19.585 35.749 19.585 32.874 19.585 30 19.585 27.125 19.585 24.251 19.585 21.376 19.585 18.499 19.585 18.499 22.034 15.624 22.034 12.751 22.034 12.751 24.482 9.875 24.482 9.875 26.931 7 26.931 7 29.379 7 31.827 7 34.276 7 36.724 7 39.172 7 41.621 9.875 41.621 9.875 44.068 9.875 46.517 12.751 46.517 12.751 48.966 15.624 48.966 15.624 51.413 18.499 51.413 21.376 51.413 24.251 51.413 27.125 51.413 30 51.413 32.874 51.413 32.874 48.966 35.749 48.966 35.749 46.517 38.624 46.517 41.499 46.517 41.499 48.966 44.376 48.966 44.376 51.413 47.251 51.413 47.251 53.863 50.127 53.863 53 53.863 53 56.31 55.875 56.31 58.749 56.31 61.624 56.31 64.498 56.31 67.376 56.31 70.251 56.31 73.125 56.31 76 56.31 76 53.863 78.874 53.863 81.749 53.863 81.749 51.413 84.623 51.413 84.623 48.966 87.501 48.966 87.501 46.517 90.376 46.517 90.376 44.068 90.376 41.621 93.251 41.621 93.251 39.172 96.125 39.172 96.125 41.621 99 41.621 99 44.068 101.874 44.068 101.874 46.517 104.749 46.517 107.624 46.517 110.498 46.517 113.376 46.517 116.253 46.517 119.125 46.517 119.125 44.068 122 44.068 122 41.621 124.877 41.621 124.877 44.068 124.877 46.517 124.877 48.966 124.877 51.413 124.877 53.863 124.877 56.31 124.877 58.759 127.749 58.759 127.749 61.207 127.749 63.655 130.624 63.655 130.624 66.104 133.501 66.104 133.501 68.552 136.376 68.552 136.376 71 139.251 71 139.251 68.552 139.251 66.104 142.125 66.104 142.125 63.655 145 63.655 145 46.517 142.125 46.517 142.125 44.068 142.125 41.621 139.251 41.621 139.251 39.172 136.376 39.172 136.376 36.724 133.501 36.724 133.501 34.276 130.624 34.276 127.749 34.276 124.877 34.276 124.877 31.827 124.877 29.379 124.877 26.931 122 26.931 122 24.482 122 22.034 122 19.585 119.125 19.585 119.125 17.137 116.253 17.137 116.253 14.69 113.376 14.69 113.376 12.241 110.498 12.241 110.498 9.792 107.624 9.792 104.749 9.792 101.874 9.792 99 9.792 96.125 9.792 93.251 9.792 90.376 9.792 87.501 9.792 87.501 12.241 84.623 12.241 84.623 9.792 84.623 7.344 81.749 7.344 81.749 4.896 78.874 4.896 76 4.896 76 2.447 73.125 2.447 73.125 0z" transform="translate(181 906)"/>
                    </g>
                </g>
                <g mask="url(#cwicbci7sb)">
                    <g>
                        <g>
                            <g>
                                <path fill="#FFC56E" d="M4.698 51.953L4.698 63.928 0 63.928 0 87.88 4.698 87.88 4.698 99.854 9.395 99.854 9.395 107.836 14.093 107.836 14.093 111.829 18.793 111.829 18.793 115.819 28.184 115.819 28.184 118.519 216.104 118.519 216.104 115.819 220.802 115.819 220.802 111.829 216.104 111.829 216.104 107.836 211.404 107.836 211.404 103.844 206.706 103.844 206.706 95.862 202.012 95.862 202.012 67.921 197.311 67.921 197.311 71.91 192.614 71.91 192.614 75.902 164.425 75.902 164.425 71.91 159.728 71.91 159.728 67.921 155.03 67.921 155.03 63.928 150.333 63.928 150.333 67.921 145.636 67.921 145.636 75.902 140.939 75.902 140.939 79.895 136.236 79.895 136.236 83.885 131.539 83.885 131.539 87.88 122.144 87.88 122.144 91.869 84.561 91.869 84.561 87.88 75.166 87.88 75.166 83.885 70.469 83.885 70.469 79.895 65.768 79.895 65.768 75.902 56.373 75.902 56.373 79.895 51.675 79.895 51.675 83.885 23.487 83.885 23.487 79.895 18.793 79.895 18.793 75.902 14.093 75.902 14.093 67.921 9.395 67.921 9.395 51.953z" transform="translate(141 62) translate(0 .481)"/>
                                <path fill="#FFECCE" d="M114.055 0L109.388 0 104.716 0 100.049 0 95.382 0 90.715 0 90.715 3.973 86.047 3.973 81.383 3.973 81.383 7.949 76.713 7.949 76.713 11.924 72.046 11.924 72.046 15.898 67.375 15.898 67.375 19.873 62.707 19.873 62.707 23.849 62.707 27.823 62.707 31.798 58.04 31.798 53.373 31.798 48.706 31.798 44.039 31.798 39.372 31.798 34.705 31.798 30.033 31.798 30.033 35.773 25.366 35.773 20.702 35.773 20.702 39.747 16.032 39.747 16.032 43.724 11.365 43.724 11.365 47.698 11.365 51.673 11.365 55.648 11.365 59.623 11.365 63.598 11.365 67.574 16.032 67.574 16.032 71.547 16.032 75.522 20.702 75.522 20.702 79.498 25.366 79.498 25.366 83.471 30.033 83.471 34.705 83.471 39.372 83.471 44.039 83.471 48.706 83.471 53.373 83.471 53.373 79.498 58.04 79.498 58.04 75.522 62.707 75.522 67.375 75.522 67.375 79.498 72.046 79.498 72.046 83.471 76.713 83.471 76.713 87.449 81.383 87.449 86.047 87.449 86.047 91.422 90.715 91.422 95.382 91.422 100.049 91.422 104.716 91.422 109.388 91.422 114.055 91.422 118.722 91.422 123.389 91.422 123.389 87.449 128.056 87.449 132.723 87.449 132.723 83.471 137.39 83.471 137.39 79.498 142.062 79.498 142.062 75.522 146.729 75.522 146.729 71.547 146.729 67.574 151.396 67.574 151.396 63.598 156.063 63.598 156.063 67.574 160.731 67.574 160.731 71.547 165.397 71.547 165.397 75.522 170.065 75.522 174.732 75.522 179.398 75.522 184.07 75.522 188.741 75.522 193.405 75.522 193.405 71.547 198.072 71.547 198.072 67.574 202.743 67.574 202.743 71.547 202.743 75.522 202.743 79.498 202.743 83.471 202.743 87.449 202.743 91.422 202.743 95.398 207.406 95.398 207.406 99.373 207.406 103.346 212.073 103.346 212.073 107.322 216.744 107.322 216.744 111.298 221.411 111.298 221.411 115.271 226.079 115.271 226.079 111.298 226.079 107.322 230.746 107.322 230.746 103.346 235.413 103.346 235.413 75.522 230.746 75.522 230.746 71.547 230.746 67.574 226.079 67.574 226.079 63.598 221.411 63.598 221.411 59.623 216.744 59.623 216.744 55.648 212.073 55.648 207.406 55.648 202.743 55.648 202.743 51.673 202.743 47.698 202.743 43.724 198.072 43.724 198.072 39.747 198.072 35.773 198.072 31.798 193.405 31.798 193.405 27.823 188.741 27.823 188.741 23.849 184.07 23.849 184.07 19.873 179.398 19.873 179.398 15.898 174.732 15.898 170.065 15.898 165.397 15.898 160.731 15.898 156.063 15.898 151.396 15.898 146.729 15.898 142.062 15.898 142.062 19.873 137.39 19.873 137.39 15.898 137.39 11.924 132.723 11.924 132.723 7.949 128.056 7.949 123.389 7.949 123.389 3.973 118.722 3.973 118.722 0z" transform="translate(141 62) translate(0 .481)"/>
                            </g>
                        </g>
                        <g>
                            <path fill="#FFC56E" d="M2.893 32L2.893 39.375 0 39.375 0 54.128 2.893 54.128 2.893 61.504 5.787 61.504 5.787 66.421 8.68 66.421 8.68 68.88 11.575 68.88 11.575 71.338 17.36 71.338 17.36 73 133.107 73 133.107 71.338 136 71.338 136 68.88 133.107 68.88 133.107 66.421 130.211 66.421 130.211 63.961 127.318 63.961 127.318 59.045 124.427 59.045 124.427 41.835 121.531 41.835 121.531 44.292 118.638 44.292 118.638 46.751 101.275 46.751 101.275 44.292 98.382 44.292 98.382 41.835 95.489 41.835 95.489 39.375 92.596 39.375 92.596 41.835 89.702 41.835 89.702 46.751 86.809 46.751 86.809 49.21 83.913 49.21 83.913 51.668 81.02 51.668 81.02 54.128 75.233 54.128 75.233 56.586 52.084 56.586 52.084 54.128 46.298 54.128 46.298 51.668 43.405 51.668 43.405 49.21 40.509 49.21 40.509 46.751 34.722 46.751 34.722 49.21 31.829 49.21 31.829 51.668 14.467 51.668 14.467 49.21 11.575 49.21 11.575 46.751 8.68 46.751 8.68 41.835 5.787 41.835 5.787 32z" transform="translate(141 62) translate(225 46)"/>
                            <path fill="#FFECCE" d="M70.251 0L67.376 0 64.498 0 61.624 0 58.749 0 55.875 0 55.875 2.447 53 2.447 50.127 2.447 50.127 4.896 47.251 4.896 47.251 7.344 44.376 7.344 44.376 9.792 41.499 9.792 41.499 12.241 38.624 12.241 38.624 14.69 38.624 17.137 38.624 19.585 35.749 19.585 32.874 19.585 30 19.585 27.125 19.585 24.251 19.585 21.376 19.585 18.499 19.585 18.499 22.034 15.624 22.034 12.751 22.034 12.751 24.482 9.875 24.482 9.875 26.931 7 26.931 7 29.379 7 31.827 7 34.276 7 36.724 7 39.172 7 41.621 9.875 41.621 9.875 44.068 9.875 46.517 12.751 46.517 12.751 48.966 15.624 48.966 15.624 51.413 18.499 51.413 21.376 51.413 24.251 51.413 27.125 51.413 30 51.413 32.874 51.413 32.874 48.966 35.749 48.966 35.749 46.517 38.624 46.517 41.499 46.517 41.499 48.966 44.376 48.966 44.376 51.413 47.251 51.413 47.251 53.863 50.127 53.863 53 53.863 53 56.31 55.875 56.31 58.749 56.31 61.624 56.31 64.498 56.31 67.376 56.31 70.251 56.31 73.125 56.31 76 56.31 76 53.863 78.874 53.863 81.749 53.863 81.749 51.413 84.623 51.413 84.623 48.966 87.501 48.966 87.501 46.517 90.376 46.517 90.376 44.068 90.376 41.621 93.251 41.621 93.251 39.172 96.125 39.172 96.125 41.621 99 41.621 99 44.068 101.874 44.068 101.874 46.517 104.749 46.517 107.624 46.517 110.498 46.517 113.376 46.517 116.253 46.517 119.125 46.517 119.125 44.068 122 44.068 122 41.621 124.877 41.621 124.877 44.068 124.877 46.517 124.877 48.966 124.877 51.413 124.877 53.863 124.877 56.31 124.877 58.759 127.749 58.759 127.749 61.207 127.749 63.655 130.624 63.655 130.624 66.104 133.501 66.104 133.501 68.552 136.376 68.552 136.376 71 139.251 71 139.251 68.552 139.251 66.104 142.125 66.104 142.125 63.655 145 63.655 145 46.517 142.125 46.517 142.125 44.068 142.125 41.621 139.251 41.621 139.251 39.172 136.376 39.172 136.376 36.724 133.501 36.724 133.501 34.276 130.624 34.276 127.749 34.276 124.877 34.276 124.877 31.827 124.877 29.379 124.877 26.931 122 26.931 122 24.482 122 22.034 122 19.585 119.125 19.585 119.125 17.137 116.253 17.137 116.253 14.69 113.376 14.69 113.376 12.241 110.498 12.241 110.498 9.792 107.624 9.792 104.749 9.792 101.874 9.792 99 9.792 96.125 9.792 93.251 9.792 90.376 9.792 87.501 9.792 87.501 12.241 84.623 12.241 84.623 9.792 84.623 7.344 81.749 7.344 81.749 4.896 78.874 4.896 76 4.896 76 2.447 73.125 2.447 73.125 0z" transform="translate(141 62) translate(225 46)"/>
                        </g>
                    </g>
                </g>
                <g mask="url(#cwicbci7sb)">
                    <g>
                        <path fill="#FFC56E" d="M4.502 50L4.502 61.529 0 61.529 0 84.59 4.502 84.59 4.502 96 198 96 198 92.278 193.5 92.278 193.5 65.373 189 65.373 189 69.217 184.5 69.217 184.5 73.061 157.5 73.061 157.5 69.217 153 69.217 153 65.373 148.502 65.373 148.502 61.529 144 61.529 144 65.373 139.5 65.373 139.5 73.061 135 73.061 135 76.904 130.5 76.904 130.5 80.747 126 80.747 126 84.59 117 84.59 117 88.434 81 88.434 81 84.59 72 84.59 72 80.747 67.5 80.747 67.5 76.904 63 76.904 63 73.061 54 73.061 54 76.904 49.5 76.904 49.5 80.747 22.5 80.747 22.5 76.904 18 76.904 18 73.061 13.5 73.061 13.5 65.373 9 65.373 9 50z" transform="translate(1453 1040)"/>
                        <path fill="#FFE0B0" d="M85.5 0L85.5 3.845 76.501 3.845 76.501 7.69 72 7.69 72 11.535 67.5 11.535 67.5 15.38 63 15.38 63 19.224 58.5 19.224 58.5 30.76 27 30.76 27 34.604 18 34.604 18 38.449 13.5 38.449 13.5 42.293 9 42.293 9 65.362 13.5 65.362 13.5 73.053 18 73.053 18 76.897 22.5 76.897 22.5 80.741 49.5 80.741 49.5 76.897 54 76.897 54 73.053 63 73.053 63 76.897 67.5 76.897 67.5 80.741 72 80.741 72 84.586 81 84.586 81 88.432 117 88.432 117 84.586 126 84.586 126 80.741 130.5 80.741 130.5 76.897 135 76.897 135 73.053 139.5 73.053 139.5 65.362 144 65.362 144 61.517 148.502 61.517 148.502 65.362 153 65.362 153 69.208 157.5 69.208 157.5 73.053 184.5 73.053 184.5 69.208 189 69.208 189 65.362 193.5 65.362 193.5 92.277 198 92.277 198 96 225 96 225 73.053 220.502 73.053 220.502 65.362 216 65.362 216 61.517 211.5 61.517 211.5 57.673 206.999 57.673 206.999 53.828 193.5 53.828 193.5 42.293 189 42.293 189 30.76 184.5 30.76 184.5 26.915 180 26.915 180 23.069 175.5 23.069 175.5 19.224 171 19.224 171 15.38 135 15.38 135 19.224 130.5 19.224 130.5 11.535 126 11.535 126 7.69 117 7.69 117 3.845 112.5 3.845 112.5 0z" transform="translate(1453 1040)"/>
                        <path fill="#FFC56E" d="M174.787 56L174.787 63.196 172 63.196 172 77.589 174.787 77.589 174.787 84.784 177.574 84.784 177.574 89.581 180.361 89.581 180.361 91.98 183.15 91.98 183.15 94.378 188.722 94.378 188.722 96 300.213 96 300.213 94.378 303 94.378 303 91.98 300.213 91.98 300.213 89.581 297.424 89.581 297.424 87.182 294.637 87.182 294.637 82.385 291.852 82.385 291.852 65.595 289.063 65.595 289.063 67.992 286.276 67.992 286.276 70.391 269.552 70.391 269.552 67.992 266.765 67.992 266.765 65.595 263.978 65.595 263.978 63.196 261.192 63.196 261.192 65.595 258.405 65.595 258.405 70.391 255.618 70.391 255.618 72.791 252.828 72.791 252.828 75.188 250.041 75.188 250.041 77.589 244.467 77.589 244.467 79.986 222.169 79.986 222.169 77.589 216.596 77.589 216.596 75.188 213.809 75.188 213.809 72.791 211.02 72.791 211.02 70.391 205.446 70.391 205.446 72.791 202.658 72.791 202.658 75.188 185.935 75.188 185.935 72.791 183.15 72.791 183.15 70.391 180.361 70.391 180.361 65.595 177.574 65.595 177.574 56z" transform="translate(1453 1040)"/>
                        <path fill="#FFE0B0" d="M238.959 26L236.189 26 233.415 26 230.645 26 227.874 26 225.104 26 225.104 28.344 222.333 28.344 219.564 28.344 219.564 30.689 216.792 30.689 216.792 33.034 214.022 33.034 214.022 35.379 211.249 35.379 211.249 37.723 208.478 37.723 208.478 40.069 208.478 42.413 208.478 44.758 205.708 44.758 202.937 44.758 200.167 44.758 197.396 44.758 194.626 44.758 191.855 44.758 189.082 44.758 189.082 47.103 186.312 47.103 183.543 47.103 183.543 49.447 180.771 49.447 180.771 51.793 178 51.793 178 54.137 178 56.483 178 58.828 178 61.172 178 63.517 178 65.863 180.771 65.863 180.771 68.206 180.771 70.551 183.543 70.551 183.543 72.897 186.312 72.897 186.312 75.241 189.082 75.241 191.855 75.241 194.626 75.241 197.396 75.241 200.167 75.241 202.937 75.241 202.937 72.897 205.708 72.897 205.708 70.551 208.478 70.551 211.249 70.551 211.249 72.897 214.022 72.897 214.022 75.241 216.792 75.241 216.792 77.587 219.564 77.587 222.333 77.587 222.333 79.931 225.104 79.931 227.874 79.931 230.645 79.931 233.415 79.931 236.189 79.931 238.959 79.931 241.729 79.931 244.5 79.931 244.5 77.587 247.27 77.587 250.041 77.587 250.041 75.241 252.811 75.241 252.811 72.897 255.585 72.897 255.585 70.551 258.355 70.551 258.355 68.206 258.355 65.863 261.126 65.863 261.126 63.517 263.896 63.517 263.896 65.863 266.667 65.863 266.667 68.206 269.437 68.206 269.437 70.551 272.208 70.551 274.978 70.551 277.748 70.551 280.522 70.551 283.294 70.551 286.063 70.551 286.063 68.206 288.833 68.206 288.833 65.863 291.606 65.863 291.606 68.206 291.606 70.551 291.606 72.897 291.606 75.241 291.606 77.587 291.606 79.931 291.606 82.276 294.374 82.276 294.374 84.621 294.374 86.965 297.145 86.965 297.145 89.311 299.918 89.311 299.918 91.656 302.688 91.656 302.688 94 305.459 94 305.459 91.656 305.459 89.311 308.229 89.311 308.229 86.965 311 86.965 311 70.551 308.229 70.551 308.229 68.206 308.229 65.863 305.459 65.863 305.459 63.517 302.688 63.517 302.688 61.172 299.918 61.172 299.918 58.828 297.145 58.828 294.374 58.828 291.606 58.828 291.606 56.483 291.606 54.137 291.606 51.793 288.833 51.793 288.833 49.447 288.833 47.103 288.833 44.758 286.063 44.758 286.063 42.413 283.294 42.413 283.294 40.069 280.522 40.069 280.522 37.723 277.748 37.723 277.748 35.379 274.978 35.379 272.208 35.379 269.437 35.379 266.667 35.379 263.896 35.379 261.126 35.379 258.355 35.379 255.585 35.379 255.585 37.723 252.811 37.723 252.811 35.379 252.811 33.034 250.041 33.034 250.041 30.689 247.27 30.689 244.5 30.689 244.5 28.344 241.729 28.344 241.729 26z" transform="translate(1453 1040)"/>
                    </g>
                </g>
                <g mask="url(#cwicbci7sb)">
                    <g>
                        <path fill="#FFC56E" d="M5.984 75L5.984 92.18 0 92.18 0 126.545 5.984 126.545 5.984 143.726 11.967 143.726 11.967 155 247 155 247 103.637 245.307 103.637 245.307 109.363 209.409 109.363 209.409 103.637 203.426 103.637 203.426 97.91 197.443 97.91 197.443 92.18 191.46 92.18 191.46 97.91 185.476 97.91 185.476 109.363 179.493 109.363 179.493 115.09 173.509 115.09 173.509 120.818 167.532 120.818 167.532 126.545 155.562 126.545 155.562 132.271 107.698 132.271 107.698 126.545 95.731 126.545 95.731 120.818 89.748 120.818 89.748 115.09 83.765 115.09 83.765 109.363 71.798 109.363 71.798 115.09 65.814 115.09 65.814 120.818 29.917 120.818 29.917 115.09 23.934 115.09 23.934 109.363 17.951 109.363 17.951 97.91 11.967 97.91 11.967 75z" transform="translate(1638 984)"/>
                        <path fill="#FFE0B0" d="M113.697 0L113.697 5.74 101.735 5.74 101.735 11.478 95.752 11.478 95.752 17.217 89.77 17.217 89.77 22.957 83.788 22.957 83.788 28.696 77.805 28.696 77.805 45.913 35.93 45.913 35.93 51.652 23.965 51.652 23.965 57.391 17.983 57.391 17.983 63.132 12 63.132 12 97.566 17.983 97.566 17.983 109.044 23.965 109.044 23.965 114.783 29.948 114.783 29.948 120.522 65.84 120.522 65.84 114.783 71.823 114.783 71.823 109.044 83.788 109.044 83.788 114.783 89.77 114.783 89.77 120.522 95.752 120.522 95.752 126.261 107.717 126.261 107.717 132 155.575 132 155.575 126.261 167.543 126.261 167.543 120.522 173.519 120.522 173.519 114.783 179.502 114.783 179.502 109.044 185.485 109.044 185.485 97.566 191.467 97.566 191.467 91.825 197.45 91.825 197.45 97.566 203.433 97.566 203.433 103.305 209.414 103.305 209.414 109.044 245.307 109.044 245.307 103.305 247 103.305 247 45.913 245.307 45.913 245.307 40.173 239.327 40.173 239.327 34.434 233.345 34.434 233.345 28.696 227.362 28.696 227.362 22.957 179.502 22.957 179.502 28.696 173.519 28.696 173.519 17.217 167.543 17.217 167.543 11.478 155.575 11.478 155.575 5.74 149.595 5.74 149.595 0z" transform="translate(1638 984)"/>
                    </g>
                </g>
            </g>
        </g>
    </g>
</svg>
