<svg xmlns="http://www.w3.org/2000/svg" width="17" height="20"><g fill="#FFF" fill-rule="evenodd"><path fill-rule="nonzero" d="M8.052 6.205c-3.182 0-5.77 2.583-5.77 5.759 0 3.175 2.588 5.758 5.77 5.758 3.18 0 5.769-2.583 5.769-5.758 0-3.176-2.588-5.759-5.77-5.759zm0 10.345c-2.535 0-4.598-2.057-4.598-4.586 0-2.53 2.063-4.587 4.598-4.587 2.535 0 4.597 2.058 4.597 4.587s-2.062 4.586-4.597 4.586z"/><path fill-rule="nonzero" d="M15.843 6.761c.237-.237.368-.553.368-.888 0-.336-.13-.651-.368-.889l-.808-.807a1.258 1.258 0 00-1.777 0l-.961.96a8.027 8.027 0 00-2.423-1.002V3.126h.206c.51 0 .926-.415.926-.925V.925A.926.926 0 0010.08 0H6.023a.926.926 0 00-.925.925v1.276c0 .51.415.925.925.925h.206v1.009C2.664 4.96 0 8.158 0 11.964 0 16.394 3.612 20 8.052 20c4.44 0 8.051-3.605 8.051-8.036a7.974 7.974 0 00-1.218-4.246l.958-.957zm-1.757-1.755a.085.085 0 01.12 0l.808.807a.085.085 0 010 .12l-.83.829a8.124 8.124 0 00-.929-.926l.831-.83zM6.27 1.172h3.565v.782H6.269v-.782zm1.132 1.954h1.302v.827a8.255 8.255 0 00-1.302 0v-.827zm.65 15.702c-3.793 0-6.88-3.08-6.88-6.864 0-3.786 3.087-6.865 6.88-6.865 3.794 0 6.88 3.08 6.88 6.865s-3.086 6.864-6.88 6.864z"/><path d="M7.917 9.167c.23 0 .416.186.416.416v2.09L10 11.655a.412.412 0 01.417.407v.005c0 .23-.186.419-.417.421l-2.083.024a.413.413 0 01-.417-.408V9.583c0-.23.187-.416.417-.416z"/></g></svg>
