<svg xmlns="http://www.w3.org/2000/svg" xmlns:xlink="http://www.w3.org/1999/xlink" width="56" height="48" viewBox="0 0 56 48">
    <defs>
        <linearGradient id="z0ucovhhvc" x1="50%" x2="50%" y1="0%" y2="100%">
            <stop offset="0%" stop-color="#FDA447"/>
            <stop offset="100%" stop-color="#FBCB22"/>
        </linearGradient>
        <linearGradient id="xnwh82uebd" x1="-3.357%" x2="99.853%" y1="55.107%" y2="55.107%">
            <stop offset="0%" stop-color="#FF7C32"/>
            <stop offset="100%" stop-color="#EB1B8A"/>
        </linearGradient>
        <path id="albxjjqtha" d="M0 0.005L15.367 0.005 15.367 19.889 0 19.889z"/>
    </defs>
    <g fill="none" fill-rule="evenodd">
        <g>
            <g>
                <g>
                    <path fill="#FBCB22" d="M15.42 43.297c.078-2.239 7.248-2.71 12.635-6.321 5.421 4.073 12.558 4.088 12.636 6.32v1.36H15.42v-1.36z" transform="translate(-488.000000, -291.000000) translate(488.000000, 291.000000)"/>
                    <path fill="#ECA400" d="M38.794 43.529H17.317c-.096 0-.173-.078-.173-.174 0-.095.077-.173.173-.173h21.477c.095 0 .173.078.173.173 0 .096-.078.174-.173.174M24.794 30.02s.723 1.082 1.324 2.995c.196.625.396 1.288.389 1.996-.007.714-.23 1.367-.43 1.996-.603 1.892-1.283 2.995-1.283 2.995 0 1.8 6.522 1.8 6.522 0 0 0-.68-1.103-1.282-2.995-.201-.629-.423-1.282-.43-1.996-.007-.708.193-1.37.389-1.996.6-1.913 1.323-2.994 1.323-2.994 0-1.8-1.461-3.261-3.26-3.261-1.8 0-3.262 1.46-3.262 3.26" transform="translate(-488.000000, -291.000000) translate(488.000000, 291.000000)"/>
                    <g transform="translate(-488.000000, -291.000000) translate(488.000000, 291.000000) translate(0.000000, 0.064209)">
                        <mask id="tziono7dyb" fill="#fff">
                            <use xlink:href="#albxjjqtha"/>
                        </mask>
                        <path fill="#ECA400" d="M15.357 16.217c-7.35-.51-10.51-2.706-11.922-5.896-1.411-3.19-1.477-7.814-.482-7.845.563.01 1.521.04 2.005 0 1.147-.005.209.853 1.857 3.63 2.41 4.062 7.158 4.54 7.158 4.54V7.162s-4.1.784-5.864-2.507C6.344 1.365 7.433-.022 6.286.005c-1.6.04-4.105.029-5.403 0-1.495-.031-.928 6.516.483 10.398 1.411 3.88 6.646 8.855 13.991 9.486.021-.68.003-2.93 0-3.672" mask="url(#tziono7dyb)"/>
                    </g>
                    <path fill="#ECA400" d="M40.577 16.282c7.35-.51 10.51-2.707 11.922-5.896 1.411-3.19 1.477-7.815.483-7.846-.564.01-1.522.04-2.006 0-1.147-.005-.209.853-1.856 3.63-2.41 4.062-7.159 4.54-7.159 4.54V7.227s4.1.783 5.864-2.507c1.765-3.291.676-4.677 1.823-4.65 1.6.038 4.105.028 5.403 0 1.495-.032.929 6.516-.483 10.397-1.411 3.881-6.646 8.855-13.99 9.486-.022-.68-.004-2.93 0-3.671" transform="translate(-488.000000, -291.000000) translate(488.000000, 291.000000)"/>
                    <path fill="url(#z0ucovhhvc)" d="M11.663 7.686V3.33c0-.864.344-1.694.955-2.305.612-.612 1.44-.955 2.306-.955H41.01c.864 0 1.694.343 2.306.955.611.611.954 1.44.954 2.305v4.434c-.029 13.226-7.323 23.95-16.304 23.95-8.998 0-16.304-10.767-16.304-24.028" transform="translate(-488.000000, -291.000000) translate(488.000000, 291.000000)"/>
                    <path fill="#FEEDB4" d="M45.369 1.863c0-.99-.803-1.793-1.793-1.793H12.359c-.99 0-1.793.803-1.793 1.793 0 .991.803 1.794 1.793 1.794h31.217c.99 0 1.793-.803 1.793-1.793z" transform="translate(-488.000000, -291.000000) translate(488.000000, 291.000000)"/>
                    <path fill="#FBCB22" d="M42.656 2.176h-29.2c-.173 0-.313-.14-.313-.313 0-.172.14-.313.313-.313h29.2c.172 0 .313.14.313.313s-.14.313-.313.313" transform="translate(-488.000000, -291.000000) translate(488.000000, 291.000000)"/>
                    <path fill="#FEEDB4" d="M27.967 7.56c4.602 0 8.332 3.73 8.332 8.332s-3.73 8.332-8.332 8.332-8.332-3.73-8.332-8.332 3.73-8.332 8.332-8.332" transform="translate(-488.000000, -291.000000) translate(488.000000, 291.000000)"/>
                    <path fill="#FF7E00" d="M30.73 12.863l-.692 1.767c-.063.16-.042.34.056.483l1.08 1.565c.247.357-.029.84-.466.816l-1.914-.105c-.173-.01-.34.067-.447.203l-1.172 1.499c-.268.342-.817.232-.93-.187l-.49-1.83c-.045-.167-.169-.3-.333-.359l-1.804-.638c-.413-.146-.477-.696-.109-.931l1.61-1.027c.147-.093.237-.252.242-.424l.057-1.893c.013-.433.523-.663.863-.39l1.485 1.196c.136.109.316.145.483.097l1.84-.532c.42-.121.799.286.64.69" transform="translate(-488.000000, -291.000000) translate(488.000000, 291.000000) translate(27.267131, 15.293771) rotate(25.000000) translate(-27.267131, -15.293771)"/>
                    <path fill="#ECA400" d="M27.967 6.608c-5.119 0-9.283 4.165-9.283 9.284 0 5.119 4.164 9.283 9.283 9.283 5.12 0 9.284-4.164 9.284-9.283 0-5.12-4.165-9.284-9.284-9.284m0 19.002c-5.359 0-9.718-4.36-9.718-9.718 0-5.359 4.36-9.718 9.718-9.718 5.359 0 9.718 4.36 9.718 9.718 0 5.359-4.36 9.718-9.718 9.718" transform="translate(-488.000000, -291.000000) translate(488.000000, 291.000000)"/>
                    <path fill="#FEEDB4" d="M16.706 20.056c-.253 0-.495-.149-.6-.397-2.845-6.694-2.549-13.036-2.535-13.302.02-.36.327-.637.686-.617.36.019.636.325.617.685-.004.078-.287 6.326 2.432 12.724.141.331-.013.714-.345.855-.083.035-.17.052-.255.052M19.636 25.212c-.2 0-.396-.091-.524-.263-.68-.917-1.311-1.906-1.874-2.94-.172-.317-.054-.713.262-.885.317-.172.712-.055.885.261.533.982 1.13 1.919 1.774 2.786.214.289.154.697-.135.912-.117.087-.253.129-.388.129" transform="translate(-488.000000, -291.000000) translate(488.000000, 291.000000)"/>
                </g>
                <g>
                    <path fill="url(#xnwh82uebd)" d="M.654 11.744C2.606 10.18 8.931 4.95 10.95 1.226c.341-.63 1.119-.91 1.761-.592.969.48 1.876 1.604 1.477 2.366-.65 1.214-.897 1.996-.226 2.54 1.103.895 1.82.124 2.47-.194.312-.151.677-.162.992-.018 1.016.463 2.373 1.833 1.506 2.922-1.101 1.383-6.887 8.665-11.064 10.81-1.863 1.1-3.67-1.835-2.512-2.597 1.106-1.078.439-2.122-.098-2.573-.536-.452-1.341-.447-2.301.146-.96.593-1.27.31-1.806-.198-.152-.143-.33-.28-.5-.417-.534-.433-.53-1.248.006-1.677" transform="translate(-488.000000, -291.000000) translate(488.000000, 291.000000) translate(28.000000, 28.000000)"/>
                    <path fill="#520D0D" d="M16.43 10.648c.103.066.208.133.315.199l-.265.424-.32-.201.27-.422zm-1.219-.806c.196.134.397.27.604.407l-.276.417c-.21-.138-.413-.276-.611-.412l.283-.412zm-1.183-.849c.19.142.385.285.587.43l-.29.407c-.206-.147-.405-.293-.596-.437l.3-.4zm-1.144-.898c.181.15.37.301.567.456l-.309.393c-.2-.157-.392-.311-.576-.462l.318-.387zm-1.097-.952c.17.157.351.318.542.483l-.328.378c-.194-.168-.378-.332-.552-.492l.338-.369zm-1.036-1.012c.156.163.326.335.51.514l-.35.358c-.188-.183-.362-.36-.522-.527l.362-.345zm-.952-1.084c.141.177.297.363.463.552l-.375.33c-.172-.195-.333-.387-.48-.571l.392-.311zm-.615-.87c.001.002.06.106.189.296l-.413.282c-.145-.212-.21-.33-.213-.336l.437-.241z" transform="translate(-488.000000, -291.000000) translate(488.000000, 291.000000) translate(28.000000, 28.000000)"/>
                    <path fill="#000" fill-opacity=".219" d="M10.928 9.782l-.392 1.013c-.036.092-.024.196.032.277l.612.897c.14.206-.016.482-.264.469l-1.085-.06c-.098-.006-.193.037-.253.115l-.665.86c-.152.197-.463.133-.527-.107l-.278-1.05c-.025-.095-.095-.172-.188-.205l-1.023-.366c-.234-.084-.27-.4-.061-.534l.912-.589c.083-.054.134-.144.137-.243l.032-1.086c.008-.248.297-.38.49-.223l.841.686c.077.062.18.083.274.055l1.042-.305c.239-.07.454.164.364.396" transform="translate(-488.000000, -291.000000) translate(488.000000, 291.000000) translate(28.000000, 28.000000)"/>
                    <path fill="#FFCA96" d="M10.928 9.39l-.392 1.013c-.036.092-.024.195.032.277l.612.897c.14.205-.016.482-.264.468l-1.085-.06c-.098-.005-.193.038-.253.116l-.665.86c-.152.196-.463.133-.527-.107l-.278-1.05c-.025-.095-.095-.172-.188-.205l-1.023-.367c-.234-.083-.27-.399-.061-.534l.912-.588c.083-.054.134-.145.137-.243l.032-1.086c.008-.248.297-.38.49-.224l.841.686c.077.063.18.083.274.056l1.042-.305c.239-.07.454.164.364.396" transform="translate(-488.000000, -291.000000) translate(488.000000, 291.000000) translate(28.000000, 28.000000)"/>
                    <path fill="#F15A24" d="M2.954 14.036c.102-.063.201-.116.3-.166-.664.126-1.254.22-1.744.288.362.273.717.327 1.444-.122" transform="translate(-488.000000, -291.000000) translate(488.000000, 291.000000) translate(28.000000, 28.000000)"/>
                    <path fill="#000" fill-opacity=".153" d="M18.928 8.25c.66-.828.033-1.817-.752-2.448l-.138.18c-3.396 4.569-9.313 6.666-13.449 7.609.252.04.477.139.666.299.536.451 1.204 1.495.098 2.574-1.157.761.65 3.697 2.512 2.596 4.177-2.145 9.963-9.427 11.063-10.81" transform="translate(-488.000000, -291.000000) translate(488.000000, 291.000000) translate(28.000000, 28.000000)"/>
                    <g fill="#520D0D">
                        <path d="M4.351 13.257c.402 0 .762.127 1.065.382.177.149.755.695.784 1.476.019.52-.207 1.015-.672 1.468l-.037.03c-.397.261-.28.918.041 1.431.45.72 1.33 1.259 2.206.741 2.664-1.368 6.559-5.177 10.98-10.731.22-.276.283-.557.206-.875-.166-.694-.95-1.385-1.605-1.683-.24-.11-.532-.104-.777.016-.107.052-.22.12-.34.191-.573.345-1.357.817-2.398-.027-.878-.713-.424-1.756.163-2.853.083-.16.089-.357.015-.584-.172-.53-.74-1.121-1.383-1.44-.506-.252-1.149-.033-1.43.487C9.126 5.058 2.724 10.348.81 11.879c-.197.158-.31.393-.31.645-.002.25.11.485.304.643l.11.088c.137.11.278.223.404.342.51.483.7.663 1.504.167.546-.337 1.065-.507 1.528-.507M7.013 19.5c-.79 0-1.495-.533-1.905-1.19-.526-.843-.49-1.701.086-2.1.35-.346.52-.708.506-1.077-.02-.576-.469-.996-.606-1.111-.474-.4-1.187-.34-2.009.167-1.076.666-1.502.347-2.11-.229-.11-.104-.237-.206-.372-.314l-.112-.09c-.313-.254-.492-.63-.49-1.034 0-.404.182-.78.497-1.033C2.393 9.972 8.731 4.737 10.73 1.048 11.145.28 12.063-.025 12.821.35c.765.38 1.423 1.076 1.637 1.733.115.355.098.692-.05.973-.696 1.302-.766 1.843-.29 2.23.77.624 1.283.315 1.827-.012.123-.074.25-.15.377-.213.385-.187.824-.195 1.205-.021.78.356 1.678 1.165 1.883 2.021.112.465.013.91-.286 1.285-2.6 3.266-7.485 8.996-11.145 10.876-.327.193-.654.277-.966.277" transform="translate(-488.000000, -291.000000) translate(488.000000, 291.000000) translate(28.000000, 28.000000) translate(0.000000, 0.059350)"/>
                    </g>
                </g>
            </g>
        </g>
    </g>
</svg>
