<svg xmlns="http://www.w3.org/2000/svg" width="1659" height="91"><g fill="none" fill-rule="evenodd"><path fill="#FFBBE2" d="M0 0h1659v92H0z"/><g fill="#FFACDC"><path d="M1483 41h33V27h-33zm35 0h33V27h-33zm36 0h28V27h-28zm-19 18h31V44h-31zm-34 0h30V44h-30zm-18 16h32V63h-32zm36 0h28V63h-28zm35 0h28V63h-28zm34 0h29V63h-29zm-19 16h32V79h-32zm-35 0h32V79h-32zm-31 0h28V79h-28zm-20 0h14V79h-14zm0-32h13V44h-13zm86 0h32V44h-32zm19-18h28V27h-28z"/><path d="M1619.808 27v16.731H1604v15.213h15.808v19.661H1604V91h22V27z"/></g></g></svg>