<svg xmlns="http://www.w3.org/2000/svg" width="25" height="26"><path d="M13.39 0v.5h.974v.49h.963v.512h-2.932v2.413h.49v1.02h.505v.964h.471v.485h.503v3.974h.489v3.446h2.979v-1.966h-.498V9.913h.974v.9h.993V9.82h.945v.993h1.07V9.82h.933v.993h.991V9.82h.962v2.018h-.5v13.196H.567V11.838H0V9.82h1.123v.993h.935V9.82h.987v.993h1.38V9.82h1.069v.993h.996V9.82h.974v2.018H6.49v1.966h2.96v-3.446h.49v-3.41h.517v-1.05h.47v-.963h.457v-1.02h.512V0h1.493zM4.073 20.874H3.59v.496h-.531v2.49h1.534v-2.49h-.52v-.496zm16.526 0h-.483v.496h-.532v2.49h1.535v-2.49h-.52v-.496zm-7.175-5.097h-2.053v.475h-.42v.532h-.495v.522h-.519v6.334h4.94v-6.228h-.523v-.628h-.506v-.532h-.424v-.475zm-7.906-3.959H1.553v.5h3.965v-.5zm17.162 0h-3.966v.5h3.966v-.5zM12.386 6.885h-.483v.496h-.532v2.49h1.535v-2.49h-.52v-.496z" fill="#460000" fill-rule="evenodd"/></svg>