<svg xmlns="http://www.w3.org/2000/svg" width="20" height="24"><g fill="#460000" fill-rule="evenodd"><path d="M5.71 3.727V5.04H2.872v1.64h-1.64v2.906H0v8.458h1.232v2.906h1.64v1.457H5.71v1.4h8.619v-1.4h2.796V20.95h1.51v-2.906h1.357V9.586h-1.356V6.68h-1.51V5.04h-2.797V3.727h-8.62zm-2.778 7.151h1.232l-.001-2.906H7.07V6.659h5.857v1.313h2.777v2.906h1.356v5.874h-1.356v2.723h-2.777v1.4H7.07v-1.4H4.164v-2.723H2.932v-5.874zm4.374-8.404h5.523V0H7.306z"/><path d="M11.09 8.612H8.716v7.077h5.507v-2.17H11.09z"/></g></svg>