<svg xmlns="http://www.w3.org/2000/svg" width="125" height="129"><defs><path id="a" d="M.202.101h.102v.101H.202z"/><path id="b" d="M.773.386h.386v.387H.773z"/><path id="c" d="M.773.386h.386v.387H.773z"/><path id="d" d="M.773.386h.386v.387H.773z"/><path id="e" d="M.202.101h.102v.101H.202z"/><path id="f" d="M.442.221h.221v.221H.442z"/><path id="g" d="M.885.442h.442v.443H.885z"/><path id="h" d="M.885.442h.442v.443H.885z"/><path id="i" d="M.885.442h.442v.443H.885z"/><path id="j" d="M.442.221h.221v.221H.442z"/></defs><g fill="none" fill-rule="evenodd"><path fill="#000" d="M9.932 105.276v4.896h12.24v2.448h7.345v2.448h2.45v-4.896H24.62v-2.448H12.38v-2.448H9.932zm31.828 7.344v2.448h2.448v-2.448H41.76zm2.448-7.344v2.448h-4.896v4.896h2.448v-2.448h4.896v-4.896h-2.448zm-36.723-2.448v2.448h2.448v-2.448H7.485zm39.171 0v2.448h2.448v-2.448h-2.448zm-41.62-2.43v2.449h2.448v-2.448H5.036zm44.068 2.43h2.448v-7.34h-2.448v7.34zm-46.516-7.32v4.89h2.448v-4.89H2.588zm14.69-.02v2.448h4.895v-2.448h-4.896zm-14.69-2.433v2.448h2.448v-2.448H2.588zm9.793-.02v2.448h4.896v-2.448h-4.896zm9.792-14.69v7.344h-2.448v9.794h7.344v-7.346h-2.448v-9.792h-2.448zm22.034 4.895v2.448h2.448v2.448h2.448v7.346h2.448V85.69h-2.448v-2.45h-4.896zM.139 78.357v14.697h2.448V78.358H.139zm22.033 9.779h2.448v4.898h-2.448v-4.898zM7.484 78.344v12.24h4.896v-2.448H9.932v-9.792H7.484zm19.584 7.344v2.448h2.449v-2.448h-2.449zm2.449-2.448v2.448h2.45V83.24h-2.45zm2.45-2.448v2.448h12.24v-2.448h-12.24zM.139 73.448v4.896h2.448v-4.896H.139zM9.932 71v7.344h2.448V71H9.932zm-7.345-2.448v4.896h2.448v-4.896H2.587zm9.793 0V71h2.448v-2.448H12.38zm-7.345-2.45v2.45h2.448v-2.45H5.035zm9.793 0v2.45h2.448v-2.45h-2.448zm-7.344-2.449v2.448h4.896v-2.448H7.484zm4.896-2.448v2.448h2.448v-2.448H12.38z"/><path fill="red" d="M24.62 95.488v7.34h2.448v2.448h-9.792v-2.448H12.38v-2.448H9.932v-4.892H7.484v7.34h2.448v2.448h2.448v2.448h14.688v2.448h9.795v-2.448h2.448v-2.448h4.896v-2.448h2.448v-7.34H24.62zm36.726 12.236v2.448h2.448v-2.448h-2.448zm0-12.236v9.788h2.448v-9.788h-2.448zm-56.311.02v4.89h2.448v-4.89H5.035zm-2.448-7.352v4.899h2.448v2.448h2.448v-4.896H5.035v-2.45H2.587zm29.38-2.467v2.448h-2.45v7.346l17.138.001v-4.898h-2.448v-2.448h-7.344V85.69h-4.896zm51.414-66.102v2.448h-2.45v4.896h-4.897v-2.448h2.448v-2.448h-4.896v2.448h-2.448v4.896h2.448v2.448h-2.448v22.035H68.69v2.448h-2.448v2.448h-2.448v2.448H54v-2.448h-2.448V56.31h-2.448v-4.896h-2.448v-4.896h-2.448V44.07H41.76v-2.45h-2.448v-4.897h-2.448v-7.344h-4.896V26.93h-4.899v4.896h-2.448v2.448h4.897v2.448h2.45v2.448h2.448v4.899h2.448v2.448h4.896v2.448h2.448v4.896h2.448V71H41.76v2.448h-7.344v2.448h-7.347v2.448h-2.448v9.792h2.448v-2.448h2.449V83.24h2.45v-2.448h12.24v2.448h4.896v2.448h2.448v4.896h4.898v-9.792h2.448v7.344h2.448v7.346h4.896v-2.448h-2.448v-4.898h2.448v-2.448h-2.448v-4.896h2.448V71h2.448V58.758h2.448V56.31h2.448V36.723h2.448v-4.896h2.448v-2.448h4.899v2.448h2.448v-2.448h7.344V26.93h-7.344v-4.896h2.448v-2.448h-4.896zm-61.209 68.55v4.898h2.448v-4.898h-2.448zm-19.585-9.78v9.795h2.448v-9.794H2.587zm2.448-9.804v4.896H2.587v4.896h4.896v-9.792H5.035zm2.45-2.45V71h2.447v-2.448h2.448v-2.45H7.484zm4.895-2.449v2.448h2.448v-2.448H12.38zm12.24-39.171v2.448h2.448v-2.448H24.62zm68.553 0v2.448h2.448v-2.448h-2.448zm-4.896-7.344v2.448h2.448v-2.448h-2.448zm2.448-2.45v2.45h2.448v-2.45h-2.448zm2.448-2.449v2.448h2.448l-.001-2.448h-2.448z"/><path fill="#FF6E6E" d="M9.932 95.483H7.484v-2.448h2.448zm0-2.448H7.484v-2.45h2.448zm0-14.69H7.484v-2.448h2.448zm0-2.448H7.484v-2.448h2.448zm0-2.448H7.484v-2.448h2.448z"/><path fill="red" d="M7.483 90.6H5.035v-2.448h2.448z"/><path fill="#FF6E6E" d="M7.483 88.152H5.035v-2.448h2.448zm0-2.448H5.035v-2.448h2.448zm0-2.448H5.035v-2.448h2.448zm0-2.448H5.035v-2.45h2.448zm0 9.799H5.035v-2.451h2.448z"/><path fill="red" d="M5.035 90.6H2.587v-2.448h2.448z"/><path fill="#000" d="M24.62 34.275v-2.448H7.484v2.448H24.62z"/><path fill="#000" d="M9.932 31.827H7.484v-2.448h2.448z"/><path fill="#FF6E6E" d="M12.38 100.38H9.932v-2.448h2.448zm0-4.897H9.932v-2.448h2.448zm0-2.448H9.932v-2.45h2.448zm0-22.034H9.932v-2.448h2.448z"/><path fill="#000" d="M12.38 36.723H9.932v-2.448h2.448z"/><path fill="#B3B3B3" d="M12.38 31.827H9.932v-2.448h2.448z"/><path fill="#000" d="M12.38 29.379H9.932v-2.448h2.448zm0-2.448H9.932v-2.448h2.448z"/><path fill="#FF6E6E" d="M14.828 102.828H12.38v-2.448h2.448zm0-2.448H12.38v-2.448h2.448zm0-31.827H12.38v-2.451h2.448z"/><path fill="#000" d="M14.828 39.171H12.38v-2.448h2.448z"/><path fill="#B3B3B3" d="M14.828 36.723H12.38v-2.448h2.448zm0-4.896H12.38v-2.448h2.448zm0-2.448H12.38v-2.448h2.448z"/><path fill="#000" d="M14.828 26.931H12.38v-2.448h2.448zm0-2.448H12.38v-2.448h2.448zm0-2.448H12.38v-2.448h2.448zm0-2.448H12.38v-2.448h2.448zm44.07 39.171v2.448h2.448v-2.448h-2.448zm-4.899-2.448v2.448h4.899V56.31h-4.899zm7.347 0v2.448h2.448V56.31h-2.448zm-9.795-4.896v4.896H54v-4.896h-2.448zm12.243 2.448v2.448h2.448v-2.448h-2.448zm7.344-22.035H68.69v19.587h-2.448v2.448h4.896l.001-22.035zm-22.035 14.69v2.449h2.448v-2.448h-2.448zm-2.448-2.447v2.448h2.448l.001-2.448h-2.448zm-2.448-4.899v4.899h2.448l.001-4.9h-2.448zm-2.448-7.344v7.344h2.448v-7.344h-2.448zm-2.448-4.896v4.896l2.449-.001V26.93h-2.448zm-7.344-2.448v2.448h7.344v-2.448h-7.344zm-4.899-2.448v2.448h4.9v-2.448h-4.9zm-4.896-2.448v2.448h4.896v-2.448h-4.896zm-7.344-2.448v2.448h4.896v-2.448h-4.896zm-2.448-2.45v2.45h2.448v-2.45H12.38z"/><path fill="#FF6E6E" d="M17.276 102.828h-2.448v-2.448h2.448zm0-2.448h-2.448v-2.448h2.448z"/><path fill="#B3B3B3" d="M17.276 66.102h-2.448v-2.448h2.448z"/><path fill="#D3D0D8" d="M17.276 63.654h-2.448v-2.448h2.448z"/><path fill="#000" d="M17.276 61.206h-2.448v-2.448h2.448zm0-22.035h-2.448v-2.448h2.448z"/><path fill="#B3B3B3" d="M17.276 36.723h-2.448v-2.448h2.448zm0-4.896h-2.448v-2.448h2.448z"/><path fill="#000" d="M17.276 29.379h-2.448v-2.448h2.448z"/><path fill="#B3B3B3" d="M17.276 26.931h-2.448v-2.448h2.448zm0-2.448h-2.448v-2.448h2.448z"/><path fill="#D3D0D8" d="M17.276 22.035h-2.448v-2.448h2.448z"/><path fill="#FF6E6E" d="M19.724 105.276h-2.448v-2.448h2.448zm0-2.448h-2.448v-2.448h2.448z"/><path fill="#B80000" d="M19.724 100.38h-2.448v-2.448h2.448z"/><path fill="#000" d="M19.724 66.102h-2.448v-2.448h2.448z"/><path fill="#D3D0D8" d="M19.724 63.654h-2.448v-2.448h2.448z"/><path fill="#000" d="M19.724 61.206h-2.448v-2.448h2.448zm0-19.587h-2.448v-2.448h2.448z"/><path fill="#B3B3B3" d="M19.724 39.171h-2.448v-2.448h2.448z"/><path fill="#D3D0D8" d="M19.724 36.723h-2.448v-2.448h2.448zm0-4.896h-2.448v-2.448h2.448z"/><path fill="#000" d="M19.724 29.379h-2.448v-2.448h2.448z"/><path fill="#D3D0D8" d="M19.724 26.931h-2.448v-2.448h2.448zm0-2.448h-2.448v-2.448h2.448z"/><path fill="#B80000" d="M41.76 48.966v2.448h2.447v-2.448h-2.448zm-2.449-2.448v2.448h2.449v-2.448h-2.448zm-4.896-2.448v2.448h2.448l.001-2.448h-2.448zm-2.448-4.899v2.448h2.448v-2.448h-2.448zm-2.45-2.448v2.448h2.45v-2.448h-2.45zm-2.449-2.448v2.448h2.449v-2.448h-2.449zm-2.448-7.344v4.896h2.448v-4.896H24.62zm-2.448-2.448v2.448h2.448v-2.448h-2.448zm-2.448-2.448v2.448h2.448v-2.448h-2.448zm-2.448-2.448v2.448h2.448v-2.448h-2.448z"/><path fill="#FF6E6E" d="M22.172 105.276h-2.448v-2.448h2.448zm0-2.448h-2.448v-2.448h2.448z"/><path fill="#B80000" d="M22.172 100.38h-2.448v-2.448h2.448z"/><path fill="#000" d="M22.172 63.654h-2.448v-2.448h2.448z"/><path fill="#D3D0D8" d="M22.172 61.206h-2.448v-2.448h2.448z"/><path fill="#000" d="M22.172 58.758h-2.448V56.31h2.448zm0-12.24h-2.448V44.07h2.448zm0-2.448h-2.448v-2.451h2.448z"/><path fill="#B3B3B3" d="M22.172 41.619h-2.448v-2.448h2.448zm0-2.448h-2.448v-2.448h2.448z"/><path fill="#D3D0D8" d="M22.172 36.723h-2.448v-2.448h2.448zm0-4.896h-2.448v-2.448h2.448z"/><path fill="#000" d="M22.172 29.379h-2.448v-2.448h2.448z"/><path fill="#D3D0D8" d="M22.172 26.931h-2.448v-2.448h2.448z"/><path fill="#FF6E6E" d="M58.898 61.206v-2.448h-4.899v2.448h4.899zm-7.347-4.896v2.448H54V56.31h-2.448zm-4.896-9.792v4.896h2.448v4.896h2.448v-7.344h-2.448v-2.448h-2.448zm-2.448-2.448v2.448h2.448l.001-2.448h-2.448zm-2.448-2.45v2.45h2.448v-2.45h-2.448zm-9.792-14.69v2.449h4.896v7.344h2.448v4.896h2.449v-9.792h-2.448v-4.896h-7.344zm-4.899-2.447v2.448h4.9v-2.448h-4.9zm-4.896-2.448v2.448h4.896v-2.448h-4.896zm-2.448-2.448v2.448h2.448v-2.448h-2.448zm4.896 85.689h-2.448v-2.448h2.448z"/><path fill="#B80000" d="M24.62 102.828h-2.448v-2.448h2.448zm0-2.448h-2.448v-2.448h2.448z"/><path fill="#000" d="M24.62 61.206h-2.448v-2.448h2.448zm0-2.448h-2.448V56.31h2.448zm-2.448-7.344v2.448h2.448v-2.448h-2.448zm4.896-4.896v2.448H24.62v2.448h4.897v-4.896h-2.449zm2.449-4.899v4.899h2.45V44.07h2.448v-2.45h-4.898zm-4.897 9.795h-2.448v-2.448h2.448zm0-2.448h-2.448v-2.448h2.448z"/><path fill="#B3B3B3" d="M24.62 46.518h-2.448V44.07h2.448z"/><path fill="#D3D0D8" d="M24.62 44.07h-2.448v-2.451h2.448z"/><path fill="#000" d="M24.62 41.619h-2.448v-2.448h2.448z"/><path fill="#D3D0D8" d="M24.62 39.171h-2.448v-2.448h2.448zm0-2.448h-2.448v-2.448h2.448zm0-4.896h-2.448v-2.448h2.448zm0-2.448h-2.448v-2.448h2.448z"/><path fill="#B80000" d="M27.068 110.172H24.62v-2.448h2.448zm0-4.896H24.62v-2.448h2.448z"/><path fill="#000" d="M27.068 78.345H24.62v-2.448h2.448z"/><path fill="#B3B3B3" d="M27.068 56.31H24.62v-2.448h2.448zm0-2.448H24.62v-2.448h2.448zm0-4.896H24.62v-2.448h2.448zm0-2.448H24.62V44.07h2.448zm0-2.448H24.62v-2.451h2.448z"/><path fill="#D3D0D8" d="M27.068 41.619H24.62v-2.448h2.448z"/><path fill="#000" d="M27.068 39.171H24.62v-2.448h2.448z"/><path fill="#D3D0D8" d="M27.068 36.723H24.62v-2.448h2.448z"/><path fill="#FF6E6E" d="M29.517 95.483h-2.449v-2.448h2.449zm0-2.448h-2.449v-2.45h2.449zm0-2.45h-2.449v-2.448h2.449z"/><path fill="#000" d="M29.517 75.897h-2.449v-2.448h2.449zm0-19.587h-2.449v-2.448h2.449z"/><path fill="#B3B3B3" d="M29.517 53.862h-2.449v-2.448h2.449z"/><path fill="#D3D0D8" d="M29.517 46.518h-2.449V44.07h2.449zm0-2.448h-2.449v-2.451h2.449zm0-2.451h-2.449v-2.448h2.449zm0-2.448h-2.449v-2.448h2.449z"/><path fill="#FF6E6E" d="M31.967 88.137h-2.45v-2.448h2.45z"/><path fill="#000" d="M31.967 75.897h-2.45v-2.448h2.45zm0-17.139h-2.45V56.31h2.45z"/><path fill="#B3B3B3" d="M31.967 56.31h-2.45v-2.448h2.45zm0-2.448h-2.45v-2.448h2.45z"/><path fill="#D3D0D8" d="M31.967 51.414h-2.45v-2.448h2.45zm0-2.448h-2.45v-2.448h2.45zm0-7.347h-2.45v-2.448h2.45z"/><path fill="#B3B3B3" d="M34.415 115.068h-2.448v-2.448h2.448z"/><path fill="#B80000" d="M34.415 112.62h-2.448v-2.448h2.448z"/><path fill="#FF6E6E" d="M34.415 85.689h-2.448v-2.448h2.448z"/><path fill="#000" d="M34.415 75.897h-2.448v-2.448h2.448zm0-14.691h-2.448v-2.448h2.448z"/><path fill="#B3B3B3" d="M34.415 58.758h-2.448V56.31h2.448zm0-2.448h-2.448v-2.448h2.448z"/><path fill="#D3D0D8" d="M34.415 53.862h-2.448v-2.448h2.448z"/><path fill="#B3B3B3" d="M34.415 51.414h-2.448v-2.448h2.448z"/><path fill="#D3D0D8" d="M34.415 48.966h-2.448v-2.448h2.448zm0-2.448h-2.448V44.07h2.448z"/><path fill="#000" d="M36.863 117.516h-2.448v-2.448h2.448z"/><path fill="#D3D0D8" d="M36.863 115.068h-2.448v-2.448h2.448z"/><path fill="#B80000" d="M36.863 112.62h-2.448v-2.448h2.448z"/><path fill="#FF6E6E" d="M36.863 85.689h-2.448v-2.448h2.448z"/><path fill="#000" d="M36.863 73.449h-2.448v-2.448h2.448zm0-9.795h-2.448v-2.448h2.448z"/><path fill="#B3B3B3" d="M36.863 61.206h-2.448v-2.448h2.448z"/><path fill="#000" d="M36.863 58.758h-2.448V56.31h2.448z"/><path fill="#D3D0D8" d="M36.863 56.31h-2.448v-2.448h2.448z"/><path fill="#B3B3B3" d="M36.863 53.862h-2.448v-2.448h2.448z"/><path fill="#D3D0D8" d="M36.863 51.414h-2.448v-2.448h2.448zm0-2.448h-2.448v-2.448h2.448z"/><path fill="#000" d="M39.311 117.516h-2.448v-2.448h2.448z"/><path fill="#B80000" d="M39.311 112.62h-2.448v-2.448h2.448z"/><path fill="#FF6E6E" d="M39.311 110.172h-2.448v-2.448h2.448zm0-22.035h-2.448v-2.448h2.448zm0-2.448h-2.448v-2.448h2.448z"/><path fill="#000" d="M39.311 73.449h-2.448v-2.448h2.448zm0-2.448h-2.448v-2.448h2.448zm0-2.448h-2.448v-2.451h2.448zm0-2.451h-2.448v-2.448h2.448z"/><path fill="#B3B3B3" d="M39.311 63.654h-2.448v-2.448h2.448zm0-2.448h-2.448v-2.448h2.448z"/><path fill="#D3D0D8" d="M39.311 58.758h-2.448V56.31h2.448z"/><path fill="#000" d="M39.311 56.31h-2.448v-2.448h2.448z"/><path fill="#D3D0D8" d="M39.311 53.862h-2.448v-2.448h2.448zm0-2.448h-2.448v-2.448h2.448zm0-2.448h-2.448v-2.448h2.448z"/><path fill="#B3B3B3" d="M41.759 115.068h-2.448v-2.448h2.448zm-2.448 0h-2.448v-2.448h2.448z"/><path fill="#FF6E6E" d="M41.759 107.724h-2.448v-2.448h2.448zm0-19.587h-2.448v-2.448h2.448zm0-2.448h-2.448v-2.448h2.448z"/><path fill="#000" d="M41.759 73.449h-2.448v-2.448h2.448z"/><path fill="#B3B3B3" d="M41.759 71.001h-2.448v-2.448h2.448zm0-2.448h-2.448v-2.451h2.448zm0-2.451h-2.448v-2.448h2.448zm0-2.448h-2.448v-2.448h2.448zm0-2.448h-2.448v-2.448h2.448z"/><path fill="#D3D0D8" d="M41.759 58.758h-2.448V56.31h2.448zm0-2.448h-2.448v-2.448h2.448z"/><path fill="#000" d="M41.759 53.862h-2.448v-2.448h2.448z"/><path fill="#D3D0D8" d="M41.759 51.414h-2.448v-2.448h2.448z"/><path fill="#000" d="M44.207 117.516h-2.448v-2.448h2.448z"/><path fill="#FF6E6E" d="M44.207 107.724h-2.448v-2.448h2.448zm0-19.587h-2.448v-2.448h2.448zm0-2.448h-2.448v-2.448h2.448z"/><path fill="#000" d="M44.207 71.001h-2.448v-2.448h2.448z"/><path fill="#B3B3B3" d="M44.207 68.553h-2.448v-2.451h2.448z"/><path fill="#D3D0D8" d="M44.207 66.102h-2.448v-2.448h2.448zm0-2.448h-2.448v-2.448h2.448zm0-2.448h-2.448v-2.448h2.448zm0-2.448h-2.448V56.31h2.448zm0-2.448h-2.448v-2.448h2.448zm0-2.448h-2.448v-2.448h2.448z"/><path fill="#B80000" d="M44.207 41.619h-2.448v-2.448h2.448z"/><path fill="#000" d="M46.655 117.516h-2.448v-2.448h2.448z"/><path fill="#FF6E6E" d="M46.655 105.276h-2.448v-2.448h2.448zm0-14.691h-2.448v-2.448h2.448zm0-2.448h-2.448v-2.448h2.448z"/><path fill="#000" d="M46.655 71.001h-2.448v-2.448h2.448zm0-2.448h-2.448v-2.451h2.448zm0-2.451h-2.448v-2.448h2.448zm0-2.448h-2.448v-2.448h2.448zm0-2.448h-2.448v-2.448h2.448zm0-2.448h-2.448V56.31h2.448zm0-2.448h-2.448v-2.448h2.448z"/><path fill="#FF6E6E" d="M49.103 102.828h-2.448v-2.448h2.448zm0-2.448h-2.448v-2.448h2.448zm0-4.897h-2.448v-2.448h2.448zm0-2.448h-2.448v-2.45h2.448zm0-2.45h-2.448v-2.448h2.448z"/><path fill="#000" d="M53.999 115.068h-2.448v-2.448h2.448zm0-14.688h-2.448v-2.448h2.448z"/><path fill="#B3B3B3" d="M53.999 95.483h-2.448v-2.448h2.448z"/><path fill="#B80000" d="M53.999 93.035h-2.448v-2.45h2.448z"/><path fill="#000" d="M56.45 115.068h-2.451v-2.448h2.451z"/><path fill="#000" d="M58.899 115.068h-2.45v-2.448h2.45z"/><path fill="#D3D0D8" d="M56.45 112.62h-2.451v-2.448h2.451z"/><path fill="#000" d="M56.45 100.38h-2.451v-2.448h2.451z"/><path fill="#B3B3B3" d="M56.45 95.483h-2.451v-2.448h2.451z"/><path fill="#B80000" d="M56.45 93.035h-2.451v-2.45h2.451z"/><path fill="#B3B3B3" d="M58.898 112.62H56.45v-2.448h2.448z"/><path fill="#000" d="M58.898 100.38H56.45v-2.448h2.448z"/><path fill="#B80000" d="M58.898 95.483H56.45v-2.448h2.448zm0-2.448H56.45v-2.45h2.448z"/><path fill="#000" d="M63.794 102.828v7.344h-2.448v2.448h4.896v-9.792h-2.448zm-4.896-7.34v14.684h2.448V95.488h-2.448zm7.344 0v7.34h2.448v-7.34h-2.448zM56.45 80.793v9.792h2.448v4.898h2.448v-7.346h-2.448v-7.344H56.45zm12.24 12.242v2.448h4.896v-2.448H68.69zm4.896-2.45v2.45h2.448v-2.45h-2.448zm2.448-2.448v2.448h2.448v-2.448h-2.448zm-4.896-4.896v2.448h7.344v2.448h2.448V83.24h-9.792zm-2.448-2.448v2.448h2.448v-2.448H68.69zM80.93 71v2.448h-2.448v2.448h-4.896v2.448h7.344v4.896h2.45v-9.792h2.45v2.448h2.448v-2.448H85.83V71h-4.899zm19.587 4.896h-2.448v4.896h-4.896v2.448h7.344v-7.344zm-9.792 2.448v2.448h2.448v-2.448h-2.448zm-2.448-2.448v2.448h2.448v-2.448h-2.448zm-17.139-2.448v2.448h2.448v-2.448h-2.448zm24.483-4.896v7.344h2.448v-7.344h-2.448zm-2.448-4.899v4.899h2.448v-4.899h-2.448z"/><path fill="#B3B3B3" d="M61.346 112.62h-2.448v-2.448h2.448zm0 2.479h-2.448v-2.448h2.448z"/><path fill="#000" d="M61.346 39.171h-2.448v-2.448h2.448zm0-9.792h-2.448v-2.448h2.448z"/><path fill="#B3B3B3" d="M63.794 115.068h-2.448v-2.448h2.448z"/><path fill="red" d="M63.794 107.724h-2.448v-2.448h2.448z"/><path fill="#B80000" d="M63.794 61.206h-2.448v-2.448h2.448z"/><path fill="#D3D0D8" d="M63.794 39.171h-2.448v-2.448h2.448z"/><path fill="#000" d="M63.794 36.723h-2.448v-2.448h2.448z"/><path fill="#D3D0D8" d="M63.794 29.379h-2.448v-2.448h2.448z"/><path fill="#000" d="M63.794 26.931h-2.448v-2.448h2.448z"/><path fill="#B3B3B3" d="M66.242 115.068h-2.448v-2.448h2.448z"/><path fill="#FF6E6E" d="M63.794 95.488v7.34h2.448v-7.34h-2.448zm4.896-22.04h2.448v-14.69H68.69V71h-2.448v9.792h-2.448v4.896h2.448v2.448h-2.448v4.898h2.448v2.448h2.448V73.45z"/><path fill="#B80000" d="M66.242 58.758h-2.448V56.31h2.448z"/><path fill="#000" d="M66.242 39.171h-2.448v-2.448h2.448z"/><path fill="#D3D0D8" d="M66.242 36.723h-2.448v-2.448h2.448z"/><path fill="#000" d="M66.242 34.275h-2.448v-2.448h2.448z"/><path fill="#B3B3B3" d="M66.242 29.379h-2.448v-2.448h2.448z"/><path fill="#D3D0D8" d="M66.242 26.931h-2.448v-2.448h2.448z"/><path fill="#000" d="M66.242 24.483h-2.448v-2.448h2.448zm2.448 93.033h-2.448v-2.448h2.448z"/><path fill="#D3D0D8" d="M68.69 115.068h-2.448v-2.448h2.448z"/><path fill="#B3B3B3" d="M68.69 112.62h-2.448v-2.448h2.448z"/><path fill="#FF6E6E" d="M12.38 97.936H9.932v-2.448h2.448zm2.448 0H12.38v-2.448h2.448zm2.448 0h-2.448v-2.448h2.448z"/><path fill="#B80000" d="M24.62 97.936h-2.448v-2.448h2.448z"/><path fill="#FF6E6E" d="M49.103 97.936h-2.448v-2.448h2.448z"/><path fill="#D3D0D8" d="M53.999 97.936h-2.448v-2.448h2.448zm2.451 0h-2.451v-2.448h2.451zm2.448 0H56.45v-2.448h2.448z"/><path fill="#B80000" d="M68.69 56.31h-2.448v-2.448h2.448z"/><path fill="#000" d="M68.69 36.723h-2.448v-2.448h2.448z"/><path fill="#D3D0D8" d="M68.69 34.275h-2.448v-2.448h2.448z"/><path fill="#000" d="M68.69 31.827h-2.448v-2.448h2.448z"/><path fill="#B3B3B3" d="M68.69 29.379h-2.448v-2.448h2.448z"/><path fill="#D3D0D8" d="M68.69 26.931h-2.448v-2.448h2.448z"/><path fill="#000" d="M68.69 24.483h-2.448v-2.448h2.448zm2.448 95.483H68.69v-2.45h2.448z"/><path fill="#B3B3B3" d="M71.138 112.62H68.69v-2.448h2.448z"/><path fill="#D3D0D8" d="M71.138 93.035H68.69v-2.45h2.448z"/><path fill="#B3B3B3" d="M71.138 90.585H68.69v-2.448h2.448zm0-2.448H68.69v-2.448h2.448z"/><path fill="#D3D0D8" d="M71.138 85.689H68.69v-2.448h2.448z"/><path fill="#B3B3B3" d="M71.138 80.793H68.69v-2.448h2.448zm0-2.448H68.69v-2.448h2.448z"/><path fill="#D3D0D8" d="M71.138 75.897H68.69v-2.448h2.448z"/><path fill="#B3B3B3" d="M71.138 31.827H68.69v-2.448h2.448zm0-2.448H68.69v-2.448h2.448zm0-2.448H68.69v-2.448h2.448z"/><path fill="#D3D0D8" d="M71.138 24.483H68.69v-2.448h2.448z"/><path fill="#000" d="M71.138 22.035H68.69v-2.448h2.448zm2.448 93.033h-2.448v-2.448h2.448z"/><path fill="#000" d="M71.139 115.068h-2.448v-2.448h2.448z"/><path fill="#D3D0D8" d="M73.586 112.62h-2.448v-2.448h2.448zm0-19.585h-2.448v-2.45h2.448z"/><path fill="#B3B3B3" d="M73.586 90.585h-2.448v-2.448h2.448z"/><path fill="#D3D0D8" d="M73.586 88.137h-2.448v-2.448h2.448z"/><path fill="#B3B3B3" d="M73.586 83.241h-2.448v-2.448h2.448zm0-2.448h-2.448v-2.448h2.448z"/><path fill="#D3D0D8" d="M73.586 78.345h-2.448v-2.448h2.448z"/><path fill="#B3B3B3" d="M73.586 73.449h-2.448v-2.448h2.448zm0-2.448h-2.448v-2.448h2.448zm0-2.448h-2.448v-2.451h2.448zm0-2.451h-2.448v-2.448h2.448z"/><path fill="#000" d="M73.586 63.654h-2.448v-2.448h2.448z"/><path fill="#B3B3B3" d="M73.586 61.206h-2.448v-2.448h2.448zm0-2.448h-2.448V56.31h2.448z"/><path fill="#B80000" d="M73.586 31.827h-2.448v-2.448h2.448z"/><path fill="#D3D0D8" d="M73.586 24.483h-2.448v-2.448h2.448z"/><path fill="#000" d="M73.586 22.035h-2.448v-2.448h2.448zm2.448 93.033h-2.448v-2.448h2.448z"/><path fill="#D3D0D8" d="M76.034 90.585h-2.448v-2.448h2.448zm0-2.448h-2.448v-2.448h2.448z"/><path fill="#B3B3B3" d="M76.034 83.241h-2.448v-2.448h2.448z"/><path fill="#D3D0D8" d="M76.034 80.793h-2.448v-2.448h2.448z"/><path fill="#B3B3B3" d="M76.034 75.897h-2.448v-2.448h2.448zm0-2.448h-2.448v-2.448h2.448z"/><path fill="#D3D0D8" d="M76.034 71.001h-2.448v-2.448h2.448zm0-2.448h-2.448v-2.451h2.448z"/><path fill="#000" d="M76.034 66.102h-2.448v-2.448h2.448z"/><path fill="#D3D0D8" d="M76.034 63.654h-2.448v-2.448h2.448z"/><path fill="#B3B3B3" d="M76.034 61.206h-2.448v-2.448h2.448zm0-2.448h-2.448V56.31h2.448zm0-2.448h-2.448v-2.448h2.448z"/><path fill="#000" d="M76.034 53.862h-2.448v-2.448h2.448z"/><path fill="#B3B3B3" d="M76.034 51.414h-2.448v-2.448h2.448zm0-2.448h-2.448v-2.448h2.448zm0-2.448h-2.448V44.07h2.448z"/><path fill="#000" d="M110.312 56.31v2.448h2.448V56.31h-2.448zm-2.448-7.344v4.896h2.448v-4.896h-2.448zm-29.382-2.448v2.448h4.899v-2.448h-4.899zm26.931 0v2.448h2.45v-2.448h-2.45zm-29.379-7.347v2.448h-2.448v2.45h2.448v2.449h2.448V39.17h-2.448zm7.347 4.899v2.448h4.896V44.07h-4.896zm17.136 0v2.448h4.896V44.07h-4.896zm-9.792-2.45v2.45h9.792v-2.45h-9.792zm-12.243-7.345v4.896h2.448v-4.896h-2.448zm2.448-2.448v2.448h2.45v-2.448h-2.45z"/><path fill="#D3D0D8" d="M76.034 41.619h-2.448v-2.448h2.448z"/><path fill="#B3B3B3" d="M76.034 39.171h-2.448v-2.448h2.448z"/><path fill="#000" d="M76.034 22.035h-2.448v-2.448h2.448z"/><path fill="#D3D0D8" d="M78.482 88.137h-2.448v-2.448h2.448z"/><path fill="#B3B3B3" d="M78.482 83.241h-2.448v-2.448h2.448z"/><path fill="#D3D0D8" d="M78.482 80.793h-2.448v-2.448h2.448zm0-4.896h-2.448v-2.448h2.448zm0-2.448h-2.448v-2.448h2.448z"/><path fill="#000" d="M78.482 71.001h-2.448v-2.448h2.448zm0-2.448h-2.448v-2.451h2.448zm0-2.451h-2.448v-2.448h2.448zm0-2.448h-2.448v-2.448h2.448z"/><path fill="#D3D0D8" d="M78.482 61.206h-2.448v-2.448h2.448zm0-2.448h-2.448V56.31h2.448z"/><path fill="#000" d="M78.482 56.31h-2.448v-2.448h2.448z"/><path fill="#B3B3B3" d="M78.482 53.862h-2.448v-2.448h2.448z"/><path fill="#000" d="M78.482 51.414h-2.448v-2.448h2.448z"/><path fill="#D3D0D8" d="M78.482 48.966h-2.448v-2.448h2.448zm0-9.795h-2.448v-2.448h2.448zm0-2.448h-2.448v-2.448h2.448z"/><path fill="#B3B3B3" d="M78.482 34.275h-2.448v-2.448h2.448z"/><path fill="#000" d="M78.482 26.931h-2.448v-2.448h2.448z"/><path fill="#FF6E6E" d="M78.482 22.035h-2.448v-2.448h2.448z"/><path fill="#D3D0D8" d="M80.93 83.241h-2.448v-2.448h2.448zm0-2.448h-2.448v-2.448h2.448zm0-7.344h-2.448v-2.448h2.448z"/><path fill="#FF6E6E" d="M80.93 71.001h-2.448v-2.448h2.448z"/><path fill="#B80000" d="M80.93 68.553h-2.448v-2.451h2.448z"/><path fill="#D3D0D8" d="M80.93 66.102h-2.448v-2.448h2.448z"/><path fill="#B3B3B3" d="M80.93 63.654h-2.448v-2.448h2.448z"/><path fill="#000" d="M80.93 61.206h-2.448v-2.448h2.448zm0-2.448h-2.448V56.31h2.448z"/><path fill="#D3D0D8" d="M80.93 56.31h-2.448v-2.448h2.448z"/><path fill="#B3B3B3" d="M80.93 53.862h-2.448v-2.448h2.448z"/><path fill="#FF6E6E" d="M80.93 51.414h-2.448v-2.448h2.448z"/><path fill="#D3D0D8" d="M80.93 34.275h-2.448v-2.448h2.448z"/><path fill="#B3B3B3" d="M80.93 31.827h-2.448v-2.448h2.448z"/><path fill="#FFDD61" d="M80.93 26.931h-2.448v-2.448h2.448z"/><path fill="#000" d="M80.93 24.483h-2.448v-2.448h2.448z"/><path fill="#FF6E6E" d="M80.93 22.035h-2.448v-2.448h2.448z"/><path fill="red" d="M83.381 71.001H80.93v-2.448h2.451z"/><path fill="#FF6E6E" d="M83.381 68.553H80.93v-2.451h2.451z"/><path fill="#B80000" d="M83.381 66.102H80.93v-2.448h2.451z"/><path fill="#D3D0D8" d="M83.381 63.654H80.93v-2.448h2.451z"/><path fill="#6B6B6B" d="M83.381 61.206H80.93v-2.448h2.451zm0-2.448H80.93V56.31h2.451zm0-2.448H80.93v-2.448h2.451z"/><path fill="#B3B3B3" d="M83.381 53.862H80.93v-2.448h2.451z"/><path fill="#FF6E6E" d="M83.381 51.414H80.93v-2.448h2.451z"/><path fill="#D3D0D8" d="M83.381 31.827H80.93v-2.448h2.451z"/><path fill="#FF6E6E" d="M83.381 22.035H80.93v-2.448h2.451z"/><path fill="red" d="M85.829 71.001h-2.448v-2.448h2.448zm0-2.448h-2.448v-2.451h2.448z"/><path fill="#FF6E6E" d="M85.829 66.102h-2.448v-2.448h2.448z"/><path fill="#B80000" d="M85.829 63.654h-2.448v-2.448h2.448z"/><path fill="#6B6B6B" d="M85.829 61.206h-2.448v-2.448h2.448zm0-2.448h-2.448V56.31h2.448zm0-2.448h-2.448v-2.448h2.448z"/><path fill="#B3B3B3" d="M85.829 53.862h-2.448v-2.448h2.448z"/><path fill="red" d="M85.829 51.414h-2.448v-2.448h2.448z"/><path fill="#FF6E6E" d="M85.829 48.966h-2.448v-2.448h2.448zm0-29.379h-2.448v-2.448h2.448z"/><path fill="red" d="M88.277 73.449h-2.448v-2.448h2.448zm0-2.448h-2.448v-2.448h2.448zm0-2.448h-2.448v-2.451h2.448z"/><path fill="#FF6E6E" d="M88.277 66.102h-2.448v-2.448h2.448z"/><path fill="#B80000" d="M88.277 63.654h-2.448v-2.448h2.448z"/><path fill="#6B6B6B" d="M88.277 61.206h-2.448v-2.448h2.448z"/><path fill="#B3B3B3" d="M88.277 58.758h-2.448V56.31h2.448z"/><path fill="#000" d="M88.277 56.31h-2.448v-2.448h2.448zm0-2.448h-2.448v-2.448h2.448z"/><path fill="#B3B3B3" d="M88.277 51.414h-2.448v-2.448h2.448z"/><path fill="#FF6E6E" d="M88.277 48.966h-2.448v-2.448h2.448z"/><path fill="#000" d="M85.829 29.379v2.448h4.896v-2.448h-4.896zm7.344-2.448v2.448h2.448V26.93h-2.448zm2.448-2.448v2.448h2.448v-2.448h-2.448zm-9.792-2.448v2.448h2.448v-2.448h-2.448zm2.448-2.448v2.448h2.448v-2.448h-2.448zm2.448-2.448v2.448h2.448v-2.448h-2.448zm2.448-2.45v2.45h2.448v-2.45h-2.448z"/><path fill="#FF6E6E" d="M88.277 19.587h-2.448v-2.448h2.448z"/><path fill="red" d="M90.725 75.897h-2.448v-2.448h2.448zm0-2.448h-2.448v-2.448h2.448z"/><path fill="#FFDD61" d="M90.725 71.001h-2.448v-2.448h2.448z"/><path fill="#000" d="M90.725 68.553h-2.448v-2.451h2.448z"/><path fill="#FF6E6E" d="M90.725 66.102h-2.448v-2.448h2.448z"/><path fill="#B80000" d="M90.725 63.654h-2.448v-2.448h2.448z"/><path fill="#D3D0D8" d="M90.725 61.206h-2.448v-2.448h2.448zm0-2.448h-2.448V56.31h2.448z"/><path fill="#000" d="M90.725 56.31h-2.448v-2.448h2.448zm0-2.448h-2.448v-2.448h2.448z"/><path fill="#B3B3B3" d="M90.725 51.414h-2.448v-2.448h2.448z"/><path fill="red" d="M90.725 48.966h-2.448v-2.448h2.448z"/><path fill="#FF6E6E" d="M90.725 46.518h-2.448V44.07h2.448zm0-29.379h-2.448v-2.451h2.448z"/><path fill="red" d="M93.173 78.345h-2.448v-2.448h2.448zm0-2.448h-2.448v-2.448h2.448zm0-2.448h-2.448v-2.448h2.448z"/><path fill="#000" d="M93.173 71.001h-2.448v-2.448h2.448z"/><path fill="#FF6E6E" d="M93.173 68.553h-2.448v-2.451h2.448z"/><path fill="#B80000" d="M93.173 66.102h-2.448v-2.448h2.448z"/><path fill="#000" d="M93.173 63.654h-2.448v-2.448h2.448zm0-2.448h-2.448v-2.448h2.448zm0-2.448h-2.448V56.31h2.448zm0-4.896h-2.448v-2.448h2.448z"/><path fill="#D3D0D8" d="M93.173 51.414h-2.448v-2.448h2.448z"/><path fill="red" d="M93.173 48.966h-2.448v-2.448h2.448z"/><path fill="#FF6E6E" d="M93.173 46.518h-2.448V44.07h2.448zm0-31.83h-2.448V12.24h2.448z"/><path fill="red" d="M95.621 80.793h-2.448v-2.448h2.448zm0-2.448h-2.448v-2.448h2.448z"/><path fill="#FF6E6E" d="M95.621 75.897h-2.448v-2.448h2.448zm0-2.448h-2.448v-2.448h2.448zm0-2.448h-2.448v-2.448h2.448z"/><path fill="#D3D0D8" d="M95.621 51.414h-2.448v-2.448h2.448z"/><path fill="red" d="M95.621 48.966h-2.448v-2.448h2.448z"/><path fill="#FF6E6E" d="M95.621 46.518h-2.448V44.07h2.448z"/><path fill="#FFAD00" d="M95.621 2.448h-2.448v4.896h2.448V2.448z"/><path fill="#FF6E6E" d="M98.069 80.793h-2.448v-2.448h2.448zm0-2.448h-2.448v-2.448h2.448z"/><path fill="#000" d="M98.069 53.862h-2.448v-2.448h2.448zm0-2.448h-2.448v-2.448h2.448z"/><path fill="red" d="M98.069 48.966h-2.448v-2.448h2.448z"/><path fill="#FF6E6E" d="M98.069 46.518h-2.448V44.07h2.448z"/><path fill="#B3B3B3" d="M98.069 41.619h-2.448v-2.448h2.448zm0-2.448h-2.448v-2.448h2.448zm0-2.448h-2.448v-2.448h2.448z"/><path fill="#000" d="M98.069 34.275h-2.448v-2.448h2.448z"/><path fill="#FF5400" d="M98.07 0h-2.449v7.344h2.448V0z"/><path fill="#000" d="M100.517 56.31h-2.448v-2.448h2.448z"/><path fill="#B80000" d="M100.517 53.862h-2.448v-2.448h2.448z"/><path fill="red" d="M100.517 51.414h-2.448v-2.448h2.448zm0-2.448h-2.448v-2.448h2.448z"/><path fill="#FF6E6E" d="M100.517 46.518h-2.448V44.07h2.448z"/><path fill="#B3B3B3" d="M100.517 41.619h-2.448v-2.448h2.448z"/><path fill="#000" d="M100.517 39.171h-2.448v-2.448h2.448zm0-2.448h-2.448v-2.448h2.448z"/><path fill="#FFE970" d="M105.413 14.688h-7.344v7.347h7.344v-7.347z"/><path fill="#000" d="M102.965 61.206h-2.448v-2.448h2.448zm0-2.448h-2.448V56.31h2.448z"/><path fill="#B80000" d="M102.965 56.31h-2.448v-2.448h2.448z"/><path fill="red" d="M102.965 53.862h-2.448v-2.448h2.448zm0-2.448h-2.448v-2.448h2.448z"/><path fill="#FF6E6E" d="M102.965 48.966h-2.448v-2.448h2.448z"/><path fill="#000" d="M102.965 44.07h-2.448v-2.451h2.448zm0-2.451h-2.448v-2.448h2.448z"/><path fill="#FFAD00" d="M112.76 17.139v-2.45h-2.448V9.791h-4.899v2.447l-4.896.001v2.448h4.896v4.899h2.45v-2.448h4.897z"/><path fill="#FF5400" d="M120.104 29.379v2.448h-2.448v2.448h4.896v-2.448H125v-2.448h-4.896zm-14.69-9.792v2.448h2.45v-2.448h-2.45zm9.793-7.347v2.448h-2.448v2.45h-4.896v2.449h7.345v-2.448h2.448v-2.45h2.448V12.24h-4.896zm2.449-9.792v2.448h-4.896v2.448h-2.448v7.344h2.448V9.792h2.448V7.344h4.896V2.448h-2.448zm-12.243 0v2.448h-2.448v4.896h-2.448v2.448h4.896V7.344h2.45V4.896h2.449V2.448h-4.899z"/><path fill="#000" d="M105.413 68.553h-2.448v-2.451h2.448zm0-2.451h-2.448v-2.448h2.448zm0-2.448h-2.448v-2.448h2.448z"/><path fill="#B80000" d="M105.413 61.206h-2.448v-2.448h2.448z"/><path fill="red" d="M105.413 58.758h-2.448V56.31h2.448zm0-2.448h-2.448v-2.448h2.448z"/><path fill="#FFDD61" d="M105.413 53.862h-2.448v-2.448h2.448z"/><path fill="#000" d="M105.413 51.414h-2.448v-2.448h2.448z"/><path fill="#FF6E6E" d="M105.413 48.966h-2.448v-2.448h2.448z"/><path fill="#B3B3B3" d="M105.413 44.07h-2.448v-2.451h2.448zm0-2.451h-2.448v-2.448h2.448z"/><path fill="#000" d="M105.413 39.171h-2.448v-2.448h2.448zm0-2.448h-2.448v-2.448h2.448zm2.451 34.278h-2.451v-2.448h2.451zm0-2.448h-2.451v-2.451h2.451z"/><path fill="#B80000" d="M107.864 63.654h-2.451v-2.448h2.451z"/><path fill="red" d="M107.864 61.206h-2.451v-2.448h2.451zm0-2.448h-2.451V56.31h2.451zm0-2.448h-2.451v-2.448h2.451z"/><path fill="#000" d="M107.864 53.862h-2.451v-2.448h2.451zm0-2.448h-2.451v-2.448h2.451z"/><path fill="#B3B3B3" d="M107.864 46.518h-2.451V44.07h2.451zm0-2.448h-2.451v-2.451h2.451z"/><path fill="#000" d="M107.864 41.619h-2.451v-2.448h2.451zm0-2.448h-2.451v-2.448h2.451z"/><path fill="#B80000" d="M110.312 66.102h-2.448v-2.448h2.448z"/><path fill="red" d="M110.312 63.654h-2.448v-2.448h2.448zm0-2.448h-2.448v-2.448h2.448z"/><path fill="#FF6E6E" d="M110.312 58.758h-2.448V56.31h2.448zm0-2.448h-2.448v-2.448h2.448z"/><path fill="#000" d="M110.312 48.966h-2.448v-2.448h2.448zm0-2.448h-2.448V44.07h2.448zm0-2.448h-2.448v-2.451h2.448z"/><path fill="red" d="M112.76 66.102h-2.448v-2.448h2.448zm0-2.448h-2.448v-2.448h2.448z"/><path fill="#FF6E6E" d="M112.76 61.206h-2.448v-2.448h2.448zm2.448 4.896h-2.448v-2.448h2.448zm0-2.448h-2.448v-2.448h2.448z"/><path fill="#FFE970" d="M115.208 26.93v4.897h2.448v-2.448h2.448V26.93h-4.896z"/><path fill="#FFAD00" d="M117.656 29.379v2.448h2.448v-2.448h-2.448zm2.448-2.449v2.448h2.448V26.93h-2.448z"/><path fill="#F1A12C" d="M111.12 94.468h-.574v-.536h.574zm-.574-1.608h-.574v-.535h.574z"/><path fill="#F5EBC6" d="M122.024 87.502h-.574v-.536h.574z"/><path fill="#F1A12C" d="M108.25 85.359h1.722v5.894h.574v1.072h.574v.535h.574v.536h.574v1.072h1.148v.536h.573v.536h1.148v.536h-2.295v-.536h-1.148v-.536h-.574v-1.072h-.574v.536h-.574v-1.072h-.574v-.536h-.574v-1.07h-.573v-1.072h-.575V85.36h.575zm2.296 7.501h-.574v-.535h.574v.535z"/><path fill="#231F20" d="M113.99 95.527v.013h1.147v.536h-2.295v-.536h-1.148v-.013z"/><path fill="#FEFEFE" d="M111.12 84.287h-.574v-.536h.574z"/><path fill="#FBCA25" d="M122.024 85.894v-1.071h-.574v-.536h-.573v-.536h-.574v-.536h-.574v-.535h-4.592v.536h-.573v.536h-.574v.536h-.574v.536h-.574v1.07h-.574v4.287h.574v1.072h.574v.536h.574v.536h.574v.535h.573v.536h4.593v-.536h.574v-.535h.574v-.536h.572v-.536h.574v-1.072h.574v-4.287h-.574zm-10.904-.534v-1.61h.574v-.536h.574v-.534h.574v-.535h.574v-.536h.574v-.536h1.147v-.537h4.593v.536h1.147v.536h.573v.536h.574v.535h.574v.536h.574v1.072h.574v1.072h.574v5.358h-.574v1.072h-.574v1.071h-.574v.536h-.574v.536h-.574v.536h-.573v.536h-1.148v.536h-4.592v-.536h-1.147v-.536h-.574v-.536h-.574v-.536h-.574v-.536h-.574v-.535h-.574v-1.072h-.574V85.36h.574z"/><path fill="#FBCA25" d="M120.877 85.359h.573V89.645h-.573v1.072h-.574v.536h-.574v.536h-1.148v.536H115.711v-.536H114.564v-.536h-.574v-.536h-.574v-1.072h-.574V86.43h.574V84.823h.574v-.536h.574v-.536H115.711v-.536H119.155v.536h1.148v.536h.574v.536z"/><path fill="#F1A12C" d="M108.824 83.751v-1.072h.574v.536h1.148v1.608h-.574v-.536h-1.148v1.072h-.573v-1.608zM115.137 80v.536h-1.148v.536h-.573v.536h-.574v.535h-.574v.536H109.398v-.536h.574v-.535h1.148v-.536h.574v-.536h1.148V80z"/><path fill="#F1A12C" d="M108.824 83.751v-1.072h.574v.536h1.148v1.608h-.574v-.536h-1.148v1.072h-.573v-1.608z"/><path fill="#231F20" d="M110.546 83.24h-.574.574zm-1.722.511v-1.072h.574v1.072h-.574v1.608h-.573v-1.608zm2.87-2.143h-.574v-.536h.574zm-.574.536h-1.148v-.536h1.148zm1.148-1.072h-.574v-.536h1.148v.536zm-2.296 1.607h-.574v-.536h.574z"/><path fill="#231F20" d="M115.137 80v.536h-2.295V80zM113.416 94.492h-.574.574z"/><path fill="#231F20" d="M115.137 95.564h-.573.573zm-4.017-2.704h-.574v-.535h.574zm-1.148-7.477h-.574.574zm-1.92-.024v5.358h-.773V85.36h.773zm.772.024h-.772.772zm1.722 8.013v1.072h-.574v-1.072zm-.574 0h-.574v-.536h.574zm-1.148-2.679v1.072h.574V92.86h-.574V91.789h-.573v-1.072zm4.592 5.359h-.574v-.536h.574zm-2.296-1.608v-.536h.574v1.072h-.574zm1.148 1.072h-.574v-.536h.574zm2.296-.536h.573v.536h4.592v.536h-4.592v-.536H113.99v-.536zm-.574 0h-.574v-.536h.574zm-1.148-1.072h.574v.536h-1.148v-1.072h.574zm-.574-.536h-.574v-.536h.574zm-.574-.536h-.574v-.535h.574zm-.574-1.071v.536h-.574v-1.072h.574zm-.574-5.895v5.359h-.574v-5.359zm.574-1.071v.536h-.574v-1.072h.574zm.574-1.072h-.574v-.536h.574zm2.87 8.574h-.574v-.536h.574zm-1.148-6.431v.536h-.574V89.645h.574v1.072h.574v1.072h-.574v-.536h-.574v-1.072h-.574V85.894h.574V84.823h.574v.536zm.574-1.071h-.574v-.536h.574zm.574-.536h-.574v-.536h.574zm-2.296-1.072h-.574v-.536h.574zm.574-.536h-.574v-.536h.574zm.574-.536h-.574v-.535h.574zm.574-.535h-.574v-.536h.574zm1.147-.536H113.99v-.536H115.137zm5.166 13.932h.574v.536h-1.148v-.536zm1.147 0h-.573v-.536h.573zm.574-1.072v-.536h.574v1.072h-1.148v-.536zm1.148-.536h-.574v-.536h.574zm-4.017 0h-4.018v-.536h-.573v-.535H115.711v.535H119.155v-.535h1.148v.535h-.574v.536zm1.722-1.071h-.574v-.536h.574zm2.295-.536h.574V92.86h-.574v-.535zm.574-1.072h.574v1.072h-.574v-.536zm1.148-4.823V90.181h-.574V85.894zm-4.017 4.823h.573V89.646h.574V86.43h-.574V85.359h-.573v-1.072h.573v.536h.574V85.894h.574v4.287h-.574v1.072h-.574v.536h-.573v-.536zm2.869-5.894v-.536h.574v1.072h-.574zm-2.869-.536h-.574v-.536h.574zm2.295-.536v-.536h.574v1.072h-.574zm-4.017 0v-.536H115.711v.536H114.564v-.536h.573v-.536h4.592v.536h.574v.536h-.574zm4.017-.536h-.574v-.536h.574zm-.574-.536h-.574v-.536h.574zm-.574-.536h-.574v-.535h.574zm-.574-.535h-.573v-.536h.573zm-1.721-.536v-.536h1.148v.536h-.574zm0-1.072v.536h-4.592V80z"/><path fill="#FEFEFE" d="M109.398 84.287h.574v.536h.574V85.894h-.574v-.535h-1.148v-1.072zm.574-1.608h1.722v.536h-.574v.536h-.574v-.536h-1.148v-.536zm6.887 9.646h1.722v-.536h1.148v-.536h.574v-.536h.574v1.072h-.574v.536h-1.148v.535H115.711v-.535h.574zm-1.148-.536v.536H114.564v-.536h.573zm-1.147 0h-.574v-.536h.574zm6.313-2.144h.573v1.072h-.573v-.536zm.573-1.071v-1.072h.574V89.645h-.574v-.535zm.574-1.608h-.574v-.536h.574z"/><g><path fill="#F1A12C" d="M81.89 126.784h-.703v-.644h.703zm0-1.77h-.703v-.644h.703z"/><path fill="#F5EBC6" d="M96.043 117.937h-.702v-.644h.702z"/><path fill="#F1A12C" d="M78.68 115.846h2.042v6.812h.682v1.239h.68v.618h.68v.62h.681v1.238h1.36v.62h.681v.618h1.36v.62h-2.721v-.62h-1.362v-.619h-.681v-1.238h-.68v.619h-.681v-1.239h-.68v-.619h-.681v-1.239h-.68v-1.238H78v-6.192h.68zm2.722 8.669h-.68v-.619h.68v.619z"/><path fill="#231F20" d="M85.667 127.901v.015h1.179v.645h-2.359v-.645h-1.179v-.015z"/><path fill="#FEFEFE" d="M81.89 114.399h-.703v-.644h.703z"/><path fill="#FBCA25" d="M96.282 115.088v-1.264h-.737v-.632h-.737v-.631h-.737v-.632h-.737v-.632h-5.898v.632h-.737v.632h-.738v.631h-.736v.632h-.738v1.264h-.737v5.055h.737v1.264h.738v.631h.736v.632h.739v.632h.737v.632h5.897v-.632h.736v-.632h.737v-.632h.737v-.631h.737v-1.264h.739v-5.055h-.737zm-14.006-.632.001-1.895h.737v-.632h.737v-.632h.737v-.632h.738v-.632h.736v-.633h1.475v-.63h5.897v.632h1.474v.632h.737v.632h.737v.632h.738v.632h.738v1.263h.737v1.264h.735v6.318h-.737v1.263h-.737v1.264h-.738v.632h-.737v.632h-.737v.632h-.737v.632h-1.474v.632h-5.897v-.632h-1.475v-.632h-.736v-.632h-.738v-.632h-.737v-.632h-.737v-.632h-.737v-1.263h-.738v-6.951h.738z"/><path fill="#FBCA25" d="M94.985 114.805h.707v4.996h-.707v1.249h-.708v.624h-.708v.624h-1.415v.625H88.615v-.625H87.2v-.624h-.708v-.624h-.707v-1.249h-.708V116.054h.708V114.181h.707v-.624h.708v-.625h1.415v-.624h4.247v.624h1.415v.625h.708v.624z"/><path fill="#F1A12C" d="M78.884 113.723v-1.415h.885v.708H81.538v2.122h-.884v-.707h-1.77v1.415H78v-2.123zm7.962-4.954v.708h-1.415v.708h-.708v.707h-.708v.708h-.707v.708H79.769v-.708h.708v-.708h1.415v-.707h.708v-.708h1.415v-.708z"/><path fill="#F1A12C" d="M78.884 113.723v-1.415h.885v.708H81.538v2.122h-.884v-.707h-1.77v1.415H78v-2.123z"/><path fill="#231F20" d="M81.89 112.308h-.703.703zm-3.006 1.415v-1.415h.885v1.415h-.885v2.123H78v-2.123zm4.775-2.863h-.702v-.644h.702z"/><path fill="#231F20" d="M83.308 110.86h-1.77v-.644h1.77zm.884 0h-.884v-.644H85.077v.644zm-4.072 1.77h-.702v-.644h.702zM86.846 108.447v.644H83.308v-.644zM85.428 126.462h-.702.702zM87.197 128.23h-.702.702zm-5.307-3.216h-.703v-.644h.703zm-1.77-9.168h-.702.702zm-1.235-1.769v7.077H78v-7.077h.885zm.884.037h-.884.884z"/><path fill="#231F20" d="M81.89 124.692v1.77h-.703v-1.77zm-1.77.323h-.702v-.645h.702z"/><path fill="#231F20" d="M78.884 122.923v.885h.885v.884h-.885v-.884H78v-.885zm6.544 5.63h-.702v-.644h.702zm-2.471-2.976v-.885h.702v1.77h-.702z"/><path fill="#231F20" d="M83.659 126.784h-.702v-.644h.702zm2.126-.322h.707v.884h5.662v.885H86.492v-.885h-1.415v-.884z"/><path fill="#231F20" d="M85.428 126.784h-.702v-.644h.702z"/><path fill="#231F20" d="M84.192 125.577h.885v.885H83.308v-1.77h.884z"/><path fill="#231F20" d="M83.659 125.015h-.702v-.645h.702z"/><path fill="#231F20" d="M83.659 125.014h-.702v-.644h.702zm-1.769-1.207v.885h-.703V122.923h.703zm0-7.961V122.923h-.703v-7.077zm0-.885v.885h-.703V114.077h.703zm1.769-2.331h-.702v-.644h.702zm3.538 10.615h-.702v-.644h.702zm-2.71-7.807v.68h-.59v4.083h.59V121.562h.59V122.923h-.59v-.68h-.59V120.882h-.589v-5.444h.589V114.077h.59v.681zm.941-1.039h-.702v-.644h.702zm1.769 0h-.702v-.644h.702z"/><path fill="#231F20" d="M83.659 112.63h-.702v-.644h.702z"/><path fill="#231F20" d="M83.659 112.63h-.702v-.644h.702zm1.769-1.77h-.702v-.644h.702z"/><path fill="#231F20" d="M85.428 110.86h-.702v-.644h.702z"/><path fill="#231F20" d="M86.846 110.86H85.077v-.644H86.846zm6.192 15.28h.885v.644H92.154v-.644z"/><path fill="#231F20" d="M94.274 126.784h-.702v-.644h.702z"/><path fill="#231F20" d="M94.808 125.577v-.885h.884v1.77H93.923v-.885zm3.005-.562h-.703v-.645h.703zm-5.306-.323h-4.953v-.885h-.708v-.884h1.415v.884H92.507v-.884h1.416v.884h-.708v.885z"/><path fill="#231F20" d="M94.274 123.245h-.702v-.644h.702zm2.836-.322h.703V124.692h-.703v-.884zm.001-1.769h.701V122.923h-.701v-.884zm2.471-5.308v5.308h-.702v-5.308z"/><path fill="#231F20" d="M93.923 121.659h.59v-1.263h.589V116.604h-.589v-1.263h-.59v-1.264h.59v.631h.589v1.264h.59v5.056h-.59v1.264h-.589v.631h-.59v-.631zm3.188-6.698v-.884h.701V115.846h-.701z"/><path fill="#231F20" d="M94.274 114.399h-.702v-.644h.702zm2.836-1.207v-.884h.703V114.077h-.703z"/><path fill="#231F20" d="M92.507 114.077v-.885h-4.246v.885h-1.415v-.885h.708v-.884H93.215v.884h.708v.885h-.708zm5.306-1.447h-.703v-.644h.703zm-1.77 0h-.702v-.644h.702zm0-1.77h-.702v-.644h.702zm-1.769 0h-.702v-.644h.702z"/><path fill="#231F20" d="M92.154 110.86v-.644H93.923v.644h-.885zm0-2.413v.644h-5.308v-.644z"/><path fill="#FEFEFE" d="M80.359 114.077h.59v.589h.589v1.18h-.589v-.59h-1.18V114.077zm.295-1.769h2.654v.884h-.885v.885h-.884v-.885h-1.77v-.884zm7.765 11.942h2.359v-.442h1.572v-.442h.786v-.443h.787v.885h-.787v.442h-1.572v.442h-4.718v-.442h.786zm.196-1.649v.644H86.846v-.644h.885z"/><path fill="#FEFEFE" d="M87.197 123.245h-.702v-.644h.702zm6.375-3.86h.702V121.154h-.702v-.885zm1.769-.885v-.885h.702v1.77h-.702v-.443z"/><path fill="#FEFEFE" d="M96.043 117.937h-.702v-.644h.702z"/></g></g></svg>