<svg xmlns="http://www.w3.org/2000/svg" xmlns:xlink="http://www.w3.org/1999/xlink" width="18" height="18" viewBox="0 0 18 18">
    <defs>
        <path id="uiyv0avwra" d="M0 0.034L17.912 0.034 17.912 17.946 0 17.946z"/>
    </defs>
    <g fill="none" fill-rule="evenodd">
        <g>
            <g>
                <g>
                    <g>
                        <path fill="#FFF" d="M15.382 17.616H2.53c-1.204 0-2.18-.976-2.18-2.18V2.584c0-1.204.976-2.18 2.18-2.18h12.852c1.204 0 2.18.976 2.18 2.18v12.852c0 1.204-.976 2.18-2.18 2.18" transform="translate(-584.000000, -288.000000) translate(377.000000, 277.000000) translate(207.000000, 11.000000)"/>
                        <g transform="translate(-584.000000, -288.000000) translate(377.000000, 277.000000) translate(207.000000, 11.000000) translate(0.000000, 0.019725)">
                            <mask id="woditoosnb" fill="#fff">
                                <use xlink:href="#uiyv0avwra"/>
                            </mask>
                            <path fill="#000" d="M2.53.735C1.52.735.7 1.555.7 2.564v12.852c0 1.009.821 1.83 1.83 1.83h12.852c1.009 0 1.83-.821 1.83-1.83V2.564c0-1.009-.821-1.83-1.83-1.83H2.53zm12.852 17.211H2.53c-1.395 0-2.53-1.135-2.53-2.53V2.564C0 1.169 1.135.034 2.53.034h12.852c1.395 0 2.53 1.135 2.53 2.53v12.852c0 1.395-1.135 2.53-2.53 2.53z" mask="url(#woditoosnb)"/>
                        </g>
                        <path fill="#000" d="M14.572 5.392c0 .999-.809 1.808-1.807 1.808-.999 0-1.808-.81-1.808-1.808s.81-1.807 1.808-1.807 1.807.809 1.807 1.807M6.738 5.392c0 .999-.81 1.808-1.808 1.808-.999 0-1.808-.81-1.808-1.808s.81-1.807 1.808-1.807 1.808.809 1.808 1.807M6.738 13.32c0 .998-.81 1.807-1.808 1.807-.999 0-1.808-.81-1.808-1.808s.81-1.807 1.808-1.807 1.808.809 1.808 1.807M14.572 13.32c0 .998-.809 1.807-1.807 1.807-.999 0-1.808-.81-1.808-1.808s.81-1.807 1.808-1.807 1.807.809 1.807 1.807M10.818 9.291c0 .999-.81 1.808-1.808 1.808-.999 0-1.808-.81-1.808-1.808s.81-1.808 1.808-1.808 1.808.81 1.808 1.808" transform="translate(-584.000000, -288.000000) translate(377.000000, 277.000000) translate(207.000000, 11.000000)"/>
                    </g>
                </g>
            </g>
        </g>
    </g>
</svg>
