<svg xmlns="http://www.w3.org/2000/svg" width="64" height="35"><g fill="none" fill-rule="evenodd"><path fill="#8C622A" d="M14.443 7.748h.747v-.859h-.747z"/><path fill="#976C2A" d="M48.065 6.889h.748V6.03h-.748z"/><path fill="#744E27" d="M15.937 6.889h.746V6.03h-.746z"/><path fill="#F6CA58" d="M51.801 6.03h.746v-.86h-.746z"/><path fill="#BA892C" d="M45.824 5.17h.746v-.86h-.746z"/><path fill="#593820" d="M51.053 8.609v-.86h-.746v-.86h-2.242V6.03h-.747v-.86h-1.494v-.86h-1.496v-.859h-.746V2.59H21.168v.861h-.748v.859h-1.495v.86h-1.494v.86h-.747v.859H15.19v.86h-1.495v.86h-.746V31.822H51.8V14.627h-8.966V12.908H51.8V8.609z"/><path fill="#F9E5B4" d="M15.937 3.45h.746v-.86h-.746z"/><path fill="#F9E9C3" d="M46.57 2.59h.749l-.749-.86z"/><path fill="#F2BB13" d="M43.582.011H20.42v.86h-1.494v.859h-.747v.86h-1.495v.861H15.19v.859h-1.494v.86H12.2v.86h-.746v.859H9.96V34.4h44.83V6.888h-1.494v-.86H51.8V5.17h-.748v-.86h-1.495v-.86h-1.492v-.86H46.57v-.86h-.746V.87H44.33V.011h-.747zm-30.633 30.95L12.95 8.61h.747v-.86h.747v-.86h1.494v-.86h1.495v-.86h1.494v-.86h1.494v-.86h.748v-.86h22.414v.86h.747v.859h2.241v.86h.748v.86h1.495v.859h1.494v.86h.746v.86h.748v4.3h-8.967v1.719H51.8v17.195H12.949v-.86z"/><path fill="#404544" d="M22.62 21.78h-.756v3.439h1.509V21.78z"/><path fill="#93979C" d="M24.127 25.219h-3.016v-1.147h-1.508V21.78h-.753v-2.292h-.755v4.584h.755v1.147h.753v1.147H24.881v-1.147z"/><path fill="#A6A9AF" d="M23.374 18.341h.753v-1.146h-.753zm0-1.146h.753v-1.147h-.753zm0-1.147h.753v-1.145h-.753z"/><path fill="#B9BBC2" d="M26.389 19.488h-.753v-4.586h-1.509v3.439h-.753v1.147h-2.263v-4.586H18.85v6.878h.753v2.293h1.508v1.146h.754V21.78h1.509v3.439h3.015v-2.292h.754v-3.439z"/><path fill="#FDE113" d="M39.961 12.609h-9.048v1.147h9.802v-1.147zm-27.143 0H3.77v1.147h10.555v-1.147h-.753z"/><path fill="#9A6F28" d="M27.143 11.463h.753v-1.146h-.753z"/><path fill="#A97B2C" d="M26.389 11.463h.754v-1.146h-.754zm-.753 0h.753v-1.146h-.753zm-.755 0h.755v-1.146h-.755z"/><path fill="#FAE3B2" d="M39.961 4.585h.754V3.439h-.754z"/><path fill="#BE8630" d="M33.929 3.439h.753V2.293h-.753z"/><path fill="#875332" d="M42.222 16.048H30.912V30.951h12.065V16.048zm-15.079 0H25.636V19.488H27.143v3.439h-.754v2.292h-1.508v1.147H19.603v-1.147h-.753v-1.147h-.756v-4.584h.756V16.048h-3.771V30.951H28.65V16.048h-.753zm-15.834 0H3.77V30.951h9.048V16.048h-.755zm20.357-4.585H42.222V8.024h-.753V6.878h-1.508V5.732h-2.262V4.585h-1.508V3.439h-2.262V2.293h-7.54V10.317h3.016v1.146h1.508zm-15.832 0h.754v-1.146h3.769V2.293h-6.786v1.146H11.31v1.146H9.803v1.147H7.539v1.146H6.032v1.146h-.755v3.439h9.802zm8.293-9.17V10.317h.754V2.293z"/><path fill="#3C2513" d="M2.262 8.024v4.586h.754V8.024z"/><path fill="#875332" d="M5.276 6.878h.756V5.732h-.756z"/><path fill="#3C2513" d="M41.468 30.951H30.913v1.146h12.064v-1.146h-.755zm-14.325 0H15.079v1.146H28.65v-1.146h-.753zm17.341-16.049H25.636v1.146h19.602v-1.146zm-26.39.001H0v1.145h2.263V32.096h10.556v-1.145H3.77V16.048h15.08v-1.145zm11.311-2.294H42.977V8.024h-.755v3.439H29.405v-1.146h-1.508v2.292h.753zm-24.882 0H16.588v-1.146H5.277V8.024h.755V6.878H7.539V5.732H5.277v1.146H3.771v1.146h.752H3.016v4.585h.755zm21.866-2.292V2.294H24.127v8.023h1.132zM9.048 5.732h.755V4.585h1.506V3.439H9.048v1.146H7.539v1.147h.754zm3.77-2.293h.754V2.293h-2.263v1.146h.754z"/><path fill="#F8CF6B" d="M36.192 2.293h.753V1.147h-.753z"/><path fill="#FAE5B8" d="M8.293 2.293h.755V1.147h-.755z"/><path fill="#F4BC13" d="M44.484 16.048H42.977V32.096H30.913V16.048H28.65V32.096H15.079V16.048H12.819V32.096H2.263V16.048H0V34.39H45.238V16.048z"/><path fill="#F4BC13" d="M33.929 0H10.555v1.146H9.048v1.147H6.786v1.146h-1.51v1.146h-2.26v1.146H1.507v1.147H0v8.025h21.11v4.585h2.264v-4.585h21.864V6.878h-1.506V5.73h-1.51V4.585H39.96V3.44h-1.508V2.293h-2.261V1.146h-1.51V0h-.753zm-9.802 9.171-.001-6.878h10.555v1.146h1.51v1.146h1.506v1.146h2.263v1.147h1.508v1.146h1.509v4.586h-2.262v1.145h-9.802V12.61h-3.016v-1.147H24.88v-1.146h-.754V9.17zM2.263 11.463V8.024H3.77V6.878h1.506V5.73H7.54V4.585h1.509V3.44h2.261V2.293h9.048v8.024h-3.769v2.293h-2.262v1.145H3.77V12.61H2.263v-1.147z"/><path fill="#FDE113" d="M29.797 25.096v-9.048H28.65V25.85h1.147zm-15.833 0v-9.048h-1.146V25.85h1.146z"/><path fill="#F2BB13" d="M42.977 14.902H51.8v-.7h-8.823z"/><g><path fill="#283030" d="M49.971 34.986h.571v-1.143h-.571z"/><path fill="#181F1F" d="M47.119 33.843h.57v-1.142h-.57z"/><path fill="#000" d="M52.824 26.988h.571v-1.142h-.571zm-6.276 0h.571v-1.142h-.571z"/><path fill="#101010" d="M37.989 24.703h.57v-1.142h-.57z"/><path fill="#CBFBFF" d="M53.965 21.276h.571v-1.143h-.571zm-2.282-1.143h.57v-1.142h-.57z"/><path fill="#91EFFF" d="M45.406 20.133h.571v-1.142h-.571zm.571-1.142h.571v-1.142h-.571z"/><path fill="#000" d="M39.13 17.849h.571v-1.143h-.571z"/><path fill="#8EE5FF" d="M55.677 16.706h.571v-1.142h-.571z"/><path fill="#CBFBFF" d="M49.971 16.706h.571v-1.142h-.571z"/><path fill="#000" d="M47.119 16.706h.57v-1.142h-.57zm1.141-1.142h.57v-1.143h-.57z"/><path fill="#009CFE" d="M47.689 30.416h-.57v-1.143h-.571v-2.285h-.571v-1.142h-.57v-2.285h-.571v-1.142H36.848v1.142H38.559v1.143h1.142v1.142h1.141v1.142h1.141v1.143h1.141v1.142h1.712v1.143h1.141v1.142h1.142v1.143h1.141v-1.143h-.571zm3.424 0v-2.285h.57v-1.143h.571v-1.142h.57v-1.142h.571v-2.285H45.977v2.285h.571v1.142h.571v2.285h.57v1.142h.571v2.285h.57v1.143h1.141v-1.143h.571v-1.142zm5.135-2.285h.57v-1.143h-.57zm1.141-1.143h.57v-1.142h-.57zm1.141-1.142h.571v-1.143h-.571zm1.141-1.143h.571v-1.142h-.571zm1.712-1.142h.571v-1.142h-.571z"/><path fill="#009CFE" d="M57.96 22.419H54.536v1.142h-.571v1.142h-.57v2.285h-.571v1.143h-.57v1.142h-.571v1.143h-.57v1.143h-.571v1.142h1.141v-1.142h1.141v-1.143h1.141v-1.143h1.142v-2.285h1.141v-1.142h.57v-1.143h1.142v-1.142h1.141v-1.142h-.571zm-6.847-6.855h.57v1.142h.571v1.143h.57v1.142h.571v1.142h1.141v-2.284h.571v-3.428h.57v-1.143h-5.135v1.143h.571zm-7.418 0v1.142h.57v1.143h.571v2.284h.57v-1.142h.571v-1.142h.571v-1.143h.571v-1.142h.57v-1.143h.571v-1.143h-5.136v1.143h.571z"/><path fill="#009CFE" d="M55.677 28.131h.571v-1.143h-.571z"/><path fill="#8EE5FF" d="M60.242 22.419h-1.141v1.142h2.282v-1.142h-.57z"/><path fill="#91EFFF" d="M44.836 21.276h.57v-1.143h-.57z"/><path fill="#8EE5FF" d="M57.96 18.991v-1.143h-.571v-2.284h-.571v-2.286h-.57v3.428h-.571v2.285h-.57v2.285H58.53v-1.143h-.57zm-5.136 0h-.57v2.285h1.141v-1.143h-.571zm-9.129 0v-1.143h-.571v-2.284h-.57v-2.286h-.571v1.143h-.57v1.143h-1.142v1.142h-.57v1.142h-1.142v1.143h-.57v1.142h-1.141v1.143h7.417v-1.143h-.57zm7.988-1.143h-.57v1.143h1.141v-1.143z"/><path fill="#91EFFF" d="M44.265 18.991h.571v-1.142h-.571z"/><path fill="#8EE5FF" d="M50.542 17.849h.57v-1.143h-.57zm-1.712-3.428v1.143h-.57v1.142h-.571v1.142h-.57v1.143h-.571v1.142h-.571v1.143H49.401v-5.712h.57v-1.143h-.57z"/><path fill="#000" d="M42.553 28.131h-.57v-1.143h-1.141v1.143h1.141v1.142h1.141v-1.142zm7.418-13.71v1.143h.571v1.142h.571v1.143h1.141v-1.143h-.571v-1.142h-.57v-1.143h-.571zm2.853 18.28v-1.143h-1.141v1.143h.571zm-2.853-1.143v1.143H48.83v-1.143h-.57v1.143h-.571v1.142h.571v1.143H49.971v-1.143H51.683v-1.142h-1.141v-1.143zm-3.994 0v1.143h1.142v-1.143h-.571zm7.988 0v-1.142h-1.141v1.142h.571z"/><path fill="#000" d="M50.542 31.559h.571v-1.143h-.571zm-5.136-1.143h-.57v1.142h1.141v-1.142zm9.701 0v-1.143h1.141v-1.142h-1.141v1.142h-1.142v1.143h.571zm-6.847-1.143h-.571v-1.142h-.57v-1.143h-.571v2.285h.571v1.143h.57v1.142h.571v-1.142zm-3.995 0h-.57v1.143h1.141v-1.143zm12.553-2.285v1.143h1.142v-1.143h-.571zm1.142-1.142v1.142h1.141v-1.142h-.571zm-5.706 1.142h-.571v1.143h-.57v2.285h.57v-1.143h.571v-1.142h.57v-2.285h-.57zm-11.983-1.142h-.57v1.142h1.141v-1.142zm18.83-1.143v1.143h1.141v-1.143h-.571zm-6.277 1.143h.571v-1.143h-.571zm-6.276-1.143h-1.142v1.143h.571v1.142h.571v-1.142zm-7.418 0h-.571v1.143h1.142v-1.143zm21.112-1.142v1.143h1.141v-1.143h-.57z"/><path fill="#000" d="M41.983 12.136v1.142h.57v2.286h.571v2.284h.571v2.285h.57v1.143h-7.417v-1.143h-.57v1.143h-1.143v1.142h.57v1.143h1.141v1.142h1.144v-1.142h-1.142v-1.143h7.988v1.143h.57v1.142h.571v-2.285h-.57 7.987v2.285h.571v-1.142h.571v-1.143h7.417v1.143h.571v-1.143h1.141v-1.142h-1.141v-1.143h-.57v-1.142h-1.141v1.142h.57v1.143h-6.276V18.99h.57v-3.426h.57v-2.286h.571v-1.142H41.983zm6.847 2.284h1.711v-1.142h5.137v1.143h-.57v3.427h-.57v3.428h-.572v-1.143h-.57v1.143h-7.417v-1.143h-.571v1.143h-.57V18.99h-.572v-2.284h-.57v-2.285h-.57v-1.143h5.132v1.143h.571z"/><path fill="#000" d="M52.824 20.133h.571v-1.142h-.571zm-6.847 0h.571v-1.142h-.571zm-7.988 0v-1.142h.57v-1.143h-1.14v1.143h-.571v1.142h.571zm14.265-1.142h.57v-1.142h-.57zm7.417-1.143v1.143h1.142v-1.143h-.571v-1.142h-1.141v1.142zm-13.123-1.142v2.285h.571v-1.142h.57v-1.143h-.57zm-7.418 0h1.141v-1.142H39.13v1.142h-.571v1.143h.571zm8.559-1.142v1.142h.571v-2.285h-.571zm-6.276 0v-1.143h-1.142v1.143h.571zm15.976-1.143v1.143h.57v1.142h1.142v-1.142h-.571v-1.143h-.571v-1.143h-1.141v1.143zm-15.406 0v-1.143h-1.141v1.143h.571z"/><path fill="#FEFEFE" d="M55.107 28.131h.57v-1.143h-.57zm3.423-4.57h-.57v1.143h-1.142v1.142h-.57v1.142h1.141v-1.142h1.141v-1.142h1.141v-1.143H59.1zm-6.847-4.57h-.57v-1.143h-.571v-1.142h-.571v-1.142h-.57V21.276H52.254v-1.143h-.571zm9.13 1.142v-1.142h-1.142v-1.143h-.57v-1.142h-1.142v-1.142h-.57v2.284h.57v2.285h.571v1.143H61.383v-1.143zm-3.995-4.569h.571v-1.143h-.571z"/></g></g></svg>