<svg xmlns="http://www.w3.org/2000/svg" width="30" height="18" viewBox="0 0 30 18">
    <g fill="none" fill-rule="evenodd">
        <g fill="#460000">
            <g>
                <g>
                    <path d="M13.493 3.702h2.55v1.125h1.097v2.44h1.29v2.381h1.179V8.556h2.55V7.35h2.413V4.882h1.207v2.477h2.468v1.197h-1.234v2.441h-1.261v2.414h-1.234v2.468h-1.234s.11 1.234 0 1.234H6.17v-1.234H4.964v-2.414h-1.18v-2.468H2.469V8.584H1.234V7.359h2.514V4.836H1.26v-1.27h2.496v1.26h1.234v2.469H7.35v1.207h2.495v1.146h1.235V7.322h1.206v-2.44h1.207V3.757H12.23V1.18h1.262V0h2.468v1.07h1.317v2.632h-1.235V1.18h-2.55v2.523zm14.782-.082v1.207h1.206V7.35H28.33V4.836h-2.496V3.62h2.44zM1.197 4.909v2.413H0V4.91h1.197z" transform="translate(-22 -347) translate(22 347)"/>
                </g>
            </g>
        </g>
    </g>
</svg>
