<svg xmlns="http://www.w3.org/2000/svg" width="24" height="24"><path d="M7.333 11.43h-.566v1.223h-.69v.746h-.654v.72h-.755v.592h-.617v1.971h-.71v.7h-.733v1.355h-.524v2.017H1.42v-.636H.68v-2.735H0V14.71h.68V12h.74v-1.3h.664v-.714h.524V9.4h.733v-.688h.71v-.663h.957l.106-.12h-.415v-.501H4.07v-.696h-.73V6.08h.73v-.7h.628v-.448h.667V4.07h.728v-.778h.567v.778h.672v.548h.746v-.643h.65v-.683h.587v-.7h.686v-.506h.738v-.71H12V.664h2.644V0h3.43v.664h1.913v.712h.697v.71h-1.898v.507h-1.405v.699h-.623v.683h-2.114v.643h-.522v.638h-.73v.714h-.726v.777h-1.238v.569l-1.364-.001v.113h.69v.501h.631v.73H12v.706h.67v.677h.812v.657h.482v.734h.774V12h1.356v1.356h.582v.68h.746v.664h.616v.693h.537v.68h.853v.615h.663v.672h.703v.673h.554v.69h.692v.75h.686v.696h.723v.697H24v2.048h-.551v.568h-.723V24h-1.932v-.518h-.703v-.767h-.663v-.708h-.65v-.516h-.74v-.625h-.616v-.697h-.746v-.695h-.582v-.752h-.638v-.69h-.718v-.672h-.515v-.672h-.741v-.615H12V14.7h-.615v-.663h-.63v-.681h-.69v-.677H9.34V12h-.603v-.567h-.658V10.7h-.746v.731zm0-5.384L6.16 7.147l1.175 1.196 1.163-1.196-1.163-1.1z" fill="#460000" fill-rule="evenodd"/></svg>