<svg xmlns="http://www.w3.org/2000/svg" width="107" height="114"><g fill="none" fill-rule="evenodd"><path fill="#000" d="M21.385 97.308v-4.231H8.692v4.23h12.693zM4.462 88.846v4.23h4.23v-4.23h-4.23zM.23 50.77v38.077h4.23V50.77H.23z"/><path fill="#FF9836" d="M.23 42.308v8.461h4.232v-4.23h4.23v-4.231H.231z"/><path fill="#AA2D21" d="M21.385 93.077v-4.23H8.692v4.23h12.693zM4.462 80.385v8.461h4.23v-8.461h-4.23z"/><path fill="#4F1513" d="M17.154 80.385v-4.231H4.462v4.23h12.692z"/><path fill="#751F17" d="M4.462 46.538v29.616h4.23V55h4.231v4.23h4.23V55h-4.23v-4.23h-4.23v-4.232H4.462zm12.692 12.693v4.23h4.23v-4.23h-4.23z"/><path fill="#000" d="M72.154 42.308h-4.23V16.923h-4.232V50.77h8.462v-8.461zM4.462 25.385v16.923h4.23V25.385h-4.23zm4.23-12.693v12.693h4.231V12.692h-4.23zm50.77-4.23v8.461h4.23l.001-8.461h-4.23zm-46.539 0v4.23h4.23v-4.23h-4.23zm4.23-4.231v4.23h4.232v-4.23h-4.231zm38.078 0v4.23h4.23v-4.23h-4.23zM21.385 0v4.23H55.23V0H21.384z"/><path fill="#681C11" d="M21.385 63.462h-4.231V59.23h-4.23V55H8.692v21.154h8.462v4.23H8.692v8.462h12.693V63.462z"/><path fill="#4D0C0A" d="M38.308 84.615v-4.23H25.615V59.23h-4.23v38.077h4.23V84.615h12.693zM17.154 55v4.23h4.23V55h-4.23zm-4.23-4.23V55h4.23v-4.23h-4.23zm-4.232-4.232v4.231h4.231v-4.23h-4.23z"/><path fill="#000" d="M34.077 67.692v4.231H51v-4.23H34.077zm-4.23-4.23v4.23h4.23v-4.23h-4.23zm21.153 0v4.23h4.23v-4.23l-4.23.001zm-25.385-4.231v4.23h4.231v-4.23h-4.23zm29.616 0v4.23h4.23v-4.23h-4.23zM21.385 55v4.23h4.23V55h-4.23zm42.307-4.23h-4.23v8.46h4.23v-8.46zm-46.538 0V55h4.23v-4.23h-4.23zm-4.23-4.232v4.231h4.23v-4.23h-4.23zm-4.232-4.23v4.23h4.231v-4.23h-4.23z"/><path fill="#5C261F" d="M63.692 38.077H29.846v-4.23h-4.23v-4.232h-8.462V16.923h8.461v-4.23h4.231V8.461h25.385V4.23H21.385v4.23h-4.231v4.231h-4.23v12.693H8.692v16.923h4.231v4.23h4.23v4.231h4.232V55h4.23v4.23h4.231v4.232h4.23v4.23H51v-4.23h4.23V59.23h4.232v-8.462h4.23V38.077z"/><path fill="#FFCCA8" d="M34.077 21.154h-4.23v-4.23h-4.232v12.691h4.231v4.231h4.23v4.23h4.232v-4.23h4.23v4.23H51v-4.23h4.23v4.23h4.232v-4.23h4.23V21.154h-4.23v8.461h-4.231v-8.461H51v-4.23h8.462v-4.232H29.846v4.231h12.692v4.23h-4.23v8.462h-4.231v-8.461zm8.461 8.461H51v4.231h-8.462v-4.23zm-25.384-8.461v8.461h4.23v-8.461h-4.23z"/><path fill="#4C1C19" d="M29.846 33.846v4.23h4.23v-4.23h-4.23zm21.154 0v4.23h4.23v-4.23H51zm8.462 0v4.23h4.23v-4.23h-4.23zm-33.847-4.23v4.23h4.231v-4.23h-4.23zm-8.461-12.693v4.23h4.23v8.462h4.231l.001-12.692h-8.461zm8.461-4.23v4.23h4.231v-4.23h-4.23zm4.231-4.231v4.23h29.616v-4.23H29.846z"/><path fill="#000" d="m22.579 113.906 2.775-3.193-3.193-2.775 2.777-3.194-6.387-5.551L13 105.579l9.58 8.328z"/><path fill="#2F5617" d="m26.427 90.16-7.873 9.057 2.44 2.12-.195.224 3.774 3.28 7.873-9.057-3.194-2.777.194-.223-3.019-2.624z"/><path fill="#379B37" d="M55.23 93.077v-4.23H25.615v8.46h4.231v-4.23h25.385z"/><path fill="#2F5617" d="M55.23 88.846v-4.23H25.615v4.23h29.616z"/><path fill="#AA2D21" d="M25.615 76.154v4.23h12.693v-4.23H25.615zm29.616 4.23v-4.23h-8.462v4.23h8.462z"/><path fill="#379B37" d="M34.077 76.154v-4.23h-4.23v-4.232h-4.232v8.462h8.462z"/><path fill="#2F5617" d="M34.077 71.923v4.23H51v-4.23H34.077zm-4.23-4.23v4.23h4.23v-4.23h-4.23zm21.153 0v4.23h4.23v-4.23H51zm-25.385-4.231v4.23h4.231v-4.23h-4.23zM55.23 97.308v-4.231H29.846v4.23h25.385z"/><path fill="#4C1C19" d="M29.846 16.923v4.23h12.692v-4.23H29.846zm33.846 4.23v-4.23H51v4.23h12.692z"/><path fill="#2F1312" d="M38.308 21.154h-4.231v8.461h4.23v-8.461z"/><path fill="#FF9836" d="M46.77 76.154h-8.462v8.461h8.461v-8.461z"/><path fill="#3E1712" d="M42.538 38.077h-4.23v-4.231h4.23zM51 33.846v-4.23h-8.462v4.23H51z"/><path fill="#4D0C0A" d="M55.23 63.462v16.923h-8.46v4.23h8.46v12.693h8.462v-4.231h-4.23V63.462h-4.231zm8.462 12.692v4.23h4.231v-4.23h-4.23zm-4.23-16.923v4.23h4.23v-4.23h-4.23zm4.23-8.462L63.694 55h4.231v-4.23h-4.23z"/><path fill="#379B37" d="M55.231 76.154H51v-4.231h4.231z"/><path fill="#000" d="m71.74 102.047-2.992-2.992-2.99 2.991-2.992-2.99-5.983 5.983 5.982 5.982 8.974-8.975z"/><path fill="#2F5617" d="m49.17 97.189 7.778 7.778 2.454-2.456.025.025L62.963 99l-7.778-7.778-3.163 3.162-.024-.024-2.828 2.829z"/><path fill="#2F1312" d="M59.462 21.154h-4.231v8.461h4.23v-8.461z"/><path fill="#751F17" d="M67.923 55h-4.23v8.462h-4.231v29.615h8.461V80.385h-4.23v-4.231h4.23V55z"/><path fill="#000" d="M63.692 93.077v4.23h4.231v-4.23h-4.23zM67.923 55v38.077h4.23V67.692h4.233v-4.23h-4.231V55h-4.23z"/><path fill="#751F17" d="M72.154 55h-4.231v-4.231h4.231z"/><path fill="#FF9836" d="M72.154 42.308h-4.231v-4.231h4.231z"/><path fill="#2F5617" d="M76.385 55h-4.231v8.462h4.23V55z"/><path fill="#ECB590" d="M80.615 67.692h-4.23v-4.23h4.23zm0-4.23h-4.23v-4.231h4.23zm0-4.231h-4.23V55h4.23zm4.231 8.461h-4.231v-4.23h4.231z"/><path fill="#F6BE96" d="M84.846 63.462h-4.231v-4.231h4.231zm0-4.231h-4.231V55h4.231z"/><g><path fill="#283030" d="M86.132 56.979h.843V55.29h-.843z"/><path fill="#181F1F" d="M81.914 55.29h.844v-1.689h-.844z"/><path fill="#000" d="M90.349 45.157h.843v-1.689h-.843zm-9.279 0h.844v-1.689h-.844z"/><path fill="#101010" d="M68.419 41.779h.843V40.09h-.843z"/><path fill="#CBFBFF" d="M92.036 36.712h.843v-1.689h-.843zm-3.374-1.689h.843v-1.689h-.843z"/><path fill="#91EFFF" d="M79.383 35.023h.844v-1.689h-.844zm.844-1.689h.843v-1.688h-.843z"/><path fill="#000" d="M70.105 31.646h.844v-1.689h-.844z"/><path fill="#8EE5FF" d="M94.566 29.957h.843v-1.689h-.843z"/><path fill="#CBFBFF" d="M86.132 29.957h.843v-1.689h-.843z"/><path fill="#000" d="M81.914 29.957h.844v-1.689h-.844zm1.687-1.689h.844v-1.689h-.844z"/><path fill="#009CFE" d="M82.758 50.224h-.843v-1.69h-.845v-3.377h-.843v-1.689h-.843V40.09h-.844v-1.689H66.732v1.689h2.53v1.689H70.949v1.689H72.636v1.689H74.323v1.689H76.01v1.688h2.53v1.69H80.227v1.688h1.688v1.689h1.686v-1.689h-.843zm5.061 0v-3.378h.843v-1.689h.844v-1.689h.843v-1.689h.843v-3.378H80.227v3.378h.843v1.689h.845v3.378h.843v1.688h.843v3.378h.844v1.689h1.686v-1.689h.844v-1.688zm7.591-3.378h.843v-1.689h-.843zm1.687-1.689h.843v-1.689h-.843zm1.687-1.689h.843v-1.689h-.843zm1.687-1.689h.843V40.09h-.843zm2.53-1.689h.844v-1.689h-.844z"/><path fill="#009CFE" d="M97.94 38.401h-5.061v1.689h-.843v1.689h-.844v3.378h-.843v1.689h-.843v1.688h-.844v1.69h-.843v1.689h-.844v1.688H88.662v-1.688H90.349v-1.689H92.036v-1.69H93.723v-3.377H95.41v-1.689h.843v-1.689H97.94V40.09H99.627v-1.689h-.843zM87.819 28.268h.843v1.689h.844v1.689h.843v1.688h.843v1.689H92.879v-3.377h.844v-5.067h.843V24.89h-7.591v1.689h.844zm-10.966 0v1.689h.843v1.689h.844v3.377h.843v-1.689h.844v-1.688h.843v-1.689h.845v-1.689h.843v-1.689h.843V24.89H76.01v1.689h.843z"/><path fill="#009CFE" d="M94.566 46.846h.843v-1.689h-.843z"/><path fill="#8EE5FF" d="M101.314 38.401H99.627v1.689H103.001v-1.689h-.843z"/><path fill="#91EFFF" d="M78.54 36.712h.843v-1.689h-.843z"/><path fill="#8EE5FF" d="M97.94 33.334v-1.688h-.843v-3.378h-.844V24.89h-.843v5.067h-.843v3.377h-.844v3.378h5.061v-1.689h-.844zm-7.591 0h-.843v3.378h1.686v-1.689h-.843zm-13.496 0v-1.688h-.843v-3.378h-.844V24.89h-.843v1.689h-.843v1.689h-1.688v1.689h-.843v1.689H69.262v1.688h-.843v1.689H66.732v1.689h10.964v-1.689h-.843zm11.809-1.688h-.844v1.688h1.688v-1.688z"/><path fill="#91EFFF" d="M77.696 33.334h.844v-1.688h-.844z"/><path fill="#8EE5FF" d="M86.975 31.646h.843v-1.689h-.843zm-2.53-5.067v1.689h-.844v1.689h-.843v1.689h-.844v1.688h-.844v1.689h-.843v1.689h5.061V28.268h.843v-1.689h-.843z"/><path fill="#000" d="M75.166 46.846h-.843v-1.689H72.636v1.689H74.323v1.688H76.01v-1.688zm10.965-20.267v1.689h.844v1.689h.844v1.689H89.506v-1.689h-.844v-1.689h-.843v-1.689h-.844zm4.218 27.022v-1.689H88.662v1.689h.844zm-4.217-1.689v1.689H84.445v-1.689h-.844v1.689h-.843v1.689h.843v1.689H86.132V55.29h2.53v-1.689H86.975v-1.689zm-5.905 0v1.689h1.688v-1.689h-.845zm11.809 0v-1.688H90.349v1.688h.844z"/><path fill="#000" d="M86.975 51.913h.844v-1.689h-.844zm-7.592-1.689h-.843v1.688H80.227v-1.688zm14.34 0v-1.69H95.41v-1.688H93.723v1.688H92.036v1.69h.844zm-10.122-1.69h-.843v-1.688h-.843v-1.689h-.845v3.377h.845v1.69h.843v1.688h.843v-1.688zm-5.904 0h-.843v1.69h1.686v-1.69zm18.556-3.377v1.689H97.94v-1.689h-.843zm1.687-1.689v1.689H99.627v-1.689h-.843zm-8.434 1.689h-.844v1.689h-.843v3.378h.843v-1.69h.844v-1.688h.843v-3.378h-.843zm-17.714-1.689h-.843v1.689H72.636v-1.689zm27.835-1.689v1.689H101.314v-1.689h-.843zm-9.278 1.689h.843v-1.689h-.843zm-9.279-1.689h-1.686v1.689h.843v1.689h.843v-1.689zm-10.965 0h-.843v1.689H70.949v-1.689zm31.209-1.689v1.689H103.001V40.09h-.843z"/><path fill="#000" d="M74.323 23.201v1.689h.843v3.378h.844v3.377h.844v3.378h.843v1.69H66.732v-1.69h-.844v1.69H64.2V38.4h.844v1.689h1.688v1.69h1.686v-1.69h-1.686V38.4H78.54v1.689h.844v1.69h.843V38.4h-.843 11.808v3.379h.844v-1.69h.843V38.4h10.966v1.689h.843V38.4h1.687v-1.689h-1.687v-1.689h-.843v-1.689h-1.687v1.69h.843v1.688h-9.278v-3.378h.844v-5.066h.843V24.89h.843v-1.688h-21.93zm10.122 3.378h2.53v-1.69l7.592.001v1.69h-.844v5.066h-.844v5.068h-.843v-1.69h-.844v1.69H80.227v-1.69h-.843v1.69h-.844v-3.379h-.843v-3.378h-.843v-3.378h-.844v-1.69h7.59v1.69h.844z"/><path fill="#000" d="M90.349 35.023h.843v-1.689h-.843zm-10.122 0h.843v-1.689h-.843zm-11.809 0v-1.689h.844v-1.688H67.575v1.688h-.843v1.689h.843zm21.088-1.689h.843v-1.688h-.843zm10.965-1.688v1.688H102.158v-1.688h-.844v-1.689H99.627v1.689zM81.07 29.957v3.377h.845v-1.688h.843v-1.689h-.843zm-10.965 0H71.792v-1.689H70.105v1.689h-.843v1.689h.843zm12.653-1.689v1.689h.843v-3.378h-.843zm-9.278 0v-1.689h-1.688v1.689h.844zm23.617-1.689v1.689h.843v1.689H99.627v-1.689h-.843v-1.689h-.844V24.89H96.253v1.689zm-22.774 0V24.89H72.636v1.689h.844z"/><path fill="#FEFEFE" d="M93.723 46.846h.843v-1.689h-.843zm5.061-6.756h-.844v1.689H96.253v1.689h-.843v1.689H97.097v-1.689H98.784v-1.689H100.471V40.09h-.844zm-10.122-6.756h-.844v-1.688h-.843v-1.689h-.844v-1.689h-.843V36.712h4.218v-1.689h-.844zm13.496 1.689v-1.689H100.471v-1.688h-.844v-1.689H97.94v-1.689h-.843v3.378h.843v3.377h.844v1.689h4.217v-1.689zm-5.905-6.755h.844v-1.689h-.844z"/></g></g></svg>