<svg xmlns="http://www.w3.org/2000/svg" width="113" height="110"><g fill="none" fill-rule="evenodd"><path fill="#1C1C1C" d="m71.821 109.612-13.114.311-.103-5.801 4.371-.104-.104-2.941 8.743-.208z"/><path fill="#3F7A2B" d="m70.756 76.928.858 23.941-3.76.158-4.983.05-.868-23.906 4.62-.145z"/><path fill="#0C0C0C" d="m74.502 109.695-.256-5.861 4.353-.079-.985-3.859 9.258.184 3.015 9.608z"/><path fill="#325729" d="m95.261 75.5-10.15 18.171 2.023 7.198-9.286.149-2.669-8.409 9.515-18.367z"/><path fill="#283030" d="m36.52 69.382-.3.244-.49-.601.301-.245z"/><path fill="#181F1F" d="m37.532 67.557-.3.245-.49-.602.301-.244z"/><path fill="#000" d="m31.59 66.394-.3.245-.49-.601.3-.245zm3.304-2.691-.3.245-.49-.601.3-.245z"/><path fill="#101010" d="m38.42 58.832-.3.244-.49-.601.3-.245z"/><path fill="#CBFBFF" d="m28.54 63.876-.3.245-.49-.601.3-.245zm.712-1.579-.301.244-.489-.601.3-.245z"/><path fill="#91EFFF" d="m32.556 59.606-.3.244-.49-.601.3-.245zm-.79-.357-.3.244-.49-.601.3-.245z"/><path fill="#000" d="m34.881 55.712-.301.245-.49-.602.301-.245z"/><path fill="#8EE5FF" d="m25.68 62.205-.3.244-.49-.601.3-.245z"/><path fill="#CBFBFF" d="m28.684 59.758-.301.245-.49-.601.301-.245z"/><path fill="#000" d="m30.185 58.535-.3.245-.49-.602.301-.244zm-1.09-.112-.3.245-.49-.602.3-.245z"/><path fill="#009CFE" d="m35.763 65.997.3-.244-.49-.602.301-.245-.49-.601-.49-.601.3-.245-.489-.601.3-.245-.49-.602-.49-.601.301-.245-.49-.601.3-.245.301-.244.3-.245.301-.244.3-.245.3-.245.301-.244.3-.245.3-.244.301-.245.3-.245.301-.244.3-.245.3-.245.49.602-.301.244-.3.245-.3.245.49.601-.301.245-.3.244.49.602-.3.244-.301.245.49.601-.301.245-.3.245.49.601-.3.245-.301.245.49.601-.301.245-.3.244-.3.245.49.601-.301.245-.3.244.49.602-.301.244-.3.245.49.602-.301.244-.3.245-.49-.602.3-.244zm-1.803 1.468-.49-.601-.489-.602-.3.245-.49-.602-.301.245-.49-.601-.3.244-.49-.601-.3.244-.49-.601-.49-.602.301-.244.3-.245.3-.245.301-.244.3-.245.301-.244.3-.245.3-.245.301-.244.3-.245.3-.244.301-.245.3-.245.49.601.49.602-.3.245.489.601-.3.245.489.601.49.602-.3.244.49.602-.301.244.49.602.49.601-.3.245.49.601-.301.245-.3.245-.49-.602-.3.245-.49-.601zm-3.683.999-.3.244-.49-.601.301-.245zm-1.09-.113-.301.245-.489-.601.3-.245zm-1.091-.112-.3.245-.49-.602.3-.244zm-1.09-.112-.3.244-.49-.601.3-.245zm-1.391.132-.301.245-.49-.601.301-.245z"/><path fill="#009CFE" d="m26.927 66.19.301-.244.3-.245.301-.245.3-.244.3-.245.3-.245.49.602.301-.245.489.602.301-.245.49.602.489.601.301-.245.49.602.3-.245.49.602.3-.245.49.602.3-.245.49.602.301-.245.489.601-.3.245-.3.244-.49-.601-.301.245-.3.244-.49-.601-.3.245-.3.244-.49-.601-.301.244-.3.245-.49-.601-.49-.602-.3.245-.3.244-.49-.601-.301.244-.489-.601-.301.245-.3.244-.49-.601-.301.244-.3.245-.489-.601.3-.245zm.666-6.544-.3.245.489.601-.3.245.49.601-.301.245.49.601-.3.245.49.601-.301.245-.3.245-.49-.602-.49-.601-.3.244-.49-.601-.49-.601-.49-.602-.3.245-.49-.602.301-.244.3-.245.3-.245.301-.244.3-.245.3-.245.301-.244.3-.245.3-.244.49.601-.3.245zm3.905-3.18.49.602-.301.244.49.602-.3.244.49.602.489.601-.3.245-.49-.602-.3.245-.49-.602-.3.245-.49-.602-.301.245-.49-.601-.3.244-.49-.601-.3.244-.49-.601.301-.244.3-.245.3-.245.301-.244.3-.245.3-.245.301-.244.3-.245.301-.244.489.601-.3.245z"/><path fill="#009CFE" d="m30.578 68.219-.3.245-.49-.602.3-.244z"/><path fill="#8EE5FF" d="m25.726 67.169.3-.245.301-.245.489.602-.3.245-.301.244-.3.245-.3.244-.49-.601.3-.244z"/><path fill="#91EFFF" d="m33.346 59.963-.3.244-.49-.601.3-.245z"/><path fill="#8EE5FF" d="m25.458 64.386-.49-.602.3-.244-.49-.601-.489-.602.3-.245-.49-.601-.489-.602.3-.244.49.601.49.602.489.601.301-.244.49.601.489.601.301-.244.489.601.49.602-.3.244-.3.245-.301.245-.3.244-.301.245-.3.244-.49-.601.3-.245zm2.703-2.202.3-.244.49.601.49.602-.3.244-.301.245-.489-.602.3-.244zm4.806-3.914-.49-.601.301-.245-.49-.601-.49-.602.301-.244-.49-.602-.49-.601.3-.245.49.602.3-.245.49.602.301-.245.3-.245.49.602.3-.245.49.602.301-.245.3-.245.49.602.3-.245.49.602.3-.245.3-.244.49.601-.3.245-.3.244-.301.245-.3.244-.301.245-.3.245-.3.244-.301.245-.3.244-.3.245-.301.245-.3.244-.3.245-.49-.602.3-.244zm-4.695 2.824.3-.245.49.601-.3.245-.301.245-.489-.602z"/><path fill="#91EFFF" d="m32.667 58.515-.3.245-.49-.602.3-.244z"/><path fill="#8EE5FF" d="m28.873 60.604-.3.245-.49-.601.3-.245zm-.568-2.538.489.602.301-.245.49.602.3-.245.49.601.3-.244.49.601.301-.245.489.602.3-.245.49.602-.3.244-.301.245-.3.245-.3.244-.301.245-.3.245-.49-.602-.49-.601-.489-.602-.49-.601-.49-.602-.3.245-.49-.602.3-.244z"/><path fill="#000" d="m37.487 62.593.3-.245-.49-.601.3-.245.301-.244.49.601-.301.245-.3.244.49.601-.301.245-.3.245-.49-.602zm-9.783-4.038.49.602-.301.245.49.601-.3.245.489.601-.3.245-.3.244-.49-.601.3-.245-.49-.601.301-.245-.49-.601.301-.245zm6.335 10.847-.49-.602.3-.244.301-.245.49.601-.301.245z"/><path fill="#000" d="m35.051 67.577.49.602.3-.245.3-.245-.489-.601.3-.245.49.602.3-.245.49.602-.3.244.49.602-.301.244-.3.245-.301.245-.489-.602-.301.245-.3.245-.301.244-.49-.602.301-.244.3-.245-.489-.601zm2.103-1.712.489.601-.3.245-.3.245-.49-.602.3-.245zm-4.206 3.425-.489-.602.3-.244.3-.245.49.601-.3.245zm1.803-1.468-.301.244-.49-.601.301-.245zm2.213-2.803.301-.245.489.602-.3.244-.3.245-.49-.602zm-5.106 4.159-.49-.602-.301.244-.3.245-.49-.601.301-.245.3-.244.49.601.3-.245.301-.245.49.602-.301.245zm3.114-3.538.301-.244-.49-.602.3-.244-.49-.602.301-.245.49.602.49.601-.301.245.49.602-.3.244.489.602-.3.244-.49-.601zm2.103-1.712.3-.244.49.601-.3.245-.301.244-.489-.601zm-7.588 4.179.49.601-.3.245-.301.245-.49-.602.301-.245zm-1.09-.112.489.601-.3.245-.3.244-.49-.601.3-.245zm3.493-1.845.301-.245.489.602.301-.245.489.602.49.601-.3.245-.49-.602-.3.245-.49-.601-.3.244-.49-.602-.49-.601.3-.245zm5.819-5.739.3-.244.49.601-.301.245-.3.245-.49-.602zm-10.403 7.471.49.602-.3.245-.301.244-.49-.601.301-.245zm3.794-2.089-.3.245-.49-.602.3-.245z"/><path fill="#000" d="m33.915 62.501.3-.245.3-.245.49.602-.3.245.489.601-.3.245-.49-.602zm3.904-3.18.301-.245.49.601-.301.245-.3.245-.49-.602zM26.216 67.77l.489.602-.3.244-.3.245-.49-.602.3-.244z"/><path fill="#000" d="m31.419 54.53-.3.244.49.601.49.602-.3.244.49.602.489.601-.3.245.49.602.489.6-.3.245.49.602.3-.245.3-.244.3-.245.3-.245.301-.244.3-.245.301-.245.3-.244.3-.245.301-.244.3-.245.3-.244.301-.245-.49-.602.301-.244.49.601.3-.244.3-.245.49.601-.3.245.49.601-.3.245-.301.245.49.601-.3.245-.301.245-.49-.602.3-.245.301-.244-.49-.602-.3.245-.3.245-.3.244-.301.245-.3.244-.3.245-.301.245-.3.244-.301.245-.3.245-.3.244-.301.245-.3.244-.301.245.49.601-.3.245.49.601-.301.245-.49-.601-.49-.602.3-.244-.3.244-.3.245-.3.245-.301.244-.3.245-.3.245-.301.244-.3.245-.3.244-.301.245-.3.244-.301.245-.3.245-.3.244.489.602.49.601-.3.245-.49-.602-.3.245-.49-.601-.301.244-.3.245-.3.244-.3.245-.302.245-.3.244-.3.245-.3.244-.301.245-.3.245-.3.245-.301.244-.3.245.49.601-.3.245-.49-.602-.301.245-.3.244-.49-.6.3-.245.3-.245-.49-.602.3-.244-.489-.602.3-.245.3-.244.49.602-.3.244.49.601.3-.244.301-.245.3-.244.3-.245.3-.244.301-.245.3-.245.301-.245.3-.244.3-.245.301-.244-.49-.602-.49-.601-.3.244-.49-.601-.49-.601-.49-.602-.3.245-.49-.602-.489-.601-.3.244-.49-.601 7.81-6.36.49.601zm1.927 5.432-.49-.6-.49-.602.301-.245-.49-.601-.49-.602.3-.244-.49-.602-.49-.601.301-.245-.49-.602-.3.245-.3.245-.3.245-.3.244-.301.245-.3.244-.301.245-.3.244-.3.245.489.601-.3.245-.3.245-.301.244-.3.245-.49-.601-.301.244-.3.245-.3.245-.3.244-.301.245-.3.244-.301.245-.3.245-.3.244.489.602.3-.245.49.602.49.601.49.601.3-.244.49.601.49.602.49.601.3-.244-.49-.602.3-.245.49.602.3-.245.301-.244.3-.245.3-.244.301-.245.3-.245.3-.244.301-.245.3-.245.301-.244.3-.245.301-.245.3-.244-.49-.602.301-.244.49.601.3-.245z"/><path fill="#000" d="m28.651 62.786-.3.244-.49-.601.3-.245zm3.605-2.936-.301.245-.49-.602.301-.244zm4.205-3.424-.49-.602-.3.245-.49-.602.3-.244.3-.245.49.602.301-.245.49.601-.301.245zm-8 5.514-.3.244-.49-.601.301-.245zm-4.394 2.578.489.602-.3.244-.3.245-.49-.601.301-.245-.49-.602.3-.244.301-.245.489.602z"/><path fill="#000" d="m30.486 58.291.49.601.49.601-.301.245-.49-.601-.3.244-.49-.601.3-.245zm3.905-3.18-.301.244-.3.245-.49-.602.301-.244.3-.245.49.602.3-.245.49.601-.3.245zm-4.996 3.068.49.601-.3.245-.49-.602-.49-.601.3-.245zm3.304-2.691-.489-.602.3-.244v-.001l.3-.244.49.601-.3.245zm-8.6 6.003-.3.244.49.602-.301.245.49.601-.3.245-.3.244-.49-.601.3-.245-.49-.601.301-.245-.49-.602.3-.244.301-.245zm7.81-6.36-.49-.602.301-.244.3-.245.49.601-.301.245z"/><path fill="#FEFEFE" d="m30.878 67.975-.3.244-.49-.601.3-.245zm-3.761-.939.3-.244.49.601.3-.244.301-.245.489.601.301-.244.49.601-.301.245-.3.244-.49-.601-.3.245-.301.244-.49-.601-.3.244-.3.245-.49-.601.3-.245zm1.645-5.341.3-.245-.489-.601.3-.245-.49-.601.301-.245-.49-.601.3-.245.49.602.49.601.489.602.49.601.49.602-.3.244-.301.245-.3.244-.3.245-.301.245-.49-.602.301-.244zm-4.317 4.515-.489-.601.3-.245.3-.244-.489-.602.3-.244-.489-.602.3-.244.3-.245-.49-.602.301-.244.49.602.489.601-.3.245.49.601.49.601-.301.245.49.601-.3.245-.301.245-.3.244-.301.245-.3.245-.49-.602zm.144-4.118-.3.245-.49-.602.3-.244z"/><path fill="#325729" d="m37.787 62.348 11.76-11.453 4.892 11.188-9.381 7.67z"/><path fill="#EBB48F" d="m35.037 64.883 3.05-2.78 6.971 7.65-4.172 4.155-5.975-6.939a1.5 1.5 0 0 1 .126-2.086"/><path fill="#000" d="m112.208 47.051-.04 35.244-3.917-.005.041-35.244 3.916.005zm-3.957 35.24-.004 3.915-3.916-.004.004-3.916 3.916.004zm-3.92 3.91-.005 3.917-11.748-.014.005-3.916 11.748.014z"/><path fill="#F7963A" d="m112.217 39.219-.009 7.832-3.916-.005.005-3.916-3.917-.004.005-3.916z"/><path fill="#A92E24" d="m108.26 74.458-.009 7.832-3.916-.004.01-7.832 3.915.004zm-15.677 11.73.004-3.916 11.748.014-.004 3.916-11.748-.014z"/><path fill="#4E1816" d="m96.512 74.445.005-3.916 11.748.013-.005 3.916z"/><path fill="#751F18" d="m96.535 54.865-.005 3.916-3.916-.005.005-3.916 3.916.005zm11.761-11.735-.031 27.412-3.916-.004.022-19.58-3.916-.004-.004 3.915-3.916-.004.004-3.916 3.916.005.005-3.917 3.916.005.005-3.916 3.915.004z"/><path fill="#681D11" d="m92.614 58.776 3.916.005.005-3.916 3.916.004.004-3.916 3.916.005-.022 19.58-7.832-.009-.005 3.916 7.832.009-.009 7.832-11.748-.014z"/><path fill="#4A1312" d="m104.38 43.126-.004 3.916-3.916-.005.004-3.916 3.916.005zm-3.92 3.911-.005 3.916-3.916-.004.005-3.916 3.916.004zm-3.92 3.912-.005 3.916-3.916-.005.004-3.916 3.916.005zm-7.837 3.907 3.916.004-.04 35.244-3.917-.004.04-35.244z"/><path fill="#389A46" d="m61.255 86.152.004-3.916 31.328.036-.009 7.832-7.832-.009.005-3.916z"/><path fill="#325729" d="m61.259 82.236.009-7.849 27.412.031-.009 7.85z"/><path fill="#A92E24" d="m61.268 74.404.005-3.916 7.832.01-.005 3.915-7.832-.009zm27.417-3.884-.005 3.916-11.748-.014.005-3.916 11.748.014z"/><path fill="#325729" d="m80.853 70.511.004-3.916 3.916.004.005-3.916 3.916.005-.009 7.832z"/><path fill="#325729" d="m88.698 58.772-.004 3.916-3.916-.005.004-3.916 3.916.005zm-23.5 3.889-.005 3.916-3.916-.005.005-3.916 3.916.005zm19.58.022-.005 3.916-3.916-.004.005-3.916 3.916.004zm-3.92 3.912-.005 3.916-15.664-.018.004-3.916 15.664.018zM61.25 90.068l.004-3.916 23.497.027-.005 3.916z"/><path fill="#F7963A" d="m69.105 70.497 7.832.009-.009 7.832-7.832-.009z"/><path fill="#4A1312" d="m53.467 46.983-.004 3.916-3.916-.005.005-3.915 3.916.004zm3.908 7.837-.005 3.916-3.916-.005.005-3.916 3.916.005zm-3.934 15.66-.005 3.915-3.916-.004.005-3.917 3.916.005zm7.845-11.74-.018 15.664 7.832.01-.004 3.915-7.832-.009-.014 11.748-7.832-.009.005-3.916 3.916.005.031-27.412 3.916.004z"/><path fill="#389A46" d="m61.273 70.488 3.916.005.004-3.916-3.916-.005z"/><path fill="#751F18" d="m49.547 50.895 3.916.004-.009 7.832 3.916.005-.031 27.412-7.832-.009.013-11.748 3.916.004.005-3.916-3.916-.004z"/><path fill="#000" d="m49.547 50.895-.04 35.244-3.916-.005.027-23.496.004-3.916.01-7.832 3.915.005zm3.876 35.248-.005 3.916-3.916-.004.005-3.916 3.916.004z"/><path fill="#751F18" d="m45.631 50.89 3.916.004.005-3.915-3.916-.005z"/><path fill="#325729" d="M92.661 82.268h-3.995V54.793h3.995z"/><path fill="#4A1312" d="M96.572 86.139h-3.995V54.792h3.995z"/><path fill="#000" d="m61.354 0 31.328.036-.004 3.916-31.328-.036L61.354 0zm-.004 3.916-.005 3.916-3.916-.004.004-3.916 3.917.004zm31.328.036 3.916.005-.005 3.916-3.916-.005.005-3.916zM57.429 7.828l-.009 7.832-3.916-.005.009-7.832 3.916.005zm39.16.045 3.916.004-.004 3.916-3.916-.004.004-3.916zm3.912 3.92 3.916.005-.014 11.748-3.916-.005.014-11.748zm-46.997 3.862-.036 31.328-7.832-.009.009-7.832 3.916.004.027-23.495 3.916.004zm50.9 7.89 3.915.005-.018 15.664-3.916-.004.018-15.664z"/><path fill="#5C271F" d="m53.481 35.235 31.328.036.005-3.916 3.916.005.004-3.916 7.833.009.013-11.748-7.832-.009.005-3.916-3.916-.005.004-3.916-23.496-.027.005-3.916 31.328.036-.005 3.916 3.916.005-.004 3.916 3.916.004-.014 11.748 3.916.005-.018 15.664-3.916-.005-.005 3.916-3.916-.004-.004 3.916-3.916-.005-.005 3.916-3.916-.004-.004 3.916-3.916-.005-.005 3.916-3.916-.004-.004 3.916-15.664-.018.004-3.916-3.916-.005.005-3.916-3.916-.004.009-7.832-3.916-.005z"/><path fill="#FCCBA8" d="m96.576 19.62-.01 7.833-3.915-.005.009-7.832 3.916.005zm-23.505 7.806-7.833-.01-.004 3.917 7.832.009.005-3.916zm7.84-7.823 3.917.004.004-3.916 3.916.005-.014 11.748-3.915-.005-.005 3.916-3.916-.004-.005 3.916-3.916-.005.005-3.916-3.916-.004-.005 3.916-7.832-.01.005-3.915-3.916-.005-.004 3.916-3.917-.004.005-3.917-3.916-.004.013-11.748 3.917.004-.01 7.833 3.917.004.008-7.832 3.917.005.004-3.916-7.832-.01.005-3.916 27.412.032-.005 3.916-11.748-.013-.005 3.916 3.917.004-.01 7.832 3.917.005.008-7.832z"/><path fill="#4C1D1A" d="m84.841 7.86-.004 3.915-27.413-.032.005-3.915 27.412.031zm3.912 3.92-.005 3.916-3.916-.005.005-3.916 3.916.005zm7.827 3.925-.004 3.916-3.916-.005-.01 7.832-3.915-.004.013-11.748 7.832.009zm-7.845 11.739-.005 3.916-3.916-.005.005-3.916 3.916.005zm-31.333 3.88-.005 3.916-3.916-.005.005-3.916 3.916.004zm7.832.009-.004 3.916-3.917-.005.005-3.916 3.916.005zm19.58.022-.004 3.916-3.917-.004.005-3.916 3.916.004zM53.5 19.571l.004-3.916 11.748.014-.005 3.916-11.747-.014zm31.332-3.88-.004 3.916-11.748-.013.004-3.916 11.748.013z"/><path fill="#2E1413" d="m76.996 19.598 3.915.005-.008 7.832-3.917-.005z"/><path fill="#3E1612" d="m73.061 35.258 3.916.004.005-3.916-3.916-.004zm-7.827-3.925.004-3.916 7.832.009-.004 3.916z"/><path fill="#2E1413" d="m57.416 19.576 3.915.004-.008 7.832-3.917-.004z"/><path fill="#000" d="m104.385 39.21-.005 3.916-3.916-.005.005-3.916 3.916.005zm-3.92 3.911-.005 3.916-3.916-.004.004-3.916 3.916.004zm-3.921 3.912-.005 3.916-3.916-.005.005-3.916 3.916.005zm-43.076-.05 3.916.005-.01 7.832-3.915-.005.009-7.832zm39.155 3.961-.004 3.916-3.916-.004.004-3.916 3.916.004zm-31.332 3.88-.005 3.916-3.916-.004.005-3.916 3.916.004zm27.412.032-.005 3.916-3.916-.005.005-3.916 3.916.005zm-23.5 3.889-.005 3.916-3.916-.005.004-3.916 3.916.005zm19.58.022-.005 3.916-3.916-.004.004-3.916 3.916.004zm-3.921 3.912-.005 3.916-15.664-.018.005-3.916 15.664.018z"/><path fill="#000" d="m63.202 63.34 7.653 11.31 2.827-1.914-7.653-11.308-2.827 1.913zm13.393 19.79 9.567 14.136 2.828-1.913-9.567-14.136-2.828 1.913z"/><path fill="#4A1312" d="m68.028 76.562 2.827-1.913-7.653-11.309-2.828 1.913 7.654 11.31zm5.74 8.482 7.654 11.308 2.827-1.913-7.654-11.309-2.827 1.914z"/><path fill="#000" d="m87.429 46.278.271-1.533-7.528-1.331-.271 1.534-3.052-.54-.252 1.424-2.95-.521-.288 1.628-3.052-.54-.246 1.39-3.018-.533-.287 1.628-1.357-.24-.245 1.39-1.696-.3-.276 1.56-7.46-1.318-.27 1.526-1.526-.27-.264 1.492-1.458-.258-.263 1.492 1.458.258-.81 4.578-1.458-.258-.251 1.425-1.526-.27-.528 2.984-1.458-.258-.288 1.628-1.627-.288-.522 2.95-.27 1.527-2.916-.516-.791 4.476-1.5-.265-1.33 7.528 1.533.272-.27 1.525 2.985.528.803-4.544 1.559.275.534-3.018 1.39.246.534-3.018 1.56.276.246-1.39 1.424.251.287-1.627 1.594.281.246-1.39 1.458.258.282-1.594 1.526.27.264-1.492 4.476.791 1.556.275.527-2.984 1.53.27.168-1.544 3.052.54 1.113-6.098 1.56.275.246-1.39 1.458.258.276-1.56 1.492.264.269-1.526 1.458.257.27-1.526 1.594.282.246-1.39 2.95.521.282-1.593 3.085.545.24-1.357 4.477.792.551-3.12z"/><path fill="#839599" d="m85.891 46.076-.234 1.323-3.052-.54-.293 1.662-1.425-.252-.251 1.424-2.951-.521-.281 1.594-1.56-.276-.246 1.39-3.018-.533-.282 1.594-1.56-.276-.245 1.39-1.425-.251-.287 1.627-1.458-.257-.252 1.424-1.696-.3.258-1.458-1.289-.228.264-1.492-1.695-.3.269-1.526 3.086.546.276-1.56 1.628.288.257-1.458 1.323.233.276-1.56 4.527.8.245-1.39 1.611.285.288-1.628 4.476.792.24-1.357zM40.125 78.389l1.324.225.519-3.056 1.664.283.242-1.426 1.426.242.501-2.954 1.596.271.265-1.562 1.392.237.513-3.022 1.596.271.265-1.562 1.392.237.242-1.426 1.629.276.248-1.459 1.426.242.288-1.698-1.459-.248.219-1.29-1.494-.254.288-1.697-1.528-.259-.524 3.089-1.562-.265-.277 1.629-1.46-.247-.224 1.324-1.562-.265-.77 4.532-1.391-.236-.274 1.612-1.63-.276-.761 4.481-1.358-.23zm25.064-20.445-.517 2.925-1.424-.252-.238 1.348-1.662-.294-.312 1.763-2.95-.521.288-1.628-1.447-.255.245-1.391-1.604-.284.533-3.018 1.605.284.288-1.628 1.447.256.252-1.424 2.95.521-.252 1.425 1.526.269-.288 1.628z"/><path fill="#FFF" d="m61.348 61.671-1.458-.257.238-1.348-1.492-.264.253-1.433-1.447-.256.264-1.492-1.605-.284-.533 3.018 1.604.284-.245 1.39 1.447.256-.288 1.628 2.95.522z"/><path fill="#4A1312" d="m58.533 51.941-.288 1.628-1.604-.283-.252 1.424-1.696-.3.252-1.424 1.696.3.287-1.628z"/><path fill="#000" d="m83.2 99.217 3.717-2.404-2.686-2.405-2.921 1.889z"/><path fill="#325729" d="M74.186 72.394 89.48 61.389l.526 14.485-9.235 6.25z"/><path fill="#EBB48F" d="m67.7 76.784 6.486-4.39 6.585 9.73-6.486 4.39z"/><g><path fill="#283030" d="M23.443 109.993h.894v-1.789h-.894z"/><path fill="#181F1F" d="M18.976 108.204h.893v-1.789h-.893z"/><path fill="#242324" d="M27.91 97.47h.894v-1.789h-.894z"/><path fill="#242425" d="M18.082 97.47h.894v-1.789h-.894z"/><path fill="#231F20" d="M4.68 93.892h.894v-1.789H4.68z"/><path fill="#CBFBFF" d="M29.697 88.525h.894v-1.789h-.894zm-3.573-1.789h.893v-1.789h-.893z"/><path fill="#91EFFF" d="M16.295 86.736h.894v-1.789h-.894zm.894-1.789h.893v-1.789h-.893z"/><path fill="#1E2525" d="M6.467 83.158h.894v-1.789h-.894z"/><path fill="#8EE5FF" d="M32.378 81.369h.893V79.58h-.893z"/><path fill="#CBFBFF" d="M23.443 81.369h.894V79.58h-.894z"/><path fill="#232425" d="M18.976 81.369h.893V79.58h-.893z"/><path fill="#242526" d="M20.763 79.58h.893v-1.789h-.893z"/><path fill="#009CFE" d="M19.87 102.837h-.894v-1.789h-.894V97.47h-.893v-1.789h-.894v-3.578h-.893v-1.789H2.894v1.789H5.573v1.789h1.788v1.789h1.787v1.789h1.787v1.789h1.787v1.789h2.68v1.789h1.787v1.789h1.787v1.789h1.787v-1.789h-.893zm5.361 0v-3.578h.893V97.47h.894v-1.789h.893v-1.789h.893v-3.578H17.189v3.578h.893v1.789h.894v3.578h.894v1.789h.893v3.578h.893v1.789h1.787v-1.789h.894v-1.789zm8.04-3.578h.894V97.47h-.894zm1.787-1.789h.894v-1.789h-.894zm1.787-1.789h.893v-1.789h-.893zm1.787-1.789h.893v-1.79h-.893zm2.681-1.789h.893v-1.789h-.893z"/><path fill="#009CFE" d="M35.952 90.314h-5.361v1.789h-.893v1.789h-.894v3.578h-.893v1.789h-.893v1.789h-.894v1.789h-.893v1.789h-.894v1.789h1.787v-1.789h1.787v-1.789h1.787v-1.789h1.787V97.47h1.786v-1.789h.894v-1.789h1.787v-1.789h1.787v-1.789h-.894zM25.231 79.58h.893v1.789h.894v1.789h.893v1.789h.893v1.789h1.787v-3.578h.894v-5.367h.893v-1.789H24.337v1.789h.894zm-11.616 0v1.789h.893v1.789h.894v3.578h.893v-1.789h.894v-1.789h.893v-1.789h.894V79.58h.893v-1.789h.894v-1.789h-8.042v1.789h.894z"/><path fill="#009CFE" d="M32.378 99.259h.893V97.47h-.893z"/><path fill="#8EE5FF" d="M39.525 90.314h-1.787v1.789h3.575v-1.789h-.894z"/><path fill="#91EFFF" d="M15.402 88.525h.893v-1.789h-.893z"/><path fill="#8EE5FF" d="M35.952 84.947v-1.789h-.893V79.58h-.894v-3.578h-.894v5.367h-.893v3.578h-.893v3.578h5.36v-1.789h-.893zm-8.041 0h-.893v3.578h1.786v-1.789h-.893zm-14.296 0v-1.789h-.894V79.58h-.893v-3.578h-.893v1.789h-.894v1.789H8.254v1.789h-.893v1.789H5.574v1.789H4.68v1.789H2.893v1.789H14.508v-1.789h-.893zm12.509-1.789h-.894v1.789h1.787v-1.789z"/><path fill="#91EFFF" d="M14.508 84.947h.894v-1.789h-.894z"/><path fill="#8EE5FF" d="M24.337 83.158h.893v-1.789h-.893zm-2.681-5.367v1.789h-.893v1.789h-.893v1.789h-.894v1.789h-.894v1.789h-.893v1.789h5.361V79.58h.893v-1.789h-.893z"/><path fill="#231F20" d="M11.828 99.259h-.893V97.47H9.148v1.789h1.787v1.789h1.786v-1.789zm11.615-21.468v1.789h.894v1.789h.894v1.789h1.786v-1.789h-.893V79.58h-.893v-1.789h-.894zm4.468 28.624v-1.789h-1.787v1.789h.894zm-4.468-1.789v1.789h-1.787v-1.789h-.893v1.789h-.894v1.789h.894v1.789H23.443v-1.789h2.681v-1.789h-1.787v-1.789zm-6.254 0v1.789h1.787v-1.789h-.894zm12.508 0v-1.789H27.91v1.789h.894zm-5.36 0h.893v-1.789h-.893zm-8.042-1.789h-.893v1.789h1.787v-1.789zm15.19 0v-1.789h1.786v-1.789h-1.786v1.789h-1.788v1.789h.894zm-10.722-1.789h-.894v-1.789h-.893V97.47h-.894v3.578h.894v1.789h.893v1.789h.894v-1.789zm-6.255 0h-.893v1.789h1.787v-1.789zm19.657-3.578v1.789h1.787V97.47h-.894zm1.787-1.789v1.789h1.787v-1.789h-.894zm-8.935 1.789h-.893v1.789h-.894v3.578h.894v-1.789h.893v-1.789h.893v-3.578h-.893zM8.254 95.681h-.893v1.789h1.787v-1.789zm29.484-1.789v1.789h1.787v-1.789h-.893zm-9.828 1.789h.894v-1.789h-.894zm-9.828-1.789h-1.787v1.789h.894v1.789h.893v-1.789zm-11.615 0h-.894v1.789h1.788v-1.789zm33.058-1.789v1.789h1.788v-1.789h-.894z"/><path fill="#231F20" d="M10.935 74.213v1.789h.893v3.578h.894v3.577h.893v3.578h.893v1.789H2.894v-1.79H2v1.79H.213v1.789h.894v1.789h1.787v1.79H4.68v-1.79H2.894v-1.789h12.508v1.789h.893v1.79h.894v-3.579h-.894 12.509v3.58h.893v-1.79h.894v-1.789h11.615v1.789h.893v-1.789h1.788v-1.79h-1.788v-1.788h-.893v-1.79H40.42v1.79h.893v1.789h-9.828v-3.578h.893V79.58h.893v-3.578h.894v-1.79h-23.23zm10.722 3.577h2.68V76h8.041v1.79h-.893v5.367h-.894v5.367h-.894v-1.79h-.893v1.79H17.19v-1.79h-.894v1.79h-.893v-3.577h-.894v-3.578h-.893V77.79h-.893v-1.787h8.041v1.787h.894z"/><path fill="#231F20" d="M27.91 86.736h.894v-1.789h-.894zm-10.721 0h.893v-1.789h-.893zm-12.509 0v-1.789h.894v-1.789H3.787v1.789h-.893v1.789h.893zm22.337-1.789h.893v-1.789h-.893zm11.615-1.789v1.789h1.788v-1.789h-.895v-1.789h-1.786v1.789zm-20.55-1.789v3.578h.894v-1.789h.894v-1.789h-.894zm-11.615 0h1.787V79.58H6.467v1.789h-.894v1.789h.894zM19.87 79.58v1.789h.893v-3.578h-.893zm-9.829 0v-1.789H8.254v1.789h.894zm25.017-1.789v1.789h.894v1.789h1.786V79.58h-.893v-1.789h-.893v-1.789h-1.787v1.789zm-24.123 0v-1.789H9.148v1.789h.893z"/><path fill="#FEFEFE" d="M31.485 99.259h.893V97.47h-.893zm5.36-7.156h-.893v1.789h-1.787v1.789h-.894v1.789h1.787v-1.789h1.787v-1.789h1.787v-1.789h-.894zm-10.721-7.156h-.894v-1.789h-.893v-1.789h-.894V79.58h-.893v8.945h4.467v-1.789h-.893zm14.296 1.789v-1.789h-1.788v-1.789h-.894v-1.789h-1.786V79.58h-.894v3.578h.894v3.578h.893v1.789h4.468v-1.789zm-6.255-7.156h.893v-1.789h-.893z"/></g></g></svg>