<svg xmlns="http://www.w3.org/2000/svg" width="40" height="32" viewBox="0 0 40 32">
    <g fill="none" fill-rule="evenodd">
        <g>
            <g>
                <path fill="#FDD76F" d="M35.845 11.11L33.715 11.11 33.715 12.816 27.452 6.58 29.549 4.492 27.231 2.184 20.62 9.335 20.474 11.07 17.838 8.444 19.974 6.317 17.926 4.277 2.459 19.677 3.739 20.602 3.739 22.4 5.539 22.4 5.539 20.609 7.479 20.575 7.479 22.44 9.391 22.435 9.305 24.3 11.244 24.3 11.244 26.106 9.305 26.106 9.305 28.105 11.244 28.105 11.244 29.884 13.183 29.884 19.41 23.69 19.322 24.735 22.605 28.003 35.786 14.878 34.132 13.231 35.845 13.231z" transform="translate(-964 -396) translate(964 396)"/>
                <path fill="#4D0000" d="M15.037 28.162v1.932h-1.852v1.722h-1.94v-1.932h1.852v-1.722h1.94zm-3.792-11.31v1.791h1.94v1.932h1.852v1.827h1.94v1.932h1.738v-1.932h1.9v-1.827h1.799v-1.932h1.94v-1.791h1.94v1.932h-1.94v1.791h-1.8v1.932h-1.898v1.827h-1.852v1.897h1.852v1.791h1.899v1.932h-1.94v-1.792h-1.9v-1.896h-1.737v1.896h-1.94v-1.931h1.825v-1.897h-1.826v-1.827h-1.94v-1.932h-1.852v-1.791h-1.94v-1.932h1.94zm-7.505 0v1.932h-1.8v1.791h1.8v1.827h1.799v-1.827h1.94v1.827h1.91v1.896h1.856v1.933H9.419v1.72h1.826v1.933h-1.94v-1.722H7.479v-1.931h1.826v-1.897H7.448v-1.827H5.68v1.827H3.74v-1.827H1.8v-1.932H0v-1.932h1.8v-1.791h1.94zm26.32 3.723v1.932h-1.825v1.932h-1.94v1.792h-1.8v1.791h-1.94V26.09h1.799v-1.791h1.94v-1.792h1.826v-1.932h1.94zm-3.766 0v1.932h-1.94v-1.932h1.94zm7.532-3.723v1.932h-1.825v1.791h-1.94v-1.932h1.825v-1.791h1.94zm-5.591-5.655v1.817h1.825v1.932h-1.825v1.901h-1.94v-1.932h1.825v-1.787h-1.826v-1.931h1.94zM7.479 13.128v1.787h1.94v1.932H7.48V15.06h-1.8v1.787H3.74v-1.932h1.8v-1.787h1.94zm30.113 0v1.932h-1.826v1.787h-1.94v-1.932h1.826V13.13h1.94zm1.94-1.931v1.932h-1.94v-1.932h1.94zM28.235 0v1.818h1.825V3.75h-1.94V1.932h-1.826V3.75h-1.861v1.932h-1.878v1.791h-1.9v1.932h1.9v1.792h1.799V9.265h1.94v1.932h-1.799v1.932h-1.94v-1.792h-1.94V9.405h-1.9V7.473h1.9V5.682h-1.81V3.75h-1.94V1.818h1.94V3.75h1.94V5.54h1.747V3.75h1.862V1.818h1.94V0h1.94zm-16.99 9.405v1.932H9.419v1.791H7.48v-1.931h1.826V9.405h1.94zM32 7.473v1.792h1.826V7.473h1.94v1.792h1.826v1.932h-1.94V9.405h-1.826v1.792h-1.94V9.405H30.06V7.473H32zM16.863 3.75v1.932h-1.826v1.791h-1.852v1.932h-1.94V7.473h1.852V5.541h1.826V3.75h1.94zM32 3.75v1.932h-1.94v1.791h-1.94V5.541h1.94V3.75H32z" transform="translate(-964 -396) translate(964 396)"/>
                <path fill="#FFF1C9" d="M33.878 13.037h1.78v-1.733h-1.78v1.733zM26.29 5.541h1.829V3.787H26.29v1.754zm-7.486 3.794h1.815V7.549h-1.815v1.786zm5.684 5.543h1.754v-1.712h-1.754v1.712zm11.272-3.681V9.335h-1.935v1.824h-1.883V9.335h-1.889v-1.9h-1.877V5.58h1.877V3.61H28.12V1.818h-1.935v1.894h-1.828v1.97h-1.802v1.754h-1.89V5.579h-1.86V3.712h-1.934v1.97h1.86v1.754h-1.86v1.969h1.86v1.9h1.934v1.842h1.89v1.86h1.802v1.84h1.934v-1.84h1.886v-1.97h-1.886v-1.84h-1.934v1.84h-1.758v-1.86h-1.934V9.406h1.89V7.651h1.934v-1.97h1.754v1.83h1.877v1.894h1.889v1.9h1.934v1.823h1.78v1.75h-1.78v1.885H30.01v1.929h-1.89v1.828h-1.876v1.842h-1.886v1.97h1.934v-1.843h1.886v-1.828h1.877v-1.929h1.89v-1.885h1.934v-1.84h1.78v-1.841h1.934v-1.97h-1.831z" transform="translate(-964 -396) translate(964 396)"/>
                <path fill="#FFF1C9" d="M9.39 22.436h1.796v-1.827H9.391v1.827zm13.03 3.687h-1.755V24.28h-1.86v-1.788h1.854v-1.97h-1.934v1.861H16.87v1.916h-1.807v-1.863h-1.939v-1.86h-1.881v-1.832h-1.94v1.831H7.48v1.865h1.826v1.86h1.939v-1.86h1.881v1.86h1.855v1.863h-1.855v1.721h-1.881v-1.778h-1.94v2h1.94v1.778h1.939v-1.722h1.881v-1.999h1.855v-1.81h1.811v1.896h1.935v1.843h1.934v-1.876h1.755v-1.97h-1.935v1.877z" transform="translate(-964 -396) translate(964 396)"/>
                <path fill="#FFF1C9" d="M22.511 18.732L24.357 18.732 24.357 16.852 22.511 16.852 20.665 16.852 20.665 18.732 20.665 20.575 22.511 20.575zM3.74 22.4L5.539 22.4 5.539 20.609 3.74 20.609z" transform="translate(-964 -396) translate(964 396)"/>
                <path fill="#F4E1BA" d="M9.404 18.712L9.404 16.847 7.547 16.847 7.547 15.015 9.414 15.015 9.414 13.236 11.297 13.236 11.297 11.375 13.18 11.375 13.18 9.405 15.021 9.405 15.021 7.549 16.863 7.549 16.863 5.579 14.929 5.579 14.929 7.436 13.087 7.436 13.087 9.405 11.245 9.405 11.245 11.267 9.362 11.267 9.362 13.128 7.479 13.128 7.479 14.988 5.612 14.988 5.612 16.847 3.739 16.847 3.739 18.737 1.867 18.737 1.867 20.602 3.739 20.602 3.739 18.784 5.612 18.784 5.612 16.875 7.465 16.875 7.465 18.712z" transform="translate(-964 -396) translate(964 396)"/>
                <path fill="#F77E00" d="M15.017 13.074L13.125 13.074 13.125 16.847 16.896 16.847 16.896 14.951 15.017 14.951 15.017 13.128 16.896 13.128 16.896 14.951 18.774 14.951 18.774 11.197 15.017 11.197zM18.715 18.643L16.829 18.643 16.829 20.575 18.77 20.575 18.77 18.729 20.655 18.729 20.655 16.852 22.555 16.852 22.555 14.92 20.614 14.92 20.614 16.797 18.715 16.797z" transform="translate(-964 -396) translate(964 396)"/>
            </g>
        </g>
    </g>
</svg>
