<svg xmlns="http://www.w3.org/2000/svg" width="26" height="26" viewBox="0 0 26 26">
    <g fill="none" fill-rule="evenodd">
        <g>
            <g>
                <g>
                    <path fill="#B34100" d="M3.358 0L3.358 1.891 1.89 1.891 1.89 3.531 0 3.531 0 22.218 1.89 22.218 1.89 24.109 3.358 24.109 3.358 26 22.32 26 22.32 24.109 23.789 24.109 23.789 22.218 26 22.218 26 3.531 23.789 3.531 23.789 1.891 22.32 1.891 22.32 0z" transform="translate(-1014 -736) translate(838 736) translate(176)"/>
                    <path fill="#E06F00" d="M1.083 4.694L3.01 4.694 3.01 3.017 4.506 3.017 4.506 1.083 21.166 1.083 21.166 3.017 22.663 3.017 22.663 4.694 24.917 4.694 24.917 21.05 22.663 21.05 22.663 22.983 21.166 22.983 21.166 24.917 4.506 24.917 4.506 22.983 3.01 22.983 3.01 21.05 1.083 21.05z" transform="translate(-1014 -736) translate(838 736) translate(176)"/>
                    <g fill="#FFF" stroke="#231F20" stroke-width=".3">
                        <path d="M5.25 11.1l.043-.006c.057-.707.118-1.413.17-2.12.018-.253.086-.466.264-.64.615-.602 1.223-1.212 1.834-1.818l3.287-3.262c.221-.22.442-.44.658-.667.033-.034.05-.108.043-.159-.003-.023-.09-.059-.126-.045-.145.054-.298.104-.427.192-1.532 1.058-3.06 2.122-4.591 3.184-.684.475-1.368.95-2.054 1.422-.143.099-.218.21-.147.406.067.188.118.384.175.577L5.25 11.1M14.083.981c-.074.388-.172.915-.274 1.441-.618 3.21-1.237 6.419-1.859 9.627-.035.182-.079.367-.15.535-.156.362-.433.496-.775.37-.172-.064-.34-.162-.486-.28-.934-.752-1.861-1.514-2.79-2.272-.237-.193-.256-.19-.464.034-.453.486-.9.977-1.361 1.451-.126.129-.285.239-.447.3-.315.118-.517-.014-.62-.363-.383-1.292-.77-2.584-1.141-3.88-.075-.261-.206-.397-.441-.474C2.37 7.172 1.47 6.86.57 6.547.437 6.5.304 6.435.187 6.35c-.212-.15-.257-.417-.066-.594.202-.186.438-.347.683-.455 1.12-.491 2.25-.96 3.375-1.437l8.82-3.743c.039-.017.079-.036.119-.051.577-.225.974.09.965.91" transform="translate(-1014 -736) translate(838 736) translate(176) translate(4.333 6.5)"/>
                    </g>
                </g>
            </g>
        </g>
    </g>
</svg>
