<svg xmlns="http://www.w3.org/2000/svg" width="20" height="26" viewBox="0 0 20 26">
    <g fill="none" fill-rule="evenodd">
        <g fill="#460000">
            <g>
                <g>
                    <path d="M14.737 0v1.083h.978V4.36H14.69v.99l-.978.045v.873h2.05v1.014l1.041.048v.992l1.04.046V10.4l1.042.046v3.108h.97v5.355h-1v2.063h-1.013l-.048 1.042h-.99l-.048 1.041h-1.024v1.042h-2.08v.975H6.228V24.07h-2.06v-1.016l-1.04-.048v-.992l-1.04-.048v-.991l-1.041-.047v-2.02H0v-5.404h1.08v-3.111h1.041v-2.08h1.042V7.272h.997l.048-1.025h2.015v-.853l-1.024-.052V4.322h-.99V1.045h.98V0h9.548zM9.664 9.36h-.918v.71H7.253v.776h-.706v3.158h.737v.748h.747v.71l.702.03v2.036h-.536l-.037-.704H6.55v1.653h.728v.748h1.47l.035.712h.906v-.7h.575v.7h.918v-.738h.747v-.748h.747v-.748h.697v-3.158h-.703l-.034-.735h-1.448v-2.034h.544l.032.69h1.619V10.82h-.71v-.75h-1.518v-.71h-.918v.7h-.573v-.7zm.564 6.151v2.02h-.529v-2.02h.529zm1.49-.013v1.274h-.527v-1.274h.527zm-1.497-3.726v2.021h-.528v-2.021h.528zm-1.49 0v1.275h-.528v-1.276h.528z" transform="translate(-32 -280) translate(32 280)"/>
                </g>
            </g>
        </g>
    </g>
</svg>
