<svg xmlns="http://www.w3.org/2000/svg" width="18" height="14" viewBox="0 0 18 14">
    <g fill="none" fill-rule="evenodd">
        <g>
            <g>
                <g>
                    <path fill="#283030" d="M9.043 13.929L9.391 13.929 9.391 13.233 9.043 13.233z" transform="translate(-534 -827) translate(506 749) translate(28 78)"/>
                    <path fill="#181F1F" d="M7.304 13.233L7.652 13.233 7.652 12.536 7.304 12.536z" transform="translate(-534 -827) translate(506 749) translate(28 78)"/>
                    <path fill="#242324" d="M10.783 9.054L11.13 9.054 11.13 8.358 10.783 8.358z" transform="translate(-534 -827) translate(506 749) translate(28 78)"/>
                    <path fill="#242425" d="M6.957 9.054L7.304 9.054 7.304 8.358 6.957 8.358z" transform="translate(-534 -827) translate(506 749) translate(28 78)"/>
                    <path fill="#5A95A8" d="M1.739 7.661L2.087 7.661 2.087 6.965 1.739 6.965z" transform="translate(-534 -827) translate(506 749) translate(28 78)"/>
                    <path fill="#4E6368" d="M11.479 5.572L11.826 5.572 11.826 4.875 11.479 4.875z" transform="translate(-534 -827) translate(506 749) translate(28 78)"/>
                    <path fill="#C1DEEA" d="M10.087 4.875L10.435 4.875 10.435 4.179 10.087 4.179z" transform="translate(-534 -827) translate(506 749) translate(28 78)"/>
                    <path fill="#59767E" d="M6.261 4.875L6.609 4.875 6.609 4.179 6.261 4.179z" transform="translate(-534 -827) translate(506 749) translate(28 78)"/>
                    <path fill="#5C92A4" d="M6.609 4.179L6.957 4.179 6.957 3.482 6.609 3.482z" transform="translate(-534 -827) translate(506 749) translate(28 78)"/>
                    <path fill="#1E2525" d="M2.435 3.483L2.783 3.483 2.783 2.786 2.435 2.786z" transform="translate(-534 -827) translate(506 749) translate(28 78)"/>
                    <path fill="#59686C" d="M12.522 2.786L12.87 2.786 12.87 2.09 12.522 2.09z" transform="translate(-534 -827) translate(506 749) translate(28 78)"/>
                    <path fill="#C4DFEA" d="M9.043 2.786L9.392 2.786 9.392 2.09 9.043 2.09z" transform="translate(-534 -827) translate(506 749) translate(28 78)"/>
                    <path fill="#232425" d="M7.304 2.786L7.652 2.786 7.652 2.09 7.304 2.09z" transform="translate(-534 -827) translate(506 749) translate(28 78)"/>
                    <path fill="#242526" d="M8 2.09L8.348 2.09 8.348 1.393 8 1.393z" transform="translate(-534 -827) translate(506 749) translate(28 78)"/>
                    <path fill="#00B5E2" d="M7.652 11.144L7.304 11.144 7.304 10.447 6.957 10.447 6.957 9.751 6.957 9.054 6.609 9.054 6.609 8.358 6.261 8.358 6.261 7.661 6.261 6.965 5.913 6.965 5.913 6.268 5.566 6.268 5.217 6.268 4.87 6.268 4.522 6.268 4.174 6.268 3.826 6.268 3.478 6.268 3.13 6.268 2.783 6.268 2.435 6.268 2.087 6.268 1.739 6.268 1.391 6.268 1.043 6.268 1.043 6.965 1.391 6.965 1.739 6.965 2.087 6.965 2.087 7.661 2.435 7.661 2.783 7.661 2.783 8.358 3.13 8.358 3.478 8.358 3.478 9.054 3.826 9.054 4.174 9.054 4.174 9.751 4.522 9.751 4.87 9.751 4.87 10.447 5.217 10.447 5.566 10.447 5.913 10.447 5.913 11.144 6.261 11.144 6.609 11.144 6.609 11.84 6.957 11.84 7.304 11.84 7.304 12.537 7.652 12.537 8 12.537 8 11.84 7.652 11.84zM9.739 11.144L9.739 10.447 9.739 9.751 10.087 9.751 10.087 9.054 10.435 9.054 10.435 8.358 10.783 8.358 10.783 7.661 11.13 7.661 11.13 6.965 11.13 6.268 10.783 6.268 10.435 6.268 10.087 6.268 9.739 6.268 9.392 6.268 9.043 6.268 8.696 6.268 8.348 6.268 8 6.268 7.652 6.268 7.304 6.268 6.957 6.268 6.609 6.268 6.609 6.965 6.609 7.661 6.957 7.661 6.957 8.358 7.304 8.358 7.304 9.054 7.304 9.751 7.652 9.751 7.652 10.447 8 10.447 8 11.144 8 11.84 8.348 11.84 8.348 12.537 8.696 12.537 9.043 12.537 9.043 11.84 9.392 11.84 9.392 11.144zM12.87 9.75L13.217 9.75 13.217 9.054 12.87 9.054zM13.565 9.054L13.913 9.054 13.913 8.358 13.565 8.358zM14.261 8.358L14.609 8.358 14.609 7.661 14.261 7.661zM14.957 7.661L15.305 7.661 15.305 6.965 14.957 6.965zM16 6.965L16.348 6.965 16.348 6.269 16 6.269z" transform="translate(-534 -827) translate(506 749) translate(28 78)"/>
                    <path fill="#00B5E2" d="M13.913 6.268L13.565 6.268 13.218 6.268 12.87 6.268 12.522 6.268 12.174 6.268 11.826 6.268 11.826 6.965 11.479 6.965 11.479 7.661 11.13 7.661 11.13 8.358 11.13 9.054 10.783 9.054 10.783 9.75 10.435 9.75 10.435 10.447 10.087 10.447 10.087 11.144 9.739 11.144 9.739 11.84 9.392 11.84 9.392 12.536 9.739 12.536 10.087 12.536 10.087 11.84 10.435 11.84 10.783 11.84 10.783 11.144 11.13 11.144 11.479 11.144 11.479 10.447 11.826 10.447 12.174 10.447 12.174 9.75 12.174 9.054 12.522 9.054 12.87 9.054 12.87 8.358 13.218 8.358 13.218 7.661 13.565 7.661 13.913 7.661 13.913 6.965 14.261 6.965 14.609 6.965 14.609 6.268 14.261 6.268zM9.739 2.09L10.087 2.09 10.087 2.786 10.435 2.786 10.435 3.483 10.783 3.483 10.783 4.179 11.13 4.179 11.13 4.875 11.479 4.875 11.826 4.875 11.826 4.179 11.826 3.483 12.174 3.483 12.174 2.786 12.174 2.09 12.174 1.393 12.522 1.393 12.522.697 12.174.697 11.826.697 11.479.697 11.13.697 10.783.697 10.435.697 10.087.697 9.739.697 9.392.697 9.392 1.393 9.739 1.393zM5.217 2.09L5.217 2.786 5.566 2.786 5.566 3.483 5.913 3.483 5.913 4.179 5.913 4.875 6.261 4.875 6.261 4.179 6.609 4.179 6.609 3.483 6.957 3.483 6.957 2.786 7.304 2.786 7.304 2.09 7.652 2.09 7.652 1.393 8 1.393 8 .697 7.652.697 7.304.697 6.957.697 6.609.697 6.261.697 5.913.697 5.566.697 5.217.697 4.87.697 4.87 1.393 5.217 1.393z" transform="translate(-534 -827) translate(506 749) translate(28 78)"/>
                    <path fill="#78CBED" d="M12.522 9.75L12.87 9.75 12.87 9.054 12.522 9.054zM15.305 6.268L14.957 6.268 14.609 6.268 14.609 6.965 14.957 6.965 15.305 6.965 15.652 6.965 16 6.965 16 6.268 15.652 6.268zM5.913 5.572L6.261 5.572 6.261 4.875 5.913 4.875zM13.913 4.179L13.913 3.482 13.565 3.482 13.565 2.786 13.565 2.09 13.218 2.09 13.218 1.393 13.218.696 12.87.696 12.87 1.393 12.87 2.09 12.87 2.786 12.522 2.786 12.522 3.482 12.522 4.179 12.174 4.179 12.174 4.875 12.174 5.572 12.522 5.572 12.87 5.572 13.218 5.572 13.565 5.572 13.913 5.572 14.261 5.572 14.261 4.875 13.913 4.875zM10.783 4.179L10.435 4.179 10.435 4.875 10.435 5.572 10.783 5.572 11.13 5.572 11.13 4.875 10.783 4.875zM5.217 4.179L5.217 3.482 4.87 3.482 4.87 2.786 4.87 2.09 4.522 2.09 4.522 1.393 4.522.696 4.174.696 4.174 1.393 3.826 1.393 3.826 2.09 3.478 2.09 3.13 2.09 3.13 2.786 2.783 2.786 2.783 3.482 2.435 3.482 2.087 3.482 2.087 4.179 1.739 4.179 1.739 4.875 1.391 4.875 1.044 4.875 1.044 5.572 1.391 5.572 1.739 5.572 2.087 5.572 2.435 5.572 2.783 5.572 3.13 5.572 3.478 5.572 3.826 5.572 4.174 5.572 4.522 5.572 4.87 5.572 5.217 5.572 5.566 5.572 5.566 4.875 5.217 4.875zM10.087 3.482L9.739 3.482 9.739 4.179 10.087 4.179 10.435 4.179 10.435 3.482zM5.566 4.179L5.913 4.179 5.913 3.483 5.566 3.483zM9.392 3.483L9.739 3.483 9.739 2.786 9.392 2.786zM8.348 1.393L8.348 2.09 8 2.09 8 2.786 7.652 2.786 7.652 3.482 7.305 3.482 7.305 4.179 6.957 4.179 6.957 4.875 6.609 4.875 6.609 5.572 6.957 5.572 7.305 5.572 7.652 5.572 8 5.572 8.348 5.572 8.696 5.572 8.696 4.875 8.696 4.179 8.696 3.482 8.696 2.786 8.696 2.09 9.043 2.09 9.043 1.393 8.696 1.393z" transform="translate(-534 -827) translate(506 749) translate(28 78)"/>
                    <path fill="#231F20" d="M4.522 9.751L4.174 9.751 4.174 9.054 3.826 9.054 3.479 9.054 3.479 9.751 3.826 9.751 4.174 9.751 4.174 10.447 4.522 10.447 4.87 10.447 4.87 9.751zM9.043 1.393L9.043 2.09 9.392 2.09 9.392 2.786 9.739 2.786 9.739 3.482 10.087 3.482 10.435 3.482 10.435 2.786 10.087 2.786 10.087 2.09 9.739 2.09 9.739 1.393 9.392 1.393zM10.783 12.537L10.783 11.84 10.435 11.84 10.087 11.84 10.087 12.537 10.435 12.537zM9.043 11.84L9.043 12.537 8.696 12.537 8.348 12.537 8.348 11.84 8 11.84 8 12.537 7.652 12.537 7.652 13.233 8 13.233 8 13.929 8.348 13.929 8.696 13.929 9.043 13.929 9.043 13.233 9.392 13.233 9.739 13.233 10.087 13.233 10.087 12.537 9.739 12.537 9.392 12.537 9.392 11.84zM6.609 11.84L6.609 12.537 6.956 12.537 7.304 12.537 7.304 11.84 6.956 11.84zM11.479 11.84L11.479 11.144 11.13 11.144 10.783 11.144 10.783 11.84 11.13 11.84zM9.392 11.84L9.739 11.84 9.739 11.144 9.392 11.144zM6.261 11.144L5.913 11.144 5.913 11.84 6.261 11.84 6.609 11.84 6.609 11.144zM12.174 11.144L12.174 10.447 12.522 10.447 12.87 10.447 12.87 9.751 12.522 9.751 12.174 9.751 12.174 10.447 11.826 10.447 11.479 10.447 11.479 11.144 11.826 11.144zM8 10.447L7.652 10.447 7.652 9.751 7.304 9.751 7.304 9.054 6.957 9.054 6.957 9.751 6.957 10.447 7.304 10.447 7.304 11.144 7.652 11.144 7.652 11.84 8 11.84 8 11.144zM5.566 10.447L5.217 10.447 5.217 11.144 5.566 11.144 5.913 11.144 5.913 10.447zM13.217 9.054L13.217 9.751 13.565 9.751 13.913 9.751 13.913 9.054 13.565 9.054zM13.913 8.358L13.913 9.054 14.261 9.054 14.609 9.054 14.609 8.358 14.261 8.358zM10.435 9.054L10.087 9.054 10.087 9.751 9.739 9.751 9.739 10.447 9.739 11.144 10.087 11.144 10.087 10.447 10.435 10.447 10.435 9.751 10.783 9.751 10.783 9.054 10.783 8.358 10.435 8.358zM3.13 8.358L2.783 8.358 2.783 9.054 3.13 9.054 3.478 9.054 3.478 8.358zM14.609 7.661L14.609 8.358 14.957 8.358 15.305 8.358 15.305 7.661 14.957 7.661zM10.783 8.358L11.13 8.358 11.13 7.661 10.783 7.661zM6.957 7.661L6.609 7.661 6.261 7.661 6.261 8.358 6.609 8.358 6.609 9.054 6.957 9.054 6.957 8.358zM2.435 7.661L2.087 7.661 2.087 8.358 2.435 8.358 2.783 8.358 2.783 7.661zM15.305 6.965L15.305 7.661 15.652 7.661 16 7.661 16 6.965 15.652 6.965z" transform="translate(-534 -827) translate(506 749) translate(28 78)"/>
                    <path fill="#231F20" d="M4.174 0v.697h.348V2.09h.348v1.392h.347V4.875h.349v.697H1.043v-.697H.696v.697H0v.696h.347v.697h.696v.696h.696v-.696h-.696v-.697H5.913v.697h.348v.696h.348V6.268H6.26h4.869V7.661h.349v-.696h.347v-.697H16.348v.697h.348v-.697h.696v-.696h-.696v-.697h-.348V4.18h-.696v.696H16v.697H12.174V4.179h.348V2.09h.348V.697h.348V0H4.174zm4.174 1.393h1.043V.697h3.131v.696h-.348V3.482h-.348v2.09h-.347v-.697h-.349v.697H6.61v-.697H6.26v.697h-.348V4.179h-.347V2.786h-.349V1.393H4.87V.697H8v.696h.348z" transform="translate(-534 -827) translate(506 749) translate(28 78)"/>
                    <path fill="#231F20" d="M10.783 4.875L11.13 4.875 11.13 4.179 10.783 4.179zM6.609 4.875L6.957 4.875 6.957 4.179 6.609 4.179zM1.739 4.875L1.739 4.179 2.087 4.179 2.087 3.482 1.739 3.482 1.391 3.482 1.391 4.179 1.044 4.179 1.044 4.875 1.391 4.875zM10.435 4.179L10.783 4.179 10.783 3.483 10.435 3.483zM14.957 3.482L14.957 4.179 15.304 4.179 15.652 4.179 15.652 3.482 15.304 3.482 15.304 2.786 14.957 2.786 14.609 2.786 14.609 3.482zM6.957 2.786L6.957 3.482 6.957 4.179 7.304 4.179 7.304 3.482 7.652 3.482 7.652 2.786 7.304 2.786zM2.435 2.786L2.783 2.786 3.13 2.786 3.13 2.09 2.783 2.09 2.435 2.09 2.435 2.786 2.087 2.786 2.087 3.482 2.435 3.482zM7.652 2.09L7.652 2.786 8 2.786 8 2.09 8 1.393 7.652 1.393zM3.826 2.09L3.826 1.393 3.479 1.393 3.13 1.393 3.13 2.09 3.479 2.09zM13.565 1.393L13.565 2.09 13.913 2.09 13.913 2.786 14.261 2.786 14.609 2.786 14.609 2.09 14.261 2.09 14.261 1.393 13.913 1.393 13.913.697 13.565.697 13.218.697 13.218 1.393zM4.174 1.393L4.174.697 3.826.697 3.478.697 3.478 1.393 3.826 1.393z" transform="translate(-534 -827) translate(506 749) translate(28 78)"/>
                    <path fill="#FEFEFE" d="M12.174 9.75L12.522 9.75 12.522 9.054 12.174 9.054zM14.261 6.965L13.913 6.965 13.913 7.661 13.565 7.661 13.218 7.661 13.218 8.358 12.87 8.358 12.87 9.054 13.218 9.054 13.565 9.054 13.565 8.358 13.913 8.358 14.261 8.358 14.261 7.661 14.609 7.661 14.957 7.661 14.957 6.965 14.609 6.965zM10.087 4.179L9.739 4.179 9.739 3.482 9.392 3.482 9.392 2.786 9.043 2.786 9.043 2.09 8.696 2.09 8.696 2.786 8.696 3.482 8.696 4.179 8.696 4.875 8.696 5.572 9.043 5.572 9.392 5.572 9.739 5.572 10.087 5.572 10.435 5.572 10.435 4.875 10.087 4.875zM15.652 4.875L15.652 4.179 15.305 4.179 14.957 4.179 14.957 3.482 14.609 3.482 14.609 2.786 14.261 2.786 13.913 2.786 13.913 2.09 13.565 2.09 13.565 2.786 13.565 3.482 13.913 3.482 13.913 4.179 13.913 4.875 14.261 4.875 14.261 5.572 14.609 5.572 14.957 5.572 15.305 5.572 15.652 5.572 16 5.572 16 4.875zM13.217 2.09L13.565 2.09 13.565 1.393 13.217 1.393z" transform="translate(-534 -827) translate(506 749) translate(28 78)"/>
                </g>
            </g>
        </g>
    </g>
</svg>
