<svg xmlns="http://www.w3.org/2000/svg" xmlns:xlink="http://www.w3.org/1999/xlink" width="26" height="26" viewBox="0 0 26 26">
    <defs>
        <path id="squl3jll7a" d="M0.013 0.005L4.836 0.005 4.836 0.5 0.013 0.5z"/>
        <path id="c0qwovavhc" d="M0.013 0.012L1.462 0.012 1.462 0.972 0.013 0.972z"/>
        <path id="5qbil3xo0e" d="M0.013 0.006L0.488 0.006 0.488 0.491 0.013 0.491z"/>
    </defs>
    <g fill="none" fill-rule="evenodd">
        <g>
            <g>
                <g>
                    <path fill="#B34100" d="M3.358 0L3.358 1.891 1.89 1.891 1.89 3.531 0 3.531 0 22.218 1.89 22.218 1.89 24.109 3.358 24.109 3.358 26 22.32 26 22.32 24.109 23.789 24.109 23.789 22.218 26 22.218 26 3.531 23.789 3.531 23.789 1.891 22.32 1.891 22.32 0z" transform="translate(-926 -736) translate(838 736) translate(88)"/>
                    <path fill="#E06F00" d="M1.083 4.694L3.01 4.694 3.01 3.017 4.506 3.017 4.506 1.083 21.166 1.083 21.166 3.017 22.663 3.017 22.663 4.694 24.917 4.694 24.917 21.05 22.663 21.05 22.663 22.983 21.166 22.983 21.166 24.917 4.506 24.917 4.506 22.983 3.01 22.983 3.01 21.05 1.083 21.05z" transform="translate(-926 -736) translate(838 736) translate(88)"/>
                    <g>
                        <g transform="translate(-926 -736) translate(838 736) translate(88) translate(4.333 6.5) translate(3.836 13.486)">
                            <mask id="6ykab0e06b" fill="#fff">
                                <use xlink:href="#squl3jll7a"/>
                            </mask>
                            <path fill="#231F20" d="M4.834.007V.5H.015V.006L.013.01C.03.008.047.005.065.005h4.479c.097 0 .195.003.292.004L4.834.007z" mask="url(#6ykab0e06b)"/>
                        </g>
                        <path fill="#231F20" d="M6.741 3.873h1.925V1.945h.487l-.002-.003.002 2.355c0 .016-.006.033-.01.05h-2.4v-.476l-.002.002zM.476 5.317H0V3.878h.958v-.489l-.002.003h.488v.964h.472v.475H.953v-.468h-.48v.957l.003-.003zM15.88 3.39v3.374h-.483l.003.002c-.002-.01-.005-.02-.005-.031l.001-3.258c0-.027.006-.054.01-.085h.476l-.003-.003zM11.061.499L11.061.023 13.469.023 13.469.499 13.471.496 11.058.496zM16.843.979v.966l.003-.003h-.485v.485l.002-.002h-.957v-.488h.475v-.479h.482v-.48l-.002.003h.485L16.843.98zM3.851 13.492L1.922 13.492 1.922 13.009 1.92 13.012 3.848 13.012 3.848 13.494zM.958 12.047v-.482h1.928l-.002-.002v.474c-.023.006-.033.01-.043.01l-1.885-.002.002.002zM3.368 10.117L1.923 10.117 1.923 9.635 1.92 9.638 2.408 9.638 2.408 9.158 2.891 9.158 2.891 9.639 3.366 9.639 3.366 10.12z" transform="translate(-926 -736) translate(838 736) translate(88) translate(4.333 6.5)"/>
                        <g transform="translate(-926 -736) translate(838 736) translate(88) translate(4.333 6.5) translate(15.384 .009)">
                            <mask id="htoplbg6pd" fill="#fff">
                                <use xlink:href="#c0qwovavhc"/>
                            </mask>
                            <path fill="#231F20" d="M.015.972v-.48h.963v-.48h.481V.49l.003-.002H.977v.484L.98.97H.013l.002.002z" mask="url(#htoplbg6pd)"/>
                        </g>
                        <path fill="#231F20" d="M13.951.981h1.448l-.002-.003v.478h-1.443V.978l-.003.003zM2.886 11.565L2.886 11.083 4.332 11.083 4.33 11.081 4.33 11.563 2.884 11.563zM.476 2.907H0V1.463h.476L.474 1.46v1.45l.002-.003zM14.915 7.707L14.915 9.153 14.433 9.153 14.435 9.155 14.435 7.709 14.918 7.709zM2.404 8.191L2.404 7.711 1.922 7.711 1.922 7.225 1.92 7.227 2.879 7.227 2.879 8.188 2.402 8.188zM5.295 3.391L6.741 3.391 6.741 3.873 6.743 3.871 5.297 3.871 5.297 3.389z" transform="translate(-926 -736) translate(838 736) translate(88) translate(4.333 6.5)"/>
                        <path fill="#231F20" d="M3.849 2.909L5.295 2.909 5.295 3.391 5.297 3.389 3.851 3.389 3.851 2.907zM10.094 13.01v.482H8.67l.003.002v-.482h1.425l-.003-.002zM1.44 6.763H.958V5.8l-.002.003c.136-.001.272 0 .407-.005.06-.001.08.022.079.08-.003.296-.003.593-.004.89l.002-.004zM.476 1.463L.476.499.958.499.956.496.956 1.46.474 1.46z" transform="translate(-926 -736) translate(838 736) translate(88) translate(4.333 6.5)"/>
                        <path fill="#231F20" d="M11.058 12.527L11.058 13.01 10.094 13.01 10.097 13.012 10.097 12.53 11.061 12.53zM1.922 13.009L.958 13.009.958 12.527.956 12.53 1.92 12.53 1.92 13.012z" transform="translate(-926 -736) translate(838 736) translate(88) translate(4.333 6.5)"/>
                        <path fill="#231F20" d="M12.023 12.045L12.023 12.527 11.058 12.527 11.061 12.53 11.061 12.048 12.025 12.048zM4.332 11.083L4.333 10.599 4.33 10.602 5.289 10.602 5.289 11.081 4.33 11.081z" transform="translate(-926 -736) translate(838 736) translate(88) translate(4.333 6.5)"/>
                        <path fill="#231F20" d="M4.333 10.599L3.368 10.599 3.368 10.117 3.366 10.12 4.33 10.12 4.33 10.602zM14.433 9.153L14.433 10.117 13.951 10.117 13.953 10.12 13.953 9.155 14.435 9.155zM10.096.981L10.096.499 11.061.499 11.058.496 11.058.978 10.094.978zM1.439 8.19h.965l-.002-.002v.483h-.964l.002.002v-.485l-.001.003zM15.397 6.764L15.397 7.707 14.915 7.707 14.918 7.709 14.918 6.766 15.4 6.766z" transform="translate(-926 -736) translate(838 736) translate(88) translate(4.333 6.5)"/>
                        <path fill="#231F20" d="M9.614 1.463L9.614.981 10.096.981 10.094.978 10.094 1.46 9.612 1.46zM.958 5.8H.476v-.483l-.002.003h.482v.482l.002-.003zM2.402 1.463L2.884 1.463 2.884 1.945 2.887 1.943 2.405 1.943 2.405 1.46zM.958 8.671L.483 8.671.483 8.191.958 8.191.956 8.188.956 8.673zM13.469.499L13.951.499 13.951.981 13.954.978 13.471.978 13.471.496z" transform="translate(-926 -736) translate(838 736) translate(88) translate(4.333 6.5)"/>
                        <path fill="#231F20" d="M1.44 9.153H.958V8.67l-.002.002h.484l-.002-.002v.484l.002-.002zM1.923 9.635L1.44 9.635 1.44 9.153 1.438 9.155 1.92 9.155 1.92 9.637zM2.884 1.945L3.367 1.945 3.367 2.427 3.369 2.425 2.887 2.425 2.887 1.942zM16.361 2.907L16.361 3.389 15.879 3.389 15.882 3.392 15.882 2.91 16.364 2.91zM13.951 10.117L13.951 10.599 13.469 10.599 13.471 10.602 13.471 10.12 13.953 10.12z" transform="translate(-926 -736) translate(838 736) translate(88) translate(4.333 6.5)"/>
                        <g transform="translate(-926 -736) translate(838 736) translate(88) translate(4.333 6.5) translate(16.83 .49)">
                            <mask id="xw2cj8nrsf" fill="#fff">
                                <use xlink:href="#5qbil3xo0e"/>
                            </mask>
                            <path fill="#231F20" d="M0.013 0.008L0.488 0.008 0.488 0.488 0.013 0.488 0.016 0.491 0.016 0.006z" mask="url(#xw2cj8nrsf)"/>
                        </g>
                        <path fill="#231F20" d="M13.469 10.599L13.469 11.081 12.987 11.081 12.989 11.084 12.989 10.602 13.471 10.602zM1.92.981L2.402.981 2.402 1.463 2.405 1.46 1.923 1.46 1.923.978z" transform="translate(-926 -736) translate(838 736) translate(88) translate(4.333 6.5)"/>
                        <path fill="#231F20" d="M12.987 11.081L12.987 11.563 12.505 11.563 12.507 11.566 12.507 11.084 12.989 11.084zM1.438.499L1.92.499 1.92.981 1.923.978 1.441.978 1.441.496z" transform="translate(-926 -736) translate(838 736) translate(88) translate(4.333 6.5)"/>
                        <path fill="#231F20" d="M12.505 11.563L12.505 12.045 12.023 12.045 12.025 12.048 12.025 11.566 12.507 11.566zM.958 12.527H.483v-.48h.475l-.002-.002v.485l.002-.003zM.958 3.389L.476 3.389.476 2.907.474 2.91.956 2.91.956 3.392zM16.843 2.425v.482h-.482l.003.003v-.485l-.003.002h.485l-.003-.002zM3.367 2.427L3.849 2.427 3.849 2.909 3.851 2.907 3.369 2.907 3.369 2.425z" transform="translate(-926 -736) translate(838 736) translate(88) translate(4.333 6.5)"/>
                        <path fill="#231F20" d="M16.843 1.945L17.319 1.945 17.319 2.425 16.843 2.425 16.846 2.427 16.846 1.942zM.958.499V.023h.48V.5l.003-.003H.956L.958.5zM.958 8.19v-.475h.48v.476l.003-.003H.956l.002.003zM1.922 7.225L1.44 7.225 1.44 6.763 1.438 6.766 1.92 6.766 1.92 7.227zM9.153 1.945L9.153 1.463 9.614 1.463 9.612 1.46 9.612 1.942 9.151 1.942z" transform="translate(-926 -736) translate(838 736) translate(88) translate(4.333 6.5)"/>
                        <path fill="#FEFEFE" d="M9.15 1.942h.462V1.46h.482V.978h.964V.496h2.413v.482h.483v.478h1.443V.978h.966v.48h-.482v.479h-.475v.488h.957v.485h-.481v.482h-.476c-.004.031-.01.058-.01.085v3.258c0 .01.002.02.004.031h-.482v.943h-.483v1.446h-.482v.965h-.482v.482h-.482v.482h-.482v.482h-.482v.482h-.964v.482h-.964v.482H8.672v.482c-.098-.001-.195-.003-.293-.003H3.9l-.052.003v-.482H1.92v-.482H.956v-.485l1.885.002c.01 0 .02-.004.043-.01v-.474H4.33v-.482h.96v-.48h-.96v-.481h-.964v-.481h-.475v-.48h-.483v.478H1.92v-.482h-.482v-.484h.964v-.483h.477v-.96h-.96v-.462h-.481c0-.296 0-.593.004-.89 0-.057-.02-.08-.079-.079-.135.004-.271.004-.407.005V5.32H.474v-.957h.48v.468h.962v-.475h-.472v-.964H.956V2.91H.474V1.46h.482V.496h.485v.482h.482v.482h.482v.482h.482v.483h.482v.482h.482v.482h1.446v.482h1.446v.477h2.4c.004-.018.01-.035.01-.051l-.002-2.355" transform="translate(-926 -736) translate(838 736) translate(88) translate(4.333 6.5)"/>
                        <path fill="#FEFEFE" d="M16.846 1.942v.485h-.485v-.485h.485zM16.846.496v.485h-.485V.496h.485zM.956 8.188h.485v.485H.955v-.485z" transform="translate(-926 -736) translate(838 736) translate(88) translate(4.333 6.5)"/>
                    </g>
                </g>
            </g>
        </g>
    </g>
</svg>
