<svg xmlns="http://www.w3.org/2000/svg" width="181" height="133"><defs><path id="b" d="M.25.125h.125V.25H.25z"/><path id="c" d="M1.402.701h.701v.701h-.701z"/><path id="d" d="M1.402.701h.701v.701h-.701z"/><path id="e" d="M1.402.701h.701v.701h-.701z"/><path id="f" d="M.25.125h.125V.25H.25z"/><path id="g" d="M.286.143h.143v.143H.286z"/><path id="h" d="M.571.286h.286v.285H.571z"/><path id="i" d="M.571.286h.286v.285H.571z"/><path id="j" d="M.571.286h.286v.285H.571z"/><path id="k" d="M.286.143h.143v.143H.286z"/><filter id="a" width="100%" height="100%" x="0%" y="0%" filterUnits="objectBoundingBox"><feGaussianBlur in="SourceGraphic"/></filter></defs><g fill="none" fill-rule="evenodd"><path fill="#000" d="M25.273 115v-5h-15v5h15zm-25-15v5h5v5h5v-5h-5v-5h-5zm0-40v40h5V60h-5z"/><path fill="#FF9836" d="M.273 50v10h5l.001-5h4.999v-5h-10z"/><path fill="#AA2D21" d="M25.273 110v-5h-15V95h-5v10h5v5h15z"/><path fill="#4F1513" d="M20.273 95v-5h-15v5h15z"/><path fill="#751F17" d="M10.273 80h-5v10h15v5h-10v10h15V70h-4.999l-.001-5h-5v-5h-10v10h5-5v10h5zm-5-25v5h5v-5h-5z"/><path fill="#000" d="M85.273 50h-5V40h-5v20h10V50zm-80-10v10h5V40h-5zm0-10v10h5V30h-5zm70 0v10h5V30h-5zm-60-20v5h-5v15h5V15h5v-5h-5zm55 0v10h5v10h5V20h-5V10h-5zm-45-10v5h-5v5h5V5h40v5h5V5h-5V0h-40z"/><path fill="#4D0C0A" d="M45.273 100v-5H30.274l-.001-25-4.999-.001L25.273 65h-5v-5h-5v5h5v5h5v45h5l.001-15h14.999zm-35-45v5h5v-5h-5z"/><path fill="#000" d="M40.273 80v5h20v-5h-20zm-10-10v5h5v5h5v-5h-5v-5h-5zm35 0v5h-5v5h5v-5h5v-5h-5zm-40-5v5h5v-5h-5zm50-5h-5v10h5V60zm-55 0v5h5v-5h-5zm-10-10v5h5v5h5v-5h-5v-5h-5z"/><path fill="#5C261F" d="M40.273 75v5h20v-5h-20zm-15-15v5h5v5h5v5h30v-5h5V60h-45zm-15-20v10h5v5h5v5h50V45h-35v-5h-25zm65 5h-5v15h5V45zm-50-40v4.999l-5 .001v5h-5v15h-5v10h20v-5h-10V20h10v-5h5v-5h15V5h-25zm25 0v5h15V5h-15z"/><path fill="#FFCCA8" d="M50.273 40v5h10v-5h-10zm-15-25v5h15v5h-5v10h-5v-5h-5 5v-5h-5v-5h-5v15h5v5h5v5h5l.001-5h4.999v-5h10v5h5v5h5l.001-5h4.999V25h-5l.001 10h-5.001V25h-5v-5h10v-5h-35zm-15 10v10h5V25h-5z"/><path fill="#4C1C19" d="M35.273 40v5h5v-5h-5zm25 0v5h5v-5h-5zm10 0v5h5v-5h-5zm-40-5v5h5v-5h-5zm-10-15v5h5v10h5V20h-10zm10-5v5h5v-5h-5zm5-5v5h15v-5h-15zm15 0v5h20v-5h-20z"/><path fill="#000" d="M40.273 130v-5h-5v-5h-10v10h15z"/><path fill="#2F5617" d="M35.273 120v-5h-10v5h10z"/><path fill="#379B37" d="M30.273 105v10h5v-5h15v-5h-20zm35 5v-5h-15v5h15z"/><path fill="#2F5617" d="M30.273 100v5h20v-5h-20zm35 5v-5h-15v5h15z"/><path fill="#AA2D21" d="M30.273 90v5h15v-5h-15zm35 5v-5h-10v5h10z"/><path fill="#379B37" d="M40.273 90v-5h-5v-5h-5v10h10z"/><path fill="#2F5617" d="M40.273 85v5h10v-5h-10zm10 0v5h10v-5h-10zm-15-5v5h5v-5h-5zm25 0v5h5v-5h-5zm-30-5v5h5v-5h-5zm5 35v5h15v-5h-15zm30 5v-5h-15v5h15z"/><path fill="#4C1C19" d="M35.273 20v5h15v-5h-15zm25 0v5h10v-5h-10zm10 0v5h5v-5h-5z"/><path fill="#2F1312" d="M45.273 25h-5v10h5V25z"/><path fill="#FF9836" d="M45.273 90v10h5V90h-5zm10 0h-5v10h5V90z"/><path fill="#3E1712" d="M50.273 45h-5v-5h5zm10-5v-5h-10v5h10z"/><path fill="#751F17" d="M45 110V95h4.999H45V80h10v30-10h5v15H50v-5h-5zm10-30H45V60h5v14.999V70h5v4.999L60 75v20h10v5H55V75h-.001L55 80z" filter="url(#a)" transform="matrix(-1 0 0 1 125.273 0)"/><path fill="#379B37" d="M65.273 90h-5v-5h5z"/><path fill="#000" d="M65.273 120v10h5v-10h-5zm15 10v-5h-4.999l-.001-5h-5v10h10z"/><path fill="#2F5617" d="M75.273 120v-5h-10v5h10z"/><path fill="#2F1312" d="M70.273 25h-5v10h5V25z"/><path fill="#000" d="M75.273 110v5h5v-5h-5zm5-30v30h5V80h-5zm0-15v15h5V65h-5zm5 10v5h5v-5h-5z"/><path fill="#751F17" d="M85.273 65h-5v-5h5z"/><path fill="#FF9836" d="M85.273 50h-5v-5h5z"/><path fill="#2F5617" d="M90.273 65h-5v10h5V65z"/><path fill="#000" d="M90.273 85v20h5V85h-5zm0-5v5h5v-5h-5zm0-35v20h5V45h-5zm10 0v5h5v10h10v-5h-5v-5h-5v-5h-5zm25-15h-5v20h-5v5h5v-5h5V30zm-25 0v5h5v-5h-5zm-10-5v5h10v-5h-10zm15-5v10h5v-5h5v5h5v-5h-5v-5h-10z"/><path fill="#ECB590" d="M95.273 80h-5v-5h5zm0-5h-5v-5h5zm0-5h-5v-5h5z"/><path fill="#85969A" d="M110.273 50v5h5v-5h-5zm5-20v5h-5v-5h-5v4.999l-5 .001v-5h-10v15h15v5h5v-5h5v5h5v-5h-5V35h5v-5h-5zm-5-5v5h5v-5h-5z"/><path fill="#000" d="M94.818 29.545h-4.727v15.364h4.727z"/><path fill="#4D0C0A" d="M95.273 80v20h5V80h-5zm0-20v5h5v-5h-5zm5-15h-5v15h5V45z"/><path fill="#ECB590" d="M100.273 80h-5v-5h5z"/><path fill="#F6BE96" d="M100.273 75h-5v-5h5zm0-5h-5v-5h5z"/><path fill="#FFF" d="M110.273 45v5h5v-5h-5zm5 0h5V35h-5v-5h-5v5h5v10z"/><g><path fill="#F1A12C" d="M153.041 123.06h.994v-.928h-.994zm.994-2.785h.995v-.927h-.995z"/><path fill="#F5EBC6" d="M134.154 110.994h.994v-.928h-.994z"/><path fill="#F1A12C" d="M158.011 107.282h-2.981v10.208h-.995v1.858h-.994v.927h-.994v.929h-.994v1.856h-1.988v.928h-.994v.928h-1.988v.929h3.976v-.929h1.988v-.928h.994v-1.856h.994v.928h.995v-1.856h.994v-.929h.994v-1.855h.993v-1.856h.995v-9.282h-.995zm-3.975 12.993h.994v-.928h-.994v.928z"/><path fill="#231F20" d="M148.071 124.894v.022h-1.988v.929h3.976v-.929h1.988v-.022z"/><path fill="#FEFEFE" d="M153.041 105.426h.994v-.928h-.994z"/><path fill="#FBCA25" d="M134.154 108.21v-1.857h.994v-.927h.994v-.928h.994v-.929h.994v-.928h7.953v.928h.994v.929h.994v.928h.994v.927h.994v1.857h.994v7.425h-.994v1.857h-.994v.927h-.994v.929h-.994v.927h-.994v.929h-7.953v-.929h-.994v-.927h-.994v-.929h-.994v-.927h-.994v-1.857h-.994v-7.425h.994zm18.887-.928v-2.784h-.994v-.929h-.994v-.928h-.994v-.928h-.994v-.928h-.994v-.928h-1.988v-.929h-7.953v.929h-1.988v.928h-.994v.928h-.994v.928h-.994v.928h-.994v1.857h-.994v1.856h-.994v9.281h.994v1.856h.994v1.856h.994v.929h.994v.928h.994v.928h.994v.928h1.988v.928h7.953v-.928h1.988v-.928h.994v-.928h.994v-.928h.994v-.929h.994v-.927h.994v-1.856h.995v-10.21h-.995z"/><path fill="#FBCA25" d="M136.142 107.282h-.994v7.425h.994v1.856h.994v.929h.994v.927h1.988v.929h4.971v-.929h1.988v-.927h.994v-.929h.994v-1.856h.994v-5.569h-.994v-2.785h-.994v-.927h-.994v-.928h-1.988v-.929h-5.965v.929h-1.988v.928h-.994v.927z"/><path fill="#F1A12C" d="M157.018 104.498V102.641h-.994v.928h-1.988V106.353h.994v-.927h1.988v1.856h.994V104.498zM146.083 98v.928h1.988v.929h.994v.928h.994v.928h.994v.928h4.971v-.928h-.994v-.928H153.041v-.928h-.994v-.929h-1.988V98z"/><path fill="#F1A12C" d="M157.018 104.498V102.641h-.994v.928h-1.988V106.353h.994v-.927h1.988v1.856h.994V104.498z"/><path fill="#231F20" d="M154.035 103.618h.995-.995zm2.983.88V102.641h-.994V104.498h.994v2.784h.994V104.498zm-4.971-3.713h.994v-.928h-.994zm.994.928H155.03v-.928H153.041zm-1.988-1.856h.994v-.928h-1.988v.928zm3.977 2.784h.994v-.928h-.994zM146.083 98v.928h3.976V98zM149.065 123.109h.994-.994zM146.083 124.965h.994-.994zm6.958-4.689h.994v-.928h-.994zm1.989-12.946h.994-.994zm3.39-.048v9.281h1.402v-9.281h-1.402zm-1.402.048h1.401-1.401zm-2.983 13.874v1.856h.995v-1.856zm.995 0h.994v-.929h-.994zm1.988-4.641v1.856h-.994v1.856h.994v-1.856h.994v-1.856zm-7.953 9.282h.994v-.929h-.994zm3.976-2.785v-.928h-.994v1.856h.994zm-1.988 1.856h.994v-.928h-.994zm-3.976-.928h-.994v.928h-7.953v.929H146.083v-.929h1.988v-.928zm.994 0h.994v-.928h-.994zm1.988-1.856h-.994v.928h1.988v-1.856h-.994zm.994-.928h.994v-.929h-.994zm.994-.929h.994v-.927h-.994zm.994-1.856v.929h.995v-1.856h-.995zm.994-10.209v9.282h.995V108.21zm-.994-1.857v.929h.995v-1.856h-.995zm-.994-1.856h.994v-.928h-.994zm-4.97 14.851h.994v-.929h-.994zm1.988-11.138v.928h.994v5.569h-.994v1.856h-.994v1.856h.994v-.927h.994V115.635h.994v-7.425h-.994V106.353h-.994v.929zm-.994-1.857h.994v-.927h-.994zm-.994-.928h.994v-.928h-.994zm3.976-1.856h.994v-.928h-.994zm-.994-.928h.994v-.928h-.994zm-.994-.928h.994v-.928h-.994zm-.994-.928h.994v-.928h-.994zm-1.988-.928h1.988v-.928h-1.988zm-8.947 24.131h-.994v.928h1.988v-.928zm-1.988 0h.994v-.928h-.994zm-.994-1.856v-.928h-.994v1.856h1.988v-.928zm-1.988-.928h.994v-.929h-.994zm6.959 0H146.083v-.929h.994v-.927h-1.988v.927H139.125v-.927H137.136v.927h.994v.929zm-2.983-1.856h.994v-.929h-.994zm-3.976-.929h-.994v1.856h.994v-.927zm-.994-1.856h-.994v1.856h.994v-.927zm-1.989-8.353v7.425h.995v-7.425zm6.959 8.353h-.994v-1.856h-.994v-5.569h.994v-1.856h.994v-1.856h-.994v.927h-.994V108.21h-.994v7.425h.994V117.492h.994v.927h.994v-.927zm-4.97-10.21v-.927h-.994v1.856h.994zm4.97-.928h.994v-.928h-.994zm-3.976-.927v-.929h-.994V105.426h.994zm6.959 0v-.929H145.089v.929h1.988v-.929h-.994v-.928h-7.953v.928h-.994v.929h.994zm-6.959-.929h.994v-.928h-.994zm.994-.928h.994v-.928h-.994zm.994-.928h.994v-.928h-.994zm.994-.928h.994v-.928h-.994zm2.982-.928v-.928h-1.988v.928h.994zm0-1.857v.928H146.083V98z"/><path fill="#FEFEFE" d="M156.024 105.426h-.994v.927h-.995V108.21h.995v-.928h1.988v-1.856zm-.994-2.785H152.047v.928h.994v.928h.994v-.928H156.024v-.928zm-11.93 16.707h-2.982v-.929h-1.988v-.927h-.994v-.929h-.994v1.856h.994v.929H139.125v.927H145.089v-.927h-.994zm1.989-.929v.929h1.988v-.929h-.994zm1.988 0h.994v-.927h-.994zm-10.935-3.712h-.994v1.856h.994v-.928zm-.994-1.856V110.994h-.994v3.713h.994v-.928zm-.994-2.785h.994v-.928h-.994z"/><g><path fill="#283030" d="M104.784 132.123h1.021v-2.045h-1.021z"/><path fill="#181F1F" d="M99.681 130.078h1.02v-2.044h-1.02z"/><path fill="#242324" d="M109.888 117.815h1.021v-2.044h-1.021z"/><path fill="#242425" d="M98.659 117.815h1.022v-2.044h-1.022z"/><path fill="#5A95A8" d="M83.347 113.727h1.021v-2.044h-1.021z"/><path fill="#4E6368" d="M111.93 107.595h1.021v-2.044h-1.021z"/><path fill="#C1DEEA" d="M107.847 105.551h1.02v-2.044h-1.02z"/><path fill="#59767E" d="M96.617 105.551h1.021v-2.044h-1.021z"/><path fill="#5C92A4" d="M97.638 103.507h1.021v-2.044h-1.021z"/><path fill="#1E2525" d="M85.389 101.463h1.021v-2.044h-1.021z"/><path fill="#59686C" d="M114.992 99.419h1.021v-2.044h-1.021z"/><path fill="#C4DFEA" d="M104.784 99.419h1.021v-2.044h-1.021z"/><path fill="#232425" d="M99.681 99.419h1.02v-2.044h-1.02z"/><path fill="#242526" d="M101.722 97.375h1.021v-2.044h-1.021z"/><path fill="#00B5E2" d="M100.701 123.947h-1.02v-2.045h-1.022v-4.087h-1.02v-2.044h-1.021v-4.089h-1.021v-2.043H81.306v2.043h3.062v2.045h2.042v2.044h2.041v2.044h2.042v2.044h2.041v2.043H95.597v2.045h2.042v2.044h2.042v2.044h2.041v-2.044h-1.021zm6.125 0v-4.088h1.021v-2.044h1.021v-2.044h1.02v-2.044h1.021v-4.088H97.639v4.088h1.02v2.044h1.022v4.088h1.02v2.043h1.021v4.089h1.021v2.044h2.041v-2.044h1.021v-2.044zm9.187-4.088h1.021v-2.044h-1.021zm2.042-2.044h1.02v-2.044h-1.02zm2.041-2.044h1.021v-2.044h-1.021zm2.042-2.044h1.02v-2.045h-1.02zm3.062-2.044h1.021v-2.044H125.2z"/><path fill="#00B5E2" d="M119.075 109.639h-6.124v2.044h-1.021v2.044h-1.021v4.088h-1.021v2.044h-1.02v2.043h-1.021v2.045h-1.021v2.044h-1.021v2.043h2.042v-2.043h2.041v-2.044h2.042v-2.045h2.042v-4.087h2.041v-2.044h1.021v-2.044h2.041v-2.044h2.042v-2.044h-1.021zm-12.249-12.264h1.021v2.044h1.021v2.044h1.02v2.044h1.021v2.044h2.042v-4.088h1.021v-6.132h1.02v-2.044H105.805v2.044h1.021zm-13.27 0v2.044h1.02v2.044h1.021v4.088h1.021v-2.044h1.02v-2.044h1.021v-2.044h1.022v-2.044h1.02v-2.044h1.021v-2.044H92.534v2.044h1.022z"/><path fill="#78CBED" d="M114.992 119.859h1.021v-2.044h-1.021zm8.166-10.22h-2.041v2.044h4.083v-2.044h-1.02zm-27.561-2.044h1.02v-2.044h-1.02zm23.478-4.088v-2.044h-1.02v-4.088h-1.021v-4.088h-1.021v6.132h-1.021v4.088h-1.02v4.088h6.124v-2.044h-1.021zm-9.187 0h-1.02v4.088h2.041v-2.044h-1.021zm-16.332 0v-2.044h-1.022v-4.088h-1.02v-4.088h-1.021v2.044h-1.021v2.044H87.43v2.044h-1.02v2.044h-2.042v2.044h-1.021v2.044h-2.041v2.044H94.576v-2.044h-1.02zm14.291-2.044h-1.021v2.044h2.042v-2.044zm-13.271 2.044h1.021v-2.044h-1.021zm11.229-2.044h1.021v-2.044h-1.021zm-3.062-6.132v2.044h-1.021v2.044h-1.021v2.044h-1.02v2.044h-1.022v2.044h-1.02v2.044h6.125v-10.22h1.02v-2.044h-1.02z"/><path fill="#231F20" d="M91.513 119.859h-1.02v-2.044h-2.042v2.044h2.042v2.044h2.041v-2.044zm13.271-24.527v2.043h1.021v2.044h1.021v2.044h2.042v-2.044h-1.021v-2.044h-1.021v-2.044h-1.021v.001zm5.104 32.703v-2.044h-2.041v2.044h1.021zm-5.104-2.044v2.044h-2.041v-2.044h-1.021v2.044h-1.021v2.043h1.021v2.045h3.062v-2.045H107.847v-2.043h-2.042v-2.044zm-7.145 0v2.044h2.042v-2.044h-1.022zm14.291 0v-2.044h-2.042v2.044h1.021zm-6.125 0h1.021v-2.044h-1.021zm-9.187-2.044h-1.021v2.044h2.041v-2.044zm17.354 0v-2.045h2.041v-2.043h-2.041v2.043h-2.042v2.045h1.021zm-12.25-2.045h-1.021v-2.043h-1.02v-2.044h-1.022v4.087h1.022v2.045h1.02v2.044h1.021v-2.044zm-7.146 0h-1.02v2.045h2.041v-2.045zm22.458-4.087v2.044h2.041v-2.044h-1.02zm2.041-2.044v2.044h2.042v-2.044h-1.021zm-10.207 2.044h-1.021v2.044h-1.021v4.088h1.021v-2.045h1.021v-2.043h1.02v-4.088h-1.02zm-21.438-2.044h-1.02v2.044h2.042v-2.044zm33.687-2.044v2.044h2.041v-2.044h-1.02zm-11.229 2.044h1.021v-2.044h-1.021zm-11.229-2.044h-2.041v2.044h1.021v2.044h1.02v-2.044zm-13.27 0h-1.021v2.044h2.042v-2.044zm37.769-2.045v2.045h2.042v-2.045h-1.02z"/><path fill="#231F20" d="M90.493 91.243v2.044h1.02v4.088h1.021v4.088h1.022v4.088h1.02v2.044h-13.27v-2.045h-1.021v2.044h-2.042v2.044h1.021v2.044h2.042v2.044h2.041v-2.044h-2.041v-2.044h14.291v2.044h1.02v2.044h1.022v-4.088h-1.021 14.291v4.088h1.02v-2.044h1.022v-2.044h13.27v2.044h1.02v-2.044h2.042v-2.044h-2.042v-2.044h-1.02v-2.044h-2.041v2.044h1.02v2.044h-11.228v-4.088h1.02v-6.131h1.02v-4.088h1.022v-2.044h-26.54zm12.25 4.088h3.062l.001-2.044h9.186v2.044h-1.02v6.132h-1.022v6.132h-1.02v-2.045h-1.02v2.044H97.638v-2.044h-1.021v2.044h-1.02v-4.088h-1.022v-4.087h-1.02v-4.088h-1.022v-2.044h9.189v2.044h1.02z"/><path fill="#231F20" d="M109.888 105.551h1.021v-2.044h-1.021zm-12.25 0h1.021v-2.044h-1.021zm-14.291 0v-2.044h1.021v-2.044h-2.041v2.044h-1.021v2.044h1.021zm25.521-2.044h1.02v-2.044h-1.02zm13.27-2.044v2.044h2.042v-2.044h-1.022v-2.044h-2.041v2.044zm-23.479-2.044v4.088h1.022v-2.044h1.02v-2.044h-1.02zm-13.27 0h2.041v-2.044h-2.041v2.044h-1.021v2.044h1.021zm15.312-2.044v2.044h1.021v-4.088h-1.021zm-11.228 0v-2.043h-1.021v-.001H87.43v2.044h1.022zm28.582-2.044v2.044h1.02v2.044h2.042v-2.044h-1.021v-2.044h-1.021v-2.044h-2.041v2.044zm-27.562 0v-2.044h-2.041v2.044h1.02z"/><path fill="#FEFEFE" d="M113.972 119.859h1.02v-2.044h-1.02zm6.124-8.177h-1.021v2.045h-2.041v2.044h-1.021v2.044h2.042v-2.044h2.041v-2.044h2.042v-2.045h-1.021zm-12.249-8.175h-1.021v-2.044h-1.021v-2.044h-1.021v-2.044h-1.02v10.22h5.104v-2.044h-1.021zm16.333 2.044v-2.044h-2.042v-2.044h-1.021v-2.044h-2.042v-2.044h-1.02v4.088h1.02v4.088h1.021v2.044H125.2v-2.044zm-7.146-8.176h1.021v-2.044h-1.021z"/></g></g><g><path fill="#F1A12C" d="M175.595 130.425h.81v-.756h-.81zm.81-2.269h.811v-.756h-.811z"/><path fill="#F5EBC6" d="M160.201 120.591h.81v-.756h-.81z"/><path fill="#F1A12C" d="M179.646 117.565h-2.43v8.322h-.81v1.513h-.81v.756h-.811v.757h-.81v1.512h-1.62v.757h-.81v.756h-1.621v.757h3.24v-.757h1.62v-.756h.811v-1.513h.81v.756h.81v-1.512h.811v-.757h.81v-1.513h.81v-1.513h.81v-7.565h-.81zm-3.24 10.59h.81v-.755h-.81v.757z"/><path fill="#231F20" d="M171.544 131.92v.018h-1.62v.757h3.241v-.757h1.62v-.018z"/><path fill="#FEFEFE" d="M175.595 116.052h.81v-.756h-.81z"/><path fill="#FBCA25" d="M160.2 118.322v-1.514h.811v-.756h.81v-.756h.81v-.757h.81v-.756h6.482v.756h.81v.757h.811v.756h.81v.756h.81v1.514h.81v6.051h-.81v1.514h-.81v.756h-.81v.757h-.81v.756h-.81v.757h-6.484v-.757h-.81v-.756h-.81v-.757h-.81v-.756h-.81v-1.514h-.81v-6.051h.81zm15.395-.757v-2.269h-.81v-.757h-.81v-.756h-.81v-.757h-.81v-.756h-.81v-.757h-1.621v-.756h-6.484v.756h-1.62v.757h-.81v.756h-.81v.757h-.81v.756h-.81v1.513h-.81v1.513h-.81v7.565h.81v1.513h.81v1.513h.81v.757h.81v.756h.811v.757h.81v.756h1.62v.756h6.482v-.756h1.621v-.756h.81v-.757h.81v-.756h.81v-.757h.81v-.756h.811v-1.513h.81v-8.322h-.81z"/><path fill="#FBCA25" d="M161.821 117.565h-.81V123.617h.81v1.513h.811v.757h.81v.756h1.62v.757h4.051v-.757h1.621v-.756h.81v-.757h.81v-1.513h.811V119.078h-.811v-2.27h-.81v-.756h-.81v-.756h-1.621v-.757H164.252v.757h-1.62v.756h-.811v.756z"/><path fill="#F1A12C" d="M178.836 115.296v-1.513h-.81v.756h-1.62v2.269h.81v-.756h1.62v1.513h.81v-2.269zM169.924 110v.757h1.62v.756h.81v.757h.811v.756h.81v.757h4.051v-.757h-.81v-.756h-1.621v-.757h-.81v-.756h-1.62V110z"/><path fill="#F1A12C" d="M178.836 115.296v-1.513h-.81v.756h-1.62v2.269h.81v-.756h1.62v1.513h.81v-2.269z"/><path fill="#231F20" d="M176.405 114.54h.81-.81zm2.431.756v-1.513h-.81v1.513h.81v2.269h.81v-2.269zm-4.051-3.026h.81v-.757h-.81zm.81.756h1.621v-.756h-1.621zm-1.62-1.513h.81v-.756h-1.621v.756zm3.241 2.269h.81v-.756h-.81zM169.924 110v.757h3.241V110zM172.354 130.425h.81-.81z"/><path fill="#231F20" d="M169.924 131.938h.81-.81zm5.671-3.782h.81v-.756h-.81zm1.621-10.591h.81-.81zm2.43 0v7.565h.81v-7.565h-.81zm-.81 0h.81-.81zm-2.431 11.348v1.512h.811v-1.512zm.811 0h.81v-.757h-.81zm1.62-3.783v1.513h-.81v1.513h.81v-1.513h.81v-1.513zm-6.482 7.565h.811v-.757h-.811zm3.241-2.27v-.756h-.81v1.513h.81zm-1.62 1.513h.81v-.756h-.81zm-3.241-.756h-.81v.756H163.442v.757H169.924v-.757h1.62v-.756zm.81 0h.81v-.757h-.81zm1.62-1.513h-.81v.756h1.621v-1.512h-.811zm.811-.756h.81v-.757h-.81zm.81-.757h.81v-.756h-.81zm.81-1.513v.757h.81v-1.513h-.81zm.81-8.321V125.887h.811V118.322zm-.81-1.514v.757h.81v-1.513h-.81zm-.81-1.512h.81v-.757h-.81zm-4.051 12.104h.81v-.757h-.81zm1.62-9.078v.756h.81v4.539h-.81v1.513h-.81v1.513h.81v-.756h.81v-1.514h.811V118.322h-.811v-1.514h-.81v.757zm-.81-1.514h.81v-.756h-.81zm-.81-.756h.81v-.756h-.81zm3.241-1.513h.81v-.756h-.81zm-.811-.757h.811v-.756h-.811zm-.81-.756h.811v-.756h-.811zm-.81-.756h.81v-.757h-.81zm-1.62-.757h1.62v-.756h-1.62zm-7.293 19.669h-.81v.756h1.621v-.756zm-1.62 0h.81v-.757h-.81zm-.81-1.513v-.756h-.81v1.512h1.62v-.756zm-1.621-.756h.811v-.757h-.811zm5.672 0H169.924v-.757h.81v-.756h-1.621v.756H164.252v-.756h-1.621v.756h.81v.757zm-2.431-1.513h.81v-.757h-.81zm-3.241-.757h-.81v1.513h.81v-.756zm-.81-1.513h-.81v1.513h.81v-.756zm-1.621-6.808v6.052h.811v-6.052zm5.672 6.808h-.81v-1.513h-.81v-4.539h.81v-1.513h.81v-1.513h-.81v.756h-.81v1.514h-.811v6.052h.811v1.513h.81v.756h.81v-.756zm-4.051-8.322v-.756h-.81v1.513h.81zm4.051-.756h.81v-.756h-.81zm-3.241-.756v-.757h-.81v1.513h.81zm5.672 0v-.757H169.113v.757h1.621v-.757h-.81v-.756H163.441v.756h-.81v.757h.81zm-5.672-.757h.81v-.756h-.81zm.81-.757h.811v-.756h-.811zm.811-.756h.81v-.756h-.81zm.81-.756h.81v-.757h-.81zm2.431-.757v-.756h-1.621v.756h.81zm-.001-1.513v.757H169.924V110z"/><path fill="#FEFEFE" d="M178.026 116.052h-.81v.756h-.811v1.514h.811v-.757h1.62v-1.513zm-.81-2.269h-2.431v.756h.81v.757h.81v-.757h1.621v-.756zm-9.723 13.617h-2.431v-.757h-1.62v-.756h-.81v-.757h-.811v1.513h.811v.757h1.62v.756h4.862v-.756h-.811z"/><path fill="#FEFEFE" d="M169.113 126.643v.757h1.621v-.757h-.81zm1.621 0h.81v-.756h-.81zm-8.913-3.026h-.81v1.513h.81v-.756zm-.81-1.513v-1.513h-.81v3.026h.81v-.756zm-.81-2.269h.81v-.757h-.81z"/></g></g></svg>