<svg xmlns="http://www.w3.org/2000/svg" width="125" height="129"><defs><path id="a" d="M.202.101h.102v.101H.202z"/><path id="b" d="M.773.386h.386v.387H.773z"/><path id="c" d="M.773.386h.386v.387H.773z"/><path id="d" d="M.773.386h.386v.387H.773z"/><path id="e" d="M.202.101h.102v.101H.202z"/><path id="f" d="M.442.221h.221v.221H.442z"/><path id="g" d="M.885.442h.442v.443H.885z"/><path id="h" d="M.885.442h.442v.443H.885z"/><path id="i" d="M.885.442h.442v.443H.885z"/><path id="j" d="M.442.221h.221v.221H.442z"/></defs><g fill="none" fill-rule="evenodd"><path fill="#000" d="M115.068 105.276v4.896h-12.24v2.448h-7.345v2.448h-2.45v-4.896h7.347v-2.448h12.24v-2.448h2.448zM83.24 112.62v2.448h-2.448v-2.448h2.448zm-2.448-7.344v2.448h4.896v4.896H83.24v-2.448h-4.896v-4.896h2.448zm36.723-2.448v2.448h-2.448v-2.448h2.448zm-39.171 0v2.448h-2.448v-2.448h2.448zm41.62-2.43v2.449h-2.448v-2.448h2.448zm-44.068 2.43h-2.448v-7.34h2.448v7.34zm46.516-7.32v4.89h-2.448v-4.89h2.448zm-14.69-.02v2.448h-4.895v-2.448h4.896zm14.69-2.433v2.448h-2.448v-2.448h2.448zm-9.793-.02v2.448h-4.896v-2.448h4.896zm-9.792-14.69v7.344h2.448v9.794h-7.344v-7.346h2.448v-9.792h2.448zM80.793 83.24v2.448h-2.448v2.448h-2.448v7.346h-2.448V85.69h2.448v-2.45h4.896zm44.068-4.883v14.697h-2.448V78.358h2.448zm-22.033 9.779h-2.448v4.898h2.448v-4.898zm14.688-9.792v12.24h-4.896v-2.448h2.448v-9.792h2.448zm-19.584 7.344v2.448h-2.449v-2.448h2.449zm-2.449-2.448v2.448h-2.45V83.24h2.45zm-2.45-2.448v2.448h-12.24v-2.448h12.24zm31.828-7.344v4.896h-2.448v-4.896h2.448zM115.068 71v7.344h-2.448V71h2.448zm7.345-2.448v4.896h-2.448v-4.896h2.448zm-9.793 0V71h-2.448v-2.448h2.448zm7.345-2.45v2.45h-2.448v-2.45h2.448zm-9.793 0v2.45h-2.448v-2.45h2.448zm7.344-2.449v2.448h-4.896v-2.448h4.896zm-4.896-2.448v2.448h-2.448v-2.448h2.448z"/><path fill="red" d="M100.38 95.488v7.34h-2.448v2.448h9.792v-2.448h4.896v-2.448h2.448v-4.892h2.448v7.34h-2.448v2.448h-2.448v2.448H97.932v2.448h-9.795v-2.448h-2.448v-2.448h-4.896v-2.448h-2.448v-7.34h22.035zm-36.726 12.236v2.448h-2.448v-2.448h2.448zm0-12.236v9.788h-2.448v-9.788h2.448zm56.311.02v4.89h-2.448v-4.89h2.448zm2.448-7.352v4.899h-2.448v2.448h-2.448v-4.896h2.448v-2.45h2.448zm-29.38-2.467v2.448h2.45v7.346l-17.138.001v-4.898h2.448v-2.448h7.344V85.69h4.896zM41.619 19.587v2.448h2.45v4.896h4.897v-2.448h-2.448v-2.448h4.896v2.448h2.448v4.896h-2.448v2.448h2.448v22.035h2.448v2.448h2.448v2.448h2.448v2.448H71v-2.448h2.448V56.31h2.448v-4.896h2.448v-4.896h2.448V44.07h2.448v-2.45h2.448v-4.897h2.448v-7.344h4.896V26.93h4.899v4.896h2.448v2.448h-4.897v2.448h-2.45v2.448h-2.448v4.899h-2.448v2.448H83.24v2.448h-2.448v4.896h-2.448V71h4.896v2.448h7.344v2.448h7.347v2.448h2.448v9.792h-2.448v-2.448h-2.449V83.24h-2.45v-2.448h-12.24v2.448h-4.896v2.448h-2.448v4.896H68.55v-9.792h-2.448v7.344h-2.448v7.346h-4.896v-2.448h2.448v-4.898h-2.448v-2.448h2.448v-4.896h-2.448V71H56.31V58.758h-2.448V56.31h-2.448V36.723h-2.448v-4.896h-2.448v-2.448h-4.899v2.448h-2.448v-2.448h-7.344V26.93h7.344v-4.896h-2.448v-2.448h4.896zm61.209 68.55v4.898h-2.448v-4.898h2.448zm19.585-9.78v9.795h-2.448v-9.794h2.448zm-2.448-9.804v4.896h2.448v4.896h-4.896v-9.792h2.448zm-2.45-2.45V71h-2.447v-2.448h-2.448v-2.45h4.896zm-4.895-2.449v2.448h-2.448v-2.448h2.448zm-12.24-39.171v2.448h-2.448v-2.448h2.448zm-68.553 0v2.448h-2.448v-2.448h2.448zm4.896-7.344v2.448h-2.448v-2.448h2.448zm-2.448-2.45v2.45h-2.448v-2.45h2.448zm-2.448-2.449v2.448h-2.448l.001-2.448h2.448z"/><path fill="#FF6E6E" d="M115.068 95.483h2.448v-2.448h-2.448zm0-2.448h2.448v-2.45h-2.448zm0-14.69h2.448v-2.448h-2.448zm0-2.448h2.448v-2.448h-2.448zm0-2.448h2.448v-2.448h-2.448z"/><path fill="red" d="M117.517 90.6h2.448v-2.448h-2.448z"/><path fill="#FF6E6E" d="M117.517 88.152h2.448v-2.448h-2.448zm0-2.448h2.448v-2.448h-2.448zm0-2.448h2.448v-2.448h-2.448zm0-2.448h2.448v-2.45h-2.448zm0 9.799h2.448v-2.451h-2.448z"/><path fill="red" d="M119.965 90.6h2.448v-2.448h-2.448z"/><path fill="#000" d="M100.38 34.275v-2.448h17.136v2.448H100.38z"/><path fill="#000" d="M115.068 31.827h2.448v-2.448h-2.448z"/><path fill="#FF6E6E" d="M112.62 100.38h2.448v-2.448h-2.448zm0-4.897h2.448v-2.448h-2.448zm0-2.448h2.448v-2.45h-2.448zm0-22.034h2.448v-2.448h-2.448z"/><path fill="#000" d="M112.62 36.723h2.448v-2.448h-2.448z"/><path fill="#B3B3B3" d="M112.62 31.827h2.448v-2.448h-2.448z"/><path fill="#000" d="M112.62 29.379h2.448v-2.448h-2.448zm0-2.448h2.448v-2.448h-2.448z"/><path fill="#FF6E6E" d="M110.172 102.828h2.448v-2.448h-2.448zm0-2.448h2.448v-2.448h-2.448zm0-31.827h2.448v-2.451h-2.448z"/><path fill="#000" d="M110.172 39.171h2.448v-2.448h-2.448z"/><path fill="#B3B3B3" d="M110.172 36.723h2.448v-2.448h-2.448zm0-4.896h2.448v-2.448h-2.448zm0-2.448h2.448v-2.448h-2.448z"/><path fill="#000" d="M110.172 26.931h2.448v-2.448h-2.448zm0-2.448h2.448v-2.448h-2.448zm0-2.448h2.448v-2.448h-2.448zm0-2.448h2.448v-2.448h-2.448zm-44.07 39.171v2.448h-2.448v-2.448h2.448zm4.899-2.448v2.448h-4.899V56.31h4.899zm-7.347 0v2.448h-2.448V56.31h2.448zm9.795-4.896v4.896H71v-4.896h2.448zm-12.243 2.448v2.448h-2.448v-2.448h2.448zm-7.344-22.035h2.448v19.587h2.448v2.448h-4.896l-.001-22.035zm22.035 14.69v2.449h-2.448v-2.448h2.448zm2.448-2.447v2.448h-2.448l-.001-2.448h2.448zm2.448-4.899v4.899h-2.448l-.001-4.9h2.448zm2.448-7.344v7.344h-2.448v-7.344h2.448zm2.448-4.896v4.896l-2.449-.001V26.93h2.448zm7.344-2.448v2.448h-7.344v-2.448h7.344zm4.899-2.448v2.448h-4.9v-2.448h4.9zm4.896-2.448v2.448h-4.896v-2.448h4.896zm7.344-2.448v2.448h-4.896v-2.448h4.896zm2.448-2.45v2.45h-2.448v-2.45h2.448z"/><path fill="#FF6E6E" d="M107.724 102.828h2.448v-2.448h-2.448zm0-2.448h2.448v-2.448h-2.448z"/><path fill="#B3B3B3" d="M107.724 66.102h2.448v-2.448h-2.448z"/><path fill="#D3D0D8" d="M107.724 63.654h2.448v-2.448h-2.448z"/><path fill="#000" d="M107.724 61.206h2.448v-2.448h-2.448zm0-22.035h2.448v-2.448h-2.448z"/><path fill="#B3B3B3" d="M107.724 36.723h2.448v-2.448h-2.448zm0-4.896h2.448v-2.448h-2.448z"/><path fill="#000" d="M107.724 29.379h2.448v-2.448h-2.448z"/><path fill="#B3B3B3" d="M107.724 26.931h2.448v-2.448h-2.448zm0-2.448h2.448v-2.448h-2.448z"/><path fill="#D3D0D8" d="M107.724 22.035h2.448v-2.448h-2.448z"/><path fill="#FF6E6E" d="M105.276 105.276h2.448v-2.448h-2.448zm0-2.448h2.448v-2.448h-2.448z"/><path fill="#B80000" d="M105.276 100.38h2.448v-2.448h-2.448z"/><path fill="#000" d="M105.276 66.102h2.448v-2.448h-2.448z"/><path fill="#D3D0D8" d="M105.276 63.654h2.448v-2.448h-2.448z"/><path fill="#000" d="M105.276 61.206h2.448v-2.448h-2.448zm0-19.587h2.448v-2.448h-2.448z"/><path fill="#B3B3B3" d="M105.276 39.171h2.448v-2.448h-2.448z"/><path fill="#D3D0D8" d="M105.276 36.723h2.448v-2.448h-2.448zm0-4.896h2.448v-2.448h-2.448z"/><path fill="#000" d="M105.276 29.379h2.448v-2.448h-2.448z"/><path fill="#D3D0D8" d="M105.276 26.931h2.448v-2.448h-2.448zm0-2.448h2.448v-2.448h-2.448z"/><path fill="#B80000" d="M83.24 48.966v2.448h-2.447v-2.448h2.448zm2.449-2.448v2.448H83.24v-2.448h2.448zm4.896-2.448v2.448h-2.448l-.001-2.448h2.448zm2.448-4.899v2.448h-2.448v-2.448h2.448zm2.45-2.448v2.448h-2.45v-2.448h2.45zm2.449-2.448v2.448h-2.449v-2.448h2.449zm2.448-7.344v4.896h-2.448v-4.896h2.448zm2.448-2.448v2.448h-2.448v-2.448h2.448zm2.448-2.448v2.448h-2.448v-2.448h2.448zm2.448-2.448v2.448h-2.448v-2.448h2.448z"/><path fill="#FF6E6E" d="M102.828 105.276h2.448v-2.448h-2.448zm0-2.448h2.448v-2.448h-2.448z"/><path fill="#B80000" d="M102.828 100.38h2.448v-2.448h-2.448z"/><path fill="#000" d="M102.828 63.654h2.448v-2.448h-2.448z"/><path fill="#D3D0D8" d="M102.828 61.206h2.448v-2.448h-2.448z"/><path fill="#000" d="M102.828 58.758h2.448V56.31h-2.448zm0-12.24h2.448V44.07h-2.448zm0-2.448h2.448v-2.451h-2.448z"/><path fill="#B3B3B3" d="M102.828 41.619h2.448v-2.448h-2.448zm0-2.448h2.448v-2.448h-2.448z"/><path fill="#D3D0D8" d="M102.828 36.723h2.448v-2.448h-2.448zm0-4.896h2.448v-2.448h-2.448z"/><path fill="#000" d="M102.828 29.379h2.448v-2.448h-2.448z"/><path fill="#D3D0D8" d="M102.828 26.931h2.448v-2.448h-2.448z"/><path fill="#FF6E6E" d="M66.102 61.206v-2.448h4.899v2.448h-4.899zm7.347-4.896v2.448H71V56.31h2.448zm4.896-9.792v4.896h-2.448v4.896h-2.448v-7.344h2.448v-2.448h2.448zm2.448-2.448v2.448h-2.448l-.001-2.448h2.448zm2.448-2.45v2.45h-2.448v-2.45h2.448zm9.792-14.69v2.449h-4.896v7.344h-2.448v4.896H83.24v-9.792h2.448v-4.896h7.344zm4.899-2.447v2.448h-4.9v-2.448h4.9zm4.896-2.448v2.448h-4.896v-2.448h4.896zm2.448-2.448v2.448h-2.448v-2.448h2.448zm-4.896 85.689h2.448v-2.448h-2.448z"/><path fill="#B80000" d="M100.38 102.828h2.448v-2.448h-2.448zm0-2.448h2.448v-2.448h-2.448z"/><path fill="#000" d="M100.38 61.206h2.448v-2.448h-2.448zm0-2.448h2.448V56.31h-2.448zm2.448-7.344v2.448h-2.448v-2.448h2.448zm-4.896-4.896v2.448h2.448v2.448h-4.897v-4.896h2.449zm-2.449-4.899v4.899h-2.45V44.07h-2.448v-2.45h4.898zm4.897 9.795h2.448v-2.448h-2.448zm0-2.448h2.448v-2.448h-2.448z"/><path fill="#B3B3B3" d="M100.38 46.518h2.448V44.07h-2.448z"/><path fill="#D3D0D8" d="M100.38 44.07h2.448v-2.451h-2.448z"/><path fill="#000" d="M100.38 41.619h2.448v-2.448h-2.448z"/><path fill="#D3D0D8" d="M100.38 39.171h2.448v-2.448h-2.448zm0-2.448h2.448v-2.448h-2.448zm0-4.896h2.448v-2.448h-2.448zm0-2.448h2.448v-2.448h-2.448z"/><path fill="#B80000" d="M97.932 110.172h2.448v-2.448h-2.448zm0-4.896h2.448v-2.448h-2.448z"/><path fill="#000" d="M97.932 78.345h2.448v-2.448h-2.448z"/><path fill="#B3B3B3" d="M97.932 56.31h2.448v-2.448h-2.448zm0-2.448h2.448v-2.448h-2.448zm0-4.896h2.448v-2.448h-2.448zm0-2.448h2.448V44.07h-2.448zm0-2.448h2.448v-2.451h-2.448z"/><path fill="#D3D0D8" d="M97.932 41.619h2.448v-2.448h-2.448z"/><path fill="#000" d="M97.932 39.171h2.448v-2.448h-2.448z"/><path fill="#D3D0D8" d="M97.932 36.723h2.448v-2.448h-2.448z"/><path fill="#FF6E6E" d="M95.483 95.483h2.449v-2.448h-2.449zm0-2.448h2.449v-2.45h-2.449zm0-2.45h2.449v-2.448h-2.449z"/><path fill="#000" d="M95.483 75.897h2.449v-2.448h-2.449zm0-19.587h2.449v-2.448h-2.449z"/><path fill="#B3B3B3" d="M95.483 53.862h2.449v-2.448h-2.449z"/><path fill="#D3D0D8" d="M95.483 46.518h2.449V44.07h-2.449zm0-2.448h2.449v-2.451h-2.449zm0-2.451h2.449v-2.448h-2.449zm0-2.448h2.449v-2.448h-2.449z"/><path fill="#FF6E6E" d="M93.033 88.137h2.45v-2.448h-2.45z"/><path fill="#000" d="M93.033 75.897h2.45v-2.448h-2.45zm0-17.139h2.45V56.31h-2.45z"/><path fill="#B3B3B3" d="M93.033 56.31h2.45v-2.448h-2.45zm0-2.448h2.45v-2.448h-2.45z"/><path fill="#D3D0D8" d="M93.033 51.414h2.45v-2.448h-2.45zm0-2.448h2.45v-2.448h-2.45zm0-7.347h2.45v-2.448h-2.45z"/><path fill="#B3B3B3" d="M90.585 115.068h2.448v-2.448h-2.448z"/><path fill="#B80000" d="M90.585 112.62h2.448v-2.448h-2.448z"/><path fill="#FF6E6E" d="M90.585 85.689h2.448v-2.448h-2.448z"/><path fill="#000" d="M90.585 75.897h2.448v-2.448h-2.448zm0-14.691h2.448v-2.448h-2.448z"/><path fill="#B3B3B3" d="M90.585 58.758h2.448V56.31h-2.448zm0-2.448h2.448v-2.448h-2.448z"/><path fill="#D3D0D8" d="M90.585 53.862h2.448v-2.448h-2.448z"/><path fill="#B3B3B3" d="M90.585 51.414h2.448v-2.448h-2.448z"/><path fill="#D3D0D8" d="M90.585 48.966h2.448v-2.448h-2.448zm0-2.448h2.448V44.07h-2.448z"/><path fill="#000" d="M88.137 117.516h2.448v-2.448h-2.448z"/><path fill="#D3D0D8" d="M88.137 115.068h2.448v-2.448h-2.448z"/><path fill="#B80000" d="M88.137 112.62h2.448v-2.448h-2.448z"/><path fill="#FF6E6E" d="M88.137 85.689h2.448v-2.448h-2.448z"/><path fill="#000" d="M88.137 73.449h2.448v-2.448h-2.448zm0-9.795h2.448v-2.448h-2.448z"/><path fill="#B3B3B3" d="M88.137 61.206h2.448v-2.448h-2.448z"/><path fill="#000" d="M88.137 58.758h2.448V56.31h-2.448z"/><path fill="#D3D0D8" d="M88.137 56.31h2.448v-2.448h-2.448z"/><path fill="#B3B3B3" d="M88.137 53.862h2.448v-2.448h-2.448z"/><path fill="#D3D0D8" d="M88.137 51.414h2.448v-2.448h-2.448zm0-2.448h2.448v-2.448h-2.448z"/><path fill="#000" d="M85.689 117.516h2.448v-2.448h-2.448z"/><path fill="#B80000" d="M85.689 112.62h2.448v-2.448h-2.448z"/><path fill="#FF6E6E" d="M85.689 110.172h2.448v-2.448h-2.448zm0-22.035h2.448v-2.448h-2.448zm0-2.448h2.448v-2.448h-2.448z"/><path fill="#000" d="M85.689 73.449h2.448v-2.448h-2.448zm0-2.448h2.448v-2.448h-2.448zm0-2.448h2.448v-2.451h-2.448zm0-2.451h2.448v-2.448h-2.448z"/><path fill="#B3B3B3" d="M85.689 63.654h2.448v-2.448h-2.448zm0-2.448h2.448v-2.448h-2.448z"/><path fill="#D3D0D8" d="M85.689 58.758h2.448V56.31h-2.448z"/><path fill="#000" d="M85.689 56.31h2.448v-2.448h-2.448z"/><path fill="#D3D0D8" d="M85.689 53.862h2.448v-2.448h-2.448zm0-2.448h2.448v-2.448h-2.448zm0-2.448h2.448v-2.448h-2.448z"/><path fill="#B3B3B3" d="M83.241 115.068h2.448v-2.448h-2.448zm2.448 0h2.448v-2.448h-2.448z"/><path fill="#FF6E6E" d="M83.241 107.724h2.448v-2.448h-2.448zm0-19.587h2.448v-2.448h-2.448zm0-2.448h2.448v-2.448h-2.448z"/><path fill="#000" d="M83.241 73.449h2.448v-2.448h-2.448z"/><path fill="#B3B3B3" d="M83.241 71.001h2.448v-2.448h-2.448zm0-2.448h2.448v-2.451h-2.448zm0-2.451h2.448v-2.448h-2.448zm0-2.448h2.448v-2.448h-2.448zm0-2.448h2.448v-2.448h-2.448z"/><path fill="#D3D0D8" d="M83.241 58.758h2.448V56.31h-2.448zm0-2.448h2.448v-2.448h-2.448z"/><path fill="#000" d="M83.241 53.862h2.448v-2.448h-2.448z"/><path fill="#D3D0D8" d="M83.241 51.414h2.448v-2.448h-2.448z"/><path fill="#000" d="M80.793 117.516h2.448v-2.448h-2.448z"/><path fill="#FF6E6E" d="M80.793 107.724h2.448v-2.448h-2.448zm0-19.587h2.448v-2.448h-2.448zm0-2.448h2.448v-2.448h-2.448z"/><path fill="#000" d="M80.793 71.001h2.448v-2.448h-2.448z"/><path fill="#B3B3B3" d="M80.793 68.553h2.448v-2.451h-2.448z"/><path fill="#D3D0D8" d="M80.793 66.102h2.448v-2.448h-2.448zm0-2.448h2.448v-2.448h-2.448zm0-2.448h2.448v-2.448h-2.448zm0-2.448h2.448V56.31h-2.448zm0-2.448h2.448v-2.448h-2.448zm0-2.448h2.448v-2.448h-2.448z"/><path fill="#B80000" d="M80.793 41.619h2.448v-2.448h-2.448z"/><path fill="#000" d="M78.345 117.516h2.448v-2.448h-2.448z"/><path fill="#FF6E6E" d="M78.345 105.276h2.448v-2.448h-2.448zm0-14.691h2.448v-2.448h-2.448zm0-2.448h2.448v-2.448h-2.448z"/><path fill="#000" d="M78.345 71.001h2.448v-2.448h-2.448zm0-2.448h2.448v-2.451h-2.448zm0-2.451h2.448v-2.448h-2.448zm0-2.448h2.448v-2.448h-2.448zm0-2.448h2.448v-2.448h-2.448zm0-2.448h2.448V56.31h-2.448zm0-2.448h2.448v-2.448h-2.448z"/><path fill="#FF6E6E" d="M75.897 102.828h2.448v-2.448h-2.448zm0-2.448h2.448v-2.448h-2.448zm0-4.897h2.448v-2.448h-2.448zm0-2.448h2.448v-2.45h-2.448zm0-2.45h2.448v-2.448h-2.448z"/><path fill="#000" d="M71.001 115.068h2.448v-2.448h-2.448zm0-14.688h2.448v-2.448h-2.448z"/><path fill="#B3B3B3" d="M71.001 95.483h2.448v-2.448h-2.448z"/><path fill="#B80000" d="M71.001 93.035h2.448v-2.45h-2.448z"/><path fill="#000" d="M68.55 115.068h2.451v-2.448H68.55z"/><path fill="#000" d="M66.101 115.068h2.45v-2.448h-2.45z"/><path fill="#D3D0D8" d="M68.55 112.62h2.451v-2.448H68.55z"/><path fill="#000" d="M68.55 100.38h2.451v-2.448H68.55z"/><path fill="#B3B3B3" d="M68.55 95.483h2.451v-2.448H68.55z"/><path fill="#B80000" d="M68.55 93.035h2.451v-2.45H68.55z"/><path fill="#B3B3B3" d="M66.102 112.62h2.448v-2.448h-2.448z"/><path fill="#000" d="M66.102 100.38h2.448v-2.448h-2.448z"/><path fill="#B80000" d="M66.102 95.483h2.448v-2.448h-2.448zm0-2.448h2.448v-2.45h-2.448z"/><path fill="#000" d="M61.206 102.828v7.344h2.448v2.448h-4.896v-9.792h2.448zm4.896-7.34v14.684h-2.448V95.488h2.448zm-7.344 0v7.34H56.31v-7.34h2.448zm9.792-14.695v9.792h-2.448v4.898h-2.448v-7.346h2.448v-7.344h2.448zM56.31 93.035v2.448h-4.896v-2.448h4.896zm-4.896-2.45v2.45h-2.448v-2.45h2.448zm-2.448-2.448v2.448h-2.448v-2.448h2.448zm4.896-4.896v2.448h-7.344v2.448H44.07V83.24h9.792zm2.448-2.448v2.448h-2.448v-2.448h2.448zM44.07 71v2.448h2.448v2.448h4.896v2.448H44.07v4.896h-2.45v-9.792h-2.45v2.448h-2.448v-2.448h2.448V71h4.899zm-19.587 4.896h2.448v4.896h4.896v2.448h-7.344v-7.344zm9.792 2.448v2.448h-2.448v-2.448h2.448zm2.448-2.448v2.448h-2.448v-2.448h2.448zm17.139-2.448v2.448h-2.448v-2.448h2.448zm-24.483-4.896v7.344h-2.448v-7.344h2.448zm2.448-4.899v4.899h-2.448v-4.899h2.448z"/><path fill="#B3B3B3" d="M63.654 112.62h2.448v-2.448h-2.448zm0 2.479h2.448v-2.448h-2.448z"/><path fill="#000" d="M63.654 39.171h2.448v-2.448h-2.448zm0-9.792h2.448v-2.448h-2.448z"/><path fill="#B3B3B3" d="M61.206 115.068h2.448v-2.448h-2.448z"/><path fill="red" d="M61.206 107.724h2.448v-2.448h-2.448z"/><path fill="#B80000" d="M61.206 61.206h2.448v-2.448h-2.448z"/><path fill="#D3D0D8" d="M61.206 39.171h2.448v-2.448h-2.448z"/><path fill="#000" d="M61.206 36.723h2.448v-2.448h-2.448z"/><path fill="#D3D0D8" d="M61.206 29.379h2.448v-2.448h-2.448z"/><path fill="#000" d="M61.206 26.931h2.448v-2.448h-2.448z"/><path fill="#B3B3B3" d="M58.758 115.068h2.448v-2.448h-2.448z"/><path fill="#FF6E6E" d="M61.206 95.488v7.34h-2.448v-7.34h2.448zm-4.896-22.04h-2.448v-14.69h2.448V71h2.448v9.792h2.448v4.896h-2.448v2.448h2.448v4.898h-2.448v2.448H56.31V73.45z"/><path fill="#B80000" d="M58.758 58.758h2.448V56.31h-2.448z"/><path fill="#000" d="M58.758 39.171h2.448v-2.448h-2.448z"/><path fill="#D3D0D8" d="M58.758 36.723h2.448v-2.448h-2.448z"/><path fill="#000" d="M58.758 34.275h2.448v-2.448h-2.448z"/><path fill="#B3B3B3" d="M58.758 29.379h2.448v-2.448h-2.448z"/><path fill="#D3D0D8" d="M58.758 26.931h2.448v-2.448h-2.448z"/><path fill="#000" d="M58.758 24.483h2.448v-2.448h-2.448zm-2.448 93.033h2.448v-2.448H56.31z"/><path fill="#D3D0D8" d="M56.31 115.068h2.448v-2.448H56.31z"/><path fill="#B3B3B3" d="M56.31 112.62h2.448v-2.448H56.31z"/><path fill="#FF6E6E" d="M112.62 97.936h2.448v-2.448h-2.448zm-2.448 0h2.448v-2.448h-2.448zm-2.448 0h2.448v-2.448h-2.448z"/><path fill="#B80000" d="M100.38 97.936h2.448v-2.448h-2.448z"/><path fill="#FF6E6E" d="M75.897 97.936h2.448v-2.448h-2.448z"/><path fill="#D3D0D8" d="M71.001 97.936h2.448v-2.448h-2.448zm-2.451 0h2.451v-2.448H68.55zm-2.448 0h2.448v-2.448h-2.448z"/><path fill="#B80000" d="M56.31 56.31h2.448v-2.448H56.31z"/><path fill="#000" d="M56.31 36.723h2.448v-2.448H56.31z"/><path fill="#D3D0D8" d="M56.31 34.275h2.448v-2.448H56.31z"/><path fill="#000" d="M56.31 31.827h2.448v-2.448H56.31z"/><path fill="#B3B3B3" d="M56.31 29.379h2.448v-2.448H56.31z"/><path fill="#D3D0D8" d="M56.31 26.931h2.448v-2.448H56.31z"/><path fill="#000" d="M56.31 24.483h2.448v-2.448H56.31zm-2.448 95.483h2.448v-2.45h-2.448z"/><path fill="#B3B3B3" d="M53.862 112.62h2.448v-2.448h-2.448z"/><path fill="#D3D0D8" d="M53.862 93.035h2.448v-2.45h-2.448z"/><path fill="#B3B3B3" d="M53.862 90.585h2.448v-2.448h-2.448zm0-2.448h2.448v-2.448h-2.448z"/><path fill="#D3D0D8" d="M53.862 85.689h2.448v-2.448h-2.448z"/><path fill="#B3B3B3" d="M53.862 80.793h2.448v-2.448h-2.448zm0-2.448h2.448v-2.448h-2.448z"/><path fill="#D3D0D8" d="M53.862 75.897h2.448v-2.448h-2.448z"/><path fill="#B3B3B3" d="M53.862 31.827h2.448v-2.448h-2.448zm0-2.448h2.448v-2.448h-2.448zm0-2.448h2.448v-2.448h-2.448z"/><path fill="#D3D0D8" d="M53.862 24.483h2.448v-2.448h-2.448z"/><path fill="#000" d="M53.862 22.035h2.448v-2.448h-2.448zm-2.448 93.033h2.448v-2.448h-2.448z"/><path fill="#000" d="M53.861 115.068h2.448v-2.448h-2.448z"/><path fill="#D3D0D8" d="M51.414 112.62h2.448v-2.448h-2.448zm0-19.585h2.448v-2.45h-2.448z"/><path fill="#B3B3B3" d="M51.414 90.585h2.448v-2.448h-2.448z"/><path fill="#D3D0D8" d="M51.414 88.137h2.448v-2.448h-2.448z"/><path fill="#B3B3B3" d="M51.414 83.241h2.448v-2.448h-2.448zm0-2.448h2.448v-2.448h-2.448z"/><path fill="#D3D0D8" d="M51.414 78.345h2.448v-2.448h-2.448z"/><path fill="#B3B3B3" d="M51.414 73.449h2.448v-2.448h-2.448zm0-2.448h2.448v-2.448h-2.448zm0-2.448h2.448v-2.451h-2.448zm0-2.451h2.448v-2.448h-2.448z"/><path fill="#000" d="M51.414 63.654h2.448v-2.448h-2.448z"/><path fill="#B3B3B3" d="M51.414 61.206h2.448v-2.448h-2.448zm0-2.448h2.448V56.31h-2.448z"/><path fill="#B80000" d="M51.414 31.827h2.448v-2.448h-2.448z"/><path fill="#D3D0D8" d="M51.414 24.483h2.448v-2.448h-2.448z"/><path fill="#000" d="M51.414 22.035h2.448v-2.448h-2.448zm-2.448 93.033h2.448v-2.448h-2.448z"/><path fill="#D3D0D8" d="M48.966 90.585h2.448v-2.448h-2.448zm0-2.448h2.448v-2.448h-2.448z"/><path fill="#B3B3B3" d="M48.966 83.241h2.448v-2.448h-2.448z"/><path fill="#D3D0D8" d="M48.966 80.793h2.448v-2.448h-2.448z"/><path fill="#B3B3B3" d="M48.966 75.897h2.448v-2.448h-2.448zm0-2.448h2.448v-2.448h-2.448z"/><path fill="#D3D0D8" d="M48.966 71.001h2.448v-2.448h-2.448zm0-2.448h2.448v-2.451h-2.448z"/><path fill="#000" d="M48.966 66.102h2.448v-2.448h-2.448z"/><path fill="#D3D0D8" d="M48.966 63.654h2.448v-2.448h-2.448z"/><path fill="#B3B3B3" d="M48.966 61.206h2.448v-2.448h-2.448zm0-2.448h2.448V56.31h-2.448zm0-2.448h2.448v-2.448h-2.448z"/><path fill="#000" d="M48.966 53.862h2.448v-2.448h-2.448z"/><path fill="#B3B3B3" d="M48.966 51.414h2.448v-2.448h-2.448zm0-2.448h2.448v-2.448h-2.448zm0-2.448h2.448V44.07h-2.448z"/><path fill="#000" d="M14.688 56.31v2.448H12.24V56.31h2.448zm2.448-7.344v4.896h-2.448v-4.896h2.448zm29.382-2.448v2.448h-4.899v-2.448h4.899zm-26.931 0v2.448h-2.45v-2.448h2.45zm29.379-7.347v2.448h2.448v2.45h-2.448v2.449h-2.448V39.17h2.448zm-7.347 4.899v2.448h-4.896V44.07h4.896zm-17.136 0v2.448h-4.896V44.07h4.896zm9.792-2.45v2.45h-9.792v-2.45h9.792zm12.243-7.345v4.896H44.07v-4.896h2.448zm-2.448-2.448v2.448h-2.45v-2.448h2.45z"/><path fill="#D3D0D8" d="M48.966 41.619h2.448v-2.448h-2.448z"/><path fill="#B3B3B3" d="M48.966 39.171h2.448v-2.448h-2.448z"/><path fill="#000" d="M48.966 22.035h2.448v-2.448h-2.448z"/><path fill="#D3D0D8" d="M46.518 88.137h2.448v-2.448h-2.448z"/><path fill="#B3B3B3" d="M46.518 83.241h2.448v-2.448h-2.448z"/><path fill="#D3D0D8" d="M46.518 80.793h2.448v-2.448h-2.448zm0-4.896h2.448v-2.448h-2.448zm0-2.448h2.448v-2.448h-2.448z"/><path fill="#000" d="M46.518 71.001h2.448v-2.448h-2.448zm0-2.448h2.448v-2.451h-2.448zm0-2.451h2.448v-2.448h-2.448zm0-2.448h2.448v-2.448h-2.448z"/><path fill="#D3D0D8" d="M46.518 61.206h2.448v-2.448h-2.448zm0-2.448h2.448V56.31h-2.448z"/><path fill="#000" d="M46.518 56.31h2.448v-2.448h-2.448z"/><path fill="#B3B3B3" d="M46.518 53.862h2.448v-2.448h-2.448z"/><path fill="#000" d="M46.518 51.414h2.448v-2.448h-2.448z"/><path fill="#D3D0D8" d="M46.518 48.966h2.448v-2.448h-2.448zm0-9.795h2.448v-2.448h-2.448zm0-2.448h2.448v-2.448h-2.448z"/><path fill="#B3B3B3" d="M46.518 34.275h2.448v-2.448h-2.448z"/><path fill="#000" d="M46.518 26.931h2.448v-2.448h-2.448z"/><path fill="#FF6E6E" d="M46.518 22.035h2.448v-2.448h-2.448z"/><path fill="#D3D0D8" d="M44.07 83.241h2.448v-2.448H44.07zm0-2.448h2.448v-2.448H44.07zm0-7.344h2.448v-2.448H44.07z"/><path fill="#FF6E6E" d="M44.07 71.001h2.448v-2.448H44.07z"/><path fill="#B80000" d="M44.07 68.553h2.448v-2.451H44.07z"/><path fill="#D3D0D8" d="M44.07 66.102h2.448v-2.448H44.07z"/><path fill="#B3B3B3" d="M44.07 63.654h2.448v-2.448H44.07z"/><path fill="#000" d="M44.07 61.206h2.448v-2.448H44.07zm0-2.448h2.448V56.31H44.07z"/><path fill="#D3D0D8" d="M44.07 56.31h2.448v-2.448H44.07z"/><path fill="#B3B3B3" d="M44.07 53.862h2.448v-2.448H44.07z"/><path fill="#FF6E6E" d="M44.07 51.414h2.448v-2.448H44.07z"/><path fill="#D3D0D8" d="M44.07 34.275h2.448v-2.448H44.07z"/><path fill="#B3B3B3" d="M44.07 31.827h2.448v-2.448H44.07z"/><path fill="#FFDD61" d="M44.07 26.931h2.448v-2.448H44.07z"/><path fill="#000" d="M44.07 24.483h2.448v-2.448H44.07z"/><path fill="#FF6E6E" d="M44.07 22.035h2.448v-2.448H44.07z"/><path fill="red" d="M41.619 71.001h2.451v-2.448h-2.451z"/><path fill="#FF6E6E" d="M41.619 68.553h2.451v-2.451h-2.451z"/><path fill="#B80000" d="M41.619 66.102h2.451v-2.448h-2.451z"/><path fill="#D3D0D8" d="M41.619 63.654h2.451v-2.448h-2.451z"/><path fill="#6B6B6B" d="M41.619 61.206h2.451v-2.448h-2.451zm0-2.448h2.451V56.31h-2.451zm0-2.448h2.451v-2.448h-2.451z"/><path fill="#B3B3B3" d="M41.619 53.862h2.451v-2.448h-2.451z"/><path fill="#FF6E6E" d="M41.619 51.414h2.451v-2.448h-2.451z"/><path fill="#D3D0D8" d="M41.619 31.827h2.451v-2.448h-2.451z"/><path fill="#FF6E6E" d="M41.619 22.035h2.451v-2.448h-2.451z"/><path fill="red" d="M39.171 71.001h2.448v-2.448h-2.448zm0-2.448h2.448v-2.451h-2.448z"/><path fill="#FF6E6E" d="M39.171 66.102h2.448v-2.448h-2.448z"/><path fill="#B80000" d="M39.171 63.654h2.448v-2.448h-2.448z"/><path fill="#6B6B6B" d="M39.171 61.206h2.448v-2.448h-2.448zm0-2.448h2.448V56.31h-2.448zm0-2.448h2.448v-2.448h-2.448z"/><path fill="#B3B3B3" d="M39.171 53.862h2.448v-2.448h-2.448z"/><path fill="red" d="M39.171 51.414h2.448v-2.448h-2.448z"/><path fill="#FF6E6E" d="M39.171 48.966h2.448v-2.448h-2.448zm0-29.379h2.448v-2.448h-2.448z"/><path fill="red" d="M36.723 73.449h2.448v-2.448h-2.448zm0-2.448h2.448v-2.448h-2.448zm0-2.448h2.448v-2.451h-2.448z"/><path fill="#FF6E6E" d="M36.723 66.102h2.448v-2.448h-2.448z"/><path fill="#B80000" d="M36.723 63.654h2.448v-2.448h-2.448z"/><path fill="#6B6B6B" d="M36.723 61.206h2.448v-2.448h-2.448z"/><path fill="#B3B3B3" d="M36.723 58.758h2.448V56.31h-2.448z"/><path fill="#000" d="M36.723 56.31h2.448v-2.448h-2.448zm0-2.448h2.448v-2.448h-2.448z"/><path fill="#B3B3B3" d="M36.723 51.414h2.448v-2.448h-2.448z"/><path fill="#FF6E6E" d="M36.723 48.966h2.448v-2.448h-2.448z"/><path fill="#000" d="M39.171 29.379v2.448h-4.896v-2.448h4.896zm-7.344-2.448v2.448h-2.448V26.93h2.448zm-2.448-2.448v2.448h-2.448v-2.448h2.448zm9.792-2.448v2.448h-2.448v-2.448h2.448zm-2.448-2.448v2.448h-2.448v-2.448h2.448zm-2.448-2.448v2.448h-2.448v-2.448h2.448zm-2.448-2.45v2.45h-2.448v-2.45h2.448z"/><path fill="#FF6E6E" d="M36.723 19.587h2.448v-2.448h-2.448z"/><path fill="red" d="M34.275 75.897h2.448v-2.448h-2.448zm0-2.448h2.448v-2.448h-2.448z"/><path fill="#FFDD61" d="M34.275 71.001h2.448v-2.448h-2.448z"/><path fill="#000" d="M34.275 68.553h2.448v-2.451h-2.448z"/><path fill="#FF6E6E" d="M34.275 66.102h2.448v-2.448h-2.448z"/><path fill="#B80000" d="M34.275 63.654h2.448v-2.448h-2.448z"/><path fill="#D3D0D8" d="M34.275 61.206h2.448v-2.448h-2.448zm0-2.448h2.448V56.31h-2.448z"/><path fill="#000" d="M34.275 56.31h2.448v-2.448h-2.448zm0-2.448h2.448v-2.448h-2.448z"/><path fill="#B3B3B3" d="M34.275 51.414h2.448v-2.448h-2.448z"/><path fill="red" d="M34.275 48.966h2.448v-2.448h-2.448z"/><path fill="#FF6E6E" d="M34.275 46.518h2.448V44.07h-2.448zm0-29.379h2.448v-2.451h-2.448z"/><path fill="red" d="M31.827 78.345h2.448v-2.448h-2.448zm0-2.448h2.448v-2.448h-2.448zm0-2.448h2.448v-2.448h-2.448z"/><path fill="#000" d="M31.827 71.001h2.448v-2.448h-2.448z"/><path fill="#FF6E6E" d="M31.827 68.553h2.448v-2.451h-2.448z"/><path fill="#B80000" d="M31.827 66.102h2.448v-2.448h-2.448z"/><path fill="#000" d="M31.827 63.654h2.448v-2.448h-2.448zm0-2.448h2.448v-2.448h-2.448zm0-2.448h2.448V56.31h-2.448zm0-4.896h2.448v-2.448h-2.448z"/><path fill="#D3D0D8" d="M31.827 51.414h2.448v-2.448h-2.448z"/><path fill="red" d="M31.827 48.966h2.448v-2.448h-2.448z"/><path fill="#FF6E6E" d="M31.827 46.518h2.448V44.07h-2.448zm0-31.83h2.448V12.24h-2.448z"/><path fill="red" d="M29.379 80.793h2.448v-2.448h-2.448zm0-2.448h2.448v-2.448h-2.448z"/><path fill="#FF6E6E" d="M29.379 75.897h2.448v-2.448h-2.448zm0-2.448h2.448v-2.448h-2.448zm0-2.448h2.448v-2.448h-2.448z"/><path fill="#D3D0D8" d="M29.379 51.414h2.448v-2.448h-2.448z"/><path fill="red" d="M29.379 48.966h2.448v-2.448h-2.448z"/><path fill="#FF6E6E" d="M29.379 46.518h2.448V44.07h-2.448z"/><path fill="#FFAD00" d="M29.379 2.448h2.448v4.896h-2.448V2.448z"/><path fill="#FF6E6E" d="M26.931 80.793h2.448v-2.448h-2.448zm0-2.448h2.448v-2.448h-2.448z"/><path fill="#000" d="M26.931 53.862h2.448v-2.448h-2.448zm0-2.448h2.448v-2.448h-2.448z"/><path fill="red" d="M26.931 48.966h2.448v-2.448h-2.448z"/><path fill="#FF6E6E" d="M26.931 46.518h2.448V44.07h-2.448z"/><path fill="#B3B3B3" d="M26.931 41.619h2.448v-2.448h-2.448zm0-2.448h2.448v-2.448h-2.448zm0-2.448h2.448v-2.448h-2.448z"/><path fill="#000" d="M26.931 34.275h2.448v-2.448h-2.448z"/><path fill="#FF5400" d="M26.93 0h2.449v7.344h-2.448V0z"/><path fill="#000" d="M24.483 56.31h2.448v-2.448h-2.448z"/><path fill="#B80000" d="M24.483 53.862h2.448v-2.448h-2.448z"/><path fill="red" d="M24.483 51.414h2.448v-2.448h-2.448zm0-2.448h2.448v-2.448h-2.448z"/><path fill="#FF6E6E" d="M24.483 46.518h2.448V44.07h-2.448z"/><path fill="#B3B3B3" d="M24.483 41.619h2.448v-2.448h-2.448z"/><path fill="#000" d="M24.483 39.171h2.448v-2.448h-2.448zm0-2.448h2.448v-2.448h-2.448z"/><path fill="#FFE970" d="M19.587 14.688h7.344v7.347h-7.344v-7.347z"/><path fill="#000" d="M22.035 61.206h2.448v-2.448h-2.448zm0-2.448h2.448V56.31h-2.448z"/><path fill="#B80000" d="M22.035 56.31h2.448v-2.448h-2.448z"/><path fill="red" d="M22.035 53.862h2.448v-2.448h-2.448zm0-2.448h2.448v-2.448h-2.448z"/><path fill="#FF6E6E" d="M22.035 48.966h2.448v-2.448h-2.448z"/><path fill="#000" d="M22.035 44.07h2.448v-2.451h-2.448zm0-2.451h2.448v-2.448h-2.448z"/><path fill="#FFAD00" d="M12.24 17.139v-2.45h2.448V9.791h4.899v2.447l4.896.001v2.448h-4.896v4.899h-2.45v-2.448H12.24z"/><path fill="#FF5400" d="M4.896 29.379v2.448h2.448v2.448H2.448v-2.448H0v-2.448h4.896zm14.69-9.792v2.448h-2.45v-2.448h2.45zM9.793 12.24v2.448h2.448v2.45h4.896v2.449H9.792v-2.448H7.344v-2.45H4.896V12.24h4.896zM7.344 2.448v2.448h4.896v2.448h2.448v7.344H12.24V9.792H9.792V7.344H4.896V2.448h2.448zm12.243 0v2.448h2.448v4.896h2.448v2.448h-4.896V7.344h-2.45V4.896h-2.449V2.448h4.899z"/><path fill="#000" d="M19.587 68.553h2.448v-2.451h-2.448zm0-2.451h2.448v-2.448h-2.448zm0-2.448h2.448v-2.448h-2.448z"/><path fill="#B80000" d="M19.587 61.206h2.448v-2.448h-2.448z"/><path fill="red" d="M19.587 58.758h2.448V56.31h-2.448zm0-2.448h2.448v-2.448h-2.448z"/><path fill="#FFDD61" d="M19.587 53.862h2.448v-2.448h-2.448z"/><path fill="#000" d="M19.587 51.414h2.448v-2.448h-2.448z"/><path fill="#FF6E6E" d="M19.587 48.966h2.448v-2.448h-2.448z"/><path fill="#B3B3B3" d="M19.587 44.07h2.448v-2.451h-2.448zm0-2.451h2.448v-2.448h-2.448z"/><path fill="#000" d="M19.587 39.171h2.448v-2.448h-2.448zm0-2.448h2.448v-2.448h-2.448zm-2.451 34.278h2.451v-2.448h-2.451zm0-2.448h2.451v-2.451h-2.451z"/><path fill="#B80000" d="M17.136 63.654h2.451v-2.448h-2.451z"/><path fill="red" d="M17.136 61.206h2.451v-2.448h-2.451zm0-2.448h2.451V56.31h-2.451zm0-2.448h2.451v-2.448h-2.451z"/><path fill="#000" d="M17.136 53.862h2.451v-2.448h-2.451zm0-2.448h2.451v-2.448h-2.451z"/><path fill="#B3B3B3" d="M17.136 46.518h2.451V44.07h-2.451zm0-2.448h2.451v-2.451h-2.451z"/><path fill="#000" d="M17.136 41.619h2.451v-2.448h-2.451zm0-2.448h2.451v-2.448h-2.451z"/><path fill="#B80000" d="M14.688 66.102h2.448v-2.448h-2.448z"/><path fill="red" d="M14.688 63.654h2.448v-2.448h-2.448zm0-2.448h2.448v-2.448h-2.448z"/><path fill="#FF6E6E" d="M14.688 58.758h2.448V56.31h-2.448zm0-2.448h2.448v-2.448h-2.448z"/><path fill="#000" d="M14.688 48.966h2.448v-2.448h-2.448zm0-2.448h2.448V44.07h-2.448zm0-2.448h2.448v-2.451h-2.448z"/><path fill="red" d="M12.24 66.102h2.448v-2.448H12.24zm0-2.448h2.448v-2.448H12.24z"/><path fill="#FF6E6E" d="M12.24 61.206h2.448v-2.448H12.24zm-2.448 4.896h2.448v-2.448H9.792zm0-2.448h2.448v-2.448H9.792z"/><path fill="#FFE970" d="M9.792 26.93v4.897H7.344v-2.448H4.896V26.93h4.896z"/><path fill="#FFAD00" d="M7.344 29.379v2.448H4.896v-2.448h2.448zM4.896 26.93v2.448H2.448V26.93h2.448z"/><path fill="#F1A12C" d="M13.88 94.468h.574v-.536h-.574zm.574-1.608h.574v-.535h-.574z"/><path fill="#F5EBC6" d="M2.976 87.502h.574v-.536h-.574z"/><path fill="#F1A12C" d="M16.75 85.359h-1.722v5.894h-.574v1.072h-.574v.535h-.574v.536h-.574v1.072h-1.148v.536h-.573v.536H9.863v.536h2.295v-.536h1.148v-.536h.574v-1.072h.574v.536h.574v-1.072h.574v-.536h.574v-1.07h.573v-1.072h.575V85.36h-.575zm-2.296 7.501h.574v-.535h-.574v.535z"/><path fill="#231F20" d="M11.01 95.527v.013H9.863v.536h2.295v-.536h1.148v-.013z"/><path fill="#FEFEFE" d="M13.88 84.287h.574v-.536h-.574z"/><path fill="#FBCA25" d="M2.976 85.894v-1.071h.574v-.536h.573v-.536h.574v-.536h.574v-.535h4.592v.536h.573v.536h.574v.536h.574v.536h.574v1.07h.574v4.287h-.574v1.072h-.574v.536h-.574v.536h-.574v.535h-.573v.536H5.27v-.536h-.574v-.535h-.574v-.536H3.55v-.536h-.574v-1.072h-.574v-4.287h.574zm10.904-.534v-1.61h-.574v-.536h-.574v-.534h-.574v-.535h-.574v-.536h-.574v-.536H9.863v-.537H5.27v.536H4.123v.536H3.55v.536h-.574v.535h-.574v.536h-.574v1.072h-.574v1.072H.68v5.358h.574v1.072h.574v1.071h.574v.536h.574v.536h.574v.536h.573v.536h1.148v.536h4.592v-.536h1.147v-.536h.574v-.536h.574v-.536h.574v-.536h.574v-.535h.574v-1.072h.574V85.36h-.574z"/><path fill="#FBCA25" d="M4.123 85.359H3.55V89.645h.573v1.072h.574v.536h.574v.536h1.148v.536H9.289v-.536H10.436v-.536h.574v-.536h.574v-1.072h.574V86.43h-.574V84.823h-.574v-.536h-.574v-.536H9.289v-.536H5.845v.536H4.697v.536h-.574v.536z"/><path fill="#F1A12C" d="M16.176 83.751v-1.072h-.574v.536h-1.148v1.608h.574v-.536h1.148v1.072h.573v-1.608zM9.863 80v.536h1.148v.536h.573v.536h.574v.535h.574v.536H15.602v-.536h-.574v-.535H13.88v-.536h-.574v-.536h-1.148V80z"/><path fill="#F1A12C" d="M16.176 83.751v-1.072h-.574v.536h-1.148v1.608h.574v-.536h1.148v1.072h.573v-1.608z"/><path fill="#231F20" d="M14.454 83.24h.574-.574zm1.722.511v-1.072h-.574v1.072h.574v1.608h.573v-1.608zm-2.87-2.143h.574v-.536h-.574zm.574.536h1.148v-.536H13.88zm-1.148-1.072h.574v-.536h-1.148v.536zm2.296 1.607h.574v-.536h-.574zM9.863 80v.536h2.295V80zM11.584 94.492h.574-.574z"/><path fill="#231F20" d="M9.863 95.564h.573-.573zm4.017-2.704h.574v-.535h-.574zm1.148-7.477h.574-.574zm1.92-.024v5.358h.773V85.36h-.773zm-.772.024h.772-.772zm-1.722 8.013v1.072h.574v-1.072zm.574 0h.574v-.536h-.574zm1.148-2.679v1.072h-.574V92.86h.574V91.789h.573v-1.072zm-4.592 5.359h.574v-.536h-.574zm2.296-1.608v-.536h-.574v1.072h.574zm-1.148 1.072h.574v-.536h-.574zm-2.296-.536h-.573v.536H5.271v.536h4.592v-.536H11.01v-.536zm.574 0h.574v-.536h-.574zm1.148-1.072h-.574v.536h1.148v-1.072h-.574zm.574-.536h.574v-.536h-.574zm.574-.536h.574v-.535h-.574zm.574-1.071v.536h.574v-1.072h-.574zm.574-5.895v5.359h.574v-5.359zm-.574-1.071v.536h.574v-1.072h-.574zm-.574-1.072h.574v-.536h-.574zm-2.87 8.574h.574v-.536h-.574zm1.148-6.431v.536h.574V89.645h-.574v1.072h-.574v1.072h.574v-.536h.574v-1.072h.574V85.894h-.574V84.823h-.574v.536zm-.574-1.071h.574v-.536h-.574zm-.574-.536h.574v-.536h-.574zm2.296-1.072h.574v-.536h-.574zm-.574-.536h.574v-.536h-.574zm-.574-.536h.574v-.535h-.574zm-.574-.535h.574v-.536h-.574zm-1.147-.536H11.01v-.536H9.863zM4.697 95.004h-.574v.536h1.148v-.536zm-1.147 0h.573v-.536H3.55zm-.574-1.072v-.536h-.574v1.072H3.55v-.536zm-1.148-.536h.574v-.536h-.574zm4.017 0h4.018v-.536h.573v-.535H9.289v.535H5.845v-.535H4.697v.535h.574v.536zm-1.722-1.071h.574v-.536h-.574zm-2.295-.536h-.574V92.86h.574v-.535zm-.574-1.072H.68v1.072h.574v-.536zM.106 85.894V90.181H.68V85.894zm4.017 4.823H3.55V89.646h-.574V86.43h.574V85.359h.573v-1.072H3.55v.536h-.574V85.894h-.574v4.287h.574v1.072h.574v.536h.573v-.536zm-2.869-5.894v-.536H.68v1.072h.574zm2.869-.536h.574v-.536h-.574zm-2.295-.536v-.536h-.574v1.072h.574zm4.017 0v-.536H9.289v.536H10.436v-.536h-.573v-.536H5.271v.536h-.574v.536h.574zm-4.017-.536h.574v-.536h-.574zm.574-.536h.574v-.536h-.574zm.574-.536h.574v-.535h-.574zm.574-.535h.573v-.536H3.55zm1.721-.536v-.536H4.123v.536h.574zm0-1.072v.536h4.592V80z"/><path fill="#FEFEFE" d="M15.602 84.287h-.574v.536h-.574V85.894h.574v-.535h1.148v-1.072zm-.574-1.608h-1.722v.536h.574v.536h.574v-.536h1.148v-.536zm-6.887 9.646H6.419v-.536H5.271v-.536h-.574v-.536h-.574v1.072h.574v.536h1.148v.535H9.289v-.535h-.574zm1.148-.536v.536H10.436v-.536h-.573zm1.147 0h.574v-.536h-.574zm-6.313-2.144H3.55v1.072h.573v-.536zm-.573-1.071v-1.072h-.574V89.645h.574v-.535zm-.574-1.608h.574v-.536h-.574z"/><g><path fill="#F1A12C" d="M43.11 126.784h.703v-.644h-.703zm0-1.77h.703v-.644h-.703z"/><path fill="#F5EBC6" d="M28.957 117.937h.702v-.644h-.702z"/><path fill="#F1A12C" d="M46.32 115.846h-2.042v6.812h-.682v1.239h-.68v.618h-.68v.62h-.681v1.238h-1.36v.62h-.681v.618h-1.36v.62h2.721v-.62h1.362v-.619h.681v-1.238h.68v.619h.681v-1.239h.68v-.619h.681v-1.239h.68v-1.238H47v-6.192h-.68zm-2.722 8.669h.68v-.619h-.68v.619z"/><path fill="#231F20" d="M39.333 127.901v.015h-1.179v.645h2.359v-.645h1.179v-.015z"/><path fill="#FEFEFE" d="M43.11 114.399h.703v-.644h-.703z"/><path fill="#FBCA25" d="M28.718 115.088v-1.264h.737v-.632h.737v-.631h.737v-.632h.737v-.632h5.898v.632h.737v.632h.738v.631h.736v.632h.738v1.264h.737v5.055h-.737v1.264h-.738v.631h-.736v.632H38.3v.632h-.737v.632h-5.897v-.632h-.736v-.632h-.737v-.632h-.737v-.631h-.737v-1.264h-.739v-5.055h.737zm14.006-.632-.001-1.895h-.737v-.632h-.737v-.632h-.737v-.632h-.738v-.632h-.736v-.633h-1.475v-.63h-5.897v.632h-1.474v.632h-.737v.632h-.737v.632h-.738v.632h-.738v1.263h-.737v1.264h-.735v6.318h.737v1.263h.737v1.264h.738v.632h.737v.632h.737v.632h.737v.632h1.474v.632h5.897v-.632h1.475v-.632h.736v-.632h.738v-.632h.737v-.632h.737v-.632h.737v-1.263h.738v-6.951h-.738z"/><path fill="#FBCA25" d="M30.015 114.805h-.707v4.996h.707v1.249h.708v.624h.708v.624h1.415v.625H36.385v-.625H37.8v-.624h.708v-.624h.707v-1.249h.708V116.054h-.708V114.181h-.707v-.624H37.8v-.625h-1.415v-.624h-4.247v.624h-1.415v.625h-.708v.624z"/><path fill="#F1A12C" d="M46.116 113.723v-1.415h-.885v.708H43.462v2.122h.884v-.707h1.77v1.415H47v-2.123zm-7.962-4.954v.708h1.415v.708h.708v.707h.708v.708h.707v.708H45.231v-.708h-.708v-.708h-1.415v-.707H42.4v-.708h-1.415v-.708z"/><path fill="#F1A12C" d="M46.116 113.723v-1.415h-.885v.708H43.462v2.122h.884v-.707h1.77v1.415H47v-2.123z"/><path fill="#231F20" d="M43.11 112.308h.703-.703zm3.006 1.415v-1.415h-.885v1.415h.885v2.123H47v-2.123zm-4.775-2.863h.702v-.644h-.702z"/><path fill="#231F20" d="M41.692 110.86h1.77v-.644h-1.77zm-.884 0h.884v-.644H39.923v.644zm4.072 1.77h.702v-.644h-.702zM38.154 108.447v.644H41.692v-.644zM39.572 126.462h.702-.702zM37.803 128.23h.702-.702zm5.307-3.216h.703v-.644h-.703zm1.77-9.168h.702-.702zm1.235-1.769v7.077H47v-7.077h-.885zm-.884.037h.884-.884z"/><path fill="#231F20" d="M43.11 124.692v1.77h.703v-1.77zm1.77.323h.702v-.645h-.702z"/><path fill="#231F20" d="M46.116 122.923v.885h-.885v.884h.885v-.884H47v-.885zm-6.544 5.63h.702v-.644h-.702zm2.471-2.976v-.885h-.702v1.77h.702z"/><path fill="#231F20" d="M41.341 126.784h.702v-.644h-.702zm-2.126-.322h-.707v.884h-5.662v.885H38.508v-.885h1.415v-.884z"/><path fill="#231F20" d="M39.572 126.784h.702v-.644h-.702z"/><path fill="#231F20" d="M40.808 125.577h-.885v.885H41.692v-1.77h-.884z"/><path fill="#231F20" d="M41.341 125.015h.702v-.645h-.702z"/><path fill="#231F20" d="M41.341 125.014h.702v-.644h-.702zm1.769-1.207v.885h.703V122.923h-.703zm0-7.961V122.923h.703v-7.077zm0-.885v.885h.703V114.077h-.703zm-1.769-2.331h.702v-.644h-.702zm-3.538 10.615h.702v-.644h-.702zm2.71-7.807v.68h.59v4.083h-.59V121.562h-.59V122.923h.59v-.68h.59V120.882h.589v-5.444h-.589V114.077h-.59v.681zm-.941-1.039h.702v-.644h-.702zm-1.769 0h.702v-.644h-.702z"/><path fill="#231F20" d="M41.341 112.63h.702v-.644h-.702z"/><path fill="#231F20" d="M41.341 112.63h.702v-.644h-.702zm-1.769-1.77h.702v-.644h-.702z"/><path fill="#231F20" d="M39.572 110.86h.702v-.644h-.702z"/><path fill="#231F20" d="M38.154 110.86H39.923v-.644H38.154zm-6.192 15.28h-.885v.644H32.846v-.644z"/><path fill="#231F20" d="M30.726 126.784h.702v-.644h-.702z"/><path fill="#231F20" d="M30.192 125.577v-.885h-.884v1.77H31.077v-.885zm-3.005-.562h.703v-.645h-.703zm5.306-.323h4.953v-.885h.708v-.884h-1.415v.884H32.493v-.884h-1.416v.884h.708v.885z"/><path fill="#231F20" d="M30.726 123.245h.702v-.644h-.702zm-2.836-.322h-.703V124.692h.703v-.884zm-.001-1.769h-.701V122.923h.701v-.884zm-2.471-5.308v5.308h.702v-5.308z"/><path fill="#231F20" d="M31.077 121.659h-.59v-1.263h-.589V116.604h.589v-1.263h.59v-1.264h-.59v.631h-.589v1.264h-.59v5.056h.59v1.264h.589v.631h.59v-.631zm-3.188-6.698v-.884h-.701V115.846h.701z"/><path fill="#231F20" d="M30.726 114.399h.702v-.644h-.702zm-2.836-1.207v-.884h-.703V114.077h.703z"/><path fill="#231F20" d="M32.493 114.077v-.885h4.246v.885h1.415v-.885h-.708v-.884H31.785v.884h-.708v.885h.708zm-5.306-1.447h.703v-.644h-.703zm1.77 0h.702v-.644h-.702zm0-1.77h.702v-.644h-.702zm1.769 0h.702v-.644h-.702z"/><path fill="#231F20" d="M32.846 110.86v-.644H31.077v.644h.885zm0-2.413v.644h5.308v-.644z"/><path fill="#FEFEFE" d="M44.641 114.077h-.59v.589h-.589v1.18h.589v-.59h1.18V114.077zm-.295-1.769h-2.654v.884h.885v.885h.884v-.885h1.77v-.884zm-7.765 11.942h-2.359v-.442H32.65v-.442h-.786v-.443h-.787v.885h.787v.442h1.572v.442h4.718v-.442h-.786zm-.196-1.649v.644H38.154v-.644h-.885z"/><path fill="#FEFEFE" d="M37.803 123.245h.702v-.644h-.702zm-6.375-3.86h-.702V121.154h.702v-.885zm-1.769-.885v-.885h-.702v1.77h.702v-.443z"/><path fill="#FEFEFE" d="M28.957 117.937h.702v-.644h-.702z"/></g></g></svg>