<svg xmlns="http://www.w3.org/2000/svg" width="83" height="80"><g fill="none" fill-rule="evenodd"><path fill="#000" d="M.037 74.074V80H3v-5.926H.037zM3 65.185v8.89h2.963v-8.89H3zm2.963-5.926v5.926h2.963V59.26H5.963zm2.963-8.889v8.89h2.963v-8.89H8.926zm2.963-8.889v8.89h2.963v-8.89h-2.963zm2.963-5.925v5.925h2.963v-5.925h-2.963zm2.963-5.926v5.926h2.963V29.63h-2.963zm2.963-2.963v2.963h2.962v-2.963h-2.963zm-5.926-11.852v8.889h2.963l-.001-2.964h5.926v5.926h2.963v-8.89h-8.89v-2.962h-2.962zm47.407-5.926h-2.963v8.889h2.964v-8.89zm-44.444 0v5.926h2.963l.001-5.926h-2.963zm2.963-2.963v2.963h5.926l.001-2.963h-5.926zm35.555 0v2.963h2.963l.001-2.963h-2.963zm-29.63-2.963v2.963h2.964l.001-2.963h-2.963zm23.704 0v2.963h5.926l.002-2.963h-5.926zM29.667 0v2.963h20.74V0h-20.74z"/><path fill="#132F4C" d="M53.37 71.111h-2.963V59.26h-2.963V47.407H62.26v-2.963H50.408V32.593H38.557V29.63h-2.963v-2.963h-2.963V20.74h2.963v-2.963h23.702v-8.89h-2.963v-2.96h-5.926V2.963h-20.74v2.963h-2.963v2.963h-5.926v5.926h-2.963v2.963h8.889v8.889h-2.963v2.963h-2.963v5.926h-2.963v5.925h2.963V59.26h8.889v-8.89h2.963v14.815h-8.89v-2.963h-5.925V44.444h-2.963v5.926h-2.963v8.89H8.926v5.925H5.963v8.89H3V80h50.37v-8.889zm-26.666-29.63h2.963v8.89h-2.963v-8.89z"/><path fill="#1D3A66" d="M17.815 44.444h-2.963v-2.963h2.963z"/><path fill="#000" d="M32.63 50.37h-2.963v11.852h-5.926v2.963h8.889V50.37zm-14.815-8.889v20.741h5.925V59.26h-2.963V41.481h-2.963zm8.889 0v8.89h2.963v-8.89h-2.963z"/><path fill="#F6BE96" d="M29.667 62.222V59.26h-5.926v2.963h5.926z"/><path fill="#E7B490" d="M62.26 17.778H35.593v2.963H32.63v5.926h2.963v2.963h2.963v2.963h20.74V29.63h2.964V17.778zm-11.853 5.926h2.963v5.926h-2.963v-5.926zm5.926-2.963h2.963v5.926h-2.963V20.74zm-17.777 0h2.963v5.926h-2.963V20.74z"/><path fill="#6E3320" d="M68.185 47.407v17.778h-2.963V80h2.963V68.148h2.963v-20.74h-2.963zM80.037 8.89h-8.889v11.85h-2.963v20.74h2.963V29.63h5.926v-8.89h2.963V8.89zM68.185 2.964V8.89h2.963V2.963h-2.963zm11.852 0V8.89L83 8.889V2.963h-2.963z"/><path fill="#B12024" d="M77.074 2.963v2.963h2.963V0h-8.889v8.889h5.926V5.926h-2.963V2.963h2.963z"/><path fill="#6E3320" d="M74.111 32.593h-2.963V29.63h2.963z"/><path fill="#FFF" d="M77.074 5.926v2.963h2.963V5.926h-2.963zm-2.963-2.963v2.963h2.963V2.963h-2.963z"/><path fill="#721C1D" d="M41.519 20.74h-2.963v5.927h2.963V20.74z"/><path fill="#0C0C0C" d="M56.333 71.111H53.37V80h2.963v-8.889zm-5.926-11.852v11.852h2.963V59.26h-2.963zm-2.963-11.852V59.26h2.963V47.407h-2.963z"/><path fill="#000" d="M65.222 41.481H53.37v-8.888h-2.963v11.851H62.26v2.963h-2.963v2.963h5.926v-8.889z"/><path fill="#E7B490" d="M53.37 29.63h-2.963v-2.963h2.963zm0-2.963h-2.963v-2.963h2.963z"/><path fill="#721C1D" d="M59.296 20.74h-2.963v5.927h2.963V20.74z"/><path fill="#F6BE96" d="M71.148 47.407v-5.926h-5.926v5.926h5.926z"/></g></svg>