<svg xmlns="http://www.w3.org/2000/svg" width="67" height="54" viewBox="0 0 67 54">
    <g fill="none" fill-rule="evenodd">
        <g>
            <g>
                <path fill="#FDD76F" d="M60 19.146L56.427 19.146 56.427 22.04 45.922 11.459 49.439 7.916 45.551 4 34.462 16.133 34.217 19.077 29.795 14.622 33.379 11.012 29.943 7.551 4 33.682 6.147 35.251 6.147 38.303 9.165 38.303 9.165 35.263 12.42 35.206 12.42 38.369 15.627 38.362 15.482 41.526 18.734 41.526 18.734 44.59 15.482 44.59 15.482 47.983 18.734 47.983 18.734 51 21.987 51 32.433 40.491 32.285 42.264 37.79 47.809 59.901 25.539 57.127 22.744 60 22.744z" transform="translate(-377 -146) translate(377 146)"/>
                <path fill="#4D0000" d="M6.338 28.602v3.28h-3.05v3.04h3.05v3.1h3.05v-3.1h3.287v3.1h3.237v3.22h3.146v3.279h-3.094v2.92h3.094v3.28h3.14v-2.922h3.288v3.28h-3.14V54h-3.288v-3.28H15.77V47.8h-3.095v-3.28h3.095v-3.219h-3.147v-3.1H9.626v3.1H6.338v-3.1H3.049v-3.28H0v-3.278h3.05v-3.04h3.288zm12.72 0v3.04h3.288v3.28h3.14v3.1h3.288v3.279h2.945v-3.279h3.218v-3.1h3.05v-3.28h3.288v-3.04h3.289v3.28h-3.289v3.04h-3.05V38.2h-3.218v3.1h-3.139v3.22h3.14v3.04h3.218v3.279h-3.289V47.8H31.72v-3.22h-2.945v3.22h-3.289v-3.28h3.095V41.3h-3.095v-3.099h-3.288v-3.28h-3.139v-3.04h-3.289v-3.279h3.289zm31.888 6.32v3.279h-3.094v3.279h-3.288v3.04h-3.05v3.041h-3.288v-3.28h3.05v-3.04h3.288v-3.04h3.094v-3.279h3.288zm-6.382 0V38.2h-3.289v-3.28h3.289zm12.765-6.32v3.28h-3.094v3.04h-3.289v-3.28h3.094v-3.04h3.289zm-9.477-9.598v3.085h3.094v3.28h-3.094v3.225h-3.288v-3.279h3.094v-3.032h-3.094v-3.28h3.288zm-35.177 3.279v3.033h3.289v3.278h-3.289v-3.032H9.626v3.032H6.338v-3.278h3.05v-3.033h3.287zm51.037 0v3.279h-3.095v3.033H57.33v-3.28h3.094v-3.032h3.289zM67 19.003v3.28h-3.289v-3.28H67zM47.852 0v3.086h3.094v3.278h-3.288V3.28h-3.094v3.085h-3.155v3.28h-3.183v3.04h-3.219v3.28h3.219v3.04h3.05v-3.28h3.288v3.28h-3.05v3.279h-3.288v-3.04h-3.288v-3.28h-3.22v-3.279h3.22v-3.04H31.87v-3.28h-3.288V3.086h3.288v3.28h3.288v3.04h2.961v-3.04h3.155v-3.28h3.289V0h3.288zM28.58 6.364v3.28h-3.095v3.04h-3.139v3.28l-3.288-.001v3.28h-3.094v3.04h-3.289v-3.28h3.095v-3.04l3.287-.001.001-3.278h3.14V9.405h3.093v-3.04h3.289zm25.655 6.32v3.04h3.094v-3.04h3.288v3.04h3.095v3.28h-3.289v-3.04h-3.094v3.04H54.04v-3.04h-3.095v-3.28h3.289zm0-6.32v3.28h-3.289v3.04h-3.288v-3.28h3.288v-3.04h3.289z" transform="translate(-377 -146) translate(377 146)"/>
                <path fill="#FFF1C9" d="M56.726 21.937h3.006v-2.925h-3.006v2.925zM43.912 9.285h3.089v-2.96h-3.089v2.96zm-12.644 6.403h3.065v-3.015h-3.065v3.015zm9.6 9.355h2.962v-2.889h-2.961v2.89zm19.039-6.213v-3.142h-3.268v3.079h-3.18v-3.08h-3.19v-3.205h-3.171V9.35h3.17V6.025h-3.267V3h-3.268v3.197h-3.088v3.325H37.6v2.96h-3.193V9.35h-3.14V6.197H28v3.325h3.14v2.96H28v3.324h3.14v3.206h3.268v3.11h3.193v3.139h3.044v3.107h3.267V25.26h3.186v-3.324h-3.186V18.83h-3.267v3.107h-2.97v-3.139h-3.267v-2.992h3.193v-2.96h3.268V9.522h2.961v3.087H47v3.197h3.19v3.206h3.269v3.079h3.006v2.952h-3.006v3.182H50.19v3.256H47v3.086H43.83v3.109h-3.185V41h3.267v-3.109h3.186v-3.086h3.17V31.55h3.19v-3.182h3.268V25.26h3.006v-3.107H63V18.83h-3.093zM16.172 38.296h2.98V35.18h-2.98v3.116zm21.618 6.29H34.88v-3.144h-3.086v-3.05h3.077v-3.358h-3.21v3.172h-3.077v3.268h-2.997v-3.178H22.37v-3.173h-3.122V32h-3.218v3.123H13v3.18h3.03v3.173h3.217v-3.173h3.122v3.173h3.078v3.178h-3.078v2.936h-3.122v-3.033h-3.218v3.41h3.218V51h3.217v-2.936h3.122v-3.41h3.078v-3.088h3.005V44.8h3.21v3.143h3.21v-3.2H41v-3.36h-3.21v3.201z" transform="translate(-377 -146) translate(377 146)"/>
                <path fill="#FFF1C9" d="M38 32.03L41 32.03 41 29 38 29 35 29 35 32.03 35 35 38 35zM6 38L9 38 9 35 6 35z" transform="translate(-377 -146) translate(377 146)"/>
                <path fill="#F4E1BA" d="M15.566 31.729L15.566 28.501 12.469 28.501 12.469 25.331 15.581 25.331 15.581 22.252 18.72 22.252 18.72 19.03 21.859 19.03 21.859 15.621 24.93 15.621 24.93 12.409 28 12.409 28 9 24.775 9 24.775 12.213 21.704 12.213 21.704 15.621 18.634 15.621 18.634 18.843 15.495 18.843 15.495 22.065 12.356 22.065 12.356 25.283 9.244 25.283 9.244 28.501 6.122 28.501 6.122 31.773 3 31.773 3 35 6.122 35 6.122 31.854 9.244 31.854 9.244 28.549 12.333 28.549 12.333 31.729z" transform="translate(-377 -146) translate(377 146)"/>
                <path fill="#F77E00" d="M25.349 22.322L22 22.322 22 29 28.675 29 28.675 25.644 25.349 25.644 25.349 22.419 28.675 22.419 28.675 25.644 32 25.644 32 19 25.349 19zM31.294 31.584H28V35h3.389v-3.265c1.645.556 2.743.556 3.294 0 .55-.555.55-1.661 0-3.319H38V25h-3.389v3.32h-3.317v3.264z" transform="translate(-377 -146) translate(377 146)"/>
            </g>
        </g>
    </g>
</svg>
