<svg xmlns="http://www.w3.org/2000/svg" xmlns:xlink="http://www.w3.org/1999/xlink" width="147" height="115" viewBox="0 0 147 115">
    <defs>
        <path id="kkz4g1nrha" d="M0.25 0.125L0.375 0.125 0.375 0.25 0.25 0.25z"/>
        <path id="z17oyvj14c" d="M0.5 0.25L0.75 0.25 0.75 0.5 0.5 0.5z"/>
        <path id="llyzbanqse" d="M0.5 0.25L0.75 0.25 0.75 0.5 0.5 0.5z"/>
        <path id="qqi9m4t7lg" d="M0.5 0.25L0.75 0.25 0.75 0.5 0.5 0.5z"/>
        <path id="o77hkclpdi" d="M0.25 0.125L0.375 0.125 0.375 0.25 0.25 0.25z"/>
        <path id="w3pby98nmk" d="M0.25 0.125L0.375 0.125 0.375 0.25 0.25 0.25z"/>
        <path id="1sjv78px7m" d="M0.5 0.25L0.75 0.25 0.75 0.5 0.5 0.5z"/>
        <path id="ami0g2r7eo" d="M0.5 0.25L0.75 0.25 0.75 0.5 0.5 0.5z"/>
        <path id="0r9tdtbo5q" d="M0.5 0.25L0.75 0.25 0.75 0.5 0.5 0.5z"/>
        <path id="daoy2wcj8s" d="M0.25 0.125L0.375 0.125 0.375 0.25 0.25 0.25z"/>
        <path id="d56gbucu8u" d="M0.25 0.125L0.375 0.125 0.375 0.25 0.25 0.25z"/>
        <path id="oumlkp2w7w" d="M0.5 0.25L0.75 0.25 0.75 0.5 0.5 0.5z"/>
        <path id="aiqgdgqv4y" d="M0.5 0.25L0.75 0.25 0.75 0.5 0.5 0.5z"/>
        <path id="6unzloa86A" d="M0.5 0.25L0.75 0.25 0.75 0.5 0.5 0.5z"/>
        <path id="m1benx29qC" d="M0.25 0.125L0.375 0.125 0.375 0.25 0.25 0.25z"/>
    </defs>
    <g fill="none" fill-rule="evenodd">
        <g>
            <g>
                <g>
                    <g>
                        <path fill="#F7B500" d="M59.972 8.024L15.979 8.024 15.979 12.072 19.85 12.072 19.85 20.061 23.792 20.061 23.792 28.015 27.734 28.015 27.734 35.934 32.089 35.934 32.089 43.888 35.937 43.888 35.937 56.077 43.885 56.077 43.885 52.036 40.498 52.036 40.498 44.064 43.885 44.064 43.885 35.934 47.733 35.934 47.733 28.015 52.088 28.015 52.088 20.061 56.03 20.061 56.03 12.072 59.972 12.072zM8.024 11.966L11.896 11.966 11.896 20.061 7.954 20.061 7.954 24.144 11.966 24.144 11.966 28.015 15.908 28.015 15.908 32.051 8.024 32.051 8.024 27.874 3.942 27.874 3.942 16.049 8.024 16.049zM63.914 20.061L71.868 20.061 71.868 16.002 63.914 16.002zM59.972 20.061L63.914 20.061 63.914 31.957 56.03 31.957 56.03 28.015 59.972 28.015zM67.856 28.045L71.868 28.045 71.868 24.144 67.856 24.144zM23.827 64.055L23.827 67.926 19.867 67.926 19.867 76.045 59.954 76.045 59.954 67.926 55.995 67.926 55.995 63.985 52.018 63.985z" transform="translate(-887 -328) translate(887 328) translate(35)"/>
                        <path fill="#000" d="M26.466 71.822L32.943 71.822 32.943 68.56 26.466 68.56zM36.403 71.822L42.879 71.822 42.879 68.56 36.403 68.56zM46.34 71.822L52.816 71.822 52.816 68.56 46.34 68.56z" transform="translate(-887 -328) translate(887 328) translate(35)"/>
                        <path fill="#F7931E" d="M67.856 7.989L67.856 3.942 11.966 3.942 11.966 7.989 59.972 7.989 59.972 12.072 63.914 12.072 63.914 7.989zM63.914 16.002L71.797 16.002 71.797 12.072 63.914 12.072zM71.798 16.002L71.868 27.874 75.88 27.874 75.88 16.002zM63.914 31.957L71.868 31.957 71.868 28.015 63.914 28.015zM56.03 20.043L52.088 20.043 52.088 27.997 47.733 27.997 47.733 35.987 52.088 35.987 52.088 28.033 56.03 28.033 56.03 20.061 59.972 20.061 59.972 12.072 56.03 12.072zM11.931 19.997L15.873 19.997 15.873 12.007 11.931 12.007zM19.815 20.149L15.873 20.149 15.873 28.033 15.873 32.051 19.815 32.051 23.792 32.051 23.792 28.033 19.815 28.033zM43.378 43.976L40.498 43.976 40.498 52.036 43.885 52.036 43.885 43.976 47.733 43.976 47.733 35.986 43.378 35.986zM35.937 56.078L35.937 52.036 31.902 52.036 31.929 60.184 47.92 60.184 47.92 52.036 43.885 52.036 43.885 56.078z" transform="translate(-887 -328) translate(887 328) translate(35)"/>
                        <path fill="#1D1D1B" d="M8.024 0L8.024 3.942 8.024 11.966 11.896 11.966 11.896 12.072 15.908 12.072 15.908 20.026 19.85 20.026 19.85 12.072 15.978 12.072 15.978 7.989 11.966 7.989 11.966 3.942 67.856 3.942 67.856 7.989 63.844 7.989 63.844 12.072 59.972 12.072 59.972 20.026 63.914 20.026 63.914 12.072 67.926 12.072 71.797 12.072 71.797 3.942 71.938 3.942 71.938 0z" transform="translate(-887 -328) translate(887 328) translate(35)"/>
                        <path fill="#1D1D1B" d="M71.797 11.966L71.797 16.049 75.88 16.049 75.88 27.874 79.822 27.874 79.822 15.908 75.88 15.908 75.88 11.966zM47.733 43.888L43.885 43.888 43.885 52.036 47.893 52.036 47.893 60.184 51.928 60.184 51.928 52.036 47.92 52.036 47.92 43.888 52.088 43.888 52.088 35.934 47.733 35.934zM56.03 28.015L59.972 28.015 59.972 20.062 56.03 20.062 56.03 27.98 52.088 27.98 52.088 31.992 52.088 35.934 56.03 35.934 71.868 35.934 71.868 31.992 56.03 31.992z" transform="translate(-887 -328) translate(887 328) translate(35)"/>
                        <path fill="#1D1D1B" d="M52.722 59.972h-29v4.013h-7.814v16.001h48.006V63.985H56.1v-4.013h-3.378zm3.273 4.083v3.87h3.96v8.12H19.868v-8.12h3.959v-3.87h32.168z" transform="translate(-887 -328) translate(887 328) translate(35)"/>
                        <path fill="#000" d="M71.797 31.957L75.88 31.957 75.88 27.875 71.797 27.875z" transform="translate(-887 -328) translate(887 328) translate(35)"/>
                        <path fill="#1D1D1B" d="M71.868 24.144L71.868 20.061 67.856 20.061 67.785 20.061 63.914 20.061 63.914 28.015 67.856 28.015 67.856 24.144zM3.942 11.966L3.942 15.908 0 15.908 0 27.874 3.942 27.874 3.942 16.049 8.025 16.049 8.025 11.966zM31.902 43.888L31.902 52.036 27.894 52.036 27.894 60.184 31.929 60.184 31.929 52.036 35.937 52.036 35.937 43.888 32.089 43.888 32.089 35.934 27.734 35.934 27.734 43.888zM7.954 35.934L23.792 35.934 27.734 35.934 27.734 31.992 27.734 27.98 23.792 27.98 23.792 20.061 19.85 20.061 19.85 28.015 23.792 28.015 23.792 31.992 7.954 31.992z" transform="translate(-887 -328) translate(887 328) translate(35)"/>
                        <path fill="#1D1D1B" d="M3.942 31.957L8.024 31.957 8.024 27.875 3.942 27.875zM15.908 28.015L15.908 20.062 12.037 20.062 11.966 20.062 7.954 20.062 7.954 24.144 11.966 24.144 11.966 28.015z" transform="translate(-887 -328) translate(887 328) translate(35)"/>
                    </g>
                </g>
                <g>
                    <path fill="#F1A217" d="M39.286 41.054L40.915 41.054 40.915 39.535 39.286 39.535zM40.915 36.492L42.542 36.492 42.542 34.971 40.915 34.971z" transform="translate(-887 -328) translate(887 328) translate(0 61)"/>
                    <path fill="#F9F0CD" d="M8.356 21.285L9.985 21.285 9.985 19.767 8.356 19.767z" transform="translate(-887 -328) translate(887 328) translate(0 61)"/>
                    <path fill="#F1A217" d="M47.426 15.205h-4.884V31.928h-1.627v3.043h-1.629v1.52h-1.628v1.519H36.03V41.054H32.774v1.518h-1.626v1.523H27.891v1.518H34.403v-1.518h3.255v-1.523h1.628v-3.037h1.63v1.519h1.626V38.01h1.63v-1.518h1.626V33.448h1.628v-3.04h1.627V15.205h-1.627zm-6.51 21.287h1.626V34.97h-1.627v1.52z" transform="translate(-887 -328) translate(887 328) translate(0 61)"/>
                    <path fill="#1D1D1B" d="M31.148 44.056L31.148 44.095 27.891 44.095 27.891 45.614 34.403 45.614 34.403 44.095 37.658 44.095 37.658 44.056z" transform="translate(-887 -328) translate(887 328) translate(0 61)"/>
                    <path fill="#FEFEFE" d="M39.286 12.165L40.915 12.165 40.915 10.646 39.286 10.646z" transform="translate(-887 -328) translate(887 328) translate(0 61)"/>
                    <path fill="#FCCC00" d="M8.356 16.724V13.685h1.629v-1.52h1.627v-1.52h1.627V9.127h1.629V7.602H27.89v1.524h1.628v1.52h1.63v1.52h1.625v1.519h1.63v3.04h1.627v12.164h-1.628V31.928h-1.629v1.52h-1.626v1.523H29.52v1.52h-1.628v1.52H14.867v-1.52H13.24v-1.52h-1.627v-1.523H9.985v-1.52h-1.63V28.89H6.73V16.724h1.627zm30.93-1.52V10.645h-1.628V9.127H36.03V7.602h-1.628V6.084h-1.629v-1.52h-1.626V3.04H27.891V1.52H14.867v1.52h-3.255v1.523H9.985v1.52h-1.63v1.52H6.73v1.523H5.1v3.04H3.473V15.204h-1.63V30.407h1.63v3.04H5.1v3.043h1.628v1.52h1.627v1.524h1.629v1.518h1.627v1.52H14.868v1.522H27.89v-1.523h3.258v-1.519h1.625v-1.518h1.63V38.01h1.627v-1.518h1.627V34.97h1.628v-3.043h1.63V15.205h-1.63z" transform="translate(-887 -328) translate(887 328) translate(0 61)"/>
                    <path fill="#FCCC00" d="M11.612 15.205L9.985 15.205 9.985 16.724 9.985 18.244 9.985 19.767 9.985 21.285 9.985 22.807 9.985 24.329 9.985 25.847 9.985 27.368 11.612 27.368 11.612 28.89 11.612 30.408 13.239 30.408 13.239 31.929 14.868 31.929 14.868 33.448 16.497 33.448 18.124 33.448 18.124 34.971 19.752 34.971 21.38 34.971 23.007 34.971 24.635 34.971 26.264 34.971 26.264 33.448 27.891 33.448 29.519 33.448 29.519 31.929 31.148 31.929 31.148 30.408 32.774 30.408 32.774 28.89 32.774 27.368 34.403 27.368 34.403 25.847 34.403 24.329 34.403 22.807 34.403 21.285 34.403 19.767 34.403 18.244 32.774 18.244 32.774 16.724 32.774 15.205 32.774 13.685 31.148 13.685 31.148 12.165 29.519 12.165 29.519 10.646 27.891 10.646 26.264 10.646 26.264 9.126 24.635 9.126 23.007 9.126 21.38 9.126 19.752 9.126 18.124 9.126 16.497 9.126 16.497 10.646 14.868 10.646 13.239 10.646 13.239 12.165 11.612 12.165 11.612 13.685z" transform="translate(-887 -328) translate(887 328) translate(0 61)"/>
                    <path fill="#F1A217" d="M45.798 10.646L45.798 9.126 45.798 7.602 44.171 7.602 44.171 9.126 42.542 9.126 40.915 9.126 40.915 10.646 40.915 12.165 40.915 13.685 42.542 13.685 42.542 12.165 44.171 12.165 45.798 12.165 45.798 13.685 45.798 15.205 47.426 15.205 47.426 13.685 47.426 12.165 47.426 10.646zM27.891 0L27.891 1.52 29.519 1.52 31.148 1.52 31.148 3.041 32.774 3.041 32.774 4.563 34.403 4.563 34.403 6.084 36.031 6.084 36.031 7.602 37.658 7.602 39.286 7.602 40.915 7.602 42.542 7.602 44.171 7.602 44.171 6.084 42.542 6.084 42.542 4.563 40.915 4.563 39.286 4.563 39.286 3.041 37.658 3.041 37.658 1.52 36.031 1.52 34.403 1.52 34.403 0z" transform="translate(-887 -328) translate(887 328) translate(0 61)"/>
                    <path fill="#F1A217" d="M45.798 10.646L45.798 9.126 45.798 7.602 44.171 7.602 44.171 9.126 42.542 9.126 40.915 9.126 40.915 10.646 40.915 12.165 40.915 13.685 42.542 13.685 42.542 12.165 44.171 12.165 45.798 12.165 45.798 13.685 45.798 15.205 47.426 15.205 47.426 13.685 47.426 12.165 47.426 10.646z" transform="translate(-887 -328) translate(887 328) translate(0 61)"/>
                    <path fill="#1D1D1B" d="M40.915 9.126h1.627-1.627zM45.798 10.646L45.798 9.126 45.798 7.602 44.171 7.602 44.171 9.126 44.171 10.646 45.798 10.646 45.798 12.165 45.798 13.683 45.798 15.205 47.426 15.205 47.426 13.683 47.426 12.165 47.426 10.646zM37.658 4.563L39.286 4.563 39.286 3.04 37.658 3.04zM39.286 6.084L40.915 6.084 42.542 6.084 42.542 4.563 40.915 4.563 39.286 4.563zM36.031 3.04L37.658 3.04 37.658 1.52 36.031 1.52 34.403 1.52 34.403 3.04zM42.542 7.602L44.171 7.602 44.171 6.084 42.542 6.084z" transform="translate(-887 -328) translate(887 328) translate(0 61)"/>
                    <g transform="translate(-887 -328) translate(887 328) translate(0 61) translate(0 45.396)">
                        <mask id="hugmjykeab" fill="#fff">
                            <use xlink:href="#kkz4g1nrha"/>
                        </mask>
                    </g>
                    <path fill="#1D1D1B" d="M27.891 0L27.891 1.52 29.519 1.52 31.148 1.52 32.774 1.52 34.403 1.52 34.403 0z" transform="translate(-887 -328) translate(887 328) translate(0 61)"/>
                    <g>
                        <g transform="translate(-887 -328) translate(887 328) translate(0 61) translate(0 45.396)">
                            <mask id="rwnwli33xd" fill="#fff">
                                <use xlink:href="#z17oyvj14c"/>
                            </mask>
                        </g>
                        <g transform="translate(-887 -328) translate(887 328) translate(0 61) translate(0 45.396)">
                            <mask id="btdazfcbsf" fill="#fff">
                                <use xlink:href="#llyzbanqse"/>
                            </mask>
                        </g>
                        <g transform="translate(-887 -328) translate(887 328) translate(0 61) translate(0 45.396)">
                            <mask id="epvwg9gfgh" fill="#fff">
                                <use xlink:href="#qqi9m4t7lg"/>
                            </mask>
                        </g>
                    </g>
                    <path fill="#1D1D1B" d="M32.774 41.054h1.63-1.63z" transform="translate(-887 -328) translate(887 328) translate(0 61)"/>
                    <g transform="translate(-887 -328) translate(887 328) translate(0 61) translate(0 45.396)">
                        <mask id="eytdxttudj" fill="#fff">
                            <use xlink:href="#o77hkclpdi"/>
                        </mask>
                    </g>
                    <path fill="#1D1D1B" d="M27.891 44.095h1.628-1.628zM39.286 36.492L40.915 36.492 40.915 34.971 39.286 34.971zM42.542 15.205h1.63-1.63zM47.426 15.205V30.408h1.627V15.205h-1.627zm-1.628 0h1.628-1.628zM40.915 38.01L40.915 39.535 40.915 41.054 42.542 41.054 42.542 39.535 42.542 38.01zM42.542 38.01L44.171 38.01 44.171 36.491 42.542 36.491zM45.798 30.408L45.798 31.929 45.798 33.45 44.171 33.45 44.171 34.971 44.171 36.492 45.798 36.492 45.798 34.971 45.798 33.45 47.426 33.45 47.426 31.929 47.426 30.408zM32.774 45.613L34.403 45.613 34.403 44.095 32.774 44.095zM39.286 41.054L39.286 39.535 37.658 39.535 37.658 41.054 37.658 42.572 39.286 42.572zM36.031 44.095L37.658 44.095 37.658 42.572 36.031 42.572zM29.519 42.572L27.891 42.572 27.891 44.095 26.264 44.095 24.635 44.095 23.007 44.095 21.38 44.095 19.751 44.095 18.124 44.095 16.495 44.095 14.868 44.095 14.868 45.613 16.495 45.613 18.124 45.613 19.751 45.613 21.38 45.613 23.007 45.613 24.635 45.613 26.264 45.613 27.891 45.613 27.891 44.095 29.519 44.095 31.148 44.095 31.148 42.572zM31.148 42.572L32.774 42.572 32.774 41.054 31.148 41.054zM34.403 39.535L32.774 39.535 32.774 41.054 34.403 41.054 36.031 41.054 36.031 39.535 36.031 38.01 34.403 38.01zM36.031 38.01L37.658 38.01 37.658 36.491 36.031 36.491zM37.658 36.492L39.286 36.492 39.286 34.971 37.658 34.971zM39.286 33.45L39.286 34.971 40.915 34.971 40.915 33.45 40.915 31.929 39.286 31.929zM40.915 16.724L40.915 18.244 40.915 19.768 40.915 21.285 40.915 22.807 40.915 24.328 40.915 25.847 40.915 27.368 40.915 28.889 40.915 30.408 40.915 31.929 42.542 31.929 42.542 30.408 42.542 28.889 42.542 27.368 42.542 25.847 42.542 24.328 42.542 22.807 42.542 21.285 42.542 19.768 42.542 18.244 42.542 16.724zM39.286 13.685L39.286 15.205 40.915 15.205 40.915 13.685 40.915 12.165 39.286 12.165zM37.658 10.646L39.286 10.646 39.286 9.126 37.658 9.126zM29.519 34.971L31.148 34.971 31.148 33.45 29.519 33.45zM32.774 16.724L32.774 18.244 34.403 18.244 34.403 19.768 34.403 21.285 34.403 22.807 34.403 24.328 34.403 25.847 34.403 27.368 32.774 27.368 32.774 28.889 32.774 30.408 31.148 30.408 31.148 31.929 31.148 33.45 32.774 33.45 32.774 31.929 34.403 31.929 34.403 30.408 34.403 28.889 36.031 28.889 36.031 27.368 36.031 25.847 36.031 24.328 36.031 22.807 36.031 21.285 36.031 19.768 36.031 18.244 36.031 16.724 34.403 16.724 34.403 15.204 34.403 13.683 32.774 13.683 32.774 15.204zM31.148 13.683L32.774 13.683 32.774 12.165 31.148 12.165zM29.519 12.165L31.148 12.165 31.148 10.646 29.519 10.646zM36.031 9.126L37.658 9.126 37.658 7.602 36.031 7.602zM34.403 7.602L36.031 7.602 36.031 6.084 34.403 6.084zM32.774 6.084L34.403 6.084 34.403 4.563 32.774 4.563zM31.148 4.563L32.774 4.563 32.774 3.04 31.148 3.04zM27.891 3.04L29.519 3.04 31.148 3.04 31.148 1.52 29.519 1.52 27.891 1.52zM13.239 42.572L11.612 42.572 11.612 44.095 13.239 44.095 14.868 44.095 14.868 42.572zM9.985 42.572L11.612 42.572 11.612 41.054 9.985 41.054zM8.356 39.535L8.356 38.01 6.729 38.01 6.729 39.535 6.729 41.054 8.356 41.054 9.985 41.054 9.985 39.535zM5.101 38.01L6.729 38.01 6.729 36.491 5.101 36.491zM16.495 38.01L18.124 38.01 19.752 38.01 21.38 38.01 23.007 38.01 24.635 38.01 26.264 38.01 27.891 38.01 27.891 36.492 29.519 36.492 29.519 34.971 27.891 34.971 26.264 34.971 26.264 36.492 24.635 36.492 23.007 36.492 21.38 36.492 19.752 36.492 18.124 36.492 16.495 36.492 16.495 34.971 14.868 34.971 13.239 34.971 13.239 36.492 14.868 36.492 14.868 38.01zM11.612 34.971L13.24 34.971 13.24 33.45 11.612 33.45zM5.101 33.45L3.473 33.45 3.473 34.971 3.473 36.492 5.101 36.492 5.101 34.971zM3.473 30.408L1.844 30.408 1.844 31.929 1.844 33.45 3.473 33.45 3.473 31.929zM.218 16.724L.218 18.244.218 19.768.218 21.285.218 22.807.218 24.328.218 25.847.218 27.368.218 28.889 1.844 28.889 1.844 27.368 1.844 25.847 1.844 24.328 1.844 22.807 1.844 21.285 1.844 19.768 1.844 18.244 1.844 16.724zM11.612 30.408L9.985 30.408 9.985 28.889 9.985 27.368 8.356 27.368 8.356 25.847 8.356 24.329 8.356 22.807 8.356 21.285 8.356 19.768 8.356 18.244 9.985 18.244 9.985 16.724 9.985 15.204 11.612 15.204 11.612 13.683 11.612 12.165 9.985 12.165 9.985 13.683 8.356 13.683 8.356 15.204 8.356 16.724 6.729 16.724 6.729 18.244 6.729 19.768 6.729 21.285 6.729 22.807 6.729 24.329 6.729 25.847 6.729 27.368 6.729 28.889 8.356 28.889 8.356 30.408 8.356 31.929 9.985 31.929 9.985 33.45 11.612 33.45 11.612 31.929zM3.473 13.683L3.473 12.165 1.844 12.165 1.844 13.683 1.844 15.204 3.473 15.204zM11.612 12.165L13.239 12.165 13.239 10.646 11.612 10.646zM5.101 10.646L5.101 9.126 3.473 9.126 3.473 10.646 3.473 12.165 5.101 12.165zM16.495 10.646L16.495 9.126 18.124 9.126 19.752 9.126 21.38 9.126 23.007 9.126 24.635 9.126 26.264 9.126 26.264 10.646 27.891 10.646 29.519 10.646 29.519 9.126 27.891 9.126 27.891 7.602 26.264 7.602 24.635 7.602 23.007 7.602 21.38 7.602 19.752 7.602 18.124 7.602 16.495 7.602 14.868 7.602 14.868 9.126 13.239 9.126 13.239 10.646 14.868 10.646zM5.101 9.126L6.729 9.126 6.729 7.602 5.101 7.602zM6.729 7.602L8.356 7.602 8.356 6.084 6.729 6.084zM8.356 6.084L9.985 6.084 9.985 4.563 8.356 4.563zM9.985 4.563L11.612 4.563 11.612 3.04 9.985 3.04zM14.868 3.04L14.868 1.52 13.239 1.52 11.612 1.52 11.612 3.04 13.239 3.04zM14.868 0L14.868 1.52 16.495 1.52 18.124 1.52 19.751 1.52 21.38 1.52 23.007 1.52 24.635 1.52 26.264 1.52 27.891 1.52 27.891 0z" transform="translate(-887 -328) translate(887 328) translate(0 61)"/>
                    <path fill="#FEFEFE" d="M44.171 12.165L42.542 12.165 42.542 13.685 40.915 13.685 40.915 15.204 40.915 16.724 42.542 16.724 42.542 15.204 44.171 15.204 45.798 15.204 45.798 13.685 45.798 12.165zM42.542 7.602L40.915 7.602 39.286 7.602 37.658 7.602 37.658 9.126 39.286 9.126 39.286 10.646 40.915 10.646 40.915 9.126 42.542 9.126 44.171 9.126 44.171 7.602zM23.007 34.971L21.38 34.971 19.752 34.971 18.124 34.971 18.124 33.448 16.497 33.448 14.868 33.448 14.868 31.929 13.239 31.929 13.239 30.408 11.612 30.408 11.612 31.929 11.612 33.448 13.239 33.448 13.239 34.971 14.868 34.971 16.497 34.971 16.497 36.492 18.124 36.492 19.752 36.492 21.38 36.492 23.007 36.492 24.635 36.492 26.264 36.492 26.264 34.971 24.635 34.971zM26.264 33.448L26.264 34.971 27.891 34.971 29.519 34.971 29.519 33.448 27.891 33.448zM29.519 33.448L31.148 33.448 31.148 31.929 29.519 31.929zM11.612 27.368L9.985 27.368 9.985 28.889 9.985 30.408 11.612 30.408 11.612 28.889zM9.985 24.329L9.985 22.807 9.985 21.285 8.356 21.285 8.356 22.807 8.356 24.329 8.356 25.847 8.356 27.368 9.985 27.368 9.985 25.847zM8.356 19.767L9.985 19.767 9.985 18.244 8.356 18.244z" transform="translate(-887 -328) translate(887 328) translate(0 61)"/>
                </g>
                <g>
                    <path fill="#F1A217" d="M39.286 41.054L40.915 41.054 40.915 39.535 39.286 39.535zM40.915 36.492L42.542 36.492 42.542 34.971 40.915 34.971z" transform="translate(-887 -328) translate(887 328) translate(50 69)"/>
                    <path fill="#F9F0CD" d="M8.356 21.285L9.985 21.285 9.985 19.767 8.356 19.767z" transform="translate(-887 -328) translate(887 328) translate(50 69)"/>
                    <path fill="#F1A217" d="M47.426 15.205h-4.884V31.928h-1.627v3.043h-1.629v1.52h-1.628v1.519H36.03V41.054H32.774v1.518h-1.626v1.523H27.891v1.518H34.403v-1.518h3.255v-1.523h1.628v-3.037h1.63v1.519h1.626V38.01h1.63v-1.518h1.626V33.448h1.628v-3.04h1.627V15.205h-1.627zm-6.51 21.287h1.626V34.97h-1.627v1.52z" transform="translate(-887 -328) translate(887 328) translate(50 69)"/>
                    <path fill="#1D1D1B" d="M31.148 44.056L31.148 44.095 27.891 44.095 27.891 45.614 34.403 45.614 34.403 44.095 37.658 44.095 37.658 44.056z" transform="translate(-887 -328) translate(887 328) translate(50 69)"/>
                    <path fill="#FEFEFE" d="M39.286 12.165L40.915 12.165 40.915 10.646 39.286 10.646z" transform="translate(-887 -328) translate(887 328) translate(50 69)"/>
                    <path fill="#FCCC00" d="M8.356 16.724V13.685h1.629v-1.52h1.627v-1.52h1.627V9.127h1.629V7.602H27.89v1.524h1.628v1.52h1.63v1.52h1.625v1.519h1.63v3.04h1.627v12.164h-1.628V31.928h-1.629v1.52h-1.626v1.523H29.52v1.52h-1.628v1.52H14.867v-1.52H13.24v-1.52h-1.627v-1.523H9.985v-1.52h-1.63V28.89H6.73V16.724h1.627zm30.93-1.52V10.645h-1.628V9.127H36.03V7.602h-1.628V6.084h-1.629v-1.52h-1.626V3.04H27.891V1.52H14.867v1.52h-3.255v1.523H9.985v1.52h-1.63v1.52H6.73v1.523H5.1v3.04H3.473V15.204h-1.63V30.407h1.63v3.04H5.1v3.043h1.628v1.52h1.627v1.524h1.629v1.518h1.627v1.52H14.868v1.522H27.89v-1.523h3.258v-1.519h1.625v-1.518h1.63V38.01h1.627v-1.518h1.627V34.97h1.628v-3.043h1.63V15.205h-1.63z" transform="translate(-887 -328) translate(887 328) translate(50 69)"/>
                    <path fill="#FCCC00" d="M11.612 15.205L9.985 15.205 9.985 16.724 9.985 18.244 9.985 19.767 9.985 21.285 9.985 22.807 9.985 24.329 9.985 25.847 9.985 27.368 11.612 27.368 11.612 28.89 11.612 30.408 13.239 30.408 13.239 31.929 14.868 31.929 14.868 33.448 16.497 33.448 18.124 33.448 18.124 34.971 19.752 34.971 21.38 34.971 23.007 34.971 24.635 34.971 26.264 34.971 26.264 33.448 27.891 33.448 29.519 33.448 29.519 31.929 31.148 31.929 31.148 30.408 32.774 30.408 32.774 28.89 32.774 27.368 34.403 27.368 34.403 25.847 34.403 24.329 34.403 22.807 34.403 21.285 34.403 19.767 34.403 18.244 32.774 18.244 32.774 16.724 32.774 15.205 32.774 13.685 31.148 13.685 31.148 12.165 29.519 12.165 29.519 10.646 27.891 10.646 26.264 10.646 26.264 9.126 24.635 9.126 23.007 9.126 21.38 9.126 19.752 9.126 18.124 9.126 16.497 9.126 16.497 10.646 14.868 10.646 13.239 10.646 13.239 12.165 11.612 12.165 11.612 13.685z" transform="translate(-887 -328) translate(887 328) translate(50 69)"/>
                    <path fill="#F1A217" d="M45.798 10.646L45.798 9.126 45.798 7.602 44.171 7.602 44.171 9.126 42.542 9.126 40.915 9.126 40.915 10.646 40.915 12.165 40.915 13.685 42.542 13.685 42.542 12.165 44.171 12.165 45.798 12.165 45.798 13.685 45.798 15.205 47.426 15.205 47.426 13.685 47.426 12.165 47.426 10.646zM27.891 0L27.891 1.52 29.519 1.52 31.148 1.52 31.148 3.041 32.774 3.041 32.774 4.563 34.403 4.563 34.403 6.084 36.031 6.084 36.031 7.602 37.658 7.602 39.286 7.602 40.915 7.602 42.542 7.602 44.171 7.602 44.171 6.084 42.542 6.084 42.542 4.563 40.915 4.563 39.286 4.563 39.286 3.041 37.658 3.041 37.658 1.52 36.031 1.52 34.403 1.52 34.403 0z" transform="translate(-887 -328) translate(887 328) translate(50 69)"/>
                    <path fill="#F1A217" d="M45.798 10.646L45.798 9.126 45.798 7.602 44.171 7.602 44.171 9.126 42.542 9.126 40.915 9.126 40.915 10.646 40.915 12.165 40.915 13.685 42.542 13.685 42.542 12.165 44.171 12.165 45.798 12.165 45.798 13.685 45.798 15.205 47.426 15.205 47.426 13.685 47.426 12.165 47.426 10.646z" transform="translate(-887 -328) translate(887 328) translate(50 69)"/>
                    <path fill="#1D1D1B" d="M40.915 9.126h1.627-1.627zM45.798 10.646L45.798 9.126 45.798 7.602 44.171 7.602 44.171 9.126 44.171 10.646 45.798 10.646 45.798 12.165 45.798 13.683 45.798 15.205 47.426 15.205 47.426 13.683 47.426 12.165 47.426 10.646zM37.658 4.563L39.286 4.563 39.286 3.04 37.658 3.04zM39.286 6.084L40.915 6.084 42.542 6.084 42.542 4.563 40.915 4.563 39.286 4.563zM36.031 3.04L37.658 3.04 37.658 1.52 36.031 1.52 34.403 1.52 34.403 3.04zM42.542 7.602L44.171 7.602 44.171 6.084 42.542 6.084z" transform="translate(-887 -328) translate(887 328) translate(50 69)"/>
                    <g transform="translate(-887 -328) translate(887 328) translate(50 69) translate(0 45.396)">
                        <mask id="tcoa1m7w3l" fill="#fff">
                            <use xlink:href="#w3pby98nmk"/>
                        </mask>
                    </g>
                    <path fill="#1D1D1B" d="M27.891 0L27.891 1.52 29.519 1.52 31.148 1.52 32.774 1.52 34.403 1.52 34.403 0z" transform="translate(-887 -328) translate(887 328) translate(50 69)"/>
                    <g>
                        <g transform="translate(-887 -328) translate(887 328) translate(50 69) translate(0 45.396)">
                            <mask id="pkv2yrofzn" fill="#fff">
                                <use xlink:href="#1sjv78px7m"/>
                            </mask>
                        </g>
                        <g transform="translate(-887 -328) translate(887 328) translate(50 69) translate(0 45.396)">
                            <mask id="ujty33ikpp" fill="#fff">
                                <use xlink:href="#ami0g2r7eo"/>
                            </mask>
                        </g>
                        <g transform="translate(-887 -328) translate(887 328) translate(50 69) translate(0 45.396)">
                            <mask id="l0jhpr5tvr" fill="#fff">
                                <use xlink:href="#0r9tdtbo5q"/>
                            </mask>
                        </g>
                    </g>
                    <path fill="#1D1D1B" d="M32.774 41.054h1.63-1.63z" transform="translate(-887 -328) translate(887 328) translate(50 69)"/>
                    <g transform="translate(-887 -328) translate(887 328) translate(50 69) translate(0 45.396)">
                        <mask id="ctcx3eiwvt" fill="#fff">
                            <use xlink:href="#daoy2wcj8s"/>
                        </mask>
                    </g>
                    <path fill="#1D1D1B" d="M27.891 44.095h1.628-1.628zM39.286 36.492L40.915 36.492 40.915 34.971 39.286 34.971zM42.542 15.205h1.63-1.63zM47.426 15.205V30.408h1.627V15.205h-1.627zm-1.628 0h1.628-1.628zM40.915 38.01L40.915 39.535 40.915 41.054 42.542 41.054 42.542 39.535 42.542 38.01zM42.542 38.01L44.171 38.01 44.171 36.491 42.542 36.491zM45.798 30.408L45.798 31.929 45.798 33.45 44.171 33.45 44.171 34.971 44.171 36.492 45.798 36.492 45.798 34.971 45.798 33.45 47.426 33.45 47.426 31.929 47.426 30.408zM32.774 45.613L34.403 45.613 34.403 44.095 32.774 44.095zM39.286 41.054L39.286 39.535 37.658 39.535 37.658 41.054 37.658 42.572 39.286 42.572zM36.031 44.095L37.658 44.095 37.658 42.572 36.031 42.572zM29.519 42.572L27.891 42.572 27.891 44.095 26.264 44.095 24.635 44.095 23.007 44.095 21.38 44.095 19.751 44.095 18.124 44.095 16.495 44.095 14.868 44.095 14.868 45.613 16.495 45.613 18.124 45.613 19.751 45.613 21.38 45.613 23.007 45.613 24.635 45.613 26.264 45.613 27.891 45.613 27.891 44.095 29.519 44.095 31.148 44.095 31.148 42.572zM31.148 42.572L32.774 42.572 32.774 41.054 31.148 41.054zM34.403 39.535L32.774 39.535 32.774 41.054 34.403 41.054 36.031 41.054 36.031 39.535 36.031 38.01 34.403 38.01zM36.031 38.01L37.658 38.01 37.658 36.491 36.031 36.491zM37.658 36.492L39.286 36.492 39.286 34.971 37.658 34.971zM39.286 33.45L39.286 34.971 40.915 34.971 40.915 33.45 40.915 31.929 39.286 31.929zM40.915 16.724L40.915 18.244 40.915 19.768 40.915 21.285 40.915 22.807 40.915 24.328 40.915 25.847 40.915 27.368 40.915 28.889 40.915 30.408 40.915 31.929 42.542 31.929 42.542 30.408 42.542 28.889 42.542 27.368 42.542 25.847 42.542 24.328 42.542 22.807 42.542 21.285 42.542 19.768 42.542 18.244 42.542 16.724zM39.286 13.685L39.286 15.205 40.915 15.205 40.915 13.685 40.915 12.165 39.286 12.165zM37.658 10.646L39.286 10.646 39.286 9.126 37.658 9.126zM29.519 34.971L31.148 34.971 31.148 33.45 29.519 33.45zM32.774 16.724L32.774 18.244 34.403 18.244 34.403 19.768 34.403 21.285 34.403 22.807 34.403 24.328 34.403 25.847 34.403 27.368 32.774 27.368 32.774 28.889 32.774 30.408 31.148 30.408 31.148 31.929 31.148 33.45 32.774 33.45 32.774 31.929 34.403 31.929 34.403 30.408 34.403 28.889 36.031 28.889 36.031 27.368 36.031 25.847 36.031 24.328 36.031 22.807 36.031 21.285 36.031 19.768 36.031 18.244 36.031 16.724 34.403 16.724 34.403 15.204 34.403 13.683 32.774 13.683 32.774 15.204zM31.148 13.683L32.774 13.683 32.774 12.165 31.148 12.165zM29.519 12.165L31.148 12.165 31.148 10.646 29.519 10.646zM36.031 9.126L37.658 9.126 37.658 7.602 36.031 7.602zM34.403 7.602L36.031 7.602 36.031 6.084 34.403 6.084zM32.774 6.084L34.403 6.084 34.403 4.563 32.774 4.563zM31.148 4.563L32.774 4.563 32.774 3.04 31.148 3.04zM27.891 3.04L29.519 3.04 31.148 3.04 31.148 1.52 29.519 1.52 27.891 1.52zM13.239 42.572L11.612 42.572 11.612 44.095 13.239 44.095 14.868 44.095 14.868 42.572zM9.985 42.572L11.612 42.572 11.612 41.054 9.985 41.054zM8.356 39.535L8.356 38.01 6.729 38.01 6.729 39.535 6.729 41.054 8.356 41.054 9.985 41.054 9.985 39.535zM5.101 38.01L6.729 38.01 6.729 36.491 5.101 36.491zM16.495 38.01L18.124 38.01 19.752 38.01 21.38 38.01 23.007 38.01 24.635 38.01 26.264 38.01 27.891 38.01 27.891 36.492 29.519 36.492 29.519 34.971 27.891 34.971 26.264 34.971 26.264 36.492 24.635 36.492 23.007 36.492 21.38 36.492 19.752 36.492 18.124 36.492 16.495 36.492 16.495 34.971 14.868 34.971 13.239 34.971 13.239 36.492 14.868 36.492 14.868 38.01zM11.612 34.971L13.24 34.971 13.24 33.45 11.612 33.45zM5.101 33.45L3.473 33.45 3.473 34.971 3.473 36.492 5.101 36.492 5.101 34.971zM3.473 30.408L1.844 30.408 1.844 31.929 1.844 33.45 3.473 33.45 3.473 31.929zM.218 16.724L.218 18.244.218 19.768.218 21.285.218 22.807.218 24.328.218 25.847.218 27.368.218 28.889 1.844 28.889 1.844 27.368 1.844 25.847 1.844 24.328 1.844 22.807 1.844 21.285 1.844 19.768 1.844 18.244 1.844 16.724zM11.612 30.408L9.985 30.408 9.985 28.889 9.985 27.368 8.356 27.368 8.356 25.847 8.356 24.329 8.356 22.807 8.356 21.285 8.356 19.768 8.356 18.244 9.985 18.244 9.985 16.724 9.985 15.204 11.612 15.204 11.612 13.683 11.612 12.165 9.985 12.165 9.985 13.683 8.356 13.683 8.356 15.204 8.356 16.724 6.729 16.724 6.729 18.244 6.729 19.768 6.729 21.285 6.729 22.807 6.729 24.329 6.729 25.847 6.729 27.368 6.729 28.889 8.356 28.889 8.356 30.408 8.356 31.929 9.985 31.929 9.985 33.45 11.612 33.45 11.612 31.929zM3.473 13.683L3.473 12.165 1.844 12.165 1.844 13.683 1.844 15.204 3.473 15.204zM11.612 12.165L13.239 12.165 13.239 10.646 11.612 10.646zM5.101 10.646L5.101 9.126 3.473 9.126 3.473 10.646 3.473 12.165 5.101 12.165zM16.495 10.646L16.495 9.126 18.124 9.126 19.752 9.126 21.38 9.126 23.007 9.126 24.635 9.126 26.264 9.126 26.264 10.646 27.891 10.646 29.519 10.646 29.519 9.126 27.891 9.126 27.891 7.602 26.264 7.602 24.635 7.602 23.007 7.602 21.38 7.602 19.752 7.602 18.124 7.602 16.495 7.602 14.868 7.602 14.868 9.126 13.239 9.126 13.239 10.646 14.868 10.646zM5.101 9.126L6.729 9.126 6.729 7.602 5.101 7.602zM6.729 7.602L8.356 7.602 8.356 6.084 6.729 6.084zM8.356 6.084L9.985 6.084 9.985 4.563 8.356 4.563zM9.985 4.563L11.612 4.563 11.612 3.04 9.985 3.04zM14.868 3.04L14.868 1.52 13.239 1.52 11.612 1.52 11.612 3.04 13.239 3.04zM14.868 0L14.868 1.52 16.495 1.52 18.124 1.52 19.751 1.52 21.38 1.52 23.007 1.52 24.635 1.52 26.264 1.52 27.891 1.52 27.891 0z" transform="translate(-887 -328) translate(887 328) translate(50 69)"/>
                    <path fill="#FEFEFE" d="M44.171 12.165L42.542 12.165 42.542 13.685 40.915 13.685 40.915 15.204 40.915 16.724 42.542 16.724 42.542 15.204 44.171 15.204 45.798 15.204 45.798 13.685 45.798 12.165zM42.542 7.602L40.915 7.602 39.286 7.602 37.658 7.602 37.658 9.126 39.286 9.126 39.286 10.646 40.915 10.646 40.915 9.126 42.542 9.126 44.171 9.126 44.171 7.602zM23.007 34.971L21.38 34.971 19.752 34.971 18.124 34.971 18.124 33.448 16.497 33.448 14.868 33.448 14.868 31.929 13.239 31.929 13.239 30.408 11.612 30.408 11.612 31.929 11.612 33.448 13.239 33.448 13.239 34.971 14.868 34.971 16.497 34.971 16.497 36.492 18.124 36.492 19.752 36.492 21.38 36.492 23.007 36.492 24.635 36.492 26.264 36.492 26.264 34.971 24.635 34.971zM26.264 33.448L26.264 34.971 27.891 34.971 29.519 34.971 29.519 33.448 27.891 33.448zM29.519 33.448L31.148 33.448 31.148 31.929 29.519 31.929zM11.612 27.368L9.985 27.368 9.985 28.889 9.985 30.408 11.612 30.408 11.612 28.889zM9.985 24.329L9.985 22.807 9.985 21.285 8.356 21.285 8.356 22.807 8.356 24.329 8.356 25.847 8.356 27.368 9.985 27.368 9.985 25.847zM8.356 19.767L9.985 19.767 9.985 18.244 8.356 18.244z" transform="translate(-887 -328) translate(887 328) translate(50 69)"/>
                </g>
                <g>
                    <path fill="#F1A217" d="M39.286 41.054L40.915 41.054 40.915 39.535 39.286 39.535zM40.915 36.492L42.542 36.492 42.542 34.971 40.915 34.971z" transform="translate(-887 -328) translate(887 328) translate(97 62)"/>
                    <path fill="#F9F0CD" d="M8.356 21.285L9.985 21.285 9.985 19.767 8.356 19.767z" transform="translate(-887 -328) translate(887 328) translate(97 62)"/>
                    <path fill="#F1A217" d="M47.426 15.205h-4.884V31.928h-1.627v3.043h-1.629v1.52h-1.628v1.519H36.03V41.054H32.774v1.518h-1.626v1.523H27.891v1.518H34.403v-1.518h3.255v-1.523h1.628v-3.037h1.63v1.519h1.626V38.01h1.63v-1.518h1.626V33.448h1.628v-3.04h1.627V15.205h-1.627zm-6.51 21.287h1.626V34.97h-1.627v1.52z" transform="translate(-887 -328) translate(887 328) translate(97 62)"/>
                    <path fill="#1D1D1B" d="M31.148 44.056L31.148 44.095 27.891 44.095 27.891 45.614 34.403 45.614 34.403 44.095 37.658 44.095 37.658 44.056z" transform="translate(-887 -328) translate(887 328) translate(97 62)"/>
                    <path fill="#FEFEFE" d="M39.286 12.165L40.915 12.165 40.915 10.646 39.286 10.646z" transform="translate(-887 -328) translate(887 328) translate(97 62)"/>
                    <path fill="#FCCC00" d="M8.356 16.724V13.685h1.629v-1.52h1.627v-1.52h1.627V9.127h1.629V7.602H27.89v1.524h1.628v1.52h1.63v1.52h1.625v1.519h1.63v3.04h1.627v12.164h-1.628V31.928h-1.629v1.52h-1.626v1.523H29.52v1.52h-1.628v1.52H14.867v-1.52H13.24v-1.52h-1.627v-1.523H9.985v-1.52h-1.63V28.89H6.73V16.724h1.627zm30.93-1.52V10.645h-1.628V9.127H36.03V7.602h-1.628V6.084h-1.629v-1.52h-1.626V3.04H27.891V1.52H14.867v1.52h-3.255v1.523H9.985v1.52h-1.63v1.52H6.73v1.523H5.1v3.04H3.473V15.204h-1.63V30.407h1.63v3.04H5.1v3.043h1.628v1.52h1.627v1.524h1.629v1.518h1.627v1.52H14.868v1.522H27.89v-1.523h3.258v-1.519h1.625v-1.518h1.63V38.01h1.627v-1.518h1.627V34.97h1.628v-3.043h1.63V15.205h-1.63z" transform="translate(-887 -328) translate(887 328) translate(97 62)"/>
                    <path fill="#FCCC00" d="M11.612 15.205L9.985 15.205 9.985 16.724 9.985 18.244 9.985 19.767 9.985 21.285 9.985 22.807 9.985 24.329 9.985 25.847 9.985 27.368 11.612 27.368 11.612 28.89 11.612 30.408 13.239 30.408 13.239 31.929 14.868 31.929 14.868 33.448 16.497 33.448 18.124 33.448 18.124 34.971 19.752 34.971 21.38 34.971 23.007 34.971 24.635 34.971 26.264 34.971 26.264 33.448 27.891 33.448 29.519 33.448 29.519 31.929 31.148 31.929 31.148 30.408 32.774 30.408 32.774 28.89 32.774 27.368 34.403 27.368 34.403 25.847 34.403 24.329 34.403 22.807 34.403 21.285 34.403 19.767 34.403 18.244 32.774 18.244 32.774 16.724 32.774 15.205 32.774 13.685 31.148 13.685 31.148 12.165 29.519 12.165 29.519 10.646 27.891 10.646 26.264 10.646 26.264 9.126 24.635 9.126 23.007 9.126 21.38 9.126 19.752 9.126 18.124 9.126 16.497 9.126 16.497 10.646 14.868 10.646 13.239 10.646 13.239 12.165 11.612 12.165 11.612 13.685z" transform="translate(-887 -328) translate(887 328) translate(97 62)"/>
                    <path fill="#F1A217" d="M45.798 10.646L45.798 9.126 45.798 7.602 44.171 7.602 44.171 9.126 42.542 9.126 40.915 9.126 40.915 10.646 40.915 12.165 40.915 13.685 42.542 13.685 42.542 12.165 44.171 12.165 45.798 12.165 45.798 13.685 45.798 15.205 47.426 15.205 47.426 13.685 47.426 12.165 47.426 10.646zM27.891 0L27.891 1.52 29.519 1.52 31.148 1.52 31.148 3.041 32.774 3.041 32.774 4.563 34.403 4.563 34.403 6.084 36.031 6.084 36.031 7.602 37.658 7.602 39.286 7.602 40.915 7.602 42.542 7.602 44.171 7.602 44.171 6.084 42.542 6.084 42.542 4.563 40.915 4.563 39.286 4.563 39.286 3.041 37.658 3.041 37.658 1.52 36.031 1.52 34.403 1.52 34.403 0z" transform="translate(-887 -328) translate(887 328) translate(97 62)"/>
                    <path fill="#F1A217" d="M45.798 10.646L45.798 9.126 45.798 7.602 44.171 7.602 44.171 9.126 42.542 9.126 40.915 9.126 40.915 10.646 40.915 12.165 40.915 13.685 42.542 13.685 42.542 12.165 44.171 12.165 45.798 12.165 45.798 13.685 45.798 15.205 47.426 15.205 47.426 13.685 47.426 12.165 47.426 10.646z" transform="translate(-887 -328) translate(887 328) translate(97 62)"/>
                    <path fill="#1D1D1B" d="M40.915 9.126h1.627-1.627zM45.798 10.646L45.798 9.126 45.798 7.602 44.171 7.602 44.171 9.126 44.171 10.646 45.798 10.646 45.798 12.165 45.798 13.683 45.798 15.205 47.426 15.205 47.426 13.683 47.426 12.165 47.426 10.646zM37.658 4.563L39.286 4.563 39.286 3.04 37.658 3.04zM39.286 6.084L40.915 6.084 42.542 6.084 42.542 4.563 40.915 4.563 39.286 4.563zM36.031 3.04L37.658 3.04 37.658 1.52 36.031 1.52 34.403 1.52 34.403 3.04zM42.542 7.602L44.171 7.602 44.171 6.084 42.542 6.084z" transform="translate(-887 -328) translate(887 328) translate(97 62)"/>
                    <g transform="translate(-887 -328) translate(887 328) translate(97 62) translate(0 45.396)">
                        <mask id="oyv5u9zfbv" fill="#fff">
                            <use xlink:href="#d56gbucu8u"/>
                        </mask>
                    </g>
                    <path fill="#1D1D1B" d="M27.891 0L27.891 1.52 29.519 1.52 31.148 1.52 32.774 1.52 34.403 1.52 34.403 0z" transform="translate(-887 -328) translate(887 328) translate(97 62)"/>
                    <g>
                        <g transform="translate(-887 -328) translate(887 328) translate(97 62) translate(0 45.396)">
                            <mask id="6nl8g97mkx" fill="#fff">
                                <use xlink:href="#oumlkp2w7w"/>
                            </mask>
                        </g>
                        <g transform="translate(-887 -328) translate(887 328) translate(97 62) translate(0 45.396)">
                            <mask id="as77vj6fez" fill="#fff">
                                <use xlink:href="#aiqgdgqv4y"/>
                            </mask>
                        </g>
                        <g transform="translate(-887 -328) translate(887 328) translate(97 62) translate(0 45.396)">
                            <mask id="xars6woifB" fill="#fff">
                                <use xlink:href="#6unzloa86A"/>
                            </mask>
                        </g>
                    </g>
                    <path fill="#1D1D1B" d="M32.774 41.054h1.63-1.63z" transform="translate(-887 -328) translate(887 328) translate(97 62)"/>
                    <g transform="translate(-887 -328) translate(887 328) translate(97 62) translate(0 45.396)">
                        <mask id="8y822dn6jD" fill="#fff">
                            <use xlink:href="#m1benx29qC"/>
                        </mask>
                    </g>
                    <path fill="#1D1D1B" d="M27.891 44.095h1.628-1.628zM39.286 36.492L40.915 36.492 40.915 34.971 39.286 34.971zM42.542 15.205h1.63-1.63zM47.426 15.205V30.408h1.627V15.205h-1.627zm-1.628 0h1.628-1.628zM40.915 38.01L40.915 39.535 40.915 41.054 42.542 41.054 42.542 39.535 42.542 38.01zM42.542 38.01L44.171 38.01 44.171 36.491 42.542 36.491zM45.798 30.408L45.798 31.929 45.798 33.45 44.171 33.45 44.171 34.971 44.171 36.492 45.798 36.492 45.798 34.971 45.798 33.45 47.426 33.45 47.426 31.929 47.426 30.408zM32.774 45.613L34.403 45.613 34.403 44.095 32.774 44.095zM39.286 41.054L39.286 39.535 37.658 39.535 37.658 41.054 37.658 42.572 39.286 42.572zM36.031 44.095L37.658 44.095 37.658 42.572 36.031 42.572zM29.519 42.572L27.891 42.572 27.891 44.095 26.264 44.095 24.635 44.095 23.007 44.095 21.38 44.095 19.751 44.095 18.124 44.095 16.495 44.095 14.868 44.095 14.868 45.613 16.495 45.613 18.124 45.613 19.751 45.613 21.38 45.613 23.007 45.613 24.635 45.613 26.264 45.613 27.891 45.613 27.891 44.095 29.519 44.095 31.148 44.095 31.148 42.572zM31.148 42.572L32.774 42.572 32.774 41.054 31.148 41.054zM34.403 39.535L32.774 39.535 32.774 41.054 34.403 41.054 36.031 41.054 36.031 39.535 36.031 38.01 34.403 38.01zM36.031 38.01L37.658 38.01 37.658 36.491 36.031 36.491zM37.658 36.492L39.286 36.492 39.286 34.971 37.658 34.971zM39.286 33.45L39.286 34.971 40.915 34.971 40.915 33.45 40.915 31.929 39.286 31.929zM40.915 16.724L40.915 18.244 40.915 19.768 40.915 21.285 40.915 22.807 40.915 24.328 40.915 25.847 40.915 27.368 40.915 28.889 40.915 30.408 40.915 31.929 42.542 31.929 42.542 30.408 42.542 28.889 42.542 27.368 42.542 25.847 42.542 24.328 42.542 22.807 42.542 21.285 42.542 19.768 42.542 18.244 42.542 16.724zM39.286 13.685L39.286 15.205 40.915 15.205 40.915 13.685 40.915 12.165 39.286 12.165zM37.658 10.646L39.286 10.646 39.286 9.126 37.658 9.126zM29.519 34.971L31.148 34.971 31.148 33.45 29.519 33.45zM32.774 16.724L32.774 18.244 34.403 18.244 34.403 19.768 34.403 21.285 34.403 22.807 34.403 24.328 34.403 25.847 34.403 27.368 32.774 27.368 32.774 28.889 32.774 30.408 31.148 30.408 31.148 31.929 31.148 33.45 32.774 33.45 32.774 31.929 34.403 31.929 34.403 30.408 34.403 28.889 36.031 28.889 36.031 27.368 36.031 25.847 36.031 24.328 36.031 22.807 36.031 21.285 36.031 19.768 36.031 18.244 36.031 16.724 34.403 16.724 34.403 15.204 34.403 13.683 32.774 13.683 32.774 15.204zM31.148 13.683L32.774 13.683 32.774 12.165 31.148 12.165zM29.519 12.165L31.148 12.165 31.148 10.646 29.519 10.646zM36.031 9.126L37.658 9.126 37.658 7.602 36.031 7.602zM34.403 7.602L36.031 7.602 36.031 6.084 34.403 6.084zM32.774 6.084L34.403 6.084 34.403 4.563 32.774 4.563zM31.148 4.563L32.774 4.563 32.774 3.04 31.148 3.04zM27.891 3.04L29.519 3.04 31.148 3.04 31.148 1.52 29.519 1.52 27.891 1.52zM13.239 42.572L11.612 42.572 11.612 44.095 13.239 44.095 14.868 44.095 14.868 42.572zM9.985 42.572L11.612 42.572 11.612 41.054 9.985 41.054zM8.356 39.535L8.356 38.01 6.729 38.01 6.729 39.535 6.729 41.054 8.356 41.054 9.985 41.054 9.985 39.535zM5.101 38.01L6.729 38.01 6.729 36.491 5.101 36.491zM16.495 38.01L18.124 38.01 19.752 38.01 21.38 38.01 23.007 38.01 24.635 38.01 26.264 38.01 27.891 38.01 27.891 36.492 29.519 36.492 29.519 34.971 27.891 34.971 26.264 34.971 26.264 36.492 24.635 36.492 23.007 36.492 21.38 36.492 19.752 36.492 18.124 36.492 16.495 36.492 16.495 34.971 14.868 34.971 13.239 34.971 13.239 36.492 14.868 36.492 14.868 38.01zM11.612 34.971L13.24 34.971 13.24 33.45 11.612 33.45zM5.101 33.45L3.473 33.45 3.473 34.971 3.473 36.492 5.101 36.492 5.101 34.971zM3.473 30.408L1.844 30.408 1.844 31.929 1.844 33.45 3.473 33.45 3.473 31.929zM.218 16.724L.218 18.244.218 19.768.218 21.285.218 22.807.218 24.328.218 25.847.218 27.368.218 28.889 1.844 28.889 1.844 27.368 1.844 25.847 1.844 24.328 1.844 22.807 1.844 21.285 1.844 19.768 1.844 18.244 1.844 16.724zM11.612 30.408L9.985 30.408 9.985 28.889 9.985 27.368 8.356 27.368 8.356 25.847 8.356 24.329 8.356 22.807 8.356 21.285 8.356 19.768 8.356 18.244 9.985 18.244 9.985 16.724 9.985 15.204 11.612 15.204 11.612 13.683 11.612 12.165 9.985 12.165 9.985 13.683 8.356 13.683 8.356 15.204 8.356 16.724 6.729 16.724 6.729 18.244 6.729 19.768 6.729 21.285 6.729 22.807 6.729 24.329 6.729 25.847 6.729 27.368 6.729 28.889 8.356 28.889 8.356 30.408 8.356 31.929 9.985 31.929 9.985 33.45 11.612 33.45 11.612 31.929zM3.473 13.683L3.473 12.165 1.844 12.165 1.844 13.683 1.844 15.204 3.473 15.204zM11.612 12.165L13.239 12.165 13.239 10.646 11.612 10.646zM5.101 10.646L5.101 9.126 3.473 9.126 3.473 10.646 3.473 12.165 5.101 12.165zM16.495 10.646L16.495 9.126 18.124 9.126 19.752 9.126 21.38 9.126 23.007 9.126 24.635 9.126 26.264 9.126 26.264 10.646 27.891 10.646 29.519 10.646 29.519 9.126 27.891 9.126 27.891 7.602 26.264 7.602 24.635 7.602 23.007 7.602 21.38 7.602 19.752 7.602 18.124 7.602 16.495 7.602 14.868 7.602 14.868 9.126 13.239 9.126 13.239 10.646 14.868 10.646zM5.101 9.126L6.729 9.126 6.729 7.602 5.101 7.602zM6.729 7.602L8.356 7.602 8.356 6.084 6.729 6.084zM8.356 6.084L9.985 6.084 9.985 4.563 8.356 4.563zM9.985 4.563L11.612 4.563 11.612 3.04 9.985 3.04zM14.868 3.04L14.868 1.52 13.239 1.52 11.612 1.52 11.612 3.04 13.239 3.04zM14.868 0L14.868 1.52 16.495 1.52 18.124 1.52 19.751 1.52 21.38 1.52 23.007 1.52 24.635 1.52 26.264 1.52 27.891 1.52 27.891 0z" transform="translate(-887 -328) translate(887 328) translate(97 62)"/>
                    <path fill="#FEFEFE" d="M44.171 12.165L42.542 12.165 42.542 13.685 40.915 13.685 40.915 15.204 40.915 16.724 42.542 16.724 42.542 15.204 44.171 15.204 45.798 15.204 45.798 13.685 45.798 12.165zM42.542 7.602L40.915 7.602 39.286 7.602 37.658 7.602 37.658 9.126 39.286 9.126 39.286 10.646 40.915 10.646 40.915 9.126 42.542 9.126 44.171 9.126 44.171 7.602zM23.007 34.971L21.38 34.971 19.752 34.971 18.124 34.971 18.124 33.448 16.497 33.448 14.868 33.448 14.868 31.929 13.239 31.929 13.239 30.408 11.612 30.408 11.612 31.929 11.612 33.448 13.239 33.448 13.239 34.971 14.868 34.971 16.497 34.971 16.497 36.492 18.124 36.492 19.752 36.492 21.38 36.492 23.007 36.492 24.635 36.492 26.264 36.492 26.264 34.971 24.635 34.971zM26.264 33.448L26.264 34.971 27.891 34.971 29.519 34.971 29.519 33.448 27.891 33.448zM29.519 33.448L31.148 33.448 31.148 31.929 29.519 31.929zM11.612 27.368L9.985 27.368 9.985 28.889 9.985 30.408 11.612 30.408 11.612 28.889zM9.985 24.329L9.985 22.807 9.985 21.285 8.356 21.285 8.356 22.807 8.356 24.329 8.356 25.847 8.356 27.368 9.985 27.368 9.985 25.847zM8.356 19.767L9.985 19.767 9.985 18.244 8.356 18.244z" transform="translate(-887 -328) translate(887 328) translate(97 62)"/>
                </g>
                <text fill="#1D1D1B" font-family="PixelEmulator, Pixel Emulator" font-size="20" transform="translate(-887 -328) translate(887 328)">
                    <tspan x="14" y="91">W</tspan>
                </text>
                <text fill="#1D1D1B" font-family="PixelEmulator, Pixel Emulator" font-size="20" transform="translate(-887 -328) translate(887 328)">
                    <tspan x="65.77" y="99">I</tspan>
                </text>
                <text fill="#1D1D1B" font-family="PixelEmulator, Pixel Emulator" font-size="20" transform="translate(-887 -328) translate(887 328)">
                    <tspan x="112.54" y="92">N</tspan>
                </text>
            </g>
        </g>
    </g>
</svg>
