<svg xmlns="http://www.w3.org/2000/svg" width="41" height="36" viewBox="0 0 41 36">
    <g fill="none" fill-rule="evenodd">
        <g>
            <g>
                <g>
                    <g>
                        <path fill="#000" d="M21.02 31.846v-1.384h4.142v1.384H21.02zm5.522-2.77v1.386h-1.38v-1.385h1.38zm1.38-12.46v12.46h-1.38v-12.46h1.38z" transform="translate(-639 -302) matrix(-1 0 0 1 683.64 302) translate(16.234)"/>
                        <path fill="#FF9836" d="M27.923 13.846v2.77h-1.38V15.23h-1.381v-1.385h2.76z" transform="translate(-639 -302) matrix(-1 0 0 1 683.64 302) translate(16.234)"/>
                        <path fill="#AA2D21" d="M21.02 30.462v-1.385h4.142v1.385H21.02zm5.522-4.154v2.769h-1.38v-2.77h1.38z" transform="translate(-639 -302) matrix(-1 0 0 1 683.64 302) translate(16.234)"/>
                        <path fill="#4F1513" d="M22.4 26.308v-1.385h4.142v1.385H22.4z" transform="translate(-639 -302) matrix(-1 0 0 1 683.64 302) translate(16.234)"/>
                        <path fill="#751F17" d="M26.542 15.23v9.693h-1.38V18H23.78v1.385H22.4V18h1.38v-1.385h1.38v-1.384h1.381zM22.4 19.386v1.384h-1.38v-1.384h1.38z" transform="translate(-639 -302) matrix(-1 0 0 1 683.64 302) translate(16.234)"/>
                        <path fill="#000" d="M4.452 13.846h1.38V5.538h1.38v11.077h-2.76v-2.769zm22.09-5.538v5.538h-1.38V8.308h1.38zm-1.38-4.154v4.154H23.78V4.154h1.38zM8.594 2.769v2.77H7.213v-2.77h1.38zm15.187 0v1.385H22.4V2.769h1.38zM22.4 1.385v1.384H21.02V1.385h1.38zm-12.427 0v1.384h-1.38V1.385h1.38zM21.02 0v1.385H9.974V0H21.02z" transform="translate(-639 -302) matrix(-1 0 0 1 683.64 302) translate(16.234)"/>
                        <path fill="#681C11" d="M21.02 20.77h1.38v-1.385h1.38V18h1.382v6.923H22.4v1.385h2.762v2.769H21.02v-8.308z" transform="translate(-639 -302) matrix(-1 0 0 1 683.64 302) translate(16.234)"/>
                        <path fill="#4D0C0A" d="M15.497 27.692v-1.384h4.142v-6.923h1.38v12.461h-1.38v-4.154h-4.142zM22.4 18v1.385h-1.38V18h1.38zm1.38-1.385V18H22.4v-1.385h1.38zm1.382-1.384v1.384H23.78v-1.384h1.38z" transform="translate(-639 -302) matrix(-1 0 0 1 683.64 302) translate(16.234)"/>
                        <path fill="#000" d="M16.878 22.154v1.384h-5.523v-1.384h5.523zm1.38-1.385v1.385h-1.38v-1.385h1.38zm-6.903 0v1.385h-1.38v-1.385h1.38zm8.284-1.384v1.384h-1.38v-1.384h1.38zm-9.665 0v1.384h-1.38v-1.384h1.38zM21.02 18v1.385h-1.381V18h1.38zM7.213 16.615h1.38v2.77h-1.38v-2.77zm15.187 0V18h-1.38v-1.385h1.38zm1.38-1.384v1.384H22.4v-1.384h1.38zm1.382-1.385v1.385H23.78v-1.385h1.38z" transform="translate(-639 -302) matrix(-1 0 0 1 683.64 302) translate(16.234)"/>
                        <path fill="#5C261F" d="M7.213 12.462h11.045v-1.385h1.38V9.692H22.4V5.538H19.64V4.154h-1.38V2.769H9.973V1.385H21.02v1.384h1.38v1.385h1.38v4.154h1.382v5.538H23.78v1.385H22.4v1.384H21.02V18h-1.381v1.385h-1.38v1.384h-1.381v1.385h-5.523v-1.385h-1.38v-1.384H8.593v-2.77H7.213v-4.153z" transform="translate(-639 -302) matrix(-1 0 0 1 683.64 302) translate(16.234)"/>
                        <path fill="#FFCCA8" d="M16.878 6.923h1.38V5.538h1.38v4.154h-1.38v1.385h-1.38v1.385h-1.381v-1.385h-1.38v1.385h-2.762v-1.385h-1.38v1.385H8.593v-1.385H7.213V6.923h1.38v2.77h1.381v-2.77h1.38V5.538h-2.76V4.154h9.664v1.384h-4.142v1.385h1.38v2.77h1.382v-2.77zm-2.762 2.77h-2.761v1.384h2.761V9.692zm8.284-2.77v2.77h-1.38v-2.77h1.38z" transform="translate(-639 -302) matrix(-1 0 0 1 683.64 302) translate(16.234)"/>
                        <path fill="#4C1C19" d="M18.258 11.077v1.385h-1.38v-1.385h1.38zm-6.903 0v1.385h-1.38v-1.385h1.38zm-2.761 0v1.385H7.213v-1.385h1.38zm11.045-1.385v1.385h-1.38V9.692h1.38zM22.4 5.538v1.385h-1.38v2.77h-1.381V5.537H22.4zM19.64 4.154v1.384h-1.38V4.154h1.38zm-1.38-1.385v1.385H8.593V2.769h9.664z" transform="translate(-639 -302) matrix(-1 0 0 1 683.64 302) translate(16.234)"/>
                        <path fill="#000" d="M16.878 36v-1.385h1.38v-1.384h2.762V36h-4.142z" transform="translate(-639 -302) matrix(-1 0 0 1 683.64 302) translate(16.234)"/>
                        <path fill="#2F5617" d="M18.258 33.23v-1.384h2.762v1.385h-2.762z" transform="translate(-639 -302) matrix(-1 0 0 1 683.64 302) translate(16.234)"/>
                        <path fill="#379B37" d="M9.974 30.462v-1.385h9.665v2.77h-1.38v-1.385H9.973z" transform="translate(-639 -302) matrix(-1 0 0 1 683.64 302) translate(16.234)"/>
                        <path fill="#2F5617" d="M9.974 29.077v-1.385h9.665v1.385H9.974z" transform="translate(-639 -302) matrix(-1 0 0 1 683.64 302) translate(16.234)"/>
                        <path fill="#AA2D21" d="M19.639 24.923v1.385h-4.142v-1.385h4.142zm-9.665 1.385v-1.385h2.762v1.385H9.974z" transform="translate(-639 -302) matrix(-1 0 0 1 683.64 302) translate(16.234)"/>
                        <path fill="#379B37" d="M16.878 24.923v-1.385h1.38v-1.384h1.38v2.77h-2.76z" transform="translate(-639 -302) matrix(-1 0 0 1 683.64 302) translate(16.234)"/>
                        <path fill="#2F5617" d="M16.878 23.538v1.385h-5.523v-1.385h5.523zm1.38-1.384v1.384h-1.38v-1.384h1.38zm-6.903 0v1.384h-1.38v-1.384h1.38zm8.284-1.385v1.385h-1.38v-1.385h1.38zM9.974 31.846v-1.384h8.284v1.384H9.974z" transform="translate(-639 -302) matrix(-1 0 0 1 683.64 302) translate(16.234)"/>
                        <path fill="#4C1C19" d="M18.258 5.538v1.385h-4.142V5.538h4.142zM7.213 6.923V5.538h4.142v1.385H7.213z" transform="translate(-639 -302) matrix(-1 0 0 1 683.64 302) translate(16.234)"/>
                        <path fill="#2F1312" d="M15.497 6.923h1.38v2.77h-1.38v-2.77z" transform="translate(-639 -302) matrix(-1 0 0 1 683.64 302) translate(16.234)"/>
                        <path fill="#FF9836" d="M12.736 24.923h2.76v2.77h-2.76v-2.77z" transform="translate(-639 -302) matrix(-1 0 0 1 683.64 302) translate(16.234)"/>
                        <path fill="#3E1712" d="M14.116 12.462L15.497 12.462 15.497 11.077 14.116 11.077zM11.355 11.077V9.692h2.761v1.385h-2.761z" transform="translate(-639 -302) matrix(-1 0 0 1 683.64 302) translate(16.234)"/>
                        <path fill="#4D0C0A" d="M9.974 20.77v5.538h2.762v1.384H9.974v4.154H7.213v-1.384h1.38v-9.693h1.381zm-2.761 4.153v1.385h-1.38v-1.385h1.38zm1.38-5.538v1.384h-1.38v-1.384h1.38zm-1.38-2.77V18h-1.38v-1.385h1.38z" transform="translate(-639 -302) matrix(-1 0 0 1 683.64 302) translate(16.234)"/>
                        <path fill="#379B37" d="M9.974 24.923L11.355 24.923 11.355 23.538 9.974 23.538z" transform="translate(-639 -302) matrix(-1 0 0 1 683.64 302) translate(16.234)"/>
                        <path fill="#000" d="M5.832 36v-1.385h1.38v-1.384h2.762V36H5.832z" transform="translate(-639 -302) matrix(-1 0 0 1 683.64 302) translate(16.234)"/>
                        <path fill="#2F5617" d="M7.213 33.23v-1.384h2.761v1.385H7.213z" transform="translate(-639 -302) matrix(-1 0 0 1 683.64 302) translate(16.234)"/>
                        <path fill="#2F1312" d="M8.594 6.923h1.38v2.77h-1.38v-2.77z" transform="translate(-639 -302) matrix(-1 0 0 1 683.64 302) translate(16.234)"/>
                        <path fill="#751F17" d="M5.832 18h1.38v2.77h1.382v9.692H5.832v-4.154h1.38v-1.385h-1.38V18z" transform="translate(-639 -302) matrix(-1 0 0 1 683.64 302) translate(16.234)"/>
                        <path fill="#000" d="M7.213 30.462v1.384h-1.38v-1.384h1.38zM5.833 18v12.462H4.451v-8.308H3.07v-1.385h1.38V18h1.381z" transform="translate(-639 -302) matrix(-1 0 0 1 683.64 302) translate(16.234)"/>
                        <path fill="#751F17" d="M4.452 18L5.832 18 5.832 16.615 4.452 16.615z" transform="translate(-639 -302) matrix(-1 0 0 1 683.64 302) translate(16.234)"/>
                        <path fill="#FF9836" d="M4.452 13.846L5.832 13.846 5.832 12.462 4.452 12.462z" transform="translate(-639 -302) matrix(-1 0 0 1 683.64 302) translate(16.234)"/>
                        <path fill="#2F5617" d="M3.07 18h1.382v2.77H3.07V18z" transform="translate(-639 -302) matrix(-1 0 0 1 683.64 302) translate(16.234)"/>
                        <path fill="#ECB590" d="M.31 18h2.76v4.154H.31V18z" transform="translate(-639 -302) matrix(-1 0 0 1 683.64 302) translate(16.234)"/>
                    </g>
                </g>
                <g>
                    <path fill="#FDD76F" d="M20.682 6.438L19.453 6.438 19.453 7.427 15.839 3.813 17.049 2.603 15.712 1.266 11.897 5.409 11.813 6.415 10.292 4.893 11.525 3.66 10.343 2.478 1.419 11.402 2.158 11.938 2.158 12.98 3.196 12.98 3.196 11.942 4.315 11.923 4.315 13.003 5.418 13.001 5.369 14.081 6.487 14.081 6.487 15.128 5.369 15.128 5.369 16.286 6.487 16.286 6.487 17.317 7.606 17.317 11.199 13.728 11.149 14.333 13.042 16.227 20.648 8.622 19.693 7.667 20.682 7.667z" transform="translate(-639 -302) matrix(-1 0 0 1 683.64 302) rotate(-75 16.542 12.468)"/>
                    <path fill="#000" d="M8.676 16.32v1.119H7.608v.997h-1.12v-1.12h1.069v-.997h1.12zM6.488 9.764v1.038h1.12v1.12h1.068v1.058h1.12v1.12h1.002v-1.12h1.096v-1.058h1.038v-1.12h1.12V9.765h1.12v1.12h-1.12v1.038h-1.039v1.12h-1.095V14.1h-1.069V15.2h1.069v1.038h1.095v1.12h-1.119v-1.039h-1.096V15.22H9.796v1.1h-1.12V15.2H9.73v-1.1H8.676v-1.058h-1.12v-1.12H6.489v-1.037h-1.12v-1.12h1.12zm-4.33 0v1.12H1.12v1.038h1.038v1.058h1.038v-1.058h1.12v1.058h1.1v1.1h1.072V15.2H5.435v.997h1.053v1.12h-1.12v-.998H4.316V15.2H5.37v-1.098H4.297v-1.059h-1.02v1.059h-1.12v-1.059H1.039v-1.12H0v-1.119h1.038V9.765h1.12zm15.186 2.158v1.12h-1.053v1.119h-1.12V15.2h-1.038v1.038h-1.12v-1.12h1.039V14.08h1.12v-1.038h1.052v-1.12h1.12zm-2.173 0v1.12h-1.12v-1.12h1.12zm4.346-2.158v1.12h-1.054v1.038h-1.12v-1.12h1.054V9.765h1.12zM16.29 6.488v1.053h1.053v1.12h-1.053v1.101h-1.12V8.643h1.053V7.608h-1.053v-1.12h1.12zM4.315 7.608v1.035h1.12v1.12h-1.12V8.726H3.277v1.035h-1.12V8.643h1.039V7.608h1.12zm17.375 0v1.119h-1.054v1.036h-1.12v-1.12h1.054V7.608h1.12zm1.12-1.12v1.12h-1.12v-1.12h1.12zM16.29 0v1.053h1.054v1.12h-1.12V1.119h-1.053v1.054h-1.074v1.12h-1.084V4.33h-1.095v1.12h1.095v1.038h1.039v-1.12h1.12v1.12h-1.039v1.12h-1.12V6.57h-1.119V5.45h-1.096V4.33h1.096V3.292H10.85v-1.12H9.73V1.054h1.12v1.12h1.12V3.21h1.008V2.173h1.074v-1.12h1.12V0h1.119zm2.173 4.33V5.37h1.054V4.33h1.12V5.37h1.053v1.12h-1.12V5.45h-1.053v1.038h-1.12V5.45h-1.053V4.33h1.12zM6.488 6.57H5.435v1.038h-1.12v-1.12H5.37V5.45h1.12l-.001-1.12h1.069V3.211H8.61V2.173h1.12v1.12H8.676V4.33H7.608v1.12h-1.12v1.12zm11.975-4.397v1.12h-1.12V4.33h-1.118V3.21h1.119V2.174h1.12z" transform="translate(-639 -302) matrix(-1 0 0 1 683.64 302) rotate(-75 16.542 12.468)"/>
                    <path fill="#FFF1C9" d="M19.547 7.555h1.027V6.55h-1.027v1.005zM15.169 3.21h1.055V2.195H15.17V3.21zM10.85 5.409h1.047V4.374H10.85V5.41zm3.28 3.212h1.011V7.63H14.13v.992zm6.503-2.133V5.41h-1.116v1.057H18.43V5.41h-1.09v-1.1h-1.082V3.233h1.083V2.092h-1.117V1.053h-1.116v1.098h-1.055v1.141h-1.04V4.31h-1.09V3.233H10.85V2.151H9.734v1.141h1.073V4.31H9.734v1.14h1.073V6.55h1.116v1.068h1.09v1.078h1.04v1.066h1.116V8.696h1.089V7.555h-1.089V6.488h-1.116v1.067H13.04V6.477h-1.116V5.45h1.09V4.434h1.117V3.292h1.011v1.06h1.083V5.45h1.09v1.1h1.116v1.058h1.027V8.62H18.43v1.093h-1.116v1.117h-1.09v1.06h-1.083v1.067h-1.088V14.1h1.116v-1.067h1.089v-1.06h1.083v-1.117h1.09V9.762h1.116V8.696h1.027V7.629h1.116V6.49h-1.057z" transform="translate(-639 -302) matrix(-1 0 0 1 683.64 302) rotate(-75 16.542 12.468)"/>
                    <path fill="#FFF1C9" d="M5.418 13h1.036v-1.058H5.418v1.059zm7.517 2.137h-1.012V14.07H10.85v-1.035h1.07v-1.142h-1.116v1.078h-1.07v1.11H8.692V13H7.573v-1.077H6.487v-1.061H5.37v1.06H4.315v1.081H5.37v1.078h1.118v-1.078h1.086v1.078h1.07v1.08h-1.07v.997H6.487v-1.03H5.37v1.158h1.118v1.03h1.119v-.997h1.086v-1.158h1.07v-1.05h1.045v1.1h1.116v1.068h1.116V15.19h1.013V14.05h-1.117v1.087z" transform="translate(-639 -302) matrix(-1 0 0 1 683.64 302) rotate(-75 16.542 12.468)"/>
                    <path fill="#FFF1C9" d="M12.988 10.855L14.053 10.855 14.053 9.765 12.988 9.765 11.923 9.765 11.923 10.855 11.923 11.923 12.988 11.923zM2.158 12.98L3.196 12.98 3.196 11.942 2.158 11.942z" transform="translate(-639 -302) matrix(-1 0 0 1 683.64 302) rotate(-75 16.542 12.468)"/>
                    <path fill="#F4E1BA" d="M5.426 10.843L5.426 9.762 4.354 9.762 4.354 8.701 5.431 8.701 5.431 7.67 6.518 7.67 6.518 6.591 7.604 6.591 7.604 5.45 8.667 5.45 8.667 4.374 9.73 4.374 9.73 3.233 8.613 3.233 8.613 4.309 7.551 4.309 7.551 5.45 6.488 5.45 6.488 6.529 5.402 6.529 5.402 7.608 4.315 7.608 4.315 8.685 3.238 8.685 3.238 9.762 2.158 9.762 2.158 10.858 1.077 10.858 1.077 11.938 2.158 11.938 2.158 10.885 3.238 10.885 3.238 9.779 4.307 9.779 4.307 10.843z" transform="translate(-639 -302) matrix(-1 0 0 1 683.64 302) rotate(-75 16.542 12.468)"/>
                    <path fill="#F77E00" d="M8.665 7.576L7.573 7.576 7.573 9.763 9.748 9.763 9.748 8.664 8.665 8.664 8.665 7.608 9.748 7.608 9.748 8.664 10.832 8.664 10.832 6.488 8.665 6.488zM10.798 10.803H9.71v1.12h1.12v-1.07c.543.182.906.182 1.088 0 .182-.182.182-.545 0-1.088h1.095v-1.12h-1.12v1.088h-1.095v1.07z" transform="translate(-639 -302) matrix(-1 0 0 1 683.64 302) rotate(-75 16.542 12.468)"/>
                </g>
            </g>
        </g>
    </g>
</svg>
