<svg xmlns="http://www.w3.org/2000/svg" width="120" height="97" viewBox="0 0 120 97">
    <g fill="none" fill-rule="evenodd">
        <g>
            <g>
                <g>
                    <path fill="#FDD76F" d="M108.016 33.48L101.598 33.48 101.598 38.62 82.724 19.828 89.043 13.536 82.059 6.582 62.137 28.129 61.697 33.357 53.752 25.446 60.191 19.035 54.018 12.888 7.411 59.295 11.268 62.082 11.268 67.501 16.691 67.501 16.691 62.103 22.537 62.002 22.537 67.62 28.299 67.607 28.039 73.226 33.882 73.226 33.882 78.668 28.039 78.668 28.039 84.693 33.882 84.693 33.882 90.052 39.725 90.052 58.491 71.388 58.226 74.537 68.116 84.385 107.839 44.834 102.854 39.87 108.016 39.87z" transform="translate(-900 -339) translate(900 339)"/>
                    <path fill="#050505" d="M45.314 84.865v5.821h-5.582v5.187h-5.847v-5.822h5.582v-5.186h5.847zM33.885 50.78v5.398h5.847v5.822h5.581v5.505h5.848v5.82h5.235v-5.82h5.723V62h5.422V56.18h5.847v-5.398h5.847v5.822h-5.847v5.398h-5.422v5.822h-5.723v5.504h-5.58v5.716h5.58v5.398h5.723V78.62h5.422v-5.398h5.847v-5.398h5.501v-5.821h5.847V56.18h5.502V50.78h5.847v5.822H96.43v5.398h-5.847v5.822h-5.501v5.822h-5.847v5.398h-5.422v5.399h-5.847v5.82H62.12v-5.398h-5.723V79.15h-5.235v5.715h-5.848v-5.82h5.502v-5.717h-5.502v-5.504h-5.846v-5.822h-5.582v-5.398h-5.847v-5.822h5.847zm-22.616 0v5.822H5.847V62h5.422v5.505h5.422V62h5.846v5.505h5.754v5.715h5.595v5.822h-5.502v5.186h5.502v5.822h-5.847v-5.187h-5.502v-5.82h5.502v-5.717h-5.595v-5.505h-5.329v5.505H11.27v-5.505H5.422v-5.82H0v-5.823h5.422v-5.398h5.847zm67.966 11.22v5.822h-5.847V62h5.847zm5.847-28.262v5.478h5.501v5.822h-5.501v5.728h-5.847v-5.822h5.501v-5.384h-5.501V33.74h5.847zm-62.545 5.822v5.385h5.847v5.821h-5.847v-5.384h-5.422v5.384h-5.847v-5.821h5.423V39.56h5.846zm90.743 0v5.822h-5.502v5.384h-5.847v-5.821h5.502V39.56h5.847zm5.847-5.821v5.822h-5.847V33.74h5.847zM85.082 0v5.478h5.501V11.3h5.847v5.822h-5.847v5.398h-5.846v-5.821h5.846v-5.399h-5.847V5.822h-5.501v5.477h-5.61v5.822h-5.659v5.399h-5.722v5.821h5.722v5.399h5.422v-5.822h5.847v5.822h-5.422v5.821h-5.847v-5.398H62.12v-5.822h-5.724V22.52h5.724v-5.4h-5.453V11.3H50.82V5.478h5.847V11.3h5.847v5.398h5.265v-5.399h5.609V5.48h5.847v-5.48h5.847zM33.886 28.34v5.822h-5.502v5.398h-5.847V33.74h5.502V28.34h5.847zm62.544-5.822v5.399h5.501v-5.399h5.847v5.399h5.502v5.821h-5.847v-5.398h-5.502v5.398h-5.846v-5.398h-5.502V22.52h5.847zM50.815 11.3v5.822h-5.502v5.399h-5.58v5.821h-5.848V22.52h5.582v-5.822h5.501v-5.399h5.847z" transform="translate(-900 -339) translate(900 339)"/>
                    <path fill="#FFF1C9" d="M102.087 39.286h5.363v-5.222h-5.363v5.222zm-22.86-22.588h5.51v-5.286h-5.51v5.286zM56.666 28.13h5.47v-5.382h-5.47v5.382zm17.13 16.703h5.283v-5.159h-5.284v5.159zM107.76 33.74v-5.61h-5.83v5.497h-5.673V28.13h-5.692v-5.724h-5.657v-5.593h5.657v-5.935h-5.83v-5.4h-5.83v5.708h-5.51v5.935h-5.43v5.285h-5.695v-5.593h-5.604v-5.627h-5.83v5.935h5.604v5.285h-5.603v5.935h5.603v5.723h5.83v5.553h5.695v5.603h5.43v5.547h5.83V45.22h5.683v-5.934h-5.683V33.74h-5.83v5.546H68.1v-5.603h-5.83V28.34h5.697v-5.285h5.83v-5.935h5.283v5.512h5.656v5.708h5.692v5.723h5.83v5.497h5.363v5.272h-5.363v5.68h-5.83v5.813h-5.692v5.508H79.08v5.552h-5.683v5.934h5.83v-5.55h5.682v-5.51h5.657v-5.812h5.692v-5.68h5.829V45.22h5.363v-5.546h5.83V33.74h-5.519z" transform="translate(-900 -339) translate(900 339)"/>
                    <path fill="#FFF1C9" d="M28.298 67.607h5.41v-5.504h-5.41v5.504zm39.26 11.111h-5.287v-5.554h-5.604v-5.386h5.587v-5.935h-5.829v5.606h-5.587v5.772h-5.443v-5.614h-5.843v-5.606h-5.67v-5.517h-5.843v5.517h-5.502v5.62h5.502v5.605h5.843V67.62h5.67v5.606h5.59v5.614h-5.59v5.187h-5.67v-5.359h-5.843v6.024h5.843v5.36h5.842v-5.188h5.67V78.84h5.59v-5.456h5.457V79.1h5.83v5.553h5.83v-5.655h5.287v-5.935h-5.83v5.655z" transform="translate(-900 -339) translate(900 339)"/>
                    <path fill="#FFF1C9" d="M67.834 56.448L73.396 56.448 73.396 50.782 67.834 50.782 62.271 50.782 62.271 56.448 62.271 62.002 67.834 62.002zM11.269 67.501L16.69 67.501 16.69 62.103 11.269 62.103z" transform="translate(-900 -339) translate(900 339)"/>
                    <path fill="#F4E1BA" d="M28.339 56.386L28.339 50.767 22.742 50.767 22.742 45.247 28.367 45.247 28.367 39.886 34.041 39.886 34.041 34.276 39.715 34.276 39.715 28.341 45.265 28.341 45.265 22.748 50.815 22.748 50.815 16.813 44.986 16.813 44.986 22.407 39.435 22.407 39.435 28.341 33.886 28.341 33.886 33.951 28.211 33.951 28.211 39.561 22.537 39.561 22.537 45.164 16.912 45.164 16.912 50.767 11.268 50.767 11.268 56.463 5.626 56.463 5.626 62.082 11.268 62.082 11.268 56.604 16.912 56.604 16.912 50.851 22.496 50.851 22.496 56.386z" transform="translate(-900 -339) translate(900 339)"/>
                    <path fill="#F77E00" d="M45.253 39.396L39.552 39.396 39.552 50.768 50.913 50.768 50.913 45.052 45.253 45.052 45.253 39.561 50.913 39.561 50.913 45.052 56.574 45.052 56.574 33.74 45.253 33.74zM56.396 56.18L50.713 56.18 50.713 62.001 56.56 62.001 56.56 56.438 62.243 56.438 62.243 50.781 67.966 50.781 67.966 44.959 62.119 44.959 62.119 50.616 56.396 50.616z" transform="translate(-900 -339) translate(900 339)"/>
                </g>
                <g>
                    <path fill="#050505" d="M0 0v12.673h2.675v3.137h3.137v-3.137H3.137V9.41h27.86v3.263h3.137V0H0zm3.137 6.273h27.86V3.136H3.137v3.137z" transform="translate(-900 -339) translate(900 339) translate(85.714 42.857)"/>
                    <path fill="#050505" d="M27.861 15.81L30.997 15.81 30.997 12.673 27.861 12.673zM24.724 18.947L27.861 18.947 27.861 15.81 24.724 15.81zM21.588 22.083L24.724 22.083 24.724 18.947 21.588 18.947zM27.676 41.03L30.813 41.03 30.813 37.893 27.676 37.893zM18.451 31.668L21.588 31.668 21.588 34.756 24.54 34.756 24.54 37.893 27.677 37.893 27.677 34.756 24.724 34.756 24.724 31.62 21.588 31.62 21.588 22.083 18.451 22.083zM5.812 18.947L8.949 18.947 8.949 15.81 5.812 15.81zM8.949 22.083L12.086 22.083 12.086 18.947 8.949 18.947z" transform="translate(-900 -339) translate(900 339) translate(85.714 42.857)"/>
                    <path fill="#050505" d="M2.86 37.893v3.137H0V53.3h34.134V41.03h-3.137v2.825H3.137V41.03h2.86v-3.137H2.86zm.276 12.27h27.86V46.99H3.137v3.172zM8.949 31.62L8.949 34.757 5.996 34.757 5.996 37.893 9.133 37.893 9.133 34.757 12.085 34.757 12.085 31.669 15.222 31.669 15.222 22.083 12.085 22.083 12.085 31.62z" transform="translate(-900 -339) translate(900 339) translate(85.714 42.857)"/>
                    <path fill="#FF5342" d="M3.136 6.273L30.997 6.273 30.997 3.137 3.136 3.137zM3.136 50.145L30.997 50.145 30.997 47.009 3.136 47.009z" transform="translate(-900 -339) translate(900 339) translate(85.714 42.857)"/>
                    <path fill="#67D3EF" d="M3.136 9.41L30.998 9.41 30.998 12.673 27.861 12.673 27.861 15.81 24.724 15.81 24.724 18.946 21.588 18.946 21.588 22.083 18.451 22.083 18.451 31.668 21.588 31.668 21.588 34.756 24.539 34.756 24.539 37.893 27.677 37.893 27.677 41.03 30.998 41.03 30.998 43.855 3.136 43.855 3.136 41.03 5.996 41.03 5.996 37.893 9.133 37.893 9.133 34.756 12.085 34.756 12.085 31.668 15.222 31.668 15.222 22.083 12.085 22.083 12.085 18.946 8.949 18.946 8.949 15.81 5.812 15.81 5.812 12.673 3.136 12.673z" transform="translate(-900 -339) translate(900 339) translate(85.714 42.857)"/>
                    <path fill="#FFF" d="M8.949 12.731L12.086 12.731 12.086 9.594 8.949 9.594z" transform="translate(-900 -339) translate(900 339) translate(85.714 42.857)"/>
                    <path fill="#FFF" d="M12.085 15.81L15.222 15.81 15.222 12.673 12.085 12.673zM15.222 18.947L18.358 18.947 18.358 15.81 15.222 15.81zM12.085 37.893L15.222 37.893 15.222 34.757 12.085 34.757zM8.949 41.03L12.086 41.03 12.086 37.893 8.949 37.893z" transform="translate(-900 -339) translate(900 339) translate(85.714 42.857)"/>
                    <path fill="#FFF" d="M5.997 41.03L9.133 41.03 9.133 37.893 5.997 37.893z" transform="translate(-900 -339) translate(900 339) translate(85.714 42.857)"/>
                    <path fill="#FF5342" d="M18.358 18.947L21.495 18.947 21.495 15.81 18.358 15.81zM12.085 18.947L15.222 18.947 15.222 15.81 12.085 15.81zM12.085 41.03L5.996 41.03 5.996 43.855 27.861 43.855 27.861 41.03 21.588 41.03 21.588 37.893 18.451 37.893 18.451 34.756 15.222 34.756 15.222 37.893 12.085 37.893z" transform="translate(-900 -339) translate(900 339) translate(85.714 42.857)"/>
                </g>
            </g>
        </g>
    </g>
</svg>
