<svg xmlns="http://www.w3.org/2000/svg" width="55" height="50" viewBox="0 0 55 50">
    <g fill="none" fill-rule="evenodd">
        <g>
            <g>
                <path fill="#86E3FF" stroke="#383838" stroke-width="2" d="M39.194 7.31v3.269h-3.158v4.426h3.158v3.268h3.269v8.316H-1v-8.482h3.072v-3.102h3.213v-4.37H2.127V7.475H-1V-1h43.463v8.31h-3.269z" transform="translate(-661 -1021) rotate(32 -1446.25 1694.296)"/>
                <path fill="#FF9D43" d="M12.711 3.263L28.61 3.263 28.61 6.476 31.972 6.476 31.972 19.107 28.61 19.107 28.61 22.32 12.711 22.32 12.711 19.218 9.553 19.218 9.553 6.366 12.766 6.366z" transform="translate(-661 -1021) rotate(32 -1446.25 1694.296)"/>
                <path fill="#4AD0EE" d="M.356 2.492L41.1 2.492 41.1.356.356.356zM35.593 19.273L37.729 19.273 37.729 16.426 35.593 16.426zM3.425 19.444L6.637 19.444 6.637 16.348 3.425 16.348zM38.249 25.271L41.097 25.271 41.097 19.576 38.249 19.576zM.348 25.229L3.158 25.229 3.158 19.444.348 19.444z" transform="translate(-661 -1021) rotate(32 -1446.25 1694.296)"/>
                <path fill="#901204" d="M16.367 12.681L20.799 12.681 20.799 8.249 16.367 8.249zM20.19 17.183L24.622 17.183 24.622 12.751 20.19 12.751z" opacity=".399" transform="translate(-661 -1021) rotate(32 -1446.25 1694.296)"/>
            </g>
        </g>
    </g>
</svg>
