<svg xmlns="http://www.w3.org/2000/svg" width="207" height="65" viewBox="0 0 207 65">
    <g fill="none" fill-rule="evenodd">
        <g>
            <g>
                <g fill="#1D1D1B">
                    <path d="M0 0v30.73h21.95v-4.39h4.39v-4.39h4.39V8.78h-4.39V4.39h-4.39V0H0zm8.78 4.39h8.78v4.39h4.39v13.17h-4.39v4.39H8.78V4.39zM35.12 0v30.73h8.78v-8.78h4.389v4.39h4.39v4.39h13.367v-4.435l-4.587.045v-4.39h-4.39v-4.39h8.78V4.39h-4.39V0h-26.34zm8.78 4.39h13.17v8.78h-4.39v4.39H43.9V4.39zM79.018 0v4.39h-4.39v4.39h-4.39v21.95h8.78v-8.78h13.17v8.78h8.78V8.78h-4.39V4.39h-4.39V0h-13.17zm0 8.78h4.39V4.39h4.39v4.39h4.39v8.78h-13.17V8.78zM114.137 0L114.137 4.39 109.747 4.39 109.747 8.78 105.357 8.78 105.357 21.95 109.747 21.95 109.747 26.34 114.137 26.34 114.137 30.73 136.087 30.73 136.087 13.17 122.917 13.17 122.917 17.56 127.307 17.56 127.307 26.34 118.527 26.34 118.527 21.95 114.137 21.95 114.137 8.78 118.527 8.78 118.527 4.39 136.087 4.39 136.087 0zM144.867 0v4.39h-4.39v21.95h4.39v4.39h21.949v-4.39h4.39V4.39h-4.39V0h-21.95zm4.39 26.34h13.17V4.39h-13.17v21.95zM197.546 0L197.546 13.17 193.156 13.17 193.156 8.78 188.765 8.78 188.765 4.39 184.376 4.39 184.376 0 175.596 0 175.596 30.73 184.376 30.73 184.376 17.56 188.765 17.56 188.765 21.95 193.156 21.95 193.156 26.34 197.546 26.34 197.546 30.73 206.326 30.73 206.326 0z" transform="translate(-53 -29) translate(53 29)"/>
                </g>
                <g>
                    <g>
                        <path fill="#F7B500" d="M13.044 1.437L23.135 1.437 23.135 2.857 26.026 2.857 26.026 4.277 28.865 4.277 28.865 5.696 30.336 5.696 30.336 7.268 31.857 7.268 31.857 10.058 33.176 10.058 33.176 13.049 34.697 13.049 34.697 17.309 33.277 17.309 33.277 23.039 31.807 23.039 31.807 25.93 30.387 25.93 30.387 27.401 27.446 27.401 27.446 28.82 24.606 28.82 24.606 30.342 11.624 30.342 11.624 28.871 8.683 28.871 8.683 27.502 5.742 27.502 5.742 26.082 4.271 26.082 4.271 23.039 2.902 23.039 2.902 17.309 1.431 17.309 1.431 13.049 2.902 13.049 2.902 10.159 4.423 10.159 4.423 7.319 5.792 7.319 5.792 5.798 7.161 5.798 7.161 4.327 10.103 4.327 10.103 2.958 12.993 2.958z" transform="translate(-53 -29) translate(53 29) translate(38 26) translate(0 2.407)"/>
                        <path fill="#1D1D1B" d="M13.061 0L13.061 1.437 23.135 1.437 23.135 2.857 26.026 2.857 26.026 1.319 23.135 1.319 23.135 0zM26.026 4.277L28.865 4.277 28.865 2.857 26.026 2.857zM33.288 10.058L33.288 7.178 31.832 7.178 31.832 5.68 30.37 5.68 30.37 4.175 28.865 4.175 28.865 5.68 30.328 5.68 30.328 7.268 31.832 7.268 31.832 10.058 33.176 10.058 33.176 13.049 34.697 13.049 34.697 10.058zM4.354 28.882L4.354 30.342 5.791 30.342 5.791 31.801 7.22 31.801 7.22 33.235 10.043 33.235 10.043 34.695 12.993 34.695 12.993 36.107 23.164 36.107 23.164 34.695 26.054 34.695 26.054 33.235 23.104 33.235 23.104 34.647 12.993 34.647 12.993 33.235 10.17 33.235 10.17 31.775 7.251 31.775 7.251 30.342 5.814 30.342 5.814 28.882zM10.065 1.437L10.065 2.788 7.212 2.788 7.212 4.309 5.696 4.309 5.696 5.83 4.277 5.83 4.277 7.211 2.902 7.211 2.902 10.043 1.392 10.043 1.392 13.046 0 13.046 0 23.107 1.431 23.107 1.431 26.037 2.895 26.037 2.895 28.882 4.354 28.882 4.354 25.986 2.952 25.986 2.952 23.034 1.431 23.034 1.431 13.046 2.913 13.046 2.913 10.214 4.423 10.214 4.423 7.352 5.798 7.352 5.798 5.83 7.218 5.83 7.218 4.309 10.097 4.309 10.097 2.958 13.061 2.958 13.061 1.437zM34.697 13.049L34.697 23.09 33.266 23.09 33.266 25.947 31.79 25.947 31.79 27.38 30.391 27.38 30.391 30.316 28.926 30.316 28.926 31.775 26.054 31.775 26.054 33.235 29.005 33.235 29.005 31.838 30.447 31.838 30.447 30.372 31.912 30.372 31.912 28.939 33.311 28.939 33.311 26.082 34.787 26.082 34.787 23.09 36.218 23.09 36.218 13.049z" transform="translate(-53 -29) translate(53 29) translate(38 26) translate(0 2.407)"/>
                        <path fill="#F78F00" d="M34.73 17.31v5.78h-1.47v2.874h-1.47v1.417h-1.395v2.935h-1.47v1.46h-2.87v1.469H23.15v1.402H12.993v-1.402H10.17v-1.47H7.243v-1.433h-1.44v-1.46H4.354v-2.797H5.81v1.417h2.874v1.38h2.941v1.392h12.96v-1.447h2.87v-1.446h2.865v-1.468h1.47v-2.874h1.47v-5.73h1.472zM4.357 23.033V26H2.902v-2.966h1.454zM2.902 17.32v5.714h-1.47V17.32h1.47z" transform="translate(-53 -29) translate(53 29) translate(38 26) translate(0 2.407)"/>
                        <path fill="#FFF" fill-opacity=".506" d="M28.909 11.981L26.5 11.981 26.5 9.713 24.114 9.713 24.114 7.208 11.999 7.208 11.999 9.713 9.756 9.713 9.756 11.981 7.243 11.981 7.243 23.961 9.756 23.961 9.756 26.552 11.999 26.552 11.999 28.875 24.114 28.875 24.114 26.552 26.5 26.552 26.5 23.961 28.909 23.961z" transform="translate(-53 -29) translate(53 29) translate(38 26) translate(0 2.407)"/>
                        <path fill="#400003" d="M12.381 11.35v12.38h10.612v-1.769h1.769v-3.537h-1.769v-1.769h1.769v-3.537h-1.769v-1.769H12.381zm3.537 5.305h5.306v-3.537h-5.306v3.537zm0 5.306h5.306v-3.537h-5.306v3.537z" transform="translate(-53 -29) translate(53 29) translate(38 26) translate(0 2.407)"/>
                    </g>
                    <g>
                        <path fill="#F7B500" d="M13.044 1.437L23.135 1.437 23.135 2.857 26.026 2.857 26.026 4.277 28.865 4.277 28.865 5.696 30.336 5.696 30.336 7.268 31.857 7.268 31.857 10.058 33.176 10.058 33.176 13.049 34.697 13.049 34.697 17.309 33.277 17.309 33.277 23.039 31.807 23.039 31.807 25.93 30.387 25.93 30.387 27.401 27.446 27.401 27.446 28.82 24.606 28.82 24.606 30.342 11.624 30.342 11.624 28.871 8.683 28.871 8.683 27.502 5.742 27.502 5.742 26.082 4.271 26.082 4.271 23.039 2.902 23.039 2.902 17.309 1.431 17.309 1.431 13.049 2.902 13.049 2.902 10.159 4.423 10.159 4.423 7.319 5.792 7.319 5.792 5.798 7.161 5.798 7.161 4.327 10.103 4.327 10.103 2.958 12.993 2.958z" transform="translate(-53 -29) translate(53 29) translate(38 26) translate(31.296)"/>
                        <path fill="#1D1D1B" d="M13.061 0L13.061 1.437 23.135 1.437 23.135 2.857 26.026 2.857 26.026 1.319 23.135 1.319 23.135 0zM26.026 4.277L28.865 4.277 28.865 2.857 26.026 2.857zM33.288 10.058L33.288 7.178 31.832 7.178 31.832 5.68 30.37 5.68 30.37 4.175 28.865 4.175 28.865 5.68 30.328 5.68 30.328 7.268 31.832 7.268 31.832 10.058 33.176 10.058 33.176 13.049 34.697 13.049 34.697 10.058zM4.354 28.882L4.354 30.342 5.791 30.342 5.791 31.801 7.22 31.801 7.22 33.235 10.043 33.235 10.043 34.695 12.993 34.695 12.993 36.107 23.164 36.107 23.164 34.695 26.054 34.695 26.054 33.235 23.104 33.235 23.104 34.647 12.993 34.647 12.993 33.235 10.17 33.235 10.17 31.775 7.251 31.775 7.251 30.342 5.814 30.342 5.814 28.882zM10.065 1.437L10.065 2.788 7.212 2.788 7.212 4.309 5.696 4.309 5.696 5.83 4.277 5.83 4.277 7.211 2.902 7.211 2.902 10.043 1.392 10.043 1.392 13.046 0 13.046 0 23.107 1.431 23.107 1.431 26.037 2.895 26.037 2.895 28.882 4.354 28.882 4.354 25.986 2.952 25.986 2.952 23.034 1.431 23.034 1.431 13.046 2.913 13.046 2.913 10.214 4.423 10.214 4.423 7.352 5.798 7.352 5.798 5.83 7.218 5.83 7.218 4.309 10.097 4.309 10.097 2.958 13.061 2.958 13.061 1.437zM34.697 13.049L34.697 23.09 33.266 23.09 33.266 25.947 31.79 25.947 31.79 27.38 30.391 27.38 30.391 30.316 28.926 30.316 28.926 31.775 26.054 31.775 26.054 33.235 29.005 33.235 29.005 31.838 30.447 31.838 30.447 30.372 31.912 30.372 31.912 28.939 33.311 28.939 33.311 26.082 34.787 26.082 34.787 23.09 36.218 23.09 36.218 13.049z" transform="translate(-53 -29) translate(53 29) translate(38 26) translate(31.296)"/>
                        <path fill="#F78F00" d="M34.73 17.31v5.78h-1.47v2.874h-1.47v1.417h-1.395v2.935h-1.47v1.46h-2.87v1.469H23.15v1.402H12.993v-1.402H10.17v-1.47H7.243v-1.433h-1.44v-1.46H4.354v-2.797H5.81v1.417h2.874v1.38h2.941v1.392h12.96v-1.447h2.87v-1.446h2.865v-1.468h1.47v-2.874h1.47v-5.73h1.472zM4.357 23.033V26H2.902v-2.966h1.454zM2.902 17.32v5.714h-1.47V17.32h1.47z" transform="translate(-53 -29) translate(53 29) translate(38 26) translate(31.296)"/>
                        <path fill="#FFF" fill-opacity=".506" d="M28.909 11.981L26.5 11.981 26.5 9.713 24.114 9.713 24.114 7.208 11.999 7.208 11.999 9.713 9.756 9.713 9.756 11.981 7.243 11.981 7.243 23.961 9.756 23.961 9.756 26.552 11.999 26.552 11.999 28.875 24.114 28.875 24.114 26.552 26.5 26.552 26.5 23.961 28.909 23.961z" transform="translate(-53 -29) translate(53 29) translate(38 26) translate(31.296)"/>
                        <path fill="#400003" d="M15.402 11.35v1.768h-1.768v1.769h-1.769v8.843h3.537v-3.537h5.307v3.537h3.538v-8.843h-1.77v-1.769H20.71V11.35h-5.307zm0 3.537h1.769v-1.769h1.77v1.769h1.768v3.537h-5.307v-3.537z" transform="translate(-53 -29) translate(53 29) translate(38 26) translate(31.296)"/>
                    </g>
                    <g>
                        <path fill="#F7B500" d="M13.044 1.437L23.135 1.437 23.135 2.857 26.026 2.857 26.026 4.277 28.865 4.277 28.865 5.696 30.336 5.696 30.336 7.268 31.857 7.268 31.857 10.058 33.176 10.058 33.176 13.049 34.697 13.049 34.697 17.309 33.277 17.309 33.277 23.039 31.807 23.039 31.807 25.93 30.387 25.93 30.387 27.401 27.446 27.401 27.446 28.82 24.606 28.82 24.606 30.342 11.624 30.342 11.624 28.871 8.683 28.871 8.683 27.502 5.742 27.502 5.742 26.082 4.271 26.082 4.271 23.039 2.902 23.039 2.902 17.309 1.431 17.309 1.431 13.049 2.902 13.049 2.902 10.159 4.423 10.159 4.423 7.319 5.792 7.319 5.792 5.798 7.161 5.798 7.161 4.327 10.103 4.327 10.103 2.958 12.993 2.958z" transform="translate(-53 -29) translate(53 29) translate(38 26) translate(61.63)"/>
                        <path fill="#1D1D1B" d="M13.061 0L13.061 1.437 23.135 1.437 23.135 2.857 26.026 2.857 26.026 1.319 23.135 1.319 23.135 0zM26.026 4.277L28.865 4.277 28.865 2.857 26.026 2.857zM33.288 10.058L33.288 7.178 31.832 7.178 31.832 5.68 30.37 5.68 30.37 4.175 28.865 4.175 28.865 5.68 30.328 5.68 30.328 7.268 31.832 7.268 31.832 10.058 33.176 10.058 33.176 13.049 34.697 13.049 34.697 10.058zM4.354 28.882L4.354 30.342 5.791 30.342 5.791 31.801 7.22 31.801 7.22 33.235 10.043 33.235 10.043 34.695 12.993 34.695 12.993 36.107 23.164 36.107 23.164 34.695 26.054 34.695 26.054 33.235 23.104 33.235 23.104 34.647 12.993 34.647 12.993 33.235 10.17 33.235 10.17 31.775 7.251 31.775 7.251 30.342 5.814 30.342 5.814 28.882zM10.065 1.437L10.065 2.788 7.212 2.788 7.212 4.309 5.696 4.309 5.696 5.83 4.277 5.83 4.277 7.211 2.902 7.211 2.902 10.043 1.392 10.043 1.392 13.046 0 13.046 0 23.107 1.431 23.107 1.431 26.037 2.895 26.037 2.895 28.882 4.354 28.882 4.354 25.986 2.952 25.986 2.952 23.034 1.431 23.034 1.431 13.046 2.913 13.046 2.913 10.214 4.423 10.214 4.423 7.352 5.798 7.352 5.798 5.83 7.218 5.83 7.218 4.309 10.097 4.309 10.097 2.958 13.061 2.958 13.061 1.437zM34.697 13.049L34.697 23.09 33.266 23.09 33.266 25.947 31.79 25.947 31.79 27.38 30.391 27.38 30.391 30.316 28.926 30.316 28.926 31.775 26.054 31.775 26.054 33.235 29.005 33.235 29.005 31.838 30.447 31.838 30.447 30.372 31.912 30.372 31.912 28.939 33.311 28.939 33.311 26.082 34.787 26.082 34.787 23.09 36.218 23.09 36.218 13.049z" transform="translate(-53 -29) translate(53 29) translate(38 26) translate(61.63)"/>
                        <path fill="#F78F00" d="M34.73 17.31v5.78h-1.47v2.874h-1.47v1.417h-1.395v2.935h-1.47v1.46h-2.87v1.469H23.15v1.402H12.993v-1.402H10.17v-1.47H7.243v-1.433h-1.44v-1.46H4.354v-2.797H5.81v1.417h2.874v1.38h2.941v1.392h12.96v-1.447h2.87v-1.446h2.865v-1.468h1.47v-2.874h1.47v-5.73h1.472zM4.357 23.033V26H2.902v-2.966h1.454zM2.902 17.32v5.714h-1.47V17.32h1.47z" transform="translate(-53 -29) translate(53 29) translate(38 26) translate(61.63)"/>
                        <path fill="#FFF" fill-opacity=".506" d="M28.909 11.981L26.5 11.981 26.5 9.713 24.114 9.713 24.114 7.208 11.999 7.208 11.999 9.713 9.756 9.713 9.756 11.981 7.243 11.981 7.243 23.961 9.756 23.961 9.756 26.552 11.999 26.552 11.999 28.875 24.114 28.875 24.114 26.552 26.5 26.552 26.5 23.961 28.909 23.961z" transform="translate(-53 -29) translate(53 29) translate(38 26) translate(61.63)"/>
                        <path fill="#400003" d="M12.897 10.833L12.897 23.214 23.516 23.214 23.516 21.446 16.437 21.446 16.437 10.833z" transform="translate(-53 -29) translate(53 29) translate(38 26) translate(61.63)"/>
                    </g>
                    <g>
                        <path fill="#F7B500" d="M13.044 1.437L23.135 1.437 23.135 2.857 26.026 2.857 26.026 4.277 28.865 4.277 28.865 5.696 30.336 5.696 30.336 7.268 31.857 7.268 31.857 10.058 33.176 10.058 33.176 13.049 34.697 13.049 34.697 17.309 33.277 17.309 33.277 23.039 31.807 23.039 31.807 25.93 30.387 25.93 30.387 27.401 27.446 27.401 27.446 28.82 24.606 28.82 24.606 30.342 11.624 30.342 11.624 28.871 8.683 28.871 8.683 27.502 5.742 27.502 5.742 26.082 4.271 26.082 4.271 23.039 2.902 23.039 2.902 17.309 1.431 17.309 1.431 13.049 2.902 13.049 2.902 10.159 4.423 10.159 4.423 7.319 5.792 7.319 5.792 5.798 7.161 5.798 7.161 4.327 10.103 4.327 10.103 2.958 12.993 2.958z" transform="translate(-53 -29) translate(53 29) translate(38 26) translate(93.889 2.407)"/>
                        <path fill="#1D1D1B" d="M13.061 0L13.061 1.437 23.135 1.437 23.135 2.857 26.026 2.857 26.026 1.319 23.135 1.319 23.135 0zM26.026 4.277L28.865 4.277 28.865 2.857 26.026 2.857zM33.288 10.058L33.288 7.178 31.832 7.178 31.832 5.68 30.37 5.68 30.37 4.175 28.865 4.175 28.865 5.68 30.328 5.68 30.328 7.268 31.832 7.268 31.832 10.058 33.176 10.058 33.176 13.049 34.697 13.049 34.697 10.058zM4.354 28.882L4.354 30.342 5.791 30.342 5.791 31.801 7.22 31.801 7.22 33.235 10.043 33.235 10.043 34.695 12.993 34.695 12.993 36.107 23.164 36.107 23.164 34.695 26.054 34.695 26.054 33.235 23.104 33.235 23.104 34.647 12.993 34.647 12.993 33.235 10.17 33.235 10.17 31.775 7.251 31.775 7.251 30.342 5.814 30.342 5.814 28.882zM10.065 1.437L10.065 2.788 7.212 2.788 7.212 4.309 5.696 4.309 5.696 5.83 4.277 5.83 4.277 7.211 2.902 7.211 2.902 10.043 1.392 10.043 1.392 13.046 0 13.046 0 23.107 1.431 23.107 1.431 26.037 2.895 26.037 2.895 28.882 4.354 28.882 4.354 25.986 2.952 25.986 2.952 23.034 1.431 23.034 1.431 13.046 2.913 13.046 2.913 10.214 4.423 10.214 4.423 7.352 5.798 7.352 5.798 5.83 7.218 5.83 7.218 4.309 10.097 4.309 10.097 2.958 13.061 2.958 13.061 1.437zM34.697 13.049L34.697 23.09 33.266 23.09 33.266 25.947 31.79 25.947 31.79 27.38 30.391 27.38 30.391 30.316 28.926 30.316 28.926 31.775 26.054 31.775 26.054 33.235 29.005 33.235 29.005 31.838 30.447 31.838 30.447 30.372 31.912 30.372 31.912 28.939 33.311 28.939 33.311 26.082 34.787 26.082 34.787 23.09 36.218 23.09 36.218 13.049z" transform="translate(-53 -29) translate(53 29) translate(38 26) translate(93.889 2.407)"/>
                        <path fill="#F78F00" d="M34.73 17.31v5.78h-1.47v2.874h-1.47v1.417h-1.395v2.935h-1.47v1.46h-2.87v1.469H23.15v1.402H12.993v-1.402H10.17v-1.47H7.243v-1.433h-1.44v-1.46H4.354v-2.797H5.81v1.417h2.874v1.38h2.941v1.392h12.96v-1.447h2.87v-1.446h2.865v-1.468h1.47v-2.874h1.47v-5.73h1.472zM4.357 23.033V26H2.902v-2.966h1.454zM2.902 17.32v5.714h-1.47V17.32h1.47z" transform="translate(-53 -29) translate(53 29) translate(38 26) translate(93.889 2.407)"/>
                        <path fill="#FFF" fill-opacity=".506" d="M28.909 11.981L26.5 11.981 26.5 9.713 24.114 9.713 24.114 7.208 11.999 7.208 11.999 9.713 9.756 9.713 9.756 11.981 7.243 11.981 7.243 23.961 9.756 23.961 9.756 26.552 11.999 26.552 11.999 28.875 24.114 28.875 24.114 26.552 26.5 26.552 26.5 23.961 28.909 23.961z" transform="translate(-53 -29) translate(53 29) translate(38 26) translate(93.889 2.407)"/>
                        <path fill="#400003" d="M12.897 10.833L12.897 23.214 23.516 23.214 23.516 21.446 16.437 21.446 16.437 10.833z" transform="translate(-53 -29) translate(53 29) translate(38 26) translate(93.889 2.407)"/>
                    </g>
                </g>
            </g>
        </g>
    </g>
</svg>
