<svg xmlns="http://www.w3.org/2000/svg" width="45" height="46"><g fill="none" fill-rule="evenodd"><path fill="#675244" d="M7.765 45.4h-.55v-.575h.55z"/><path fill="#403F3B" d="M8.315 45.4h-.55v-.575h.55z"/><path fill="#47443E" d="M38.017 45.4h-.55v-.575h.55z"/><path fill="#4B4640" d="M8.865 44.825h-.55v-.575h.55z"/><path fill="#554C44" d="M35.266 44.251h-.549v-.575h.549z"/><path fill="#6D5142" d="M6.115 43.101h-.55v-.574h.55z"/><path fill="#6A5244" d="M7.765 43.101h-.55v-.574h.55z"/><path fill="#44423D" d="M36.917 43.101h-.55v-.574h.55z"/><path fill="#514A43" d="M34.717 42.527h-.55v-.575h.55z"/><path fill="#655245" d="M36.917 42.527h-.55v-.575h.55z"/><path fill="#6B7276" d="M38.017 42.527h-.55v-.575h.55z"/><path fill="#544940" d="M9.965 41.952h-.55v-.575h.55z"/><path fill="#3C4444" d="M37.467 41.952h-.55v-.575h.55z"/><path fill="#232425" d="M19.315 40.803h-.549v-.575h.549z"/><path fill="#4B3B33" d="M20.966 40.803h-.55v-.575h.55zm2.75 0h-.55v-.575h.55z"/><path fill="#232425" d="M25.366 40.803h-.55v-.575h.55z"/><path fill="#69402E" d="M35.266 40.228h-.549v-.575h.549z"/><path fill="#212222" d="M11.065 39.653h-.55v-.575h.55z"/><path fill="#6C7478" d="M12.165 39.653h-.55v-.575h.55z"/><path fill="#6D7579" d="M32.516 39.653h-.55v-.575h.55z"/><path fill="#242526" d="M33.067 39.653h-.551v-.575h.551z"/><path fill="#242324" d="M7.215 39.078h-.55v-.574h.55z"/><path fill="#673C2B" d="M8.315 39.078h-.55v-.574h.55z"/><path fill="#232123" d="M11.615 39.078h-.55v-.574h.55zm21.452 0h-.551v-.574h.551z"/><path fill="#693F30" d="M22.616 37.354h-.55v-.574h.55z"/><path fill="#693F2E" d="M25.366 36.78h-.55v-.575h.55z"/><path fill="#232123" d="M6.115 35.63h-.55v-.575h.55z"/><path fill="#232021" d="M38.567 35.63h-.55v-.575h.55z"/><path fill="#242526" d="M4.465 33.906h-.55v-.575h.55z"/><path fill="#6D5142" d="M3.915 32.757h-.55v-.575h.55z"/><path fill="#57352A" d="M40.767 32.757h-.55v-.575h.55z"/><path fill="#6E5141" d="M3.365 32.182h-.551v-.575h.551z"/><path fill="#6A4130" d="M34.167 32.182h-.551v-.575h.551z"/><path fill="#583529" d="M41.317 32.182h-.55v-.575h.55z"/><path fill="#232425" d="M2.265 31.607h-.551v-.574h.551z"/><path fill="#212222" d="M41.867 31.607h-.55v-.574h.55z"/><path fill="#212323" d="M42.417 31.607h-.55v-.574h.55z"/><path fill="#574D44" d="M2.265 30.458h-.551v-.575h.551z"/><path fill="#693F2E" d="M36.367 29.309h-.55v-.575h.55z"/><path fill="#697174" d="M43.517 28.734h-.55v-.575h.55z"/><path fill="#4A463F" d="M1.714 28.159h-.55v-.574h.55z"/><path fill="#8C8886" d="M1.714 27.585h-.55v-.575h.55z"/><path fill="#8D8A89" d="M39.117 27.585h-.55v-.575h.55z"/><path fill="#694B3F" d="M42.967 27.585h-.55v-.575h.55z"/><path fill="#7D6C63" d="M38.567 27.01h-.55v-.575h.55z"/><path fill="#A8AEB5" d="M40.217 27.01h-.55v-.575h.55z"/><path fill="#A7A8AB" d="M2.814 25.861h-.549v-.575h.549z"/><path fill="#835845" d="M28.116 25.861h-.55v-.575h.55z"/><path fill="#7B594A" d="M37.467 25.861h-.55v-.575h.55z"/><path fill="#653D2F" d="M40.767 25.861h-.55v-.575h.55z"/><path fill="#A9AFB6" d="M.614 25.286h-.55v-.575h.55zm42.903 0h-.55v-.575h.55z"/><path fill="#C79A4C" d="M5.015 24.137h-.55v-.575h.55z"/><path fill="#D0A24D" d="M3.915 23.562h-.55v-.575h.55z"/><path fill="#E6C77A" d="M39.117 23.562h-.55v-.575h.55z"/><path fill="#BBA178" d="M2.814 22.987h-.549v-.574h.549z"/><path fill="#B7B8B4" d="M6.115 22.987h-.55v-.574h.55z"/><path fill="#A5A4A5" d="M37.467 22.987h-.55v-.574h.55z"/><path fill="#BEBBAC" d="M38.017 22.987h-.55v-.574h.55z"/><path fill="#B9B9B2" d="M38.567 22.987h-.55v-.574h.55z"/><path fill="#B3874C" d="M5.565 22.413h-.55v-.575h.55z"/><path fill="#E4C67E" d="M42.417 22.413h-.55v-.575h.55z"/><path fill="#CEA14C" d="M3.915 21.263h-.55v-.574h.55z"/><path fill="#9D705B" d="M14.365 21.263h-.55v-.574h.55z"/><path fill="#DBC58B" d="M42.417 21.263h-.55v-.574h.55z"/><path fill="#5D4E44" d="M2.814 20.689h-.549v-.575h.549z"/><path fill="#E3DDD9" d="M12.165 20.689h-.55v-.575h.55z"/><path fill="#4B3A31" d="M41.867 20.689h-.55v-.575h.55z"/><path fill="#DACCC4" d="M12.715 20.114h-.55v-.575h.55z"/><path fill="#835845" d="M12.715 19.539h-.55v-.574h.55z"/><path fill="#835844" d="M22.066 19.539h-.55v-.574h.55z"/><path fill="#92614C" d="M12.715 20.689h1.1v.574h.55v1.15h-.55v-.575h-.55v.575h-.55v-1.15h-.55v-.574z"/><path fill="#92614C" d="M13.265 20.114h-.55v-1.149H18.216v.574H22.066v-.574H27.566v-.575h4.4V21.263h-.549v1.15h-.551v1.149h-1.1v.575h-.55v1.149H27.566v.575h-.55v.574H19.315v-.574H18.216v-.575H16.565v-.575H15.466v-.574h-.551v-.575h-.55v-.575h.55v-1.149h.551v-1.149h-1.651v-.575z"/><path fill="#675244" d="M4.465 18.39h-.55v-.575h.55z"/><path fill="#705041" d="M5.015 17.815h-.55v-.575h.55z"/><path fill="#5A3528" d="M39.667 17.815h-.55v-.575h.55z"/><path fill="#693E2D" d="M16.565 17.24h-.55v-.574h.55z"/><path fill="#5A3425" d="M39.117 17.24h-.55v-.574h.55z"/><path fill="#6F5041" d="M6.115 16.666h-.55v-.575h.55z"/><path fill="#754F3D" d="M2.265 23.562v-.575h1.1v.575h1.1v.575h.55v.574h-.55v.575h-.55v.575h-1.1v-.575H1.714v-1.724zm12.1-1.724h.55v1.149h-.55v-.574zm.55-1.149h.55v1.149h-.55v-.575zm-1.1 0h-.55v-.575h.55zm-7.7 21.838h1.1v.574h.55v-.574h-.55v-4.023h.55v.574h1.1v1.15h.55V43.101h-.55v1.15h-.55v.574h-2.75v-1.724h.55zm28.602-2.299h.549v-.575h.551v-.575h1.1V41.952h-.55v1.149h2.2V44.825h-1.1v.575H35.817v-.575h-.551v-1.149h-.549v-1.724h-.55v-1.149h.55z"/><path fill="#754F3D" d="M11.615 20.689h.55v.574h.55v2.299-.575h.55v.575h.55v-.575h.55v.575h.55v.575h.55v.574h1.1v.575h1.651v.575h1.1v.574h7.701v-.574h1.1v-.575h1.1v-1.149h.55v-.575h1.1v-1.149h.55v-1.15h.55V18.39h-4.4v.575h-6.05v.574h-3.3v-.574h-6.052v1.149h-.55v.575zm-8.8 6.896h2.2v-.575h.55v-.575h.55v-.574h.55v-.575h.55-.55v-.575h.55v-1.724h-.55v-.574h-1.1v-.575h-1.1v-.575h-.55v-.574h-1.1v-1.15h.55v-.574h.55v-.575h.55v-.575h.55v-1.149h1.1v-1.15h1.65v.575h1.1v.575h2.2v.574h5.5v-.574h4.401v-.575h3.301v-.575h10.45v.575h1.1v.575h1.1v1.724h.55v1.149h.55v2.874h-1.1v3.447h.55v.574h-.55v1.726h-.55v.575h-.55v1.149h-.55v.575h-.55v.575h-.55v.574h-.55v.575h-.55v.575h-.55v.574h-1.1v.575h-.55v.575h-.55v.574h-1.65v.575h-1.1v.575h-2.752v.575h-2.75v.574h-9.901v-.574h-2.75v-.575h-2.75v-.575h-.55v-.575h-.55v-.574h-.55v-.575h-.55v-.575h-.55v-1.149h-.55v-.575h-.55v-.574h-.55v-1.15h-.55v-2.298h1.1z"/><path fill="#212322" d="M37.467 14.942h-.55v-.575h.55z"/><path fill="#8F969C" d="M39.667 26.435v.575h2.2v-.575h1.1v.575h-.55v.575h-3.3v-.575h-.55v-.575h.55zm-1.1-.574v.574h-1.1v-.574h.55zM6.665 22.413v.574h.55V24.711h-.55v1.15h-.55v.574h-.55v.575h-.55v.575H1.714v-.575h-1.1v-.575h-.55v-1.149h.55v.575h.551v.574h3.3v-.574h.55v-.575h.55v-1.149h.55V22.413zm36.302-1.149v.574h.55v.575h.55v3.448h-.55v.574h-.55v-1.149h.55v-1.149h-.55V22.413h-.55v-1.149z"/><path fill="#232021" d="M29.766 13.792h-.55v-.574h.55z"/><path fill="#583529" d="M31.417 13.792h-.551v-.574h.551z"/><path fill="#C3A363" d="M15.466 13.218h-.551v-.575h.551z"/><path fill="#F6DF7F" d="M17.116 13.218h-.551v-.575h.551z"/><path fill="#D39349" d="M21.516 13.218h-.55v-.575h.55z"/><path fill="#F3BD50" d="M22.066 13.218h-.55v-.575h.55z"/><path fill="#F8D863" d="M22.616 13.218h-.55v-.575h.55z"/><path fill="#B19465" d="M29.216 13.218h-.55v-.575h.55z"/><path fill="#232425" d="M37.467 13.218h-.55v-.575h.55z"/><path fill="#242324" d="M8.865 12.643h-.55v-.575h.55z"/><path fill="#CBAA62" d="M11.065 12.643h-.55v-.575h.55z"/><path fill="#F6B75A" d="M22.616 12.643h-.55v-.575h.55z"/><path fill="#F4BB4D" d="M29.766 12.643h-.55v-.575h.55z"/><path fill="#A69869" d="M33.616 12.643h-.549v-.575h.549z"/><path fill="#5D2E22" d="M41.317 25.861h-.55v-.575H39.117v-.575h.55-.55v-1.149h1.1v-.575H41.867V25.286h-.55zm-7.15 13.217v-.574h.55v-.575h1.1v-.575h1.1V39.078h-1.1v.575h-1.1v1.15h-1.101v-1.15h-.549v-.575h.549zM8.315 37.354v.575h1.1v.575h.55v.574h.55v1.15h-.55v1.149h-.55v-1.149h-.55v-1.15h-.55v-.574h-1.1v-1.15h.55zm1.65.575v-.575h-1.1v-.574h-1.1v-.575H9.415v.575h2.75v.574H22.616v-.574h2.75v-.575h2.2v-.575h1.1v-.575H30.316v-.574h.55v-.575h.551v-.575H32.516v-.574h.551v-.575h1.1v-1.149h.55v-.575h.549v-.575h.551v-.574h.55v-1.15h.55v-1.724h1.1v.575h.55v.575H42.417v2.298h-.55v1.15h-.55v.574h-.55v.575h-.55v1.149h-.55v.575h-.55v.575h-.55v.574h-.55v.575h-.55v.575h-1.1v.575h-1.101v.574H34.167v.575h-1.1v.575h-1.101v.574H30.316v.575h-2.2v.575H16.015v-.575h-2.2v-.575H12.165v-.574h-1.1v-.575h-.55zm-2.75-22.987V12.068h.55v.575h2.75v.575h2.2v.574H31.417v-.574H33.616v-.575h2.201v-.575h1.1V14.942h.55v.574h.55v1.15h.55v.574h.55v.575h.55v.575h.55v.575h.55v.574h.55v1.15h-1.1v.574h-.55v.575h-.55v-.575.575h-.55v.575h-.55V19.539h-.55V18.39h-.55V16.666h-1.1v-.575h-1.1v-.575H24.266v.575h-3.3v.575H16.015v.574H11.065v-.574h-2.2v-.575h-1.1v-.575h-1.1v-.574z"/><path fill="#434945" d="M8.865 12.068h-.55v-.574h.55z"/><path fill="#F7D964" d="M19.315 12.068h-.549v-.574h.549z"/><path fill="#F4BA47" d="M20.966 12.068h-.55v-.574h.55z"/><path fill="#F4C050" d="M31.417 12.068h-.551v-.574h.551z"/><path fill="#F5C661" d="M31.966 12.068h-.549v-.574h.549z"/><path fill="#ADA16C" d="M35.266 12.068h-.549v-.574h.549z"/><path fill="#242526" d="M36.917 12.068h-.55v-.574h.55z"/><path fill="#B7BCC2" d="M1.714 20.689v1.724h.551v1.149h-.551v1.724h.551v.575H3.915v-.575h.55v-.575h.55v-1.724h1.1v1.15h-.55v1.149h-.55v.575h-.55v.574H1.165v-.574H.614v-1.15h-.55v-1.724h.55v-1.149h.551v-1.149zm36.303 2.298h.55v.575h.55v1.724h1.1v.575h1.1v-.575h.55v-2.299h-.55v-.574H42.967v1.724h.55v.574h-.55V26.435h-1.1v.575H40.217v-.575H38.567v-.574h-1.1v-.575h-.55v-2.299h.55z"/><path fill="#726C5C" d="M7.765 11.494h-.55v-.575h.55z"/><path fill="#E4AC4D" d="M14.915 11.494h-.55v-.575h.55z"/><path fill="#FACB60" d="M24.816 11.494h-.55v-.575h.55z"/><path fill="#544134" d="M7.215 10.919h-.55v-.575h.55z"/><path d="M14.365 10.919h-.55v-.575h.55z"/><path fill="#F4BA4C" d="M18.766 10.919h-.55v-.575h.55z"/><path fill="#F9D27A" d="M29.766 10.919h-.55v-.575h.55z"/><path fill="#F4C155" d="M33.067 10.919h-.551v-.575h.551z"/><path fill="#A08964" d="M37.467 10.919h-.55v-.575h.55z"/><path fill="#3B4343" d="M38.017 10.919h-.55v-.575h.55z"/><path fill="#4D4137" d="M7.215 10.344h-.55V9.77h.55z"/><path fill="#F8DB64" d="M7.765 10.344h-.55V9.77h.55z"/><path fill="#E7C24F" d="M8.315 9.769h-.55v-.574h.55z"/><path fill="#F7B459" d="M17.116 9.769h-.551v-.574h.551z"/><path fill="#F8C95F" d="M21.516 9.769h-.55v-.574h.55z"/><path fill="#F7C75B" d="M24.266 9.769h-.55v-.574h.55z"/><path fill="#7C817B" d="M37.467 9.769h-.55v-.574h.55z"/><path fill="#242324" d="M7.765 9.195h-.55V8.62h.55z"/><path fill="#F4C153" d="M13.815 9.195h-.55V8.62h.55z"/><path fill="#B6AB72" d="M35.817 9.195h-.551V8.62h.551z"/><path fill="#F5C357" d="M9.415 8.62h-.55v-.574h.55z"/><path fill="#F6DF80" d="M26.466 8.62h-.55v-.574h.55z"/><path fill="#F6B659" d="M9.965 8.046h-.55v-.575h.55z"/><path fill="#F7D964" d="M14.915 8.046h-.55v-.575h.55z"/><path fill="#E9CA72" d="M22.066 8.046h-.55v-.575h.55z"/><path fill="#F5F1DC" d="M8.865 7.471h-.55v-.575h.55z"/><path fill="#221F20" d="M22.066 40.803h-1.1v-.575h2.2v.575h-.55zm11.001-1.15h.549v1.15h.551v1.724h.55v1.724h-.55v-1.15h-.551v-1.149h-.549v-1.724h-.551v-.575z"/><path fill="#221F20" d="M12.165 39.078H13.815v.575h2.2v.575H18.766v.575h.549v-.575h1.101v.575h3.3v-.575h1.1v.575h.55v-.575h2.75v-.575h2.2v-.575h1.65v-.574h.55v.574h-.55v.575h-.549v.575H28.666v.575h-2.2v.574h-8.801v-.574h-2.2v-.575h-2.75v-.575h-.55v-.575h-.55v-.574h.55zm-3.85-2.298h.55v.574h1.1v.575H8.315v-.575zm22.551-22.988h-.55v-.574h.55z"/><path fill="#221F20" d="M11.065 13.218h-.55v-.575H14.365v.575H29.216v-.575h4.4v.575h-3.3v.574h-.55v-.574h-.55v.574H12.715v-.574h1.1-2.2zm-3.3-1.15h-.55V14.942h-.55v.574h-.55v.575h-.55v-1.149h.55v-1.15h.55v-2.298h-.55V9.77h.55v1.149h.55v.575h1.1v1.149h-.55zm28.052-2.873V8.62h1.1v.575h-.55zM6.115 44.825h1.1v.575h1.1v-.575h.55v1.15h-2.75V45.4h-.55v-.575zm29.151-.574v.574h.551v.575h2.2v-.575h.55v1.15h-3.85V44.251zm-26.401-.575v-.575h.55v-1.149h.55v-1.724h.55v-.575h.55V41.377h-.55v1.15h-.55v1.149h-.55v1.149h-.55v-.574zm29.702 0v-.575H36.917v-1.149h.55v.575h.55v-.575h.55v.575h.55v2.298h-.55v-.574zm-33.002 0v1.149h-.55v-.574h-.55v-1.15h.55v-.574h.55v.574zm4.95-5.747h.55v1.149h-1.1v-.574h-.55v-.575h.55zm23.652.575v.574h-1.1v-1.149H34.717v.575z"/><path fill="#221F20" d="M37.467 37.354h.55V39.078h-.55v2.299h-.55v-4.023h-1.1v.575H34.167v-.575H35.266v-.574h1.101v-.575h1.1v.575zM7.765 36.205v.575h.55v.574h-1.1v1.15h-.55v.574h.55v3.449H5.565v-.575h1.1v-1.724h-.55V36.78h.55v-.575h.55zm-1.1-.575v.575h-1.1v-.575h.55zm31.352.575h-.55v-.575h1.1v.575zm1.1-1.15v.575h-.55v-1.149h.55v-.575h.55v-.575h.55v-.574h.55v-.575h.55v-.575h.55v1.15h-.55v.574h-.55v.575h-.55v.575h-.55v.574zM5.015 33.906v.575h.55v1.149h-.55v-.575h-.55v-.574h-.55v-.575h.55zm-2.2-2.299v.575h.55v.575h.55v1.149h-.55v-.575h-.55v-.574h-.55V31.033h.55zm-.55-.574h-.551v-.575h.551zm40.152 0h-.55v-1.15h.55v-2.298h.55v-1.15h.55V28.159h-.55v.575h.55v.575h-.55v1.149h-.55zM1.164 27.585v.574h.55V30.458h-.55v-1.149h-.55V27.01h.55zm42.903-1.15h-.55v-.574h.55zM.614 21.838v1.149h-.55v-1.149zm42.903 0h-.55v-.575h.55zm-1.65-1.724h-.55v-.575h-.55v-.574h-.55v-.575h-.55v-1.15h-.55v-.574h1.1v1.149h.55v.575h.55v.575h.55v.574h.55v1.15h-.55zM3.915 18.965h-.55v.574h-.55v.575h-.55v.575h-.551v-1.15h.551v-.574h.55v-.575h.55v-.575h.55v.575zm.55-1.725v.575h-.55v-1.149h1.1v.574zm1.1-.574h-.55v-.575h.55zm33.002 0h-.55v-.575h1.1v.575zm-.55-1.15h-.55v-1.149h-.55v-1.149h.55v.574h.55v1.15h.55v1.149h-.55zM1.164 21.838h-.55v-.575h.55zm8.251-9.195h-.55v-.575H10.515v.575h-.55zm24.752-.575H35.266v-.574h1.101v.574h-.55v.575h-2.201v-.575zm8.8 9.195h-.55v-.574h.55zm-6.05-10.344h.55v1.724h-.55v-1.149h-.55v-.575zm1.1-.575h-.55v-.575h.55zM7.215 9.195h.55v.575h-1.1v-.575zm1.1 0h-.55V8.62h.55zm25.852-.575v-.574H35.266v.574h-.549z"/><path fill="#F4C052" d="M29.766 7.471h-.55v-.575h.55z"/><path fill="#F4BA4A" d="M24.266 6.896h-.55v-.574h.55z"/><path fill="#F4BA47" d="M31.966 6.896h-.549v-.574h.549z"/><path fill="#F6E7AB" d="M32.516 6.896h-.55v-.574h.55z"/><path fill="#F4C15A" d="M20.966 6.322h-.55v-.575h.55z"/><path fill="#F7B659" d="M19.865 5.747h-.55v-.575h.55z"/><path fill="#F6B65A" d="M20.966 5.747h-.55v-.575h.55z"/><path fill="#F5EFD5" d="M25.366 5.747h-.55v-.575h.55z"/><path fill="#F5F1DD" d="M29.766 5.172h-.55v-.574h.55z"/><path fill="#F6DC7C" d="M13.815 4.598h-.55v-.575h.55z"/><path fill="#F6E4A4" d="M19.865 4.598h-.55v-.575h.55z"/><path fill="#F5EDC7" d="M22.616 4.598h-.55v-.575h.55z"/><path fill="#F5EDDD" d="M24.266 4.598h-.55v-.575h.55z"/><path fill="#F5F3E3" d="M16.015 4.023h-.549v-.575h.549z"/><path fill="#F6E7CF" d="M23.716 4.023h-.55v-.575h.55z"/><path fill="#F5EAD6" d="M15.466 3.448h-.551v-.574h.551z"/><path fill="#F6E8AF" d="M28.116 3.448h-.55v-.574h.55z"/><path fill="#F7E6CC" d="M28.666 3.448h-.55v-.574h.55z"/><path fill="#F4BA47" d="M31.966 3.448h-.549v-.574h.549z"/><path fill="#F5DDB8" d="M14.915 2.874h-.55v-.575h.55z"/><path fill="#F4BB4C" d="M16.015 2.874h-.549v-.575h.549z"/><path fill="#F7F3E8" d="M14.365 2.299h-.55v-.575h.55z"/><path fill="#F7C75A" d="M15.466 2.299h-.551v-.575h.551z"/><path fill="#F6E8AC" d="M18.766 2.299h-.55v-.575h.55z"/><path fill="#F5ECC6" d="M25.366 2.299h-.55v-.575h.55z"/><path fill="#F4D4A5" d="M28.116 2.299h-.55v-.575h.55z"/><path fill="#F5EBBE" d="M31.417 2.299h-.551v-.575h.551z"/><path fill="#F5F2E0" d="M19.315 1.724h-.549V1.15h.549z"/><path fill="#F4DCB8" d="M28.116 1.724h-.55V1.15h.55z"/><path fill="#F5EFD3" d="M30.866 1.724h-.55V1.15h.55z"/><path fill="#F3D1A0" d="M14.365 1.15h-.55V.575h.55z"/><path fill="#F8CB6A" d="M16.565 1.15h-.55V.575h.55z"/><path fill="#F5F1DD" d="M17.116 1.15h-.551V.575h.551z"/><path fill="#F2AB48" d="M14.915 13.218h-.55v-.575h.55zm6.601-4.023V8.62h1.1v1.15h-.55v-.575zm11-2.874h-.55v-.574h.55zm-9.35-1.149h-.55v-.574h.55zm-7.701 6.896h.55v.575h-1.1v-.575zm10.451.575h-.55v-.575h.55z"/><path fill="#F2AB48" d="M10.515 10.344h.55v.575h1.1v-.575h-1.1V9.77h-.55v.574zm2.2-.574h.55v-.575h.55V8.62h-1.65v.575h-.55v.575h1.1zm1.65-1.724v.574h1.1V7.471h.55v-.575h-1.65v.575h-.55v.575h.55zm1.65.574h1.1v-.574h.55v-1.15h-.55v.575h-.55v.575h-.55v.574zm1.1 1.15h-.55v-.575h.55v.575zm-3.85-2.3h-1.1v.576h1.1V7.47zm4.95 1.15h1.1v-.574h1.1v-1.15h-.55v.575h-.55v.575h-1.1v.574zm7.151 0h-.55v-.574h.55v.574zm.55 0h1.651v.575h.55v.575h1.1V8.62h.55v-.574h-1.1v.574h-1.1V7.471h-.55v.575h-1.1v.574zm2.751-2.298h-.55v-.575h.55v.575zm3.3 2.298h-.55v-.574h.55v.574zm-22 1.15h-.551v-.575h.55v.574zm-1.101 1.15v-.576h.55v.575h.55v-.575H8.315V8.046h.55v.574h2.75v-.574h-1.65v-1.15h-.55v-.574h1.1v.574h2.75v-.574h-.55v-.575h.55v-.575h-1.1v-.574h1.65v.574h.55V4.023h.55v.575h.55v-.575h.55v-.575h-.55v-.574h1.1v.574h.55v-.574h1.651v.574h-1.1v.575h1.649v1.149h-.55v-.574h-1.649v-.575h-.55v.575h-.55v.574h-1.1v.575h1.1v.575h1.1v-.575h-.55V4.598h.55v1.149h.55v-.575h.55v.575h.55v.575h2.2v-.575h1.1v.575h1.65v.574h.551v.575h1.1v-.575h-.55v-.574h.55v-.575h.55v1.149h.55v-.574h.55v.574h.55v-.574h-.55v-.575h-1.1v-.575h-.55v-.574h-1.1v-.575h1.65v.575h.55v-.575h2.2v.575h-1.65v.574h2.2v.575h.55v.575h1.65v.574h-2.2v.575h1.1v.575h.55V7.47h2.2v1.15h.55v.575h1.1v.575h-1.1v.574h-1.1V9.77h-.55v-.575h-1.65V8.62v.575h-.55v.575h1.65v.574h-2.2v.575h-1.65v-.575h-2.2V9.77h-1.1v-.575h-.55V8.046h-.55V7.47h-1.651v.575h-.55v.574h-.55v.575h.55v.575h1.1v.574h.55v.575h1.65v.575h.55v.574h-.55v.575h-.55v.575h-.55v-1.15h.55v-.574h-1.65v-.575h-.55v-.575h-1.1V9.77h-.55v-.575h-2.2v.575h-.55v.574h.55v.575h-.55v-.575h-2.2V9.77h-1.1v1.149h.55v.575h-.55 1.1v.574h-.55v.575h-1.1v-.575h-1.101v-.574h-.55v.574h.55v.575h-1.1v-.575h-.55v-.574h-.55v.574h-.55v-.574h-1.65v-.575h1.1z"/><path fill="#F2AB48" d="M15.465 11.494h-.55v-.575h.55v-.575h.55v.575h1.101v.575h-.551v.574h-.55v-.574zm3.85 0H18.216v.574h2.75v-.574h-.55v-.575h1.1v.575h.55v.574h-.55v.575h-.55v.575h-2.2v-.575h-1.101v-1.149h.551v-.575H19.866v.575zm10.451 0h1.1v.574h1.1v-1.149h-2.2v-.575h2.75v.575H36.367v.575h-1.65v.574h-2.201v.575h-2.75v-.575H28.116v-.574h1.1v-.575h.55zm-22.001-.575h-.55v-.575h.55zm7.15 0h-.55v-.575h.55zm5.501 0h-.551v-.575h.551zm4.4-.575h.55v.575H27.016v1.149h-1.1v-.574h-1.1v-.575zm-1.1 0h-1.1V9.77H24.266v.574zm12.101 0h-1.1V9.77h2.2v1.149h-.55v-.575zM11.065 6.322h-.55v-.575h1.1v.575zm12.651 0v-.575h1.1v.575h-.55zm-11.551-.575h-.55v-.575h1.1v.575zm8.251 0h-.551v-.575h.551zm2.2 0h-.55v-.575H23.716v.575h-.55zm-1.65-1.149h.55v.574h-1.1v-.574zm9.9 0v.574h.551v.575h-1.101v-.575h-.55v-.574h-.55v-1.15h.55v.575h.55v.575z"/><path fill="#F2AB48" d="M31.417 5.172v-.574h-.551v-.575H32.516v1.149h-.55zm-7.151-1.149h-.55v-.575h.55zm6.6 0h-.55v-.575h.55zm-7.15-.575h-.55v-.574h.55zm1.1-.574v-.575h1.1v.575H27.566v.574h-3.3v-.574zm3.85 0h-.55V1.15h.55v1.149h.55V1.15h.55v1.149H31.417v.575h-2.201v.574h-.55zm-13.201 0h-.55v-.575h.55zm4.401 0h-.551v-.575h-.549v-.575h1.1V1.15h.55v1.149h-.55zm-5.501-1.15h-.55V1.15h1.1V.575h1.1v.575h1.65v.574h.551v.575h-1.1v-.575h-.551v.575h-.55v-.575h-1.1v.575h-.55zm7.151.575h-.55v-.575h.55z"/><path fill="#F2AB48" d="M23.166 2.299h-.55v.575h-.55v.574h-1.1v.575h-1.1v-.575h.55V2.299h.55v.575h.55v-.575h.55v-.575h.55V1.15h.55V.575h.55v1.149h-.55z"/><path fill="#F2AB48" d="M22.066 1.724h-.55V.575h1.1v.575h-.55z"/><path fill="#F6E7A8" d="M16.015.575h-.549V0h.549z"/><path fill="#F6E9B6" d="M21.516.575h-.55V0h.55z"/><path fill="#F6E08E" d="M18.766 12.643v.575h-1.101v-.575h.551zm1.099-.575h-.55v-.574h.55zm-1.649-.574h-.551v-.575h.551zm10.45 0h-.55v-.575h.55zm4.95-.575h-.549v-.575h.549zm1.101-1.724h-.55V8.62h.55zM9.965 8.046h1.1v.574h-1.1zm4.95.574h-.55v-.574h.55zm13.751 0v-.574h1.1v.574h-.55zM11.065 6.322h1.1v.574h-1.1zm-1.1 0h-.55v-1.15h.55v.575zm9.9 0h-.55v-.575h.55zm-6.05-2.299h-.55v-.575h.55zm6.051-1.149v-.575h.55v1.149h-.55zm9.9.574h-.55v-.574h.55zm-14.851 9.195h-.55v-.575h.55zm2.201 0h-.551v-.575h.551zm11 0h-.55v-.575h.55zm1.1 0h-.55v-.575h.55zm-19.801-.575h-.55v-.574h.55zm1.1 0h-.55v-.574h.55zm5.5 0h-.55v-.574h.55zm1.65 0h-.549v-.574h.549zm13.752-.574h-.551v-.575h.551zm-21.452-.575h-.55v-.575h.55zm9.9 0h-.55v-.575h.55zm1.651 0h-.55v-.575h.55zm-2.75-.575h-.55v-.575h.55zm13.2 0h-.549v-.575h.549zM12.715 9.195h.55v.575H11.615v-.575h.55zm9.351.574h-.55v-.574h.55zm14.301 0h-.55v-.574h.55zM17.116 8.62h-.551v-.574h.551zm4.95-.574h1.1v.574h.55v.575h-1.1V8.62H20.966v-.574h.55zm5.5.574h-.55v-.574h.55zM9.415 8.046h-.55v-.575h.55zm6.05-.575h-.55v-.575h.55zm2.2 0h-.549v-.575h.549zm8.801-1.149h-.55v-.575h.55zm5.5 0h-.549v-.575h.549zm-20.901-.575h-.55v-.575h.55v-.574h.55v.574h-.55zm6.6 0h-.549v-.575h.549zm12.101 0h-.55v-.575h.55zm-13.201-.575h-.55v-.574h.55zm-1.65-1.149v-.575h.55v1.15h-.55zm16.502-.575h-.551v-.574h.551zm-14.852-.574h-.55v-.575h.55zm.551-.575h-.551v-.575h.551zm4.4-.575h-.55V1.15h.55zm5.5 10.919v.575h-1.1v-.575h.55zm2.2-1.149h-.55v-.575h.55zm-14.301-1.15h-.55V9.77h.55zm13.751-.575h-.55v-.574h.55zm-2.75-4.022h-.55v-.575h.55zm-7.7-.575h-.551v-.574h.551zm1.65-1.149h2.2v1.149h-.55v-.574H19.866zm9.35-.575v.575h-1.1v-.575h.55zm2.75 0h.55v.575h.551v.575h-.551v-.575h-.55zm-5.5-.574h-.55v-.575h.55zm-2.75-1.15h1.1v1.15h-.55v-.575h-.55zm-5.5 0h-.551V1.15h.551zm10.45-.574V.575h.55v1.149h-.55zm-13.751 0h-.55V.575h.55zm7.151-.575h-.55V0h.55z"/><path fill="#FACA48" d="M24.816 4.023h-.55v-.575h.55zm14.301 17.815h.55v-.575h.55v-.574H41.867v.574h.55v.575h-.55v.575h-.55v.574h-1.1v.575h-1.1v-.575h-.55v-.574h.55-.55v-.575zM2.265 20.689h1.1v.574h1.1v.575h.55v.575h.55v.574h-.55v.575h-1.1v-.575h-1.1v-.574H1.714V20.689zm15.4-7.471h-.549v-.575h.549zm5.501 0h-.55v-.575h.55zm2.2-.575h.55v.575H24.266v-.575h.55zm-12.651 0h-.55v-.575h.55zm3.3-.575h.551v1.15h-1.1v-.575h.549zm6.051.575h-.55v-.575h.55zm4.4-.575h.55v.575h-1.1v-.575zm2.2.575h-.55v-.575h.55zm4.401 0h-.551v-.575h.551zm-20.902-.575h-.55v-.574h.55zm6.601 0h-.55v-.574h.55zm1.65 0h-.551v-.574h.551zm2.75-.574v.574h-1.1v-.574h.55zm-5.501 0h-.549v-.575h.549zm4.401 0h-.55v-.575h.55zm4.95-.575h1.1v.575h-1.1zm3.85 0v.575h-1.1v-.575h.55zm-22.001 0h-.55v-.575h.55zm3.3-.575v.575h-1.1v-.575h.55zm3.301.575h-.551v-.575h.551zm2.75 0h-.551v-.575h.551zm4.95 0h-.55v-.575h.55zm2.75 0h-.55v-.575h.55zm8.801-.575h.549v.575H33.616v-.575h.551zm1.65.575h-.55v-.575h.55zm-17.052-.575h-.549v-.575h.549zm3.301 0h-.55v-.575h.55zm2.75-.574v.574h-1.1V9.77h.55zm7.15.574h-.55V9.77h.55zm4.951 0h-.55V9.77h.55zM9.965 9.769h-.55v-.574h.55zm8.251 0h-.551v-.574h.551zm11 0h-.55v-.574h.55zm1.65-.574h1.1v.575h-1.1zm6.051.574h-.55v-.574h.55zm-24.752-.574V8.62h1.1v.575h-.55zm16.501 0h-.55V8.62h.55zM11.615 8.62h-.55v-.574h.55zm3.851 0h-.551v-.574h.551zm3.849 0h-.549v-.574h.549zm12.651 0h-.549v-.574h.549zm1.65 0h-.549v-.574h.549zm-21.451-.574v-.575h1.1v.575h-.55zm2.2 0h-.55v-.575h.55zm4.95-.575h1.101v.575h-1.101zm11.551.574h-.55v-.574h.55zm-5.5-1.149v.575h-1.1v-.575h.55zm-14.301 0h-.55v-.574h.55zm1.1 0v-.574h1.1v.574h-.55zm15.401 0h-.55v-.574h.55zm-11.551-.574v-.575h1.101v.575h-.55zm3.3 0h-.549v-.575h.549zm3.301-.001h-.55v-.574h.55zm1.1 0h-.55v-.574h.55zm-13.201-.574h-.55v-.575h.55zm21.451 0h-.549v-.575h.549zm-17.601-.575h-.55v-.574h.55zm13.201 0h-.55v-.574H28.666v.574h-.55zm3.851 0h-.551v-.574h.551zm-14.301-.574h-.551v-.575h.551zm9.35 0h-.55v-.575h.55zm4.4 0h-.55v-.575h.55zm-12.65-.575h-.551v-.575h1.101v.575zm12.1 0h-.55v-.575h.55zm-13.2-.575h-.551v-.574h.551zm1.65 0v-.574h1.1v.574h-.551zm5.5 0h-.55v-.574h.55zm-2.75-.574h-.55v-.575h.55zm.55-.575h-.55v-.575h.55zm8.25-.575h-.55V1.15h.55zm-9.35-.574h-.55V.575h.55zm1.65-.575h-.55V0h.55z"/><path fill="#F8D648" d="M27.566 13.218h-.55v-.575h.55zm-10.45-1.15h-.551v-.574h.551zm10.45 0h-.55v-.574h.55zM8.315 10.919h-.55v-.575h.55zm15.951-.575h.55v.575H23.166v-.575h.55zm11.551.575h-.551v-.575h.551zm-24.752-.575h-.55V9.77h.55zm3.3 0h-.55V9.77h.55zm13.751-1.149h-.55V8.62h.55zm7.15 0h-.549V8.62h.549zM9.965 8.62h-.55v-.574h.55zm8.801 0h-.55v-.574h.55zm15.401 0h-.551v-.574h.551zM8.865 8.045h-.55v-.574h.55zm14.301.001h-.55v-.575h.55zm10.45 0h-.549v-.575h.549zM9.415 7.471h-.55v-.575h.55zm5.5 0h-.55v-.575h.55zm5.501 0h-.551v-.575h.551zm2.75-1.149h-.55v-.575h.55zm5.5-.001h-.55v-.574h.55zm-4.4-.574h-.55v-.575h.55zm-5.5-.575h-.55v-.574h.55zm4.95 0h-.55v-.574h.55zm4.95-.574v-.575h.55v1.149h-.55zm3.85 0h.551v1.149h-1.101v-.575h.55zm-17.601-1.15v.575h-1.1v-.575h.55zm3.851 0h1.1v.575h-1.1zm5.5-.574h-.55v-.575h.55zm4.95-.575h-.55v-.575h.55zm-6.6-.575h-.55V1.15h.55zM15.466 0v.575h-1.101V0zm7.7 0v1.15h-.55V0z"/><path fill="#F6E8D1" d="M23.716.575h-.55V0h.55z"/><path fill="#FEFEFE" d="M13.815 21.838v.575h.55v.574h-.55v.575h-.55v-.575h-.55v-.574h.55v-.575zm.55-.575v-.574h.55v1.149h-.55zm-2.2-.574v-.575h1.1v.575h-.55zM30.316 5.747h-.55v-.575h.55z"/><path fill="#ED8943" d="M18.766 9.195h1.1v.575h.55v.574h-1.101V9.77H18.216v-.575zm3.85-1.149h-.55v-.575h.55zm6.05 4.597v.575h-1.1v-.575h.55zm-15.401 0h-.55v-.575h.55zm14.301 0h-.55v-.575h.55zm-6.6-1.724h-.55v-.575h.55zM34.717 9.77v.574h-1.101V9.77h.551zm-7.151-1.724h-.55v-.575h.55zm-9.901-2.874h-.549v-.574h.549zm7.701-.574v.574h-.55v.575h-.55v-.575h-.55v-.574h1.1zm-12.101 0h-.55v-.575h.55zm11.001 8.62h-.55v-.575h.55zm-6.601-.575h-.549v-.575h.549zm5.501 0h-.55v-.575h.55zm1.65-.575v-.574h1.1v.574h-.55v.575h-1.1v-.575zm-9.351 0h-.55v-.574h.55zm8.251 0h-.55v-.574h.55zm4.4 0h-.55v-.574h.55zm-7.7-.574h-.551v-.575h.551zm11.55 0h-.549v-.575h.549zm-14.85-1.15v.575h-1.101v-.575h.55zm2.199.575h-.549v-.575h.549zm6.601-.575H27.566v.575H25.916zm-17.601 0h-.55V9.77h.55zm9.35-.574h.551v.574h-1.1V9.77zm6.051-.575v.575h-1.1v-.575h.55zm7.15 0v.575h-1.1v-.575h.55zm4.4 0h.551v.575h-1.1v-.575zm-14.85 0V8.62h1.1v.575h-.55zm8.8 0h-.55V8.62h.55zm4.951 0h-.551V8.62h.551zM16.565 8.62h-.55v-.574h.55zm7.151 0h-.55v-.574h.55zm1.65 0h-.55v-.574h.55zm1.65 0h-.55v-.574h.55zm-11.551-.574h-.55v-.575h.55zm1.651-.575h.549v.575h-1.1v-.575zm-7.151 0h-.55v-.575h.55zm6.05 0h-.55v-.575h.55zm14.851-.575h2.201v.575h-3.301v-.575h.55zm-6.05 0h-.55v-.574h.55zm1.65 0h-.55v-.574h.55zm-15.951-.575h-.55v-.574h.55zm2.2-.574v.575h-1.1v-.575h.55zm7.701.575h-.551v-.575h.551zm4.95 0h-.55v-.575h.55zm1.65 0h-.55v-.575h.55zm3.85-.575h.551v.575h-1.651v-.575h.55zm-17.601 0h-.55v-.575h.55zm2.75-.575h.551v.575h-1.651v-.575h.55zm2.751.575h-.55v-.575H19.315v.575zm2.75 0h-.55v-.575h1.1v.575zm-9.351-.575h-.55v-.574h.55zm-.55.575h-.55v-.575h.55zm8.801-.575h-1.101v-.574h1.101zm2.2 0h-.55v-.574h.55zm-8.251-.574h-.55v-.575h.55zm12.651-.575h-2.2v-.575h3.3v.575h-.55zm4.95-.575v.575h-1.1v-.575h.551zm-1.1-.574v.574h-1.1v-.574h.55zm-11.551 0H16.565v-.575H19.315zm-3.3-.575h-.55v-.575h.55zm4.951 0h-.55V1.15h.55v.574zm9.9-.575v.575h-1.1v-.575h.55zm-11 0h-.551V1.15h.551zm1.65-.574h-.55V.575h.55z"/><path fill="#FEFEFE" d="M23.716 2.874h-.55v1.149h.55v.575h-1.1v-.575H20.966v-.575h1.1v-.574h.55v-.575h.55v-.575h.55v.575z"/></g></svg>