<svg xmlns="http://www.w3.org/2000/svg" xmlns:xlink="http://www.w3.org/1999/xlink" width="93" height="68" viewBox="0 0 93 68">
    <defs>
        <linearGradient id="tzln35a3sa" x1="-3.357%" x2="100%" y1="50.106%" y2="50.303%">
            <stop offset="0%" stop-color="#FD469D"/>
            <stop offset="100%" stop-color="#5900A0"/>
        </linearGradient>
        <linearGradient id="uhmfs853db" x1="-3.357%" x2="100%" y1="51.973%" y2="55.656%">
            <stop offset="0%" stop-color="#FD469D"/>
            <stop offset="100%" stop-color="#5900A0"/>
        </linearGradient>
        <linearGradient id="k0qxz9n3ee" x1="127.141%" x2="-38.718%" y1="112.743%" y2="-22.161%">
            <stop offset="0%" stop-color="#FFA642"/>
            <stop offset="100%" stop-color="#FFAC1B"/>
        </linearGradient>
        <path id="6c8c1d3jic" d="M14.251.112c7.836 0 14.19 6.386 14.19 14.262s-6.354 14.262-14.19 14.262c-7.836 0-14.19-6.386-14.19-14.262"/>
        <path id="ldc0mtf0nd" d="M9.962.158c5.454 0 9.875 4.442 9.875 9.924 0 5.481-4.421 9.925-9.875 9.925S.087 15.563.087 10.082"/>
    </defs>
    <g fill="none" fill-rule="evenodd">
        <g>
            <g>
                <g>
                    <g>
                        <path fill="url(#tzln35a3sa)" stroke="#520D0D" d="M16.1 18.144h59.983c1.15 0 2.093.941 2.093 2.093v5.039c0 1.151-.942 2.093-2.093 2.093H16.1c-1.152 0-2.094-.942-2.094-2.093v-5.039c0-1.152.942-2.093 2.094-2.093" transform="translate(-1194.000000, -922.000000) translate(1194.000000, 922.000000) translate(0.000000, 0.000000)"/>
                        <path fill="url(#uhmfs853db)" stroke="#520D0D" d="M17.324 27.216H74.86v33.046c0 1.495-1.224 2.719-2.718 2.719H20.043c-1.495 0-2.719-1.224-2.719-2.72V27.217z" transform="translate(-1194.000000, -922.000000) translate(1194.000000, 922.000000) translate(0.000000, 0.000000)"/>
                        <path fill="#603BE1" fill-opacity=".318" d="M46.092 27.216h28.765s.002 0 .002.002v33.044c0 1.495-1.224 2.719-2.719 2.719H48.81c-1.496 0-2.718-1.224-2.718-2.72V27.217z" transform="translate(-1194.000000, -922.000000) translate(1194.000000, 922.000000) translate(0.000000, 0.000000)"/>
                        <path fill="#603BE1" fill-opacity=".318" d="M46.092 18.144h29.99c1.152 0 2.094.941 2.094 2.093v5.039c0 1.151-.942 2.093-2.094 2.093h-29.99c-1.152 0-2.094-.942-2.094-2.093v-5.039c0-1.152.942-2.093 2.094-2.093" transform="translate(-1194.000000, -922.000000) translate(1194.000000, 922.000000) translate(0.000000, 0.000000)"/>
                        <path fill="#CD24C3" d="M18 31.212L74 31.212 74 28 18 28z" transform="translate(-1194.000000, -922.000000) translate(1194.000000, 922.000000) translate(0.000000, 0.000000)"/>
                        <path fill="#803AE1" d="M46 31.212L74.767 31.212 74.767 28 46 28z" transform="translate(-1194.000000, -922.000000) translate(1194.000000, 922.000000) translate(0.000000, 0.000000)"/>
                        <path fill="#305BEB" stroke="#520D0D" d="M28.837 27.37h5.741v33.045c0 1.496 1.224 2.72 2.718 2.72h-5.74c-1.496 0-2.72-1.224-2.72-2.72V27.37z" transform="translate(-1194.000000, -922.000000) translate(1194.000000, 922.000000) translate(0.000000, 0.000000)"/>
                        <path fill="#0D10C2" d="M28.837 30.582L34.578 30.582 34.578 27.37 28.837 27.37z" transform="translate(-1194.000000, -922.000000) translate(1194.000000, 922.000000) translate(0.000000, 0.000000)"/>
                        <path fill="#305BEB" stroke="#520D0D" d="M63.346 27.37h-5.741v33.045c0 1.496-1.224 2.72-2.72 2.72h5.742c1.495 0 2.719-1.224 2.719-2.72V27.37z" transform="translate(-1194.000000, -922.000000) translate(1194.000000, 922.000000) translate(0.000000, 0.000000)"/>
                        <path fill="#0D10C2" d="M57.605 30.582L63.346 30.582 63.346 27.37 57.605 27.37z" transform="translate(-1194.000000, -922.000000) translate(1194.000000, 922.000000) translate(0.000000, 0.000000)"/>
                        <path fill="#305BEB" stroke="#520D0D" d="M28.837 18.144h5.741c-1.151 0-2.094.941-2.094 2.093v5.039c0 1.151.943 2.093 2.094 2.093h-5.741c-1.152 0-2.094-.942-2.094-2.093v-5.039c0-1.152.942-2.093 2.094-2.093M63.346 18.144h-5.741c1.15 0 2.093.941 2.093 2.093v5.039c0 1.151-.942 2.093-2.093 2.093h5.741c1.152 0 2.093-.942 2.093-2.093v-5.039c0-1.152-.941-2.093-2.093-2.093" transform="translate(-1194.000000, -922.000000) translate(1194.000000, 922.000000) translate(0.000000, 0.000000)"/>
                        <path fill="#305BEB" stroke="#520D0D" d="M45.57 18.144H34.082c-3.676-2.1-5.437-4.874-5.31-8.127.303-7.656 12.554-10.718 16.796 4.767v3.36z" transform="translate(-1194.000000, -922.000000) translate(1194.000000, 922.000000) translate(0.000000, 0.000000)"/>
                        <path fill="#0D10C2" d="M44.112 18.144c-4.837-3.08-8.423-6.004-8.692-8.62-.277-2.703 1.761-4.095 4.44-2.085 3.282 2.465 4.616 7.26 5.71 10.705h-1.458z" transform="translate(-1194.000000, -922.000000) translate(1194.000000, 922.000000) translate(0.000000, 0.000000)"/>
                        <path fill="#305BEB" stroke="#520D0D" d="M46.613 18.144h11.485c3.677-2.1 5.439-4.874 5.31-8.127-.302-7.656-12.552-10.718-16.795 4.767v3.36z" transform="translate(-1194.000000, -922.000000) translate(1194.000000, 922.000000) translate(0.000000, 0.000000)"/>
                        <path fill="#0D10C2" d="M48.07 18.144c4.837-3.08 8.424-6.004 8.692-8.62.278-2.703-1.76-4.095-4.439-2.085-3.283 2.465-4.616 7.26-5.71 10.705h1.458z" transform="translate(-1194.000000, -922.000000) translate(1194.000000, 922.000000) translate(0.000000, 0.000000)"/>
                        <path fill="#305BEB" stroke="#520D0D" d="M41.822 18.144h8.539v-2.965c0-1.116-.913-2.028-2.03-2.028h-4.48c-1.116 0-2.029.912-2.029 2.028v2.965z" transform="translate(-1194.000000, -922.000000) translate(1194.000000, 922.000000) translate(0.000000, 0.000000)"/>
                        <path fill="#FBFFFC" d="M86.126 19.737c-.197-.471-.568-.82-1.01-1.006-.446-.187-.962-.205-1.441-.01l-.017.008c-.47.197-.82.569-1.005 1.008-.188.446-.206.963-.01 1.443l.006.015c.197.472.568.822 1.01 1.007.446.188.962.206 1.442.01l.015-.007c.472-.197.821-.567 1.007-1.009.188-.446.205-.962.01-1.442l-.007-.017zm.974-.376l.04.1v.006c.263.718.227 1.478-.05 2.135-.29.69-.844 1.27-1.595 1.577l-.1.04h-.007c-.718.263-1.479.227-2.135-.05-.69-.289-1.27-.844-1.578-1.596l-.04-.1v-.006c-.262-.718-.226-1.478.05-2.135.29-.69.845-1.27 1.596-1.578l.1-.04h.006c.72-.262 1.478-.226 2.136.05.69.29 1.27.845 1.577 1.597z" transform="translate(-1194.000000, -922.000000) translate(1194.000000, 922.000000) translate(0.000000, 0.000000)"/>
                        <path fill="#FFF" d="M84.577 49.051c0 .306-.248.555-.554.555-.307 0-.555-.249-.555-.555v-4.268c0-.307.248-.555.555-.555.306 0 .554.248.554.555v4.268z" transform="translate(-1194.000000, -922.000000) translate(1194.000000, 922.000000) translate(0.000000, 0.000000)"/>
                        <path fill="#FFF" d="M86.157 46.363c.305 0 .554.248.554.554 0 .306-.249.554-.554.554h-4.269c-.305 0-.553-.248-.553-.554 0-.306.248-.554.553-.554h4.269zM7.117 18.31c0 .306-.248.554-.554.554-.306 0-.555-.248-.555-.555v-4.268c0-.306.249-.554.555-.554.306 0 .554.248.554.554v4.268z" transform="translate(-1194.000000, -922.000000) translate(1194.000000, 922.000000) translate(0.000000, 0.000000)"/>
                        <path fill="#FFF" d="M8.696 15.62c.307 0 .555.25.555.555 0 .306-.248.554-.555.554H4.43c-.307 0-.554-.248-.554-.554 0-.306.247-.554.554-.554h4.267z" transform="translate(-1194.000000, -922.000000) translate(1194.000000, 922.000000) translate(0.000000, 0.000000)"/>
                        <path fill="#FBFFFC" d="M9.885 48.231c-.197-.47-.568-.82-1.009-1.006-.445-.187-.962-.204-1.442-.01l-.016.008c-.471.197-.821.568-1.006 1.008-.187.446-.206.963-.01 1.443l.006.015c.198.472.569.822 1.01 1.007.446.188.962.206 1.443.01l.014-.006c.472-.198.822-.569 1.008-1.01.187-.446.205-.962.01-1.443l-.008-.016zm.975-.377l.04.1v.006c.263.72.226 1.48-.05 2.136-.289.69-.844 1.27-1.595 1.577l-.1.041h-.007c-.72.262-1.48.226-2.135-.05-.69-.29-1.27-.845-1.578-1.597l-.041-.1v-.005c-.262-.72-.225-1.48.05-2.136.29-.69.845-1.27 1.596-1.578l.1-.04h.006c.72-.263 1.48-.226 2.136.05.69.289 1.27.845 1.578 1.596z" transform="translate(-1194.000000, -922.000000) translate(1194.000000, 922.000000) translate(0.000000, 0.000000)"/>
                        <path fill="#FFF" d="M.77 36.228c.425 0 .772-.346.772-.77 0-.425-.347-.772-.771-.772-.424 0-.77.347-.77.772 0 .424.346.77.77.77M3.083 61.472c.425 0 .771-.346.771-.771 0-.424-.346-.77-.771-.77-.424 0-.77.346-.77.77 0 .425.346.771.77.771M27.942 1.541c.424 0 .77-.346.77-.77 0-.425-.346-.771-.77-.771-.424 0-.77.346-.77.77 0 .425.346.771.77.771M69.845 7.196c.425 0 .771-.347.771-.771 0-.424-.346-.77-.771-.77-.424 0-.77.346-.77.77 0 .424.346.77.77.77M91.428 36.68c.424 0 .77-.347.77-.772 0-.424-.346-.77-.77-.77-.424 0-.77.346-.77.77 0 .425.346.772.77.772M85.84 60.96c.423 0 .77-.347.77-.77 0-.425-.347-.772-.77-.772-.425 0-.771.347-.771.771 0 .424.346.77.77.77" transform="translate(-1194.000000, -922.000000) translate(1194.000000, 922.000000) translate(0.000000, 0.000000)"/>
                    </g>
                </g>
                <g>
                    <path fill="#FEB628" d="M.062 14.374c0 7.876 6.353 14.262 14.189 14.262s14.19-6.386 14.19-14.262S22.086.112 14.25.112C6.415.112.06 6.498.06 14.374" transform="translate(-1194.000000, -922.000000) translate(1194.000000, 922.000000) translate(58.000000, 39.000000)"/>
                    <g transform="translate(-1194.000000, -922.000000) translate(1194.000000, 922.000000) translate(58.000000, 39.000000)"/>
                    <path fill="#C97C00" d="M3.578 14.374c0 5.924 4.779 10.727 10.673 10.727s10.673-4.803 10.673-10.727c0-5.925-4.779-10.728-10.673-10.728S3.578 8.45 3.578 14.374" transform="translate(-1194.000000, -922.000000) translate(1194.000000, 922.000000) translate(58.000000, 39.000000)"/>
                    <path fill="#E8980A" d="M4.376 15.177c0 5.48 4.422 9.924 9.875 9.924 5.454 0 9.874-4.443 9.874-9.924 0-5.482-4.42-9.925-9.874-9.925-5.453 0-9.875 4.443-9.875 9.925" transform="translate(-1194.000000, -922.000000) translate(1194.000000, 922.000000) translate(58.000000, 39.000000)"/>
                    <g transform="translate(-1194.000000, -922.000000) translate(1194.000000, 922.000000) translate(58.000000, 39.000000) translate(4.288940, 5.094595)">
                        <mask id="kp9ow0qkaf" fill="#fff">
                            <use xlink:href="#ldc0mtf0nd"/>
                        </mask>
                        <path fill="url(#k0qxz9n3ee)" d="M.087 10.082c0 5.481 4.421 9.925 9.875 9.925s9.875-4.444 9.875-9.925c0-5.482-4.421-9.924-9.875-9.924S.087 4.6.087 10.082" mask="url(#kp9ow0qkaf)"/>
                    </g>
                    <path fill="#E8980A" d="M14.25 3.07c.267 0 .483-.217.483-.485V1.087c0-.268-.216-.485-.482-.485-.267 0-.482.217-.482.485v1.498c0 .268.215.485.482.485M22.203 6.38c.189.19.494.19.683 0l1.054-1.059c.188-.19.188-.496 0-.686-.188-.189-.494-.189-.682 0l-1.055 1.06c-.188.19-.188.497 0 .686M25.497 14.374c0 .268.216.485.483.485h1.491c.266 0 .482-.217.482-.485s-.216-.485-.482-.485H25.98c-.267 0-.483.217-.483.485M22.203 22.367c-.188.189-.188.497 0 .685l1.055 1.06c.188.19.494.19.682 0 .188-.189.188-.496 0-.685l-1.054-1.06c-.189-.19-.494-.19-.683 0M14.25 25.678c-.266 0-.481.217-.481.485v1.499c0 .267.215.484.482.484.266 0 .482-.217.482-.484v-1.5c0-.267-.216-.484-.482-.484M6.299 22.367c-.189-.19-.495-.19-.683 0l-1.054 1.06c-.188.189-.188.496 0 .685.188.19.493.19.682 0l1.055-1.06c.188-.188.188-.496 0-.685M3.005 14.374c0-.268-.216-.485-.483-.485H1.031c-.266 0-.482.217-.482.485s.216.485.482.485h1.491c.267 0 .483-.217.483-.485M6.299 6.38c.188-.188.188-.496 0-.685l-1.055-1.06c-.189-.189-.494-.189-.682 0-.188.19-.188.497 0 .686l1.054 1.06c.188.19.494.19.683 0M18.467 3.894c.247.1.528-.019.628-.267l.56-1.39c.1-.248-.02-.53-.267-.63-.247-.101-.528.019-.628.267l-.56 1.39c-.1.247.02.53.267.63M24.605 9.96c.104.247.387.362.632.257l1.373-.585c.245-.104.36-.39.256-.636-.104-.246-.387-.361-.633-.256l-1.373.585c-.245.104-.36.389-.255.635M24.677 18.611c-.1.249.02.531.267.632l1.382.562c.247.1.528-.02.628-.268.1-.248-.02-.53-.266-.631l-1.383-.562c-.246-.1-.528.019-.628.267M18.642 24.78c-.245.105-.36.39-.255.636l.581 1.38c.105.246.388.361.633.257.246-.105.36-.39.256-.636l-.582-1.38c-.105-.246-.388-.361-.633-.257M10.035 24.853c-.247-.1-.528.02-.628.268l-.56 1.39c-.1.247.02.53.267.63.247.101.528-.019.628-.267l.56-1.39c.1-.247-.02-.53-.267-.63M3.897 18.788c-.104-.247-.387-.362-.632-.258l-1.373.586c-.245.104-.36.389-.256.635.104.247.388.362.633.257l1.373-.585c.245-.104.36-.389.255-.635M3.825 10.136c.1-.248-.02-.53-.267-.63l-1.382-.563c-.247-.1-.528.02-.628.268-.1.248.02.53.266.631l1.383.562c.246.1.528-.02.628-.268M9.86 3.967c.245-.104.36-.389.255-.635l-.582-1.38c-.104-.247-.387-.362-.632-.257-.246.104-.36.389-.256.635l.582 1.38c.104.247.388.362.633.257" transform="translate(-1194.000000, -922.000000) translate(1194.000000, 922.000000) translate(58.000000, 39.000000)"/>
                </g>
            </g>
        </g>
    </g>
</svg>
