<?xml version="1.0" encoding="utf-8"?>
<!-- Generator: Adobe Illustrator 25.3.1, SVG Export Plug-In . SVG Version: 6.00 Build 0)  -->
<svg version="1.1" id="Layer_1" xmlns="http://www.w3.org/2000/svg" xmlns:xlink="http://www.w3.org/1999/xlink" x="0px" y="0px"
	 viewBox="0 0 93 68" style="enable-background:new 0 0 93 68;" xml:space="preserve">
<style type="text/css">
	.st0{fill:#D8AC30;}
	.st1{fill:#EAC85C;}
	.st2{fill:#CCCCCC;}
	.st3{fill:#FFFFFF;}
	.st4{fill:#999999;}
</style>
<g>
	<path class="st0" d="M87.8,55.4C87.8,55.4,87.8,55.4,87.8,55.4c0-0.3-0.1-0.6-0.2-0.9c-0.9-1.7-4.6-3-9.1-3c-4.5,0-8.2,1.3-9.1,3
		c-0.1,0.2-0.2,0.5-0.2,0.7c0,0,0,0.1,0,0.1c0,0,0,0.1,0,0.1v1.7c0,0,0,0.1,0,0.1c0,0,0,0.1,0,0.1c0,0.6,0.4,1.2,1,1.7
		c1.5,1.2,4.6,2,8.3,2c3.6,0,6.7-0.8,8.3-2c0.6-0.5,1-1.1,1-1.7h0v0c0,0,0,0,0,0c0,0,0,0,0,0V55.4z M86.8,56
		c-0.1,0.1-0.1,0.2-0.2,0.3c-0.9,1-3.1,1.7-5.6,2c-0.8,0.1-1.7,0.2-2.5,0.2c-0.8,0-1.7-0.1-2.5-0.2c-2.4-0.3-4.7-1-5.6-2
		c-0.1-0.1-0.2-0.2-0.2-0.3c-0.1-0.1-0.1-0.2-0.2-0.3c0-0.1,0-0.2,0-0.3v-0.1c0,0,0,0,0,0c0-0.3,0.1-0.5,0.3-0.7
		c1.1-1.4,4.8-2.3,8.2-2.3c3.4,0,7.1,0.9,8.2,2.3c0.2,0.2,0.3,0.5,0.3,0.7c0,0,0,0.1,0,0.1c0,0.1,0,0.2,0,0.3
		C86.9,55.8,86.9,55.9,86.8,56z"/>
	<path class="st1" d="M87,55.3c0-0.3-0.1-0.5-0.3-0.7c-1.1-1.4-4.8-2.4-8.2-2.4c-3.4,0-7.1,1-8.2,2.4c-0.2,0.2-0.3,0.5-0.3,0.7
		c0,0,0,0,0,0v0.1c0,0.1,0,0.2,0,0.3c0,0.1,0.1,0.2,0.2,0.3c0.1,0.1,0.1,0.2,0.2,0.3c0.9,1,3.1,1.7,5.6,2c0.8,0.1,1.7,0.2,2.5,0.2
		c0.8,0,1.7-0.1,2.5-0.2c2.4-0.3,4.7-1,5.6-2c0.1-0.1,0.2-0.2,0.2-0.3c0.1-0.1,0.1-0.2,0.2-0.3C87,55.6,87,55.5,87,55.3
		C87,55.3,87,55.3,87,55.3z"/>
</g>
<g>
	<path class="st0" d="M36.7,51.6C36.7,51.6,36.7,51.6,36.7,51.6c0-0.3-0.1-0.6-0.2-0.9c-0.9-1.7-4.6-3-9.1-3c-4.5,0-8.2,1.3-9.1,3
		c-0.1,0.2-0.2,0.5-0.2,0.7c0,0,0,0.1,0,0.1c0,0,0,0.1,0,0.1v1.7c0,0,0,0.1,0,0.1c0,0,0,0.1,0,0.1c0,0.6,0.4,1.2,1,1.7
		c1.5,1.2,4.6,2,8.3,2c3.6,0,6.7-0.8,8.3-2c0.6-0.5,1-1.1,1-1.7h0v0c0,0,0,0,0,0c0,0,0,0,0,0V51.6z M35.8,52.3
		c-0.1,0.1-0.1,0.2-0.2,0.3c-0.9,1-3.1,1.7-5.6,2c-0.8,0.1-1.7,0.2-2.5,0.2c-0.8,0-1.7-0.1-2.5-0.2c-2.4-0.3-4.7-1-5.6-2
		c-0.1-0.1-0.2-0.2-0.2-0.3C19,52.2,19,52,18.9,51.9c0-0.1,0-0.2,0-0.3v-0.1c0,0,0,0,0,0c0-0.3,0.1-0.5,0.3-0.7
		c1.1-1.4,4.8-2.3,8.2-2.3c3.4,0,7.1,0.9,8.2,2.3c0.2,0.2,0.3,0.5,0.3,0.7c0,0,0,0.1,0,0.1c0,0.1,0,0.2,0,0.3
		C35.9,52,35.8,52.2,35.8,52.3z"/>
	<path class="st1" d="M36,51.5c0-0.3-0.1-0.5-0.3-0.7c-1.1-1.4-4.8-2.4-8.2-2.4c-3.4,0-7.1,1-8.2,2.4c-0.2,0.2-0.3,0.5-0.3,0.7
		c0,0,0,0,0,0v0.1c0,0.1,0,0.2,0,0.3c0,0.1,0.1,0.2,0.2,0.3c0.1,0.1,0.1,0.2,0.2,0.3c0.9,1,3.1,1.7,5.6,2c0.8,0.1,1.7,0.2,2.5,0.2
		c0.8,0,1.7-0.1,2.5-0.2c2.4-0.3,4.7-1,5.6-2c0.1-0.1,0.2-0.2,0.2-0.3c0.1-0.1,0.1-0.2,0.2-0.3C36,51.8,36,51.7,36,51.5
		C36,51.6,36,51.6,36,51.5z"/>
</g>
<g>
	<path class="st0" d="M24.9,56.1C24.9,56.1,24.9,56.1,24.9,56.1c0-0.3-0.1-0.6-0.2-0.9c-0.9-1.7-4.6-3-9.1-3c-4.5,0-8.2,1.3-9.1,3
		c-0.1,0.2-0.2,0.5-0.2,0.7c0,0,0,0.1,0,0.1c0,0,0,0.1,0,0.1v1.7c0,0,0,0.1,0,0.1c0,0,0,0.1,0,0.1c0,0.6,0.4,1.2,1,1.7
		c1.5,1.2,4.6,2,8.3,2c3.6,0,6.7-0.8,8.3-2c0.6-0.5,1-1.1,1-1.7h0v0c0,0,0,0,0,0c0,0,0,0,0,0V56.1z M24,56.7
		c-0.1,0.1-0.1,0.2-0.2,0.3c-0.9,1-3.1,1.7-5.6,2c-0.8,0.1-1.7,0.2-2.5,0.2c-0.8,0-1.7-0.1-2.5-0.2c-2.4-0.3-4.7-1-5.6-2
		c-0.1-0.1-0.2-0.2-0.2-0.3c-0.1-0.1-0.1-0.2-0.2-0.3c0-0.1,0-0.2,0-0.3V56c0,0,0,0,0,0c0-0.3,0.1-0.5,0.3-0.7
		c1.1-1.4,4.8-2.3,8.2-2.3c3.4,0,7.1,0.9,8.2,2.3c0.2,0.2,0.3,0.5,0.3,0.7c0,0,0,0.1,0,0.1c0,0.1,0,0.2,0,0.3
		C24.1,56.5,24.1,56.6,24,56.7z"/>
	<path class="st1" d="M24.2,56c0-0.3-0.1-0.5-0.3-0.7c-1.1-1.4-4.8-2.4-8.2-2.4c-3.4,0-7.1,1-8.2,2.4c-0.2,0.2-0.3,0.5-0.3,0.7
		c0,0,0,0,0,0v0.1c0,0.1,0,0.2,0,0.3c0,0.1,0.1,0.2,0.2,0.3c0.1,0.1,0.1,0.2,0.2,0.3c0.9,1,3.1,1.7,5.6,2c0.8,0.1,1.7,0.2,2.5,0.2
		c0.8,0,1.7-0.1,2.5-0.2c2.4-0.3,4.7-1,5.6-2c0.1-0.1,0.2-0.2,0.2-0.3c0.1-0.1,0.1-0.2,0.2-0.3C24.2,56.3,24.2,56.2,24.2,56
		C24.2,56,24.2,56,24.2,56z"/>
</g>
<g>
	<path class="st0" d="M51.7,44.1C51.7,44.1,51.7,44.1,51.7,44.1c0-0.3-0.1-0.6-0.2-0.9c-0.9-1.7-4.6-3-9.1-3c-4.5,0-8.2,1.3-9.1,3
		c-0.1,0.2-0.2,0.5-0.2,0.7c0,0,0,0.1,0,0.1c0,0,0,0.1,0,0.1v1.7c0,0,0,0.1,0,0.1c0,0,0,0.1,0,0.1c0,0.6,0.4,1.2,1,1.7
		c1.5,1.2,4.6,2,8.3,2c3.6,0,6.7-0.8,8.3-2c0.6-0.5,1-1.1,1-1.7h0v0c0,0,0,0,0,0c0,0,0,0,0,0V44.1z M50.8,44.8
		c-0.1,0.1-0.1,0.2-0.2,0.3c-0.9,1-3.1,1.7-5.6,2c-0.8,0.1-1.7,0.2-2.5,0.2c-0.8,0-1.7-0.1-2.5-0.2c-2.4-0.3-4.7-1-5.6-2
		c-0.1-0.1-0.2-0.2-0.2-0.3C34,44.7,34,44.5,34,44.4c0-0.1,0-0.2,0-0.3V44c0,0,0,0,0,0c0-0.3,0.1-0.5,0.3-0.7
		c1.1-1.4,4.8-2.3,8.2-2.3c3.4,0,7.1,0.9,8.2,2.3c0.2,0.2,0.3,0.5,0.3,0.7c0,0,0,0.1,0,0.1c0,0.1,0,0.2,0,0.3
		C50.9,44.5,50.9,44.7,50.8,44.8z"/>
	<path class="st1" d="M51,44c0-0.3-0.1-0.5-0.3-0.7c-1.1-1.4-4.8-2.4-8.2-2.4c-3.4,0-7.1,1-8.2,2.4c-0.2,0.2-0.3,0.5-0.3,0.7
		c0,0,0,0,0,0v0.1c0,0.1,0,0.2,0,0.3c0,0.1,0.1,0.2,0.2,0.3c0.1,0.1,0.1,0.2,0.2,0.3c0.9,1,3.1,1.7,5.6,2c0.8,0.1,1.7,0.2,2.5,0.2
		c0.8,0,1.7-0.1,2.5-0.2c2.4-0.3,4.7-1,5.6-2c0.1-0.1,0.2-0.2,0.2-0.3c0.1-0.1,0.1-0.2,0.2-0.3C51,44.3,51,44.2,51,44
		C51,44.1,51,44,51,44z"/>
</g>
<g>
	<path class="st0" d="M26.5,59.6C26.5,59.6,26.5,59.6,26.5,59.6c0-0.3-0.1-0.6-0.2-0.9c-0.9-1.7-4.6-3-9.1-3c-4.5,0-8.2,1.3-9.1,3
		C8,59,8,59.2,8,59.5c0,0,0,0.1,0,0.1c0,0,0,0.1,0,0.1v1.7c0,0,0,0.1,0,0.1c0,0,0,0.1,0,0.1c0,0.6,0.4,1.2,1,1.7
		c1.5,1.2,4.6,2,8.3,2c3.6,0,6.7-0.8,8.3-2c0.6-0.5,1-1.1,1-1.7h0v0c0,0,0,0,0,0c0,0,0,0,0,0V59.6z M25.6,60.2
		c-0.1,0.1-0.1,0.2-0.2,0.3c-0.9,1-3.1,1.7-5.6,2c-0.8,0.1-1.7,0.2-2.5,0.2c-0.8,0-1.7-0.1-2.5-0.2c-2.4-0.3-4.7-1-5.6-2
		C9,60.4,9,60.3,8.9,60.2c-0.1-0.1-0.1-0.2-0.2-0.3c0-0.1,0-0.2,0-0.3v-0.1c0,0,0,0,0,0c0-0.3,0.1-0.5,0.3-0.7
		c1.1-1.4,4.8-2.3,8.2-2.3c3.4,0,7.1,0.9,8.2,2.3c0.2,0.2,0.3,0.5,0.3,0.7c0,0,0,0.1,0,0.1c0,0.1,0,0.2,0,0.3
		C25.7,60,25.7,60.1,25.6,60.2z"/>
	<path class="st1" d="M25.8,59.5c0-0.3-0.1-0.5-0.3-0.7c-1.1-1.4-4.8-2.4-8.2-2.4c-3.4,0-7.1,1-8.2,2.4c-0.2,0.2-0.3,0.5-0.3,0.7
		c0,0,0,0,0,0v0.1c0,0.1,0,0.2,0,0.3c0,0.1,0.1,0.2,0.2,0.3C9,60.3,9,60.4,9.1,60.5c0.9,1,3.1,1.7,5.6,2c0.8,0.1,1.7,0.2,2.5,0.2
		c0.8,0,1.7-0.1,2.5-0.2c2.4-0.3,4.7-1,5.6-2c0.1-0.1,0.2-0.2,0.2-0.3c0.1-0.1,0.1-0.2,0.2-0.3C25.8,59.8,25.8,59.7,25.8,59.5
		C25.8,59.5,25.8,59.5,25.8,59.5z"/>
</g>
<g>
	<path class="st0" d="M79.5,60C79.5,59.9,79.5,59.9,79.5,60c0-0.3-0.1-0.6-0.2-0.9c-0.9-1.7-4.6-3-9.1-3c-4.5,0-8.2,1.3-9.1,3
		C61,59.3,61,59.6,61,59.8c0,0,0,0.1,0,0.1c0,0,0,0.1,0,0.1v1.7c0,0,0,0.1,0,0.1c0,0,0,0.1,0,0.1c0,0.6,0.4,1.2,1,1.7
		c1.5,1.2,4.6,2,8.3,2c3.6,0,6.7-0.8,8.3-2c0.6-0.5,1-1.1,1-1.7h0v0c0,0,0,0,0,0c0,0,0,0,0,0V60z M78.6,60.6
		c-0.1,0.1-0.1,0.2-0.2,0.3c-0.9,1-3.1,1.7-5.6,2C72,62.9,71.1,63,70.3,63c-0.8,0-1.7-0.1-2.5-0.2c-2.4-0.3-4.7-1-5.6-2
		c-0.1-0.1-0.2-0.2-0.2-0.3c-0.1-0.1-0.1-0.2-0.2-0.3c0-0.1,0-0.2,0-0.3v-0.1c0,0,0,0,0,0c0-0.3,0.1-0.5,0.3-0.7
		c1.1-1.4,4.8-2.3,8.2-2.3c3.4,0,7.1,0.9,8.2,2.3c0.2,0.2,0.3,0.5,0.3,0.7c0,0,0,0.1,0,0.1c0,0.1,0,0.2,0,0.3
		C78.7,60.4,78.7,60.5,78.6,60.6z"/>
	<path class="st1" d="M78.8,59.8c0-0.3-0.1-0.5-0.3-0.7c-1.1-1.4-4.8-2.4-8.2-2.4c-3.4,0-7.1,1-8.2,2.4c-0.2,0.2-0.3,0.5-0.3,0.7
		c0,0,0,0,0,0V60c0,0.1,0,0.2,0,0.3c0,0.1,0.1,0.2,0.2,0.3c0.1,0.1,0.1,0.2,0.2,0.3c0.9,1,3.1,1.7,5.6,2c0.8,0.1,1.7,0.2,2.5,0.2
		c0.8,0,1.7-0.1,2.5-0.2c2.4-0.3,4.7-1,5.6-2c0.1-0.1,0.2-0.2,0.2-0.3c0.1-0.1,0.1-0.2,0.2-0.3C78.8,60.1,78.8,60,78.8,59.8
		C78.8,59.9,78.8,59.9,78.8,59.8z"/>
</g>
<g>
	<path class="st0" d="M82.2,52.8C82.2,52.8,82.2,52.8,82.2,52.8c0-0.3-0.1-0.6-0.2-0.9c-0.9-1.7-4.6-3-9.1-3c-4.5,0-8.2,1.3-9.1,3
		c-0.1,0.2-0.2,0.5-0.2,0.7c0,0,0,0.1,0,0.1c0,0,0,0.1,0,0.1v1.7c0,0,0,0.1,0,0.1c0,0,0,0.1,0,0.1c0,0.6,0.4,1.2,1,1.7
		c1.5,1.2,4.6,2,8.3,2c3.6,0,6.7-0.8,8.3-2c0.6-0.5,1-1.1,1-1.7h0v0c0,0,0,0,0,0c0,0,0,0,0,0V52.8z M81.3,53.5
		c-0.1,0.1-0.1,0.2-0.2,0.3c-0.9,1-3.1,1.7-5.6,2c-0.8,0.1-1.7,0.2-2.5,0.2c-0.8,0-1.7-0.1-2.5-0.2c-2.4-0.3-4.7-1-5.6-2
		c-0.1-0.1-0.2-0.2-0.2-0.3c-0.1-0.1-0.1-0.2-0.2-0.3c0-0.1,0-0.2,0-0.3v-0.1c0,0,0,0,0,0c0-0.3,0.1-0.5,0.3-0.7
		c1.1-1.4,4.8-2.3,8.2-2.3c3.4,0,7.1,0.9,8.2,2.3c0.2,0.2,0.3,0.5,0.3,0.7c0,0,0,0.1,0,0.1c0,0.1,0,0.2,0,0.3
		C81.4,53.2,81.3,53.3,81.3,53.5z"/>
	<path class="st1" d="M81.5,52.7c0-0.3-0.1-0.5-0.3-0.7c-1.1-1.4-4.8-2.4-8.2-2.4c-3.4,0-7.1,1-8.2,2.4c-0.2,0.2-0.3,0.5-0.3,0.7
		c0,0,0,0,0,0v0.1c0,0.1,0,0.2,0,0.3c0,0.1,0.1,0.2,0.2,0.3c0.1,0.1,0.1,0.2,0.2,0.3c0.9,1,3.1,1.7,5.6,2c0.8,0.1,1.7,0.2,2.5,0.2
		c0.8,0,1.7-0.1,2.5-0.2c2.4-0.3,4.7-1,5.6-2c0.1-0.1,0.2-0.2,0.2-0.3c0.1-0.1,0.1-0.2,0.2-0.3C81.4,53,81.5,52.9,81.5,52.7
		C81.5,52.8,81.5,52.7,81.5,52.7z"/>
</g>
<g>
	<path class="st0" d="M63,62.1C63,62,63,62,63,62.1c0-0.3-0.1-0.6-0.2-0.9c-0.9-1.7-4.6-3-9.1-3c-4.5,0-8.2,1.3-9.1,3
		c-0.1,0.2-0.2,0.5-0.2,0.7c0,0,0,0.1,0,0.1c0,0,0,0.1,0,0.1v1.7c0,0,0,0.1,0,0.1c0,0,0,0.1,0,0.1c0,0.6,0.4,1.2,1,1.7
		c1.5,1.2,4.6,2,8.3,2c3.6,0,6.7-0.8,8.3-2c0.6-0.5,1-1.1,1-1.7h0v0c0,0,0,0,0,0c0,0,0,0,0,0V62.1z M62.1,62.7
		c-0.1,0.1-0.1,0.2-0.2,0.3c-0.9,1-3.1,1.7-5.6,2c-0.8,0.1-1.7,0.2-2.5,0.2c-0.8,0-1.7-0.1-2.5-0.2c-2.4-0.3-4.7-1-5.6-2
		c-0.1-0.1-0.2-0.2-0.2-0.3c-0.1-0.1-0.1-0.2-0.2-0.3c0-0.1,0-0.2,0-0.3V62c0,0,0,0,0,0c0-0.3,0.1-0.5,0.3-0.7
		c1.1-1.4,4.8-2.3,8.2-2.3c3.4,0,7.1,0.9,8.2,2.3c0.2,0.2,0.3,0.5,0.3,0.7c0,0,0,0.1,0,0.1c0,0.1,0,0.2,0,0.3
		C62.2,62.5,62.1,62.6,62.1,62.7z"/>
	<path class="st1" d="M62.3,61.9c0-0.3-0.1-0.5-0.3-0.7c-1.1-1.4-4.8-2.4-8.2-2.4c-3.4,0-7.1,1-8.2,2.4c-0.2,0.2-0.3,0.5-0.3,0.7
		c0,0,0,0,0,0v0.1c0,0.1,0,0.2,0,0.3c0,0.1,0.1,0.2,0.2,0.3c0.1,0.1,0.1,0.2,0.2,0.3c0.9,1,3.1,1.7,5.6,2c0.8,0.1,1.7,0.2,2.5,0.2
		c0.8,0,1.7-0.1,2.5-0.2c2.4-0.3,4.7-1,5.6-2c0.1-0.1,0.2-0.2,0.2-0.3c0.1-0.1,0.1-0.2,0.2-0.3C62.3,62.2,62.3,62.1,62.3,61.9
		C62.3,62,62.3,62,62.3,61.9z"/>
</g>
<g>
	<path class="st0" d="M43.9,60.9C43.9,60.8,43.9,60.8,43.9,60.9c0-0.3-0.1-0.6-0.2-0.9c-0.9-1.7-4.6-3-9.1-3c-4.5,0-8.2,1.3-9.1,3
		c-0.1,0.2-0.2,0.5-0.2,0.7c0,0,0,0.1,0,0.1c0,0,0,0.1,0,0.1v1.7c0,0,0,0.1,0,0.1c0,0,0,0.1,0,0.1c0,0.6,0.4,1.2,1,1.7
		c1.5,1.2,4.6,2,8.3,2c3.6,0,6.7-0.8,8.3-2c0.6-0.5,1-1.1,1-1.7h0v0c0,0,0,0,0,0c0,0,0,0,0,0V60.9z M43,61.5
		c-0.1,0.1-0.1,0.2-0.2,0.3c-0.9,1-3.1,1.7-5.6,2c-0.8,0.1-1.7,0.2-2.5,0.2c-0.8,0-1.7-0.1-2.5-0.2c-2.4-0.3-4.7-1-5.6-2
		c-0.1-0.1-0.2-0.2-0.2-0.3c-0.1-0.1-0.1-0.2-0.2-0.3c0-0.1,0-0.2,0-0.3v-0.1c0,0,0,0,0,0c0-0.3,0.1-0.5,0.3-0.7
		c1.1-1.4,4.8-2.3,8.2-2.3c3.4,0,7.1,0.9,8.2,2.3c0.2,0.2,0.3,0.5,0.3,0.7c0,0,0,0.1,0,0.1c0,0.1,0,0.2,0,0.3
		C43.1,61.3,43,61.4,43,61.5z"/>
	<path class="st1" d="M43.2,60.7c0-0.3-0.1-0.5-0.3-0.7c-1.1-1.4-4.8-2.4-8.2-2.4c-3.4,0-7.1,1-8.2,2.4c-0.2,0.2-0.3,0.5-0.3,0.7
		c0,0,0,0,0,0v0.1c0,0.1,0,0.2,0,0.3c0,0.1,0.1,0.2,0.2,0.3c0.1,0.1,0.1,0.2,0.2,0.3c0.9,1,3.1,1.7,5.6,2c0.8,0.1,1.7,0.2,2.5,0.2
		c0.8,0,1.7-0.1,2.5-0.2c2.4-0.3,4.7-1,5.6-2c0.1-0.1,0.2-0.2,0.2-0.3c0.1-0.1,0.1-0.2,0.2-0.3C43.1,61,43.2,60.9,43.2,60.7
		C43.2,60.8,43.2,60.8,43.2,60.7z"/>
</g>
<g>
	<path class="st0" d="M36,54.8C36,54.7,36,54.7,36,54.8c0-0.3-0.1-0.6-0.2-0.9c-0.9-1.7-4.6-3-9.1-3c-4.5,0-8.2,1.3-9.1,3
		c-0.1,0.2-0.2,0.5-0.2,0.7c0,0,0,0.1,0,0.1c0,0,0,0.1,0,0.1v1.7c0,0,0,0.1,0,0.1c0,0,0,0.1,0,0.1c0,0.6,0.4,1.2,1,1.7
		c1.5,1.2,4.6,2,8.3,2c3.6,0,6.7-0.8,8.3-2c0.6-0.5,1-1.1,1-1.7h0v0c0,0,0,0,0,0c0,0,0,0,0,0V54.8z M35,55.4
		c-0.1,0.1-0.1,0.2-0.2,0.3c-0.9,1-3.1,1.7-5.6,2c-0.8,0.1-1.7,0.2-2.5,0.2c-0.8,0-1.7-0.1-2.5-0.2c-2.4-0.3-4.7-1-5.6-2
		c-0.1-0.1-0.2-0.2-0.2-0.3c-0.1-0.1-0.1-0.2-0.2-0.3c0-0.1,0-0.2,0-0.3v-0.1c0,0,0,0,0,0c0-0.3,0.1-0.5,0.3-0.7
		c1.1-1.4,4.8-2.3,8.2-2.3c3.4,0,7.1,0.9,8.2,2.3c0.2,0.2,0.3,0.5,0.3,0.7c0,0,0,0.1,0,0.1c0,0.1,0,0.2,0,0.3
		C35.1,55.2,35.1,55.3,35,55.4z"/>
	<path class="st1" d="M35.2,54.6c0-0.3-0.1-0.5-0.3-0.7c-1.1-1.4-4.8-2.4-8.2-2.4c-3.4,0-7.1,1-8.2,2.4c-0.2,0.2-0.3,0.5-0.3,0.7
		c0,0,0,0,0,0v0.1c0,0.1,0,0.2,0,0.3c0,0.1,0.1,0.2,0.2,0.3c0.1,0.1,0.1,0.2,0.2,0.3c0.9,1,3.1,1.7,5.6,2c0.8,0.1,1.7,0.2,2.5,0.2
		c0.8,0,1.7-0.1,2.5-0.2c2.4-0.3,4.7-1,5.6-2c0.1-0.1,0.2-0.2,0.2-0.3c0.1-0.1,0.1-0.2,0.2-0.3C35.2,54.9,35.2,54.8,35.2,54.6
		C35.2,54.7,35.2,54.7,35.2,54.6z"/>
</g>
<g>
	<path class="st0" d="M71.1,56.1C71.1,56.1,71.1,56.1,71.1,56.1c0-0.3-0.1-0.6-0.2-0.9c-0.9-1.7-4.6-3-9.1-3c-4.5,0-8.2,1.3-9.1,3
		c-0.1,0.2-0.2,0.5-0.2,0.7c0,0,0,0.1,0,0.1c0,0,0,0.1,0,0.1v1.7c0,0,0,0.1,0,0.1c0,0,0,0.1,0,0.1c0,0.6,0.4,1.2,1,1.7
		c1.5,1.2,4.6,2,8.3,2c3.6,0,6.7-0.8,8.3-2c0.6-0.5,1-1.1,1-1.7h0v0c0,0,0,0,0,0c0,0,0,0,0,0V56.1z M70.2,56.7
		c-0.1,0.1-0.1,0.2-0.2,0.3c-0.9,1-3.1,1.7-5.6,2c-0.8,0.1-1.7,0.2-2.5,0.2c-0.8,0-1.7-0.1-2.5-0.2c-2.4-0.3-4.7-1-5.6-2
		c-0.1-0.1-0.2-0.2-0.2-0.3c-0.1-0.1-0.1-0.2-0.2-0.3c0-0.1,0-0.2,0-0.3V56c0,0,0,0,0,0c0-0.3,0.1-0.5,0.3-0.7
		c1.1-1.4,4.8-2.3,8.2-2.3c3.4,0,7.1,0.9,8.2,2.3c0.2,0.2,0.3,0.5,0.3,0.7c0,0,0,0.1,0,0.1c0,0.1,0,0.2,0,0.3
		C70.3,56.5,70.2,56.6,70.2,56.7z"/>
	<path class="st1" d="M70.4,56c0-0.3-0.1-0.5-0.3-0.7c-1.1-1.4-4.8-2.4-8.2-2.4c-3.4,0-7.1,1-8.2,2.4c-0.2,0.2-0.3,0.5-0.3,0.7
		c0,0,0,0,0,0v0.1c0,0.1,0,0.2,0,0.3c0,0.1,0.1,0.2,0.2,0.3c0.1,0.1,0.1,0.2,0.2,0.3c0.9,1,3.1,1.7,5.6,2c0.8,0.1,1.7,0.2,2.5,0.2
		c0.8,0,1.7-0.1,2.5-0.2c2.4-0.3,4.7-1,5.6-2c0.1-0.1,0.2-0.2,0.2-0.3c0.1-0.1,0.1-0.2,0.2-0.3C70.4,56.3,70.4,56.1,70.4,56
		C70.4,56,70.4,56,70.4,56z"/>
</g>
<g>
	<path class="st0" d="M53.7,58C53.7,58,53.7,58,53.7,58c0-0.4-0.1-0.6-0.2-0.9c-0.9-1.8-4.7-3.2-9.3-3.2c-4.6,0-8.4,1.3-9.3,3.2
		c-0.1,0.3-0.2,0.5-0.2,0.8c0,0,0,0.1,0,0.1c0,0,0,0.1,0,0.1v1.8c0,0,0,0.1,0,0.1c0,0,0,0.1,0,0.1c0,0.6,0.4,1.3,1,1.8
		c1.6,1.3,4.7,2.2,8.4,2.2c3.7,0,6.9-0.9,8.4-2.2c0.6-0.5,1-1.2,1-1.8h0v0c0,0,0,0,0-0.1c0,0,0,0,0-0.1V58z M52.7,58.7
		c-0.1,0.1-0.1,0.2-0.2,0.3c-0.9,1-3.2,1.8-5.7,2.1c-0.9,0.1-1.7,0.2-2.6,0.2c-0.9,0-1.7-0.1-2.6-0.2c-2.5-0.3-4.8-1.1-5.7-2.1
		c-0.1-0.1-0.2-0.2-0.2-0.3c-0.1-0.1-0.1-0.2-0.2-0.4c0-0.1,0-0.2,0-0.3v-0.1c0,0,0,0,0,0c0-0.3,0.1-0.5,0.3-0.8
		c1.1-1.4,4.9-2.4,8.4-2.4c3.5,0,7.3,0.9,8.4,2.4c0.2,0.2,0.3,0.5,0.3,0.8c0,0,0,0.1,0,0.1c0,0.1,0,0.2-0.1,0.3
		C52.9,58.4,52.8,58.5,52.7,58.7z"/>
	<path class="st1" d="M52.9,57.9c0-0.3-0.1-0.5-0.3-0.8c-1.1-1.4-4.9-2.5-8.4-2.5c-3.5,0-7.3,1.1-8.4,2.5c-0.2,0.2-0.3,0.5-0.3,0.8
		c0,0,0,0,0,0V58c0,0.1,0,0.2,0,0.3c0,0.1,0.1,0.2,0.2,0.4c0.1,0.1,0.1,0.2,0.2,0.3c0.9,1,3.2,1.8,5.7,2.1c0.9,0.1,1.7,0.2,2.6,0.2
		c0.9,0,1.7-0.1,2.6-0.2c2.5-0.3,4.8-1.1,5.7-2.1c0.1-0.1,0.2-0.2,0.2-0.3c0.1-0.1,0.1-0.2,0.2-0.4C52.9,58.2,52.9,58.1,52.9,57.9
		C52.9,57.9,52.9,57.9,52.9,57.9z"/>
</g>
<g>
	<path class="st0" d="M76.7,47.9C76.7,47.9,76.7,47.9,76.7,47.9c0-0.3-0.1-0.6-0.2-0.9c-0.9-1.7-4.6-3-9.1-3c-4.5,0-8.2,1.3-9.1,3
		c-0.1,0.2-0.2,0.5-0.2,0.7c0,0,0,0.1,0,0.1c0,0,0,0.1,0,0.1v1.7c0,0,0,0.1,0,0.1c0,0,0,0.1,0,0.1c0,0.6,0.4,1.2,1,1.7
		c1.5,1.2,4.6,2,8.3,2c3.6,0,6.7-0.8,8.3-2c0.6-0.5,1-1.1,1-1.7h0v0c0,0,0,0,0,0c0,0,0,0,0,0V47.9z M75.7,48.5
		c-0.1,0.1-0.1,0.2-0.2,0.3c-0.9,1-3.1,1.7-5.6,2c-0.8,0.1-1.7,0.2-2.5,0.2c-0.8,0-1.7-0.1-2.5-0.2c-2.4-0.3-4.7-1-5.6-2
		c-0.1-0.1-0.2-0.2-0.2-0.3c-0.1-0.1-0.1-0.2-0.2-0.3c0-0.1,0-0.2,0-0.3v-0.1c0,0,0,0,0,0c0-0.3,0.1-0.5,0.3-0.7
		c1.1-1.4,4.8-2.3,8.2-2.3c3.4,0,7.1,0.9,8.2,2.3c0.2,0.2,0.3,0.5,0.3,0.7c0,0,0,0.1,0,0.1c0,0.1,0,0.2,0,0.3
		C75.9,48.3,75.8,48.4,75.7,48.5z"/>
	<path class="st1" d="M75.9,47.8c0-0.3-0.1-0.5-0.3-0.7c-1.1-1.4-4.8-2.4-8.2-2.4c-3.4,0-7.1,1-8.2,2.4c-0.2,0.2-0.3,0.5-0.3,0.7
		c0,0,0,0,0,0v0.1c0,0.1,0,0.2,0,0.3c0,0.1,0.1,0.2,0.2,0.3c0.1,0.1,0.1,0.2,0.2,0.3c0.9,1,3.1,1.7,5.6,2c0.8,0.1,1.7,0.2,2.5,0.2
		c0.8,0,1.7-0.1,2.5-0.2c2.4-0.3,4.7-1,5.6-2c0.1-0.1,0.2-0.2,0.2-0.3c0.1-0.1,0.1-0.2,0.2-0.3C75.9,48.1,75.9,47.9,75.9,47.8
		C75.9,47.8,75.9,47.8,75.9,47.8z"/>
</g>
<g>
	<path class="st0" d="M68.7,43.5C68.7,43.5,68.7,43.5,68.7,43.5c0-0.3-0.1-0.6-0.2-0.9c-0.9-1.7-4.6-3-9.1-3c-4.5,0-8.2,1.3-9.1,3
		c-0.1,0.2-0.2,0.5-0.2,0.7c0,0,0,0.1,0,0.1c0,0,0,0.1,0,0.1v1.7c0,0,0,0.1,0,0.1c0,0,0,0.1,0,0.1c0,0.6,0.4,1.2,1,1.7
		c1.5,1.2,4.6,2,8.3,2c3.6,0,6.7-0.8,8.3-2c0.6-0.5,1-1.1,1-1.7h0v0c0,0,0,0,0,0c0,0,0,0,0,0V43.5z M67.8,44.1
		c-0.1,0.1-0.1,0.2-0.2,0.3c-0.9,1-3.1,1.7-5.6,2c-0.8,0.1-1.7,0.2-2.5,0.2c-0.8,0-1.7-0.1-2.5-0.2c-2.4-0.3-4.7-1-5.6-2
		c-0.1-0.1-0.2-0.2-0.2-0.3C51,44,51,43.9,51,43.8c0-0.1,0-0.2,0-0.3v-0.1c0,0,0,0,0,0c0-0.3,0.1-0.5,0.3-0.7
		c1.1-1.4,4.8-2.3,8.2-2.3c3.4,0,7.1,0.9,8.2,2.3c0.2,0.2,0.3,0.5,0.3,0.7c0,0,0,0.1,0,0.1c0,0.1,0,0.2,0,0.3
		C67.9,43.9,67.9,44,67.8,44.1z"/>
	<path class="st1" d="M68,43.4c0-0.3-0.1-0.5-0.3-0.7c-1.1-1.4-4.8-2.4-8.2-2.4c-3.4,0-7.1,1-8.2,2.4c-0.2,0.2-0.3,0.5-0.3,0.7
		c0,0,0,0,0,0v0.1c0,0.1,0,0.2,0,0.3c0,0.1,0.1,0.2,0.2,0.3c0.1,0.1,0.1,0.2,0.2,0.3c0.9,1,3.1,1.7,5.6,2c0.8,0.1,1.7,0.2,2.5,0.2
		c0.8,0,1.7-0.1,2.5-0.2c2.4-0.3,4.7-1,5.6-2c0.1-0.1,0.2-0.2,0.2-0.3c0.1-0.1,0.1-0.2,0.2-0.3C68,43.7,68,43.6,68,43.4
		C68,43.4,68,43.4,68,43.4z"/>
</g>
<g>
	<path class="st0" d="M41.6,47.9C41.6,47.8,41.6,47.8,41.6,47.9c0-0.3-0.1-0.6-0.2-0.9c-0.9-1.7-4.6-3-9.1-3c-4.5,0-8.2,1.3-9.1,3
		c-0.1,0.2-0.2,0.5-0.2,0.7c0,0,0,0.1,0,0.1c0,0,0,0.1,0,0.1v1.7c0,0,0,0.1,0,0.1c0,0,0,0.1,0,0.1c0,0.6,0.4,1.2,1,1.7
		c1.5,1.2,4.6,2,8.3,2c3.6,0,6.7-0.8,8.3-2c0.6-0.5,1-1.1,1-1.7h0v0c0,0,0,0,0,0c0,0,0,0,0,0V47.9z M40.6,48.5
		c-0.1,0.1-0.1,0.2-0.2,0.3c-0.9,1-3.1,1.7-5.6,2c-0.8,0.1-1.7,0.2-2.5,0.2c-0.8,0-1.7-0.1-2.5-0.2c-2.4-0.3-4.7-1-5.6-2
		c-0.1-0.1-0.2-0.2-0.2-0.3c-0.1-0.1-0.1-0.2-0.2-0.3c0-0.1,0-0.2,0-0.3v-0.1c0,0,0,0,0,0c0-0.3,0.1-0.5,0.3-0.7
		c1.1-1.4,4.8-2.3,8.2-2.3c3.4,0,7.1,0.9,8.2,2.3c0.2,0.2,0.3,0.5,0.3,0.7c0,0,0,0.1,0,0.1c0,0.1,0,0.2,0,0.3
		C40.7,48.3,40.7,48.4,40.6,48.5z"/>
	<path class="st1" d="M40.8,47.7c0-0.3-0.1-0.5-0.3-0.7c-1.1-1.4-4.8-2.4-8.2-2.4c-3.4,0-7.1,1-8.2,2.4c-0.2,0.2-0.3,0.5-0.3,0.7
		c0,0,0,0,0,0v0.1c0,0.1,0,0.2,0,0.3c0,0.1,0.1,0.2,0.2,0.3c0.1,0.1,0.1,0.2,0.2,0.3c0.9,1,3.1,1.7,5.6,2c0.8,0.1,1.7,0.2,2.5,0.2
		c0.8,0,1.7-0.1,2.5-0.2c2.4-0.3,4.7-1,5.6-2c0.1-0.1,0.2-0.2,0.2-0.3c0.1-0.1,0.1-0.2,0.2-0.3C40.8,48,40.8,47.9,40.8,47.7
		C40.8,47.8,40.8,47.8,40.8,47.7z"/>
</g>
<g>
	<path d="M32.8,22.8c-0.4-0.7-0.7-1.5-0.7-2.4c0-0.7,0.3-1.3,0.5-1.8c0.4-0.8,0.8-1.6,1.3-2.3c0.1-0.1,0.1-0.2,0.2-0.3
		c0.2-0.3,0.4-0.7,1-1c0.4-0.2,0.8-0.3,1.1-0.4c0-0.2,0-0.5,0-0.7c0.1-1,0.6-2.1,1.3-2.8c0.2-0.2,0.3-0.3,0.4-0.4
		c0.7-0.7,1.2-1.2,2.5-1.7c0.3-0.1,0.7-0.2,1.9,0c0,0,0,0,0,0c0.1-0.7,0.3-1.4,0.9-1.9c0.5-0.4,1.1-0.6,1.5-0.7l2.3-0.6
		c0.6-0.2,1.2-0.3,2-0.2c0.8,0.1,1.4,0.5,1.9,1C51.6,5.7,52,5.2,52.4,5c1-0.6,4.6-0.8,6.4,0.9c0.2,0.2,0.5,0.6,1,1.2
		c0.2,0.3,0.6,0.8,0.7,0.9c0.1,0.1,0.3,0.2,0.4,0.3c0.2,0.1,0.3,0.2,0.5,0.4c1.1,1,1.7,2.4,1.9,4.4c0,0.6,0.1,1.2,0.1,1.8
		c0,0.8,0,1.6,0.1,2.4c0.1,0.5,0.3,0.8,0.7,1.3c0.5,0.6,1,1.4,1.4,2.8l-0.1,0c0.5,1.3,0.5,2.4,0,3.6c-0.1,0.3-0.2,0.5-0.4,0.7
		c-1.5,3.5-1.9,5.7-2.6,7.7c-0.4,1.1-0.9,2-1.4,2.9c-0.5,0.9-1.1,1.6-1.6,2.2c0.1,0.3,0.1,0.7,0,1.1c-0.1,0.4-0.2,0.7-0.4,1
		c-0.1,0.2-0.2,0.3-0.2,0.5c-0.2,0.5-0.2,1-0.2,1.6c0,1.8,0.4,6.6,0.6,9.7c0.1,0.8,0.1,1.5,0.2,2.1h-21c0-5.5,0.1-9.1,0.1-11.6
		l0-0.1c0-1,0-1.8,0.2-2.4c-1.1-0.4-2-1.4-2.8-2.9c-1.5-2.9-2.4-6.3-2.6-10.4c-0.2-0.2-0.3-0.5-0.3-0.6c-0.2-0.4-0.4-0.9-0.5-1.4
		c-0.1-0.5,0-1,0.2-1.4C32.9,23.1,32.9,23,32.8,22.8z"/>
	<path class="st2" d="M48.5,10.7c-0.6,0-1.3-0.3-1.9-0.5c-0.4-0.1-0.7-0.3-1.1-0.4c-0.2,0-0.5-0.2-0.9,0c-0.1,0-0.2,0.1-0.3,0.1
		l0-0.1c0,0,0-0.1,0-0.1c0-0.6,0-1.3,0.3-1.6c0.2-0.2,0.5-0.2,0.8-0.3l2.3-0.6C48.1,7.1,48.6,7,48.9,7c0.5,0.1,0.9,0.5,1.3,0.9
		c-0.3,0.7-0.6,1.7-0.7,2.7C49.2,10.7,48.8,10.8,48.5,10.7z"/>
	<path class="st2" d="M45,22c0.7,1.1,2,1.4,3.1,1.6c0.7,0.1,1.3,0.1,2,0.2c-0.7,0.4-1.2,0.9-1.7,1.5c-0.2,0.2-0.3,0.4-0.5,0.6
		c-1.3,0-2.6-0.3-3.9-0.7c-0.4-0.1-0.9-0.3-1.2-0.6c-0.5-0.4-0.8-1-1.2-1.8c-0.6-1.3-1-2.3-1.4-3.1c-0.6-1.3-1.1-2.3-1.6-3.7
		c-0.3-0.7-0.5-1.4-0.5-2c0.1-0.6,0.4-1.3,0.8-1.7c0.2-0.2,0.3-0.3,0.5-0.5c0.6-0.6,0.9-0.9,1.8-1.2c0.2,0,0.9,0,1.4,0.1
		c0,0.6,0.1,1.2,0.1,1.8l0,0c-0.3,0.8-0.4,1.7-0.3,2.7c0,0.3,0,0.6,0.1,0.9c0,0,0,0,0,0.1l0,0c0.1,0.5,0.4,1,0.8,1.4
		c0.1,0.1,0.2,0.2,0.3,0.3c0.1,0.7,0.5,2,1,3.5C44.7,21.5,44.8,21.8,45,22z"/>
	<path class="st2" d="M46.4,21.1c-0.1-0.1-0.2-0.3-0.2-0.5c-0.3-0.7-0.5-1.3-0.6-1.8c1.2,0.5,2.5,0.8,3.7,1.1c0.3,0,0.6,0.1,0.9,0.1
		c0.1,0,0.2,0,0.2,0c0.1,0.6,0.4,1.3,0.8,2.1c-1,0-2,0-3-0.2C47.7,21.8,46.8,21.6,46.4,21.1z"/>
	<path class="st2" d="M60.4,15c-0.4-0.5-0.9-0.9-1.3-1.4c0.4-1.4,0-2.9-0.9-4c0.1,0.8,0,1.7-0.3,2.5c-0.3-0.3-0.6-0.6-0.9-0.8
		c-1.7-1.2-3.9-1.2-5.6-0.9c0.3-2.1,1.6-3.6,1.9-3.8c0.5-0.3,3.2-0.5,4.4,0.6c0.1,0.1,0.5,0.6,0.7,0.9c0.4,0.6,0.7,1,0.9,1.2
		c0.2,0.2,0.4,0.3,0.5,0.4c0.1,0.1,0.3,0.2,0.4,0.3c0.1,0.1,0.3,0.3,0.4,0.4c0.2,0.8,0.3,1.7,0.3,2.5C60.9,13.6,60.7,14.4,60.4,15z"
		/>
	<path class="st2" d="M36.3,28.6c0.4,0.5,0.8,1,1.3,1.5c0.9,0.7,2.1,0.9,3,1c0.3,0,0.6,0.1,0.9,0.1c0.2,0,0.5,0,0.8-0.1
		c0.6-0.2,1-0.5,1.4-0.8l0.9-0.7c-1.4,1.6-2.1,3.8-1.1,7.5c0,0,0.3-3.4,1.4-4.8c0.5,3.1,3.3,5,3.3,5c-2.3-4.6-1.8-5.7-1.4-6.6
		c0.2-0.7,0.6-1.3,1.1-2c0.6-0.8,1.2-1.6,1.9-2.4c0.6-0.7,1.3-1.3,2-1.4c2.1-0.1,1.6,2,4.4,2.9l-1.5-3.1c0.8,0.3,2.3,1,4-0.3
		c0,0-5.9-0.5-6.3-5.3c1.2-0.4,1.8-0.9,3-2.3c0,0-3.8,1.8-9.1,0.1c-0.6-0.2-1.1-0.5-1.5-0.9c-0.2-0.2-0.3-0.4-0.4-0.6
		c0-0.2,0-0.3-0.1-0.5c0,0,0,0,0,0l0,0c-0.1-1.7,0.4-2.7,1-3.4c0.3,0.1,0.6,0.2,0.9,0.3c0.7,0.2,1.4,0.5,2.1,0.6
		c-0.4,0.8-1,1.5-1.8,2c0.7,0.1,1.4-0.2,1.9-0.7c0.4-0.4,0.7-0.8,1-1.3c0.5,0,0.9-0.1,1.3-0.2l0.2,0c1.6-0.3,3.9-0.5,6,1.6
		c3.5,5.9,8.6,7,7.1,10.4c-0.2,0.5-0.6,1.1-1,1.6C62,27,59.2,29.8,58,31c0,0,1.5,0,3.4-1.2c-0.3,1-0.5,2-0.8,2.9
		c-0.4,1-0.8,1.8-1.2,2.6c-1.4,2.3-3.3,3.4-4.6,4c-0.6,0.2-1.2,0.2-1.9,0.2c-1.7,0-2.1-0.5-4.1-1.6c1.6,2.6,4.4,4.1,8.5,2.8
		c-0.5,0.8-1.2,1.5-2.1,1.9c0.7,0.1,1.3,0,1.9-0.3c0,0.1,0,0.2,0,0.3c0,1.9,0.4,6.7,0.6,9.8c0,0.1,0,0.1,0,0.2h-7.8
		c-0.6-5.3-1.6-12.2-1.6-12.2s0,7.8,0,12.2h-2.5c-0.2-6-0.5-14.1-0.5-14.1s-0.5,8.3-0.8,14.1h-4.1c0-4.5,0.1-7.6,0.1-9.9l0-0.1
		c0-1.6,0.1-2,0.5-2.6l1.1-1.5l-1.9,0.1c-1.2,0-2.1-1.4-2.5-2.2c-1.3-2.5-2.1-5.5-2.3-9c0,0,0,0,0,0C35.7,27.8,36,28.2,36.3,28.6z"
		/>
	<path class="st3" d="M45.1,11.6c0.3,0.1,0.6,0.2,0.9,0.3c0.7,0.2,1.4,0.5,2.1,0.6c-0.2,0.4-0.5,0.8-0.8,1.2c-1-0.1-2-0.4-2.9-0.8
		C44.5,12.3,44.8,11.9,45.1,11.6z"/>
	<path class="st2" d="M34.2,19.3c0.4-0.7,0.8-1.4,1.2-2.1c0.1-0.2,0.2-0.4,0.3-0.5c0.1-0.2,0.1-0.3,0.3-0.4c0.2-0.1,0.5-0.2,0.7-0.2
		c0,0.1,0.1,0.2,0.1,0.3c0.6,1.4,1,2.5,1.6,3.8c0.4,0.9,0.8,1.8,1.4,3.1c0.5,1.1,1,1.8,1.6,2.4c0.6,0.5,1.2,0.8,1.8,1
		c0.5,0.2,0.9,0.3,1.4,0.4l-2.2,1.7c-0.3,0.2-0.5,0.4-0.8,0.5c-0.3,0.1-0.6,0-0.9,0c-0.8-0.1-1.6-0.2-2.2-0.7
		c-0.3-0.2-0.6-0.6-0.9-1c-1.2-1.8-2.4-3.6-3.4-5.6c-0.3-0.6-0.5-1.1-0.5-1.6C33.8,20.1,34,19.8,34.2,19.3z"/>
	<path class="st4" d="M44.2,22.3c0.2-0.3,0.1-1.5,0.1-1.7c0.1,0.2,0.1,0.4,0.2,0.7c0.1,0.3,0.2,0.6,0.4,0.8c0.7,1.1,2,1.4,3.1,1.6
		c0.7,0.1,1.3,0.1,2,0.2c-0.7,0.4-1.2,0.9-1.7,1.5c-0.2,0.2-0.3,0.4-0.5,0.6c-1.3,0-2.6-0.3-3.9-0.7c-0.4-0.1-0.9-0.3-1.2-0.6
		c-0.2-0.1-0.3-0.3-0.4-0.5C42.8,23.3,43.7,23,44.2,22.3z"/>
	<path class="st4" d="M46.4,21.1c-0.1-0.1-0.2-0.3-0.2-0.5c-0.3-0.7-0.5-1.3-0.6-1.8c1.2,0.5,2.5,0.8,3.7,1.1c0.3,0,0.6,0.1,0.9,0.1
		c0.1,0,0.2,0,0.2,0c0.1,0.6,0.4,1.3,0.8,2.1c-1,0-2,0-3-0.2C47.7,21.8,46.8,21.6,46.4,21.1z"/>
	<path class="st4" d="M57.7,7.1c0.1,0.1,0.5,0.6,0.7,0.9c0.4,0.6,0.7,1,0.9,1.2c0.2,0.2,0.4,0.3,0.5,0.4c0.1,0.1,0.3,0.2,0.4,0.3
		c0.1,0.1,0.3,0.3,0.4,0.4c0.2,0.8,0.3,1.7,0.3,2.5c0,0.7-0.2,1.4-0.6,2.1c-0.4-0.5-0.9-0.9-1.3-1.4c0.4-1.3,0.1-2.8-0.8-3.8
		C58.2,8.8,58,7.9,57.7,7.1C57.6,7.1,57.7,7.1,57.7,7.1z"/>
	<path class="st4" d="M46.3,14.4C46.3,14.5,46.3,14.5,46.3,14.4c0.7,0.1,1.4-0.2,1.9-0.7c0.4-0.4,0.7-0.8,1-1.3c0.1,0,0.2,0,0.3,0
		c0.1,0.3,0,0.6-0.1,0.8c-0.6,0.9-1.5,2.4-0.1,2.9c1.6,0.5,3.8-0.7,4.7,0.7c0.2,0.3-0.6,0.5-1.3,0.7c-1.6,0.2-3.9,0.3-6.6-0.6
		c-0.6-0.2-1.1-0.5-1.5-0.9c-0.2-0.2-0.3-0.4-0.4-0.6c0-0.2,0-0.3-0.1-0.5c0,0,0,0,0,0l0,0c0-0.4,0-0.8,0-1.1
		C44.7,14.3,45.6,14.6,46.3,14.4z"/>
	<path class="st4" d="M35.4,27.4c0.2,3.5,1,6.5,2.3,9c0.4,0.9,1.4,2.3,2.5,2.2l1.9-0.1L41,40c-0.5,0.6-0.5,1-0.5,2.6l0,0.1
		c0,2.3-0.1,5.3-0.1,9.9h4.1c0.3-5.8,0.8-14.1,0.8-14.1s0.3,8.1,0.5,14.1h2.5c0-4.4,0-12.2,0-12.2s1,6.9,1.6,12.2h7.8
		c0-0.1,0-0.1,0-0.2c-0.2-3.1-0.6-7.9-0.6-9.8c0-0.1,0-0.2,0-0.3c-0.6,0.3-1.3,0.4-1.9,0.3c0.9-0.4,1.6-1.1,2.1-1.9
		c-4.1,1.4-7-0.2-8.5-2.8c2,1.1,2.4,1.6,4.1,1.6c0.6,0,1.3-0.1,1.9-0.2c1.4-0.6,3.2-1.7,4.6-4c0.5-0.8,0.8-1.6,1.2-2.6
		c0.4-0.9,0.6-1.9,0.8-2.9C59.5,31,58,31,58,31c1.2-1.2,4.1-4,4.9-5.1c0.4-0.5,0.8-1,1-1.6c0.3-0.7,0.3-1.3,0.1-1.9
		c-0.2,1.4-1,2.6-2.2,3.2c-1,0.3-2.1,0.3-3.1,0.1c1.3-0.4,1.9-0.7,2.2-1.3c-3.1-1.3-5.1-2.1-6.1-4c-0.7-0.9-0.6-1.8-0.3-2.6
		c-0.2,0.2-0.3,0.3-0.5,0.5c-0.6,0.5-1.1,0.8-1.8,1.1c0.5,4.8,6.3,5.3,6.3,5.3c-1.7,1.3-3.1,0.6-4,0.3l1.5,3.1
		c-1.9-0.6-2.3-1.8-3-2.4c-0.3-0.3-0.7-0.5-1.4-0.5c-0.7,0-1.4,0.7-2,1.4c-0.7,0.8-1.3,1.6-1.9,2.4c-0.5,0.7-0.9,1.3-1.1,2
		c-0.3,0.9-0.9,2,1.4,6.6c0,0-2.8-1.9-3.3-5c-1.1,1.3-1.4,4.8-1.4,4.8c-1-3.7-0.3-5.9,1.1-7.5l-0.9,0.7c-0.4,0.3-0.8,0.6-1.4,0.8
		c-0.3,0.1-0.5,0.1-0.8,0.1c-0.3,0-0.6,0-0.9-0.1c-0.9-0.1-2.1-0.3-3-1c-0.5-0.4-0.9-0.9-1.3-1.5C36,28.2,35.7,27.8,35.4,27.4
		C35.4,27.4,35.4,27.4,35.4,27.4z M56,25.9c1.2,0.6,2.6,1,4,0.9c-0.1,0.1-0.1,0.2-0.1,0.3C58.5,28.8,56.9,27.3,56,25.9z M48.3,35.6
		c-1.5-5,2.1-8.9,3.9-9.3c0.5-0.1,2.9,2.5,4.1,2.9c0.4,0.1,1,0.2,1.2,0.5c0.4,0.6-0.6,1.6-0.6,1.6c0.5,0.2,1.8,0.8,1.2,2.1
		c-0.4,0.9-0.9,1.3-1.9,2.1C50.5,39.2,48.5,36.3,48.3,35.6z"/>
	<path class="st4" d="M40.4,24.4c0.3,0.6,0.7,1,1.1,1.4c0.6,0.5,1.2,0.8,1.8,1c0.5,0.2,0.9,0.3,1.4,0.4l-2.2,1.7
		c-0.3,0.2-0.5,0.4-0.8,0.5c-0.3,0.1-0.6,0-0.9,0c-0.8-0.1-1.6-0.2-2.2-0.7c-0.1-0.1-0.2-0.1-0.2-0.2c0.7-1,1.5-1.9,2-3.1
		C40.5,25.1,40.5,24.8,40.4,24.4z"/>
	<path class="st3" d="M48.8,9.9c-0.1,0-0.2,0-0.3,0c-0.5,0-1.1-0.2-1.7-0.5c-0.4-0.1-0.7-0.3-1.2-0.4C45.6,9.1,45.3,9,45,9
		c0-0.1,0-0.2,0.1-0.2c0.1-0.1,0.3-0.1,0.5-0.2L47.9,8c0.3-0.1,0.7-0.2,0.9-0.2c0.1,0,0.2,0.1,0.5,0.3C49.1,8.7,48.9,9.3,48.8,9.9z"
		/>
	<path class="st3" d="M42.4,22.6c0-0.1-0.1-0.1-0.1-0.2c-0.6-1.3-1-2.3-1.4-3.1c-0.6-1.3-1.1-2.3-1.6-3.6c-0.2-0.6-0.5-1.2-0.4-1.7
		c0-0.4,0.3-0.9,0.6-1.2c0.2-0.2,0.3-0.3,0.5-0.5c0.6-0.6,0.8-0.8,1.4-1c0.1,0,0.2,0,0.5,0c0,0.4,0.1,0.7,0.1,1
		c-0.3,0.8-0.4,1.7-0.3,2.7c0,0.3,0,0.7,0.1,1.1l0,0c0,0.1,0,0.2,0.1,0.2c0.2,0.6,0.5,1.2,1,1.6c0,0,0.1,0.1,0.1,0.1
		c0.1,0.8,0.5,2,1,3.4C43.3,21.8,42.8,22.2,42.4,22.6z"/>
	<path class="st3" d="M57.7,8.5c0.1,0.1,0.1,0.2,0.2,0.3c0,0-0.1,0-0.1,0c-0.3,0.2-0.5,0.5-0.5,0.8c0,0.3,0.1,0.6,0,0.9
		c-1.3-0.9-2.9-1.3-5-1.2c0.4-1.2,1.1-2,1.3-2.2C54.2,7,56.3,7,57.1,7.7C57.3,7.8,57.6,8.3,57.7,8.5z"/>
	<path class="st2" d="M41.2,36.9c-2.6,0.1-3.2-3.3-3.6-5.4c1.5,0.5,2.9,1.7,4.5,1.4c-0.1,0.9-0.1,1.9,0.1,3.1
		C42.1,36.5,41.7,36.9,41.2,36.9z"/>
	<path class="st2" d="M44.3,35.8c0.1-0.4,0.2-0.8,0.3-1.2c0.7,1.5,1.8,2.5,2.4,3.1C46,37.2,44.9,36.7,44.3,35.8z"/>
	<path class="st3" d="M52.5,12.8c1.2,0,2.4,0.3,3.6,1.5c1.6,2.6,3.4,4.3,4.8,5.6c1.2,1.1,2,1.9,2.3,2.6c0.4,1.5-2.1,1.5-2.7,0.6
		c-2.9-4.2-3.7-6.1-5-7c0,0-2.2-2.1-5.8-0.5C49.4,15.5,49.8,13.1,52.5,12.8z"/>
	<path class="st3" d="M48.7,32.6c0.2-1.5,0.7-2.9,1.5-4.2c0.5-0.7,1.4-1.3,2.3-0.8c1.6,1.1,2.5,3.1,4.1,4.1c0.9,2.1-3.2,0.5-6.6,4.1
		C48.7,34.9,48.6,33.7,48.7,32.6z"/>
	<path class="st3" d="M34.9,19.7C34.9,19.7,34.9,19.7,34.9,19.7c0.3-0.7,0.7-1.4,1.2-2c0.1-0.1,0.2-0.3,0.2-0.4
		c0.5,1.2,0.9,2.2,1.5,3.4c0.4,0.8,0.8,1.8,1.4,3.1c0.2,0.5,0.4,0.9,0.7,1.3c-0.6,0.6-1.1,1.3-1.6,2.1c-1.2-1.7-2.3-3.5-3.3-5.4
		c-0.2-0.3-0.4-0.9-0.4-1.2C34.6,20.3,34.8,20,34.9,19.7z"/>
</g>
<g>
	<path class="st0" d="M70,52.1C70,52.1,70,52.1,70,52.1c0-0.3-0.1-0.6-0.2-0.9c-0.9-1.7-4.6-3-9.1-3c-4.5,0-8.2,1.3-9.1,3
		c-0.1,0.2-0.2,0.5-0.2,0.7c0,0,0,0.1,0,0.1c0,0,0,0.1,0,0.1v1.7c0,0,0,0.1,0,0.1c0,0,0,0.1,0,0.1c0,0.6,0.4,1.2,1,1.7
		c1.5,1.2,4.6,2,8.3,2c3.6,0,6.7-0.8,8.3-2c0.6-0.5,1-1.1,1-1.7h0v0c0,0,0,0,0,0c0,0,0,0,0,0V52.1z M69,52.7
		c-0.1,0.1-0.1,0.2-0.2,0.3c-0.9,1-3.1,1.7-5.6,2c-0.8,0.1-1.7,0.2-2.5,0.2c-0.8,0-1.7-0.1-2.5-0.2c-2.4-0.3-4.7-1-5.6-2
		c-0.1-0.1-0.2-0.2-0.2-0.3c-0.1-0.1-0.1-0.2-0.2-0.3c0-0.1,0-0.2,0-0.3V52c0,0,0,0,0,0c0-0.3,0.1-0.5,0.3-0.7
		c1.1-1.4,4.8-2.3,8.2-2.3c3.4,0,7.1,0.9,8.2,2.3c0.2,0.2,0.3,0.5,0.3,0.7c0,0,0,0.1,0,0.1c0,0.1,0,0.2,0,0.3
		C69.1,52.5,69.1,52.6,69,52.7z"/>
	<path class="st1" d="M69.2,52c0-0.3-0.1-0.5-0.3-0.7c-1.1-1.4-4.8-2.4-8.2-2.4c-3.4,0-7.1,1-8.2,2.4c-0.2,0.2-0.3,0.5-0.3,0.7
		c0,0,0,0,0,0v0.1c0,0.1,0,0.2,0,0.3c0,0.1,0.1,0.2,0.2,0.3c0.1,0.1,0.1,0.2,0.2,0.3c0.9,1,3.1,1.7,5.6,2c0.8,0.1,1.7,0.2,2.5,0.2
		c0.8,0,1.7-0.1,2.5-0.2c2.4-0.3,4.7-1,5.6-2c0.1-0.1,0.2-0.2,0.2-0.3c0.1-0.1,0.1-0.2,0.2-0.3C69.2,52.3,69.2,52.1,69.2,52
		C69.2,52,69.2,52,69.2,52z"/>
</g>
<g>
	<path class="st0" d="M52.5,53.4C52.5,53.4,52.5,53.4,52.5,53.4c0-0.3-0.1-0.6-0.2-0.9c-0.9-1.7-4.6-3-9.1-3c-4.5,0-8.2,1.3-9.1,3
		c-0.1,0.2-0.2,0.5-0.2,0.7c0,0,0,0.1,0,0.1c0,0,0,0.1,0,0.1v1.7c0,0,0,0.1,0,0.1c0,0,0,0.1,0,0.1c0,0.6,0.4,1.2,1,1.7
		c1.5,1.2,4.6,2,8.3,2c3.6,0,6.7-0.8,8.3-2c0.6-0.5,1-1.1,1-1.7h0v0c0,0,0,0,0,0c0,0,0,0,0,0V53.4z M51.5,54
		c-0.1,0.1-0.1,0.2-0.2,0.3c-0.9,1-3.1,1.7-5.6,2c-0.8,0.1-1.7,0.2-2.5,0.2c-0.8,0-1.7-0.1-2.5-0.2c-2.4-0.3-4.7-1-5.6-2
		c-0.1-0.1-0.2-0.2-0.2-0.3c-0.1-0.1-0.1-0.2-0.2-0.3c0-0.1,0-0.2,0-0.3v-0.1c0,0,0,0,0,0c0-0.3,0.1-0.5,0.3-0.7
		c1.1-1.4,4.8-2.3,8.2-2.3c3.4,0,7.1,0.9,8.2,2.3c0.2,0.2,0.3,0.5,0.3,0.7c0,0,0,0.1,0,0.1c0,0.1,0,0.2,0,0.3
		C51.7,53.8,51.6,53.9,51.5,54z"/>
	<path class="st1" d="M51.7,53.3c0-0.3-0.1-0.5-0.3-0.7c-1.1-1.4-4.8-2.4-8.2-2.4c-3.4,0-7.1,1-8.2,2.4c-0.2,0.2-0.3,0.5-0.3,0.7
		c0,0,0,0,0,0v0.1c0,0.1,0,0.2,0,0.3c0,0.1,0.1,0.2,0.2,0.3c0.1,0.1,0.1,0.2,0.2,0.3c0.9,1,3.1,1.7,5.6,2c0.8,0.1,1.7,0.2,2.5,0.2
		c0.8,0,1.7-0.1,2.5-0.2c2.4-0.3,4.7-1,5.6-2c0.1-0.1,0.2-0.2,0.2-0.3c0.1-0.1,0.1-0.2,0.2-0.3C51.7,53.6,51.7,53.5,51.7,53.3
		C51.7,53.3,51.7,53.3,51.7,53.3z"/>
</g>
<g>
	<polygon points="78.4,30.4 76.4,29.6 76.5,38.9 69.9,24.3 72.2,25.1 71.2,20.7 73.7,21.6 73.3,11.9 80.2,26.9 77.6,26 	"/>
	<polygon class="st1" points="75,32.5 71.9,25.8 74,26.6 72.9,22.1 75.1,23 75,18.4 78.2,25.4 76,24.6 76.8,29 74.9,28.3 	"/>
</g>
<g>
	<polygon points="33.1,3 33.6,4.5 38.7,0.3 33.4,10.6 32.9,8.9 30.8,11.5 30.2,9.6 24.9,14.2 30.3,3.6 30.9,5.5 	"/>
	<polygon class="st1" points="35.8,4 33.4,8.7 32.9,7.3 30.9,9.9 30.3,8.2 27.8,10.3 30.3,5.4 30.9,7 33,4.6 33.4,6 	"/>
</g>
<g>
	<polygon points="14.7,25.2 16.9,24.9 12.6,16.7 25.1,26.7 22.6,27 25.6,30.5 23,30.8 27.8,39.2 14.8,29 17.5,28.7 	"/>
	<polygon class="st1" points="16.8,21.7 22.6,26.3 20.5,26.5 23.5,30 21.1,30.3 23.3,34.2 17.3,29.5 19.6,29.2 16.8,25.7 18.8,25.4 
			"/>
</g>
</svg>
