<svg xmlns="http://www.w3.org/2000/svg" width="89" height="69" viewBox="0 0 89 69">
    <g fill="none" fill-rule="evenodd">
        <g>
            <g>
                <g>
                    <g>
                        <path fill="#252525" d="M3.507 17.902L57.863 17.902 57.863 12.902 3.507 12.902zM3.22 52.991L63.713 52.991 63.713 49.991 3.22 49.991z" transform="translate(-1190 -960) translate(449 875) translate(741 85)"/>
                        <path fill="#252525" d="M0 53.35L4.121 53.35 4.121 16.35 0 16.35zM56.82 54.049L61.083 54.049 61.083 16.35 56.82 16.35z" transform="translate(-1190 -960) translate(449 875) translate(741 85)"/>
                        <path fill="#86E3FF" d="M3.08 49.991L24.121 49.991 24.121 16.676 3.08 16.676zM36.962 49.991L58.003 49.991 58.003 16.676 36.962 16.676z" transform="translate(-1190 -960) translate(449 875) translate(741 85)"/>
                        <path fill="#252525" d="M24.122 50.819L36.962 50.819 36.962 16.569 24.122 16.569z" transform="translate(-1190 -960) translate(449 875) translate(741 85)"/>
                        <path fill="#FF3434" d="M27.592 50.132L33.491 50.132 33.491 16.132 27.592 16.132z" transform="translate(-1190 -960) translate(449 875) translate(741 85)"/>
                        <path fill="#252525" d="M23.068 13.339L38.094 13.339 38.094 3.088 23.068 3.088z" transform="translate(-1190 -960) translate(449 875) translate(741 85)"/>
                        <path fill="#FF3434" d="M26.329 13.339L34.755 13.339 34.755 5.88 26.329 5.88zM38.094 13.339L48.907 13.339 48.907 3.088 38.094 3.088zM12.255 13.339L23.068 13.339 23.068 3.088 12.255 3.088z" transform="translate(-1190 -960) translate(449 875) translate(741 85)"/>
                        <path fill="#252525" d="M38.094 3.088L48.907 3.088 48.907.088 38.094.088zM12.255 3.088L23.068 3.088 23.068.088 12.255.088zM48.907 13.339L51.907 13.339 51.907 3.088 48.907 3.088zM9.255 13.339L12.255 13.339 12.255 3.088 9.255 3.088z" transform="translate(-1190 -960) translate(449 875) translate(741 85)"/>
                    </g>
                    <g>
                        <path fill="#FDD76F" d="M44.807 13.888L42.144 13.888 42.144 16.02 34.315 8.225 36.936 5.615 34.039 2.73 25.776 11.668 25.593 13.837 22.297 10.555 24.968 7.896 22.407 5.346 3.074 24.596 4.674 25.752 4.674 28.001 6.924 28.001 6.924 25.761 9.349 25.719 9.349 28.05 11.739 28.044 11.631 30.375 14.055 30.375 14.055 32.633 11.631 32.633 11.631 35.132 14.055 35.132 14.055 37.355 16.478 37.355 24.263 29.613 24.153 30.919 28.256 35.004 44.733 18.598 42.665 16.539 44.807 16.539z" transform="translate(-1190 -960) translate(449 875) translate(741 85) translate(39 29)"/>
                        <path fill="#252525" d="M18.797 35.203v2.415h-2.315v2.152h-2.426v-2.415h2.315v-2.152h2.426zm-4.74-14.138v2.24h2.425v2.414h2.315v2.283h2.425v2.415h2.172v-2.415h2.374V25.72h2.249v-2.415h2.425v-2.24h2.426v2.416h-2.426v2.239h-2.249v2.415H25.82v2.283h-2.315v2.371h2.315v2.24h2.374v2.414h-2.425v-2.239h-2.374v-2.371h-2.172v2.371h-2.425v-2.415h2.282v-2.37h-2.282v-2.284H16.37v-2.415h-2.315v-2.24h-2.425v-2.414h2.425zm-9.383 0v2.415H2.425v2.239h2.25v2.283h2.248V25.72H9.35v2.283h2.387v2.371h2.32v2.415h-2.282v2.152h2.282v2.415h-2.425v-2.152H9.349v-2.415h2.282v-2.37h-2.32v-2.284H7.1v2.283H4.674v-2.283H2.25v-2.415H0v-2.415h2.25v-2.24h2.424zm32.901 4.654v2.415h-2.282v2.415h-2.425v2.24h-2.25v2.239h-2.425v-2.416h2.25v-2.239h2.425v-2.24h2.282V25.72h2.425zm-4.707 0v2.415h-2.426v-2.415h2.426zm9.415-4.654v2.415H40v2.24h-2.426v-2.416h2.282v-2.24h2.426zm-6.99-7.07v2.273h2.282v2.415h-2.282v2.376h-2.425v-2.415h2.282v-2.233h-2.282v-2.415h2.425zM9.35 16.412v2.233h2.425v2.415H9.35v-2.234h-2.25v2.234H4.675v-2.415h2.25v-2.233h2.425zm37.641 0v2.414h-2.282v2.234h-2.425v-2.415h2.282v-2.233h2.425zm2.426-2.415v2.415H46.99v-2.415h2.426zM35.293 0v2.272h2.282v2.415H35.15V2.415h-2.282v2.272H30.54v2.415h-2.348v2.24H25.82v2.414h2.373v2.24h2.25V11.58h2.425v2.415h-2.25v2.415h-2.425v-2.24h-2.425v-2.415h-2.374V9.341h2.374v-2.24h-2.262V4.688h2.426v2.24h2.184v-2.24h2.326V2.272h2.426V0h2.425zM14.056 11.756v2.415h-2.282v2.24H9.35v-2.415h2.282v-2.24h2.425zm25.945-2.415v2.24h2.282V9.34h2.425v2.24h2.282v2.415h-2.425v-2.24h-2.282v2.24h-2.426v-2.24h-2.282V9.341h2.426zM21.079 4.687v2.415h-2.282v2.24h-2.315v2.414h-2.426V9.341h2.315V6.926h2.283V4.687h2.425zm18.922 0v2.415h-2.426v2.24H35.15V6.925h2.425V4.687h2.426zM23.506 2.272v2.415h-2.425V2.272h2.425z" transform="translate(-1190 -960) translate(449 875) translate(741 85) translate(39 29)"/>
                        <path fill="#FFF1C9" d="M42.347 16.296h2.225V14.13h-2.225v2.166zm-9.483-9.37h2.286V4.735h-2.286v2.193zm-9.358 4.743h2.27V9.436h-2.27v2.233zm7.106 6.928h2.191v-2.14h-2.191v2.14zM44.7 13.996v-2.327h-2.418v2.28h-2.354v-2.28h-2.361V9.295h-2.346v-2.32h2.346V4.512H35.15v-2.24h-2.418V4.64h-2.286v2.462h-2.253v2.193h-2.362v-2.32h-2.325V4.64h-2.418v2.462h2.325v2.193h-2.325v2.461h2.325v2.374h2.418v2.304h2.362v2.324h2.253v2.3h2.418v-2.3h2.358v-2.462h-2.358v-2.3h-2.418v2.3H28.25v-2.324h-2.418v-2.216h2.363V9.564h2.418V7.102h2.191v2.286h2.347v2.368h2.36v2.374h2.42v2.28h2.224v2.187h-2.225v2.356h-2.418v2.412H35.15v2.285h-2.347v2.303h-2.357v2.461h2.418v-2.302h2.358v-2.285h2.346v-2.412h2.361V21.06h2.418v-2.3h2.225v-2.301h2.418v-2.462h-2.289z" transform="translate(-1190 -960) translate(449 875) translate(741 85) translate(39 29)"/>
                        <path fill="#FFF1C9" d="M11.739 28.044h2.244v-2.283h-2.244v2.283zm16.285 4.61h-2.193V30.35h-2.325v-2.235h2.318v-2.461h-2.418v2.325h-2.318v2.394H18.83v-2.329h-2.423V25.72h-2.352V23.43H11.63v2.29H9.349v2.33h2.282v2.325h2.424V28.05h2.352v2.325h2.318v2.33h-2.318v2.15h-2.352v-2.222H11.63v2.499h2.424v2.223h2.423v-2.152h2.352v-2.499h2.32v-2.263h2.263v2.37h2.418v2.304h2.418V32.77h2.193v-2.462h-2.418v2.346z" transform="translate(-1190 -960) translate(449 875) translate(741 85) translate(39 29)"/>
                        <path fill="#FFF1C9" d="M28.138 23.415L30.446 23.415 30.446 21.065 28.138 21.065 25.831 21.065 25.831 23.415 25.831 25.719 28.138 25.719zM4.674 28L6.923 28 6.923 25.761 4.674 25.761z" transform="translate(-1190 -960) translate(449 875) translate(741 85) translate(39 29)"/>
                        <path fill="#F4E1BA" d="M11.756 23.39L11.756 21.059 9.434 21.059 9.434 18.769 11.767 18.769 11.767 16.545 14.121 16.545 14.121 14.218 16.474 14.218 16.474 11.756 18.777 11.756 18.777 9.436 21.079 9.436 21.079 6.974 18.661 6.974 18.661 9.295 16.358 9.295 16.358 11.756 14.056 11.756 14.056 14.083 11.702 14.083 11.702 16.411 9.349 16.411 9.349 18.735 7.015 18.735 7.015 21.059 4.674 21.059 4.674 23.422 2.334 23.422 2.334 25.753 4.674 25.753 4.674 23.48 7.015 23.48 7.015 21.094 9.332 21.094 9.332 23.39z" transform="translate(-1190 -960) translate(449 875) translate(741 85) translate(39 29)"/>
                        <path fill="#F77E00" d="M18.771 16.342L16.407 16.342 16.407 21.059 21.12 21.059 21.12 18.688 18.771 18.688 18.771 16.41 21.12 16.41 21.12 18.688 23.468 18.688 23.468 13.996 18.771 13.996zM23.394 23.304L21.037 23.304 21.037 25.719 23.462 25.719 23.462 23.411 25.819 23.411 25.819 21.065 28.193 21.065 28.193 18.65 25.768 18.65 25.768 20.996 23.394 20.996z" transform="translate(-1190 -960) translate(449 875) translate(741 85) translate(39 29)"/>
                    </g>
                </g>
            </g>
        </g>
    </g>
</svg>
