<svg xmlns="http://www.w3.org/2000/svg" width="37" height="37" viewBox="0 0 37 37">
    <g fill="none" fill-rule="evenodd">
        <g>
            <g>
                <path fill="#FFF" d="M29.474 19.102c.186.119.374.238.565.357l-.474.761c-.194-.121-.385-.241-.574-.362l.483-.756zm-2.186-1.447c.35.242.712.485 1.083.731l-.494.748c-.377-.248-.742-.495-1.097-.739l.508-.74zm-2.122-1.521c.339.253.69.51 1.053.77l-.522.73c-.368-.264-.725-.525-1.068-.783l.537-.717zm-2.052-1.611c.324.267.663.54 1.017.816l-.554.707c-.359-.282-.704-.559-1.034-.83l.57-.693zm-1.968-1.708c.305.28.63.57.972.866l-.588.679c-.349-.303-.679-.597-.99-.884l.606-.661zm-1.86-1.816c.28.293.585.6.914.923l-.626.642c-.338-.33-.65-.646-.936-.946l.649-.62zm-1.708-1.945c.254.318.534.651.832.99l-.674.592c-.307-.35-.597-.694-.86-1.025l.702-.557zm-1.102-1.56l.017.03c.037.064.14.236.321.5l-.74.507c-.26-.381-.378-.594-.383-.603l.785-.433z" transform="translate(-378.000000, -153.000000) translate(379.000000, 154.000000)"/>
                <path fill="#000" fill-opacity=".219" d="M19.605 17.548l-.704 1.818c-.064.165-.042.35.057.496l1.098 1.61c.251.368-.029.865-.474.84l-1.945-.108c-.177-.01-.347.069-.455.209l-1.192 1.541c-.272.353-.83.24-.945-.191l-.499-1.883c-.045-.172-.172-.31-.338-.369l-1.835-.656c-.42-.15-.485-.717-.11-.959L13.9 18.84c.149-.096.24-.259.246-.436l.057-1.948c.014-.445.532-.682.878-.4l1.51 1.23c.138.112.32.149.49.1l1.871-.548c.428-.125.813.295.653.71" transform="translate(-378.000000, -153.000000) translate(379.000000, 154.000000)"/>
                <path fill="#FFF" d="M19.605 16.845l-.704 1.817c-.064.165-.042.35.057.497l1.098 1.61c.251.368-.029.864-.474.84l-1.945-.108c-.177-.01-.347.068-.455.208L15.99 23.25c-.272.352-.83.24-.945-.192l-.499-1.883c-.045-.171-.172-.309-.338-.369l-1.835-.657c-.42-.15-.485-.716-.11-.958l1.637-1.056c.149-.096.24-.26.246-.436l.057-1.948c.014-.445.532-.682.878-.4l1.51 1.23c.138.112.32.149.49.1l1.871-.547c.428-.126.813.294.653.71" transform="translate(-378.000000, -153.000000) translate(379.000000, 154.000000)"/>
                <path fill="#F15A24" d="M5.3 25.18c.182-.113.36-.209.537-.298-1.19.226-2.248.394-3.128.516.65.491 1.285.588 2.59-.218" transform="translate(-378.000000, -153.000000) translate(379.000000, 154.000000)"/>
                <g fill="#FFF" stroke="#FFF">
                    <path d="M7.806 23.782c.72 0 1.367.228 1.91.686.317.266 1.355 1.246 1.406 2.647.034.934-.372 1.82-1.206 2.634l-.066.053c-.712.47-.502 1.647.074 2.568.806 1.29 2.385 2.258 3.957 1.33 4.78-2.455 11.767-9.288 19.699-19.252.394-.496.506-.998.37-1.57-.3-1.244-1.707-2.484-2.88-3.019-.433-.197-.955-.186-1.395.029-.192.094-.395.215-.609.343-1.028.62-2.436 1.466-4.303-.05-1.574-1.277-.76-3.15.292-5.116.15-.287.16-.641.028-1.049-.309-.95-1.328-2.011-2.481-2.582-.909-.452-2.06-.06-2.566.873C16.37 9.073 4.886 18.563 1.454 21.31c-.352.283-.556.704-.557 1.156-.001.45.198.87.548 1.154l.197.158c.245.197.499.4.725.614.913.866 1.255 1.189 2.697.299.98-.606 1.91-.91 2.742-.91m4.774 11.2c-1.417 0-2.68-.956-3.417-2.136-.943-1.511-.877-3.051.155-3.767.627-.62.932-1.27.908-1.932-.038-1.032-.842-1.786-1.087-1.993-.851-.716-2.13-.61-3.604.3-1.93 1.194-2.696.622-3.784-.41-.2-.187-.428-.37-.67-.564l-.2-.163c-.562-.454-.883-1.13-.88-1.853.001-.724.327-1.4.893-1.853C4.293 17.89 15.662 8.498 19.247 1.88 19.993.505 21.641-.045 23 .63c1.373.68 2.553 1.93 2.936 3.11.207.636.176 1.24-.088 1.744-1.25 2.335-1.375 3.307-.52 4.001 1.38 1.118 2.3.565 3.276-.022.221-.133.45-.27.677-.381.69-.336 1.478-.35 2.161-.04 1.4.64 3.011 2.09 3.379 3.627.2.834.023 1.63-.513 2.304-4.665 5.86-13.428 16.14-19.994 19.512-.587.347-1.173.497-1.734.497" transform="translate(-378.000000, -153.000000) translate(379.000000, 154.000000) translate(0.000000, 0.106470)"/>
                </g>
            </g>
        </g>
    </g>
</svg>
