<svg xmlns="http://www.w3.org/2000/svg" width="81" height="80" viewBox="0 0 81 80">
    <g fill="none" fill-rule="evenodd">
        <g>
            <g>
                <g>
                    <path fill="#FF6E5E" d="M28.897 3.183L51.253 3.183 51.253 6.329 57.657 6.329 57.657 9.474 63.948 9.474 63.948 12.62 67.206 12.62 67.206 16.103 70.576 16.103 70.576 22.281 73.497 22.281 73.497 28.91 76.868 28.91 76.868 38.347 73.722 38.347 73.722 51.041 70.464 51.041 70.464 57.445 67.318 57.445 67.318 60.703 60.803 60.703 60.803 63.848 54.511 63.848 54.511 67.219 25.752 67.219 25.752 63.961 19.236 63.961 19.236 60.927 12.72 60.927 12.72 57.782 9.462 57.782 9.462 51.041 6.429 51.041 6.429 38.347 3.171 38.347 3.171 28.91 6.429 28.91 6.429 22.506 9.799 22.506 9.799 16.215 12.832 16.215 12.832 12.845 15.865 12.845 15.865 9.587 22.381 9.587 22.381 6.553 28.785 6.553z" transform="translate(-1207 -833) translate(1207 833)"/>
                    <path fill="#1D1D1B" d="M28.935 0L28.935 3.183 51.253 3.183 51.253 6.329 57.657 6.329 57.657 2.921 51.253 2.921 51.253 0zM57.657 9.474L63.948 9.474 63.948 6.329 57.657 6.329zM73.746 22.281L73.746 15.903 70.52 15.903 70.52 12.582 67.281 12.582 67.281 9.25 63.948 9.25 63.948 12.582 67.187 12.582 67.187 16.103 70.52 16.103 70.52 22.281 73.497 22.281 73.497 28.91 76.868 28.91 76.868 22.281zM9.647 63.985L9.647 67.219 12.83 67.219 12.83 70.452 15.994 70.452 15.994 73.628 22.249 73.628 22.249 76.862 28.785 76.862 28.785 79.99 51.317 79.99 51.317 76.862 57.72 76.862 57.72 73.628 51.185 73.628 51.185 76.756 28.785 76.756 28.785 73.628 22.53 73.628 22.53 70.395 16.064 70.395 16.064 67.219 12.881 67.219 12.881 63.985zM22.298 3.183L22.298 6.176 15.978 6.176 15.978 9.546 12.62 9.546 12.62 12.917 9.474 12.917 9.474 15.975 6.429 15.975 6.429 22.249 3.083 22.249 3.083 28.903 0 28.903 0 51.191 3.171 51.191 3.171 57.682 6.413 57.682 6.413 63.985 9.647 63.985 9.647 57.57 6.541 57.57 6.541 51.029 3.171 51.029 3.171 28.903 6.453 28.903 6.453 22.628 9.799 22.628 9.799 16.287 12.845 16.287 12.845 12.917 15.99 12.917 15.99 9.546 22.369 9.546 22.369 6.553 28.935 6.553 28.935 3.183zM76.868 28.91L76.868 51.154 73.697 51.154 73.697 57.482 70.427 57.482 70.427 60.657 67.327 60.657 67.327 67.162 64.081 67.162 64.081 70.395 57.72 70.395 57.72 73.628 64.256 73.628 64.256 70.533 67.452 70.533 67.452 67.285 70.697 67.285 70.697 64.11 73.797 64.11 73.797 57.782 77.067 57.782 77.067 51.154 80.238 51.154 80.238 28.91z" transform="translate(-1207 -833) translate(1207 833)"/>
                    <path fill="#D54232" d="M76.941 38.346v12.808h-3.258v6.366h-3.257v3.139h-3.09v6.503h-3.258v3.233H57.72v3.255h-6.434v3.106H28.785V73.65H22.53v-3.255h-6.484v-3.176h-3.19v-3.234h-3.21v-6.196h3.223v3.138h6.367v3.058h6.516v3.084h28.71v-3.205h6.358v-3.205h6.348v-3.252h3.258v-6.366h3.257V38.346h3.258zM9.651 51.03V57.6H6.428v-6.572H9.65zM6.428 38.37V51.03H3.17V38.37h3.258z" transform="translate(-1207 -833) translate(1207 833)"/>
                    <path fill="#FFF" fill-opacity=".6" d="M64.045 26.542L58.707 26.542 58.707 21.517 53.421 21.517 53.421 15.969 26.583 15.969 26.583 21.517 21.613 21.517 21.613 26.542 16.045 26.542 16.045 53.082 21.613 53.082 21.613 58.822 26.583 58.822 26.583 63.969 53.421 63.969 53.421 58.822 58.707 58.822 58.707 53.082 64.045 53.082z" transform="translate(-1207 -833) translate(1207 833)"/>
                </g>
            </g>
        </g>
    </g>
</svg>
