<?xml version="1.0" encoding="UTF-8"?>
<svg width="81px" height="80px" viewBox="0 0 81 80" version="1.1" xmlns="http://www.w3.org/2000/svg" xmlns:xlink="http://www.w3.org/1999/xlink">
    <!-- Generator: sketchtool 60 (101010) - https://sketch.com -->
    <title>AC83A45A-7828-482B-BB90-7B6EF4B5CC25</title>
    <desc>Created with sketchtool.</desc>
    <g id="UI" stroke="none" stroke-width="1" fill="none" fill-rule="evenodd">
        <g id="Lottery-View-All-Ticket" transform="translate(-637.000000, -833.000000)">
            <g id="Group-20-Copy" transform="translate(637.000000, 833.000000)">
                <g id="Group-13">
                    <polygon id="Fill-1" fill="#F7B500" points="28.8971305 3.18308229 51.2533732 3.18308229 51.2533732 6.32868495 57.6569643 6.32868495 57.6569643 9.47428761 63.9481696 9.47428761 63.9481696 12.6198903 67.2060914 12.6198903 67.2060914 16.102517 70.5763325 16.102517 70.5763325 22.2814032 73.4972968 22.2814032 73.4972968 28.9096326 76.8676043 28.9096326 76.8676043 38.3465071 73.7220017 38.3465071 73.7220017 51.0412369 70.4640133 51.0412369 70.4640133 57.4447614 67.3184106 57.4447614 67.3184106 60.7026833 60.8025004 60.7026833 60.8025004 63.8483525 54.5112951 63.8483525 54.5112951 67.21866 25.7515278 67.21866 25.7515278 63.9606717 19.2356176 63.9606717 19.2356176 60.9273882 12.7197074 60.9273882 12.7197074 57.7817855 9.46178554 57.7817855 9.46178554 51.0412369 6.42850208 51.0412369 6.42850208 38.3465071 3.17058022 38.3465071 3.17058022 28.9096326 6.42850208 28.9096326 6.42850208 22.5061081 9.79880964 22.5061081 9.79880964 16.2149027 12.8320266 16.2149027 12.8320266 12.8445952 15.8653101 12.8445952 15.8653101 9.58660682 22.3812203 9.58660682 22.3812203 6.55338986 28.7848113 6.55338986"></polygon>
                    <polygon id="Fill-3" fill="#1D1D1B" points="28.9345436 5.9850374e-05 28.9345436 3.18310224 51.2534131 3.18310224 51.2534131 6.3287049 57.6569377 6.3287049 57.6569377 2.92102411 51.2534131 2.92102411 51.2534131 5.9850374e-05"></polygon>
                    <polygon id="Fill-4" fill="#1D1D1B" points="57.6569244 9.47431421 63.9477972 9.47431421 63.9477972 6.32871155 57.6569244 6.32871155"></polygon>
                    <polygon id="Fill-5" fill="#1D1D1B" points="73.7464672 22.2813965 73.7464672 15.9028096 70.5201995 15.9028096 70.5201995 12.5824439 67.2809643 12.5824439 67.2809643 9.24964256 63.9481629 9.24964256 63.9481629 12.5824439 67.1873982 12.5824439 67.1873982 16.1025104 70.5201995 16.1025104 70.5201995 22.2813965 73.4972901 22.2813965 73.4972901 28.9096259 76.8675977 28.9096259 76.8675977 22.2813965"></polygon>
                    <polygon id="Fill-6" fill="#1D1D1B" points="9.64686284 63.9847182 9.64686284 67.2186334 12.8299052 67.2186334 12.8299052 70.4524156 15.994261 70.4524156 15.994261 73.628409 22.2490906 73.628409 22.2490906 76.8623242 28.784818 76.8623242 28.784818 79.9900382 51.3168213 79.9900382 51.3168213 76.8623242 57.7204123 76.8623242 57.7204123 73.628409 51.184685 73.628409 51.184685 76.7561895 28.784818 76.7561895 28.784818 73.628409 22.5299219 73.628409 22.5299219 70.3945603 16.0637539 70.3945603 16.0637539 67.2186334 12.8807116 67.2186334 12.8807116 63.9847182"></polygon>
                    <polygon id="Fill-7" fill="#1D1D1B" points="22.2977955 3.18308229 22.2977955 6.176 15.9776625 6.176 15.9776625 9.54624106 12.619857 9.54624106 12.619857 12.9165486 9.47425436 12.9165486 9.47425436 15.9747697 6.42853533 15.9747697 6.42853533 22.2494165 3.08316542 22.2494165 3.08316542 28.90265 6.65004156e-06 28.90265 6.65004156e-06 51.1909958 3.17054697 51.1909958 3.17054697 57.6819019 6.41304073 57.6819019 6.41304073 63.9847448 9.64688944 63.9847448 9.64688944 57.5695827 6.54085453 57.5695827 6.54085453 51.0288013 3.17054697 51.0288013 3.17054697 28.90265 6.45347298 28.90265 6.45347298 22.6280033 9.79884289 22.6280033 9.79884289 16.2868562 12.8445619 16.2868562 12.8445619 12.9165486 15.9901646 12.9165486 15.9901646 9.54624106 22.3687515 9.54624106 22.3687515 6.55338986 28.934537 6.55338986 28.934537 3.18308229"></polygon>
                    <polygon id="Fill-8" fill="#1D1D1B" points="76.8676309 28.9096459 76.8676309 51.1535694 73.6967581 51.1535694 73.6967581 57.4822145 70.4266002 57.4822145 70.4266002 60.6568778 67.3268163 60.6568778 67.3268163 67.1624805 64.0813965 67.1624805 64.0813965 70.3946002 57.7204323 70.3946002 57.7204323 73.6283824 64.2561596 73.6283824 64.2561596 70.532788 67.4517041 70.532788 67.4517041 67.2851072 70.6971239 67.2851072 70.6971239 64.1104439 73.7969077 64.1104439 73.7969077 57.7817988 77.0671322 57.7817988 77.0671322 51.1535694 80.237872 51.1535694 80.237872 28.9096459"></polygon>
                    <path d="M76.9414331,38.3464805 L76.9414331,51.153596 L73.6834447,51.153596 L73.6834447,57.5196143 L70.4255229,57.5196143 L70.4255229,60.6590324 L67.3360466,60.6590324 L67.3360466,67.1624406 L64.0781247,67.1624406 L64.0781247,70.3945603 L57.720419,70.3945603 L57.720419,73.6502876 L51.2861047,73.6502876 L51.2861047,76.7561895 L28.7847581,76.7561895 L28.7847581,73.6502876 L22.5299285,73.6502876 L22.5299285,70.3945603 L16.0459385,70.3945603 L16.0459385,67.2186334 L12.8563126,67.2186334 L12.8563126,63.9847182 L9.64686949,63.9847182 L9.64686949,57.788941 L12.8688146,57.788941 L12.8688146,60.9274281 L19.2356309,60.9274281 L19.2356309,63.9847182 L25.7515411,63.9847182 L25.7515411,67.068808 L54.4624971,67.068808 L54.4624971,63.8639534 L60.8202028,63.8639534 L60.8202028,60.6590324 L67.167601,60.6590324 L67.167601,57.4073616 L70.4255229,57.4073616 L70.4255229,51.0412103 L73.6834447,51.0412103 L73.6834447,38.3464805 L76.9414331,38.3464805 Z M9.65047382,51.0287614 L9.65047382,57.600798 L6.42852868,57.600798 L6.42852868,51.0287614 L9.65047382,51.0287614 Z M6.42852868,38.3714048 L6.42852868,51.0287614 L3.17054032,51.0287614 L3.17054032,38.3714048 L6.42852868,38.3714048 Z" id="Combined-Shape" fill="#F78F00"></path>
                    <polygon id="Fill-12" fill-opacity="0.6" fill="#FFFFFF" points="64.0449742 26.5418571 58.7072964 26.5418571 58.7072964 21.5169993 53.4213117 21.5169993 53.4213117 15.969197 26.5826439 15.969197 26.5826439 21.5169993 21.6125228 21.5169993 21.6125228 26.5418571 16.0449742 26.5418571 16.0449742 53.0818886 21.6125228 53.0818886 21.6125228 58.8223142 26.5826439 58.8223142 26.5826439 63.969197 53.4213117 63.969197 53.4213117 58.8223142 58.7072964 58.8223142 58.7072964 53.0818886 64.0449742 53.0818886"></polygon>
                </g>
            </g>
        </g>
    </g>
</svg>