<svg xmlns="http://www.w3.org/2000/svg" width="32" height="32" viewBox="0 0 32 32">
    <defs>
        <linearGradient id="k8jrtj5aoa" x1="-3.357%" x2="99.853%" y1="55.107%" y2="55.107%">
            <stop offset="0%" stop-color="#FF7C32"/>
            <stop offset="100%" stop-color="#EB1B8A"/>
        </linearGradient>
    </defs>
    <g fill="none" fill-rule="evenodd">
        <g>
            <g>
                <g>
                    <path fill="url(#k8jrtj5aoa)" d="M1.047 18.79C4.17 16.29 14.289 7.922 17.518 1.962c.546-1.009 1.79-1.457 2.818-.947 1.55.768 3.002 2.566 2.363 3.786-1.039 1.942-1.435 3.193-.36 4.064 1.763 1.431 2.91.197 3.952-.31.497-.243 1.082-.26 1.586-.03 1.625.74 3.796 2.932 2.41 4.675-1.763 2.213-11.02 13.864-17.703 17.296-2.98 1.761-5.87-2.935-4.02-4.155 1.77-1.725.702-3.395-.156-4.118-.858-.722-2.146-.714-3.682.235-1.535.948-2.032.496-2.89-.317-.242-.228-.527-.447-.8-.668-.853-.692-.847-1.996.01-2.683" transform="translate(-811.000000, -296.000000) translate(781.000000, 230.000000) translate(30.000000, 66.000000)"/>
                    <path fill="#520D0D" d="M26.288 17.037c.166.106.334.212.504.318l-.424.679c-.172-.108-.342-.215-.51-.323l.43-.674zm-1.95-1.29c.313.215.635.432.966.651l-.44.668c-.337-.222-.662-.442-.98-.66l.454-.66zm-1.892-1.357c.302.226.614.455.938.687l-.465.651c-.329-.236-.646-.468-.953-.699l.48-.64zm-1.831-1.437c.29.238.591.481.907.728l-.494.63c-.32-.251-.628-.498-.922-.74l.509-.618zM18.86 11.43c.272.25.561.508.867.772l-.525.605c-.31-.27-.605-.532-.883-.787l.54-.59zm-1.658-1.62c.25.261.52.536.814.823l-.558.573c-.302-.294-.58-.576-.835-.844l.579-.552zm-1.524-1.735c.226.284.476.581.742.883l-.601.528c-.275-.311-.533-.62-.767-.914l.626-.497zm-.983-1.39c.001.002.094.168.301.472l-.66.452c-.232-.34-.337-.53-.341-.538l.7-.386z" transform="translate(-811.000000, -296.000000) translate(781.000000, 230.000000) translate(30.000000, 66.000000)"/>
                    <path fill="#000" fill-opacity=".219" d="M17.485 15.651l-.627 1.621c-.057.147-.038.313.05.443l.98 1.436c.224.328-.026.771-.423.749l-1.735-.096c-.157-.009-.31.06-.406.186l-1.062 1.375c-.244.314-.742.213-.844-.171l-.444-1.68c-.04-.152-.154-.275-.302-.328l-1.636-.586c-.375-.134-.433-.64-.099-.855l1.46-.942c.133-.085.215-.23.22-.389l.051-1.737c.012-.397.474-.608.782-.357l1.348 1.097c.122.1.286.133.437.089l1.668-.488c.382-.112.725.262.582.633" transform="translate(-811.000000, -296.000000) translate(781.000000, 230.000000) translate(30.000000, 66.000000)"/>
                    <path fill="#FFCA96" d="M17.485 15.023l-.627 1.621c-.057.147-.038.313.05.443l.98 1.436c.224.328-.026.771-.423.75l-1.735-.097c-.157-.009-.31.061-.406.186l-1.062 1.375c-.244.314-.742.214-.844-.17l-.444-1.68c-.04-.153-.154-.276-.302-.33l-1.636-.585c-.375-.134-.433-.639-.099-.855l1.46-.942c.133-.085.215-.23.22-.388l.051-1.738c.012-.397.474-.608.782-.357l1.348 1.097c.122.1.286.133.437.089l1.668-.488c.382-.111.725.263.582.633" transform="translate(-811.000000, -296.000000) translate(781.000000, 230.000000) translate(30.000000, 66.000000)"/>
                    <path fill="#F15A24" d="M4.726 22.458c.163-.101.323-.186.48-.266-1.062.202-2.005.351-2.79.46.58.438 1.147.525 2.31-.194" transform="translate(-811.000000, -296.000000) translate(781.000000, 230.000000) translate(30.000000, 66.000000)"/>
                    <path fill="#000" fill-opacity=".153" d="M30.286 13.2c1.055-1.325.051-2.908-1.204-3.918-.073.096-.146.19-.22.29-5.435 7.309-14.901 10.664-21.52 12.174.403.063.763.222 1.066.478.858.722 1.926 2.392.157 4.118-1.852 1.218 1.039 5.915 4.019 4.154 6.683-3.432 15.94-15.083 17.702-17.296" transform="translate(-811.000000, -296.000000) translate(781.000000, 230.000000) translate(30.000000, 66.000000)"/>
                    <g fill="#520D0D">
                        <path d="M6.962 21.21c.643 0 1.22.205 1.704.613.283.237 1.208 1.11 1.254 2.36.03.834-.332 1.624-1.076 2.35l-.06.048c-.633.418-.446 1.468.067 2.29.719 1.15 2.128 2.013 3.53 1.185 4.262-2.19 10.494-8.283 17.569-17.17.351-.442.451-.89.329-1.4-.266-1.11-1.522-2.215-2.568-2.693-.386-.176-.851-.166-1.244.026-.172.084-.352.192-.543.306-.917.552-2.173 1.307-3.838-.044-1.404-1.14-.678-2.81.26-4.564.135-.256.143-.571.025-.935-.275-.847-1.184-1.794-2.213-2.303-.81-.403-1.837-.053-2.288.778-3.27 6.035-13.512 14.5-16.573 16.95-.314.252-.496.628-.497 1.03-.001.402.177.778.489 1.03l.176.142c.218.175.444.356.646.547.815.772 1.12 1.06 2.405.267.875-.54 1.704-.812 2.446-.812m4.258 9.99c-1.263 0-2.39-.854-3.048-1.906-.84-1.348-.782-2.721.139-3.36.559-.553.83-1.132.81-1.722-.034-.922-.751-1.594-.97-1.778-.76-.64-1.9-.544-3.214.268-1.722 1.064-2.405.554-3.376-.366-.177-.168-.38-.331-.596-.504l-.18-.144c-.5-.406-.787-1.008-.785-1.653.002-.647.292-1.25.797-1.653 3.032-2.427 13.172-10.804 16.37-16.707C17.83.45 19.3-.04 20.514.562c1.224.607 2.277 1.721 2.618 2.773.185.568.157 1.106-.079 1.556-1.114 2.083-1.226 2.95-.463 3.569 1.23.997 2.051.503 2.922-.02.197-.12.401-.241.604-.34.615-.3 1.317-.312 1.927-.035 1.25.57 2.686 1.864 3.014 3.234.178.744.02 1.455-.458 2.056-4.16 5.226-11.976 14.394-17.832 17.402-.524.31-1.046.443-1.547.443" transform="translate(-811.000000, -296.000000) translate(781.000000, 230.000000) translate(30.000000, 66.000000) translate(0.000000, 0.094960)"/>
                    </g>
                </g>
            </g>
        </g>
    </g>
</svg>
