<svg xmlns="http://www.w3.org/2000/svg" width="96" height="96"><circle cx="48" cy="48" r="48" fill="#fff"/><path d="M44.329 35.355V21.713H19.093c-.512 0-.853.341-.853.853v19.268c0 .512.341.853.853.853h9.719v35.126c0 .511.341.852.852.852h15.858c.512 0 .853-.34.853-.852V35.355h-2.046z" fill="#29AEFF"/><path d="M61.892 17.28H39.213c-.511 0-.852.34-.852.852V73.38c0 .512.34.853.852.853h15.858c.512 0 .853-.341.853-.853V59.397h6.138c11.596 0 20.974-9.378 20.974-20.973 0-11.766-9.549-21.144-21.144-21.144z" fill="#2761E7"/></svg>