<svg xmlns="http://www.w3.org/2000/svg" width="96" height="96"><path d="M48.005 96.01c26.512 0 48.005-21.493 48.005-48.005C96.01 21.492 74.517 0 48.005 0 21.492 0 0 21.492 0 48.005 0 74.517 21.492 96.01 48.005 96.01z" fill="#3375BB"/><path d="m48.005 22.892 1.313-1.709a2.163 2.163 0 0 0-2.636 0l1.323 1.71zm22.573 6.633h2.153a2.161 2.161 0 0 0-2.153-2.191v2.191zM48.005 75.638l-1.197 1.795a2.143 2.143 0 0 0 2.384 0l-1.187-1.795zM25.45 29.525v-2.162a2.163 2.163 0 0 0-2.153 2.191l2.153-.029zm21.24-4.933c9.772 7.57 20.962 7.086 23.897 7.086v-4.316c-3.041 0-12.783.387-21.241-6.179l-2.655 3.409zm21.744 4.895c-.164 10.002-.59 17.06-1.4 22.283-.811 5.224-1.931 8.275-3.408 10.457-1.478 2.182-3.37 3.601-6.141 5.252-2.771 1.651-6.314 3.486-10.678 6.373l2.433 3.581c4.132-2.751 7.57-4.508 10.495-6.256a22.855 22.855 0 0 0 7.492-6.546c1.931-2.897 3.254-6.759 4.103-12.204.85-5.446 1.284-12.774 1.449-22.873l-4.345-.067zM49.24 73.852c-4.335-2.897-7.87-4.693-10.62-6.363-2.753-1.67-4.645-3.003-6.132-5.262-1.487-2.26-2.694-5.262-3.524-10.457-.83-5.194-1.197-12.28-1.361-22.283l-4.306.067c.164 10.1.608 17.447 1.448 22.873.84 5.426 2.124 9.288 4.094 12.204a22.691 22.691 0 0 0 7.473 6.546c2.896 1.748 6.362 3.505 10.495 6.256l2.433-3.582zM25.45 31.678c2.896 0 14.096.483 23.867-7.087l-2.636-3.408c-8.477 6.566-18.219 6.18-21.241 6.18l.01 4.315z" fill="#fff"/></svg>