<svg xmlns="http://www.w3.org/2000/svg" width="24" height="24"><g fill="none" fill-rule="evenodd"><path fill="#B34100" d="M3.1 0v1.746H1.744V3.26H0v17.249h1.744v1.745H3.1V24h17.503v-1.746h1.356v-1.745H24V3.26h-2.041V1.746h-1.356V0z"/><path fill="#E06F00" d="M1 4.333h1.778V2.785H4.16V1h15.378v1.785h1.381v1.548H23v15.098h-2.081v1.784h-1.381V23H4.16v-1.785H2.778v-1.784H1z"/><g fill="#FFF" fill-rule="nonzero" stroke="#231F20" stroke-width=".3"><path d="M19 7.718c0-1.071 0-.842-.916-.842-2.963 0-4.558 1.09-5.382 1.86a.83.83 0 0 0-.264.606v8.923c0 .349.41.547.695.336.92-.684 2.478-1.384 5.046-1.508a.852.852 0 0 0 .821-.841V7.718zM5.82 17.093c2.568.123 4.126.822 5.047 1.507.284.212.696.014.696-.336V9.342a.83.83 0 0 0-.265-.606c-.824-.77-2.42-1.7-5.381-1.86A.856.856 0 0 0 5 7.718v8.535c0 .446.36.819.82.84z"/></g></g></svg>