<svg xmlns="http://www.w3.org/2000/svg" width="24" height="24"><g fill="none" fill-rule="evenodd"><path fill="#BB341C" d="M3.1 0v1.746H1.744V3.26H0v17.249h1.744v1.745H3.1V24h17.503v-1.746h1.356v-1.745H24V3.26h-2.041V1.746h-1.356V0z"/><path fill="#EA4E32" d="M1 4.333h1.778V2.785H4.16V1h15.378v1.785h1.381v1.548H23v15.098h-2.081v1.784h-1.381V23H4.16v-1.785H2.778v-1.784H1z"/><path d="M10.238 15.076c-.23-.038-.43-.07-.628-.104-.613-.107-1.202-.29-1.749-.606a3.488 3.488 0 0 1-1.581-1.907 5.993 5.993 0 0 1-.267-3.045 3.457 3.457 0 0 1 .79-1.669c.075-.091.084-.163.05-.276-.243-.79-.17-1.567.105-2.33.02-.058.123-.125.18-.12.254.028.511.056.755.128.572.167 1.08.48 1.58.805.07.045.177.065.255.045a8.683 8.683 0 0 1 4.427-.003c.138.036.24.01.355-.07.559-.38 1.14-.725 1.802-.853.72-.14.615-.122.78.502.171.65.168 1.303-.03 1.95a.225.225 0 0 0 .035.175c.735.883.975 1.918.885 3.065-.049.625-.143 1.237-.377 1.816-.483 1.195-1.381 1.875-2.542 2.205-.44.126-.895.2-1.355.301.05.063.108.129.159.2.275.383.418.822.425 1.295.016.965.008 1.93.004 2.896 0 .226.05.411.273.524H9.27c.34-.082.367-.337.358-.625-.012-.427-.01-.855-.013-1.283v-.181c-.274.03-.527.07-.781.086-.539.031-1.058-.055-1.532-.344-.406-.247-.7-.6-.876-1.058-.237-.613-.569-1.147-1.126-1.497a.998.998 0 0 1-.223-.203c-.123-.144-.1-.265.079-.285.208-.023.432-.022.633.034.49.14.835.495 1.097.938.276.467.632.831 1.15.98.529.152 1.04.063 1.536-.15a.166.166 0 0 0 .084-.1c.081-.459.238-.878.582-1.236" fill="#FFF" stroke="#231F20" stroke-width=".4"/></g></svg>