<svg xmlns="http://www.w3.org/2000/svg" width="24" height="24"><g fill="none" fill-rule="evenodd"><path fill="#212222" d="M3.1 0v1.746H1.744V3.26H0v17.249h1.744v1.745H3.1V24h17.503v-1.746h1.356v-1.745H24V3.26h-2.041V1.746h-1.356V0z"/><path fill="#2D2D2D" d="M1 4.333h1.778V2.785H4.16V1h15.378v1.785h1.381v1.548H23v15.098h-2.081v1.784h-1.381V23H4.16v-1.785H2.778v-1.784H1z"/><g fill="#FFF" fill-rule="nonzero" stroke="#231F20" stroke-width=".3"><path d="M18.723 6.51 20 5.288v-.267h-4.423l-3.152 7.845L8.84 5.021H4.202v.267l1.491 1.795a.623.623 0 0 1 .202.522v7.056a.804.804 0 0 1-.215.7L4 17.397v.264h4.763v-.268l-1.68-2.032a.829.829 0 0 1-.231-.7V8.558l4.181 9.106h.486l3.596-9.106v7.254c0 .192 0 .23-.126.356l-1.293 1.252v.268h6.275v-.268l-1.247-1.22a.371.371 0 0 1-.143-.356V6.865a.368.368 0 0 1 .142-.355z"/></g></g></svg>