<svg xmlns="http://www.w3.org/2000/svg" width="24" height="24"><g fill="none" fill-rule="evenodd"><path fill="#0080AB" d="M3.1 0v1.746H1.744V3.26H0v17.249h1.744v1.745H3.1V24h17.503v-1.746h1.356v-1.745H24V3.26h-2.041V1.746h-1.356V0z"/><path fill="#1386D3" d="M1 4.333h1.778V2.785H4.16V1h15.378v1.785h1.381v1.548H23v15.098h-2.081v1.784h-1.381V23H4.16v-1.785H2.778v-1.784H1z"/><path d="m8.846 16.245.04-.004c.053-.653.11-1.305.157-1.958.017-.233.08-.43.244-.59.567-.556 1.129-1.119 1.693-1.678l3.034-3.012c.204-.202.408-.406.607-.615.03-.032.046-.1.04-.147-.003-.02-.083-.054-.116-.042-.135.05-.276.096-.395.178-1.414.976-2.825 1.958-4.238 2.94-.631.437-1.262.876-1.895 1.312-.132.09-.202.193-.137.374.063.174.11.355.162.533l.804 2.71M17 6.905l-.253 1.33c-.571 2.962-1.142 5.925-1.716 8.886a2.35 2.35 0 0 1-.14.494c-.142.334-.399.458-.714.34a1.618 1.618 0 0 1-.45-.257c-.861-.694-1.717-1.398-2.575-2.097-.217-.178-.235-.176-.428.031-.417.448-.83.902-1.256 1.34-.116.119-.263.22-.412.276-.292.11-.478-.013-.573-.335-.353-1.193-.71-2.385-1.053-3.581-.069-.241-.19-.367-.407-.438-.834-.274-1.665-.563-2.496-.852a1.41 1.41 0 0 1-.355-.179c-.195-.139-.236-.386-.06-.548.186-.173.404-.321.63-.42 1.034-.454 2.076-.887 3.115-1.328l8.141-3.455.11-.047c.533-.208.9.083.892.84" fill="#FFF" stroke="#231F20" stroke-width=".3"/></g></svg>