<svg xmlns="http://www.w3.org/2000/svg" xmlns:xlink="http://www.w3.org/1999/xlink" width="24" height="24"><defs><path id="a" d="M.012.005h4.452V.5H.012z"/><path id="c" d="M.012.011h1.337v.886H.012z"/><path id="e" d="M.013.006h.472v.482H.013z"/></defs><g fill="none" fill-rule="evenodd"><path fill="#0074B3" d="M3.1 0v1.746H1.744V3.26H0v17.249h1.744v1.745H3.1V24h17.503v-1.746h1.356v-1.745H24V3.26h-2.041V1.746h-1.356V0z"/><path fill="#00A7E0" d="M1 4.333h1.778V2.785H4.16V1h15.378v1.785h1.381v1.548H23v15.098h-2.081v1.784h-1.381V23H4.16v-1.785H2.778v-1.784H1z"/><g transform="translate(7.54 18.448)"><mask id="b" fill="#fff"><use xlink:href="#a"/></mask><path fill="#231F20" d="M4.462.007V.5H.014V.006L.012.01C.028.008.044.005.06.005h4.134c.09 0 .18.003.27.004L4.462.007z" mask="url(#b)"/></g><path fill="#231F20" d="M10.223 9.575h1.776v-1.78h.45l-.002-.002.002 2.173c0 .015-.005.03-.009.047h-2.215v-.44l-.002.002zM4.44 10.908H4V9.58h.885v-.452l-.003.003h.45v.89h.437v.438h-.89v-.432h-.441v.884l.003-.003zm14.218-1.78v3.115h-.445l.002.003c-.001-.01-.004-.02-.004-.029V9.209c.001-.024.006-.049.01-.078h.44l-.003-.003zM14.21 6.46v-.439h2.223v.439l.002-.002h-2.228zm5.338.444v.891l.002-.002h-.447v.447l.002-.002h-.885v-.45h.44v-.442h.445v-.443l-.002.002h.447l-.002-.001zM7.555 18.454h-1.78v-.445l-.003.002h1.78v.445zm-2.67-1.334v-.445h1.78l-.003-.002v.438c-.021.005-.03.01-.04.01l-1.74-.003.003.003zm2.224-1.781H5.775v-.445l-.003.002h.45v-.442h.446v.443h.439v.444z"/><g transform="translate(18.2 6.008)"><mask id="d" fill="#fff"><use xlink:href="#c"/></mask><path fill="#231F20" d="M.014.897V.454h.889V.011h.444v.441L1.349.45H.902v.447L.904.895H.012l.002.002z" mask="url(#d)"/></g><path fill="#231F20" d="M16.878 6.906h1.337l-.003-.003v.44H16.88v-.44l-.002.003zM6.664 16.675v-.444h1.335l-.002-.003v.445H6.662zM4.44 8.683H4V7.35h.44l-.003-.002v1.338l.002-.003zm13.328 4.431v1.335h-.445l.002.002v-1.335h.445zm-11.549.447v-.443h-.444v-.449l-.003.002h.885v.888h-.44zM8.888 9.13h1.335v.445l.002-.002H8.89v-.445z"/><path fill="#231F20" d="M7.553 8.685h1.335v.445l.002-.002H7.555v-.445zm5.765 9.324v.445h-1.315l.002.002v-.445h1.315l-.002-.002zM5.33 12.243h-.445v-.89l-.003.003c.126-.001.251-.001.377-.005.054-.001.072.02.072.074-.003.273-.003.547-.004.82l.003-.002zM4.44 7.35v-.889h.445l-.003-.003v.89h-.445zm9.768 10.214v.445h-.89l.002.002v-.445h.89zm-8.433.445h-.89v-.445l-.003.002h.89v.445z"/><path fill="#231F20" d="M15.098 17.119v.445h-.89l.002.002v-.445h.89zm-7.099-.888L8 15.784l-.003.002h.885v.442h-.885z"/><path fill="#231F20" d="M8 15.784h-.891v-.445l-.002.002h.89v.445zm9.323-1.335v.89h-.445l.002.002v-.89h.445zM13.32 6.905V6.46h.89l-.003-.002v.445h-.889zM5.328 13.56h.891l-.002-.001v.445h-.89l.003.002v-.447l-.002.002zm12.885-1.317v.871h-.445l.002.002v-.87h.445z"/><path fill="#231F20" d="M12.875 7.35v-.445h.445l-.002-.002v.445h-.445zm-7.99 4.003H4.44v-.445l-.003.003h.445v.445l.003-.003zm1.333-4.002h.444v.444l.003-.002H6.22v-.445zm-1.334 6.653h-.438v-.443h.438l-.002-.003v.448zM16.433 6.46h.445v.446l.002-.003h-.445v-.445z"/><path fill="#231F20" d="M5.33 14.449h-.447v-.445l-.002.002h.448l-.002-.002v.447l.001-.002z"/><path fill="#231F20" d="M5.775 14.894h-.446v-.445l-.002.002h.445v.445zm.887-7.099h.446v.445l.002-.002h-.445v-.445zm12.441.889v.444h-.445l.002.003v-.445h.445zm-2.225 6.655v.445h-.445l.002.002v-.445h.445z"/><g transform="translate(19.536 6.453)"><mask id="f" fill="#fff"><use xlink:href="#e"/></mask><path fill="#231F20" d="M.013.008h.472v.477H.013l.002.003V.006z" mask="url(#f)"/></g><path fill="#231F20" d="M16.433 15.784v.445h-.445l.002.002v-.445h.445zM5.773 6.905h.445v.446l.002-.003h-.445v-.445z"/><path fill="#231F20" d="M15.988 16.229v.445h-.445l.002.002v-.445h.445zM5.328 6.46h.445v.446l.002-.003H5.33v-.445z"/><path fill="#231F20" d="M15.543 16.674v.445h-.445l.002.002v-.445h.445zm-10.658.89h-.44v-.443h.44l-.003-.003v.448l.003-.002zm0-8.436h-.446v-.445l-.002.003h.445v.445zm14.663-.889v.445h-.445l.002.002v-.448l-.002.002h.447l-.002-.001zm-12.44.001h.445v.445l.002-.002H7.11v-.445z"/><path fill="#231F20" d="M19.548 7.795h.438v.444h-.438l.002.002v-.448zM4.885 6.46v-.437h.443v.437l.002-.002h-.448l.003.003zm-.001 7.1v-.438h.444v.439l.002-.002h-.448l.002.002zm.891-.891H5.33v-.426l-.003.003h.445v.425zm6.674-4.874V7.35h.426l-.002-.002v.445h-.426z"/><path fill="#FEFEFE" d="M12.447 7.793h.426v-.445h.445v-.445h.89v-.445h2.227v.445h.445v.44h1.332v-.44h.893v.443h-.446v.442h-.439v.45h.885v.448h-.445v.445h-.44c-.003.03-.008.054-.008.078v3.008c0 .01.002.019.003.029h-.445v.87h-.445v1.335h-.445v.89h-.445v.445h-.445v.445h-.445v.445H15.1v.445h-.89v.445h-.89v.445h-1.315v.445l-.27-.003H7.6l-.048.003v-.445h-1.78v-.445h-.89v-.448l1.74.003c.01 0 .019-.005.04-.01v-.438h1.335v-.445h.885v-.442h-.885v-.445h-.89v-.444h-.439v-.443h-.446v.442h-.45v-.445h-.445v-.447h.89v-.445h.44v-.889h-.885v-.425h-.445c.001-.274.001-.548.004-.821 0-.054-.018-.075-.072-.074-.126.004-.251.004-.377.005v-.445h-.445v-.884h.443v.432h.889v-.438h-.437v-.89h-.45v-.445h-.445V7.348h.445v-.89h.448v.445h.445v.445h.445v.445h.445v.445h.445v.445h.445v.445H8.89v.445h1.335v.44h2.215c.004-.016.01-.032.01-.047l-.003-2.173"/><path fill="#FEFEFE" d="M19.55 7.793v.448h-.447v-.448h.447zm0-1.335v.448h-.447v-.449h.447zm-14.668 7.1h.448v.448h-.448v-.448z"/></g></svg>